<?xml version="1.0" encoding="UTF-8" standalone="no"?>
<!-- Created with Inkscape (http://www.inkscape.org/) -->

<svg
   width="85.576065mm"
   height="13.481213mm"
   viewBox="0 0 85.576065 13.481213"
   version="1.1"
   id="svg5"
   xmlns="http://www.w3.org/2000/svg"
   xmlns:svg="http://www.w3.org/2000/svg">
  <defs
     id="defs2" />
  <g
     id="layer1"
     transform="translate(-88.387368,-63.111054)">
    <g
       id="g854"
       transform="translate(0.54126473,3.5182207)">
      <path
         style="fill:#625e59;stroke-width:0.0846667"
         d="m 88.602172,72.884625 c -0.200825,-0.07308 -0.592667,-0.468281 -0.592667,-0.597756 0,-0.06471 0.0977,-0.0015 0.217109,0.140364 0.280517,0.333375 0.725547,0.461077 1.15667,0.33191 0.434825,-0.130277 1.245347,-0.946551 1.555263,-1.566302 0.135277,-0.270518 0.30828,-0.538688 0.384451,-0.595934 0.07617,-0.05725 0.164257,-0.206741 0.195748,-0.332211 0.03149,-0.125469 0.131094,-0.321997 0.221341,-0.436727 0.09025,-0.11473 0.164085,-0.241232 0.164085,-0.281116 0,-0.03988 0.13335,-0.247214 0.296333,-0.460733 0.162984,-0.21352 0.296334,-0.439031 0.296334,-0.501134 0,-0.173473 0.439685,-0.805447 0.560376,-0.805447 0.190903,0 0.209256,0.15235 0.0837,0.694797 -0.319688,1.381153 -0.255454,2.074006 0.214827,2.317198 0.208504,0.107821 0.306173,0.112902 0.564448,0.02936 0.314829,-0.101834 0.609668,-0.353754 1.998822,-1.707855 0.418006,-0.407458 0.807371,-0.740833 0.865255,-0.740833 0.283784,0 0.182391,0.405998 -0.266642,1.067685 -0.389554,0.57404 -0.566704,1.031696 -0.506121,1.307529 0.03152,0.143492 0.106978,0.279957 0.167694,0.303255 0.08996,0.03452 0.552842,-0.371492 1.016641,-0.891739 0.04657,-0.05223 0.522816,-0.517786 1.058333,-1.034559 0.998629,-0.963675 1.586939,-1.429505 1.805368,-1.429505 0.16128,0 0.23992,0.213912 0.17448,0.474625 -0.0286,0.113943 -0.0247,0.498736 0.009,0.855096 0.052,0.554555 0.0951,0.682345 0.29956,0.88677 0.38977,0.389764 0.75922,0.336868 1.25074,-0.179076 1.74031,-1.826791 2.85125,-2.884081 3.03042,-2.884081 0.26494,0 0.10863,0.479994 -0.40854,1.254517 -0.2795,0.41859 -0.42729,0.998001 -0.31031,1.21658 0.0821,0.15339 0.4149,0.218335 0.4149,0.08096 0,-0.03993 0.44229,-0.506657 0.98288,-1.037167 0.54058,-0.530509 1.08851,-1.106917 1.21762,-1.280907 0.34347,-0.462857 1.09777,-1.00691 1.3555,-0.97767 0.20977,0.0238 0.21204,0.03298 0.254,1.026301 0.041,0.969901 0.05,1.008886 0.27988,1.2065 0.38666,0.332387 0.77123,0.28104 1.16551,-0.155619 0.17871,-0.197909 0.42237,-0.455084 0.54148,-0.5715 0.98988,-0.967516 1.34037,-1.448544 1.1751,-1.612775 -0.0796,-0.07906 -0.88445,0.660373 -1.46016,1.341427 -0.66277,0.784053 -0.93432,0.535544 -0.77015,-0.704815 0.12895,-0.974245 0.042,-1.333651 -0.35601,-1.472413 -0.40848,-0.142399 -1.03351,0.221054 -1.91749,1.115016 -0.40287,0.407426 -0.78132,0.740801 -0.84099,0.740834 -0.15374,8.4e-5 -0.20668,-0.188259 -0.11931,-0.424438 0.26586,-0.718709 -0.68853,-1.275431 -1.03567,-0.604132 -0.0679,0.131405 -0.26867,0.348593 -0.44604,0.482641 -0.17737,0.134048 -0.57014,0.494238 -0.87282,0.800423 -0.30268,0.306184 -0.65662,0.623709 -0.78651,0.705609 -0.1299,0.0819 -0.2987,0.28001 -0.37511,0.440242 -0.0764,0.160231 -0.20828,0.313343 -0.29304,0.340246 -0.0848,0.0269 -0.25387,0.179689 -0.37578,0.339525 -0.12191,0.159835 -0.29246,0.29061 -0.37899,0.29061 -0.23228,0 -0.44722,-0.374336 -0.37686,-0.656324 0.0319,-0.127972 0.0985,-0.487273 0.14798,-0.798446 0.0797,-0.501586 0.0718,-0.596575 -0.0694,-0.837321 -0.0876,-0.149353 -0.24328,-0.302454 -0.34591,-0.340224 -0.35184,-0.129491 -1.289098,0.49483 -2.267589,1.510481 -0.497612,0.51651 -0.62694,0.485757 -0.608538,-0.144708 0.0162,-0.555191 -0.0762,-0.71434 -0.470945,-0.811107 -0.196184,-0.04809 -0.253513,-0.01873 -0.374265,0.191664 -0.07843,0.13665 -0.240875,0.31197 -0.360996,0.389599 -0.505723,0.326827 -0.860133,0.626016 -1.082405,0.913753 -0.130165,0.168502 -0.389063,0.414407 -0.57533,0.546455 -0.186267,0.132048 -0.48478,0.403758 -0.663362,0.603799 -0.178583,0.200042 -0.397658,0.363712 -0.486834,0.363712 -0.135453,0 -0.162137,-0.06202 -0.162137,-0.376833 0,-0.586741 0.268863,-1.81847 0.449122,-2.05754 0.04398,-0.05832 0.128841,-0.325022 0.188592,-0.592667 0.109786,-0.491767 0.274187,-1.050055 0.659482,-2.239538 0.217913,-0.67274 0.208707,-0.734331 -0.127626,-0.853881 -0.236718,-0.08414 -0.541728,0.240181 -0.797438,0.847933 -0.132721,0.315439 -0.289795,0.623872 -0.349055,0.685407 -0.05926,0.06153 -0.107744,0.161644 -0.107744,0.222466 0,0.06082 -0.05341,0.154913 -0.118693,0.209092 -0.06528,0.05418 -0.144306,0.201719 -0.17561,0.327867 -0.0313,0.126148 -0.124796,0.305561 -0.207761,0.398694 -0.08296,0.09313 -0.223015,0.301266 -0.311223,0.462517 -0.08821,0.16125 -0.36993,0.587862 -0.626046,0.948025 -0.256117,0.360163 -0.579967,0.849155 -0.719667,1.086647 -0.448022,0.761646 -0.96277,1.46628 -1.531148,2.095978 -0.478409,0.530021 -0.59286,0.613833 -0.838229,0.613833 -0.243219,0 -0.290314,-0.03355 -0.326815,-0.232833 -0.08157,-0.445356 -0.05472,-1.004492 0.07152,-1.48914 0.06986,-0.268192 0.127009,-0.552742 0.127009,-0.632332 0,-0.07959 0.09033,-0.315856 0.20073,-0.525036 0.110402,-0.209179 0.230268,-0.475576 0.266369,-0.591992 0.0361,-0.116417 0.155323,-0.353785 0.264937,-0.527485 0.109614,-0.173699 0.199298,-0.377767 0.199298,-0.453482 0,-0.07572 0.107809,-0.276498 0.239577,-0.446183 0.131768,-0.169684 0.419897,-0.651417 0.640288,-1.070517 0.410923,-0.781421 0.97058,-1.651 1.062575,-1.651 0.02839,0 0.238693,-0.24765 0.467329,-0.550334 0.228636,-0.302683 0.457547,-0.550333 0.508692,-0.550333 0.05114,0 0.301238,-0.212573 0.555764,-0.472386 0.451429,-0.460804 0.964783,-0.797614 1.215696,-0.797614 0.290092,0 0.22253,0.64475 -0.112146,1.070221 -0.22151,0.281605 -0.229238,0.538446 -0.0162,0.538446 0.212187,0 0.503905,-0.682891 0.572639,-1.340506 0.04643,-0.444249 0.03103,-0.521591 -0.13749,-0.690106 -0.428869,-0.428869 -1.21912,0.01932 -2.753056,1.561393 -0.584831,0.587933 -0.899059,0.943253 -1.912454,2.162552 -0.338198,0.406913 -1.43391,2.503117 -1.637484,3.132667 -0.112936,0.34925 -0.26988,0.76246 -0.348765,0.918246 -0.07888,0.155786 -0.17217,0.479636 -0.207299,0.719667 -0.04665,0.318763 -0.06925,0.367943 -0.08381,0.18242 -0.03496,-0.445477 0.0076,-0.667122 0.211383,-1.100666 0.109438,-0.232834 0.243777,-0.601084 0.298532,-0.818333 0.115421,-0.457955 1.294019,-2.662892 1.689639,-3.161001 0.341787,-0.430329 1.643292,-1.922354 2.032589,-2.330128 0.34989,-0.366496 1.082967,-0.962621 1.585684,-1.289449 0.44775,-0.291093 1.017986,-0.320512 1.249697,-0.06448 0.222906,0.246308 0.138799,1.374632 -0.140245,1.881444 -0.242818,0.441017 -0.526789,0.527003 -0.673929,0.204064 -0.08442,-0.185279 -0.06241,-0.267154 0.168514,-0.627027 0.421583,-0.65698 0.332449,-0.908699 -0.218318,-0.616538 -0.392814,0.208372 -1.59527,1.368828 -2.225403,2.147673 -0.256117,0.31656 -0.675217,0.968476 -0.931334,1.448702 -0.256116,0.480226 -0.570441,1.009255 -0.6985,1.17562 -0.128058,0.166366 -0.232833,0.362932 -0.232833,0.436814 0,0.07388 -0.09567,0.285886 -0.212604,0.471119 -0.116933,0.185232 -0.273306,0.517851 -0.347496,0.739151 -0.07419,0.2213 -0.188069,0.462513 -0.253063,0.53603 -0.06499,0.07352 -0.11817,0.236666 -0.11817,0.362553 0,0.125888 -0.05715,0.365665 -0.127,0.53284 -0.168516,0.403313 -0.172133,1.495083 -0.0054,1.633449 0.318764,0.264551 1.133344,-0.681306 2.587745,-3.004783 0.256117,-0.409159 0.589492,-0.89366 0.740834,-1.076669 0.151341,-0.18301 0.275536,-0.376765 0.275988,-0.430567 4.49e-4,-0.0538 0.133802,-0.26511 0.296333,-0.469571 0.162531,-0.204462 0.295512,-0.440339 0.295512,-0.52417 0,-0.08383 0.04008,-0.177194 0.08907,-0.207472 0.04899,-0.03028 0.264371,-0.423051 0.478625,-0.87283 0.532752,-1.118395 0.65719,-1.283447 0.967633,-1.283447 0.358223,0 0.581335,0.142489 0.581335,0.371264 0,0.107785 -0.176571,0.72557 -0.39238,1.372855 -0.21581,0.647285 -0.421334,1.348332 -0.45672,1.557882 -0.03539,0.20955 -0.163829,0.615904 -0.285428,0.90301 -0.253143,0.597696 -0.411097,1.855865 -0.22521,1.793902 0.12171,-0.04057 0.6923,-0.544236 1.520592,-1.342246 0.31417,-0.302683 0.730894,-0.664633 0.926054,-0.804333 0.19516,-0.1397 0.412422,-0.358775 0.482806,-0.486833 0.102257,-0.186054 0.188187,-0.232834 0.427693,-0.232834 0.16485,0 0.372127,0.03875 0.460617,0.08611 0.193791,0.103713 0.361702,0.670915 0.286874,0.969054 -0.02966,0.118162 -0.04027,0.214637 -0.02358,0.21439 0.01669,-2.54e-4 0.316095,-0.270665 0.665345,-0.600929 0.34925,-0.330264 0.859982,-0.749161 1.13496,-0.930884 0.63384,-0.418879 0.9617,-0.436919 1.27052,-0.06991 0.25063,0.297859 0.28095,0.683332 0.12443,1.582118 -0.0814,0.467278 -0.0759,0.562978 0.0385,0.677415 0.12124,0.12124 0.1699,0.09993 0.53926,-0.236184 0.2233,-0.203197 0.46511,-0.478233 0.53735,-0.611191 0.0722,-0.132958 0.24369,-0.315297 0.381,-0.405199 0.13731,-0.0899 0.4974,-0.402331 0.8002,-0.694289 0.3028,-0.291958 0.70285,-0.668637 0.889,-0.837064 0.18615,-0.168427 0.4069,-0.406552 0.49057,-0.529167 0.12462,-0.182632 0.21791,-0.222936 0.51604,-0.222936 0.46964,0 0.65566,0.199523 0.70962,0.761143 0.0224,0.233305 0.0612,0.424191 0.0862,0.424191 0.025,0 0.34339,-0.30122 0.70761,-0.669379 1.057,-1.068412 1.77712,-1.358657 2.23497,-0.900803 0.17811,0.178104 0.2071,0.28403 0.20278,0.740833 -0.003,0.293159 -0.0367,0.723516 -0.0753,0.956349 -0.0702,0.423149 0.002,0.719667 0.17417,0.719667 0.0483,0 0.22742,-0.161925 0.39795,-0.359834 0.49001,-0.568649 1.57209,-1.57779 1.64411,-1.533278 0.036,0.02224 0.0654,0.183177 0.0654,0.357635 0,0.259284 -0.0843,0.419414 -0.46182,0.877075 -0.254,0.307933 -0.54016,0.584746 -0.63593,0.61514 -0.0958,0.03039 -0.22759,0.157337 -0.29296,0.282095 -0.21825,0.416558 -0.68163,0.787334 -1.04486,0.836053 -0.29988,0.04022 -0.37638,0.01161 -0.65728,-0.24581 -0.3179,-0.291331 -0.3179,-0.291331 -0.32708,-1.216371 -0.009,-0.865433 -0.0204,-0.926644 -0.18328,-0.949951 -0.23234,-0.03325 -0.68957,0.340999 -1.56464,1.28069 -1.17181,1.258329 -2.02422,2.088556 -2.14436,2.088556 -0.0617,0 -0.18031,-0.07524 -0.26353,-0.167199 -0.23886,-0.263936 -0.11242,-0.939735 0.28509,-1.523795 0.17519,-0.257403 0.34128,-0.556199 0.36909,-0.66399 0.05,-0.19373 0.048,-0.194307 -0.17577,-0.05018 -0.12449,0.08019 -0.69706,0.625583 -1.27239,1.211984 -0.57532,0.586399 -1.20293,1.226191 -1.39469,1.42176 -0.42143,0.429801 -0.84841,0.540942 -1.22456,0.318744 -0.38267,-0.226051 -0.45755,-0.428804 -0.50553,-1.368908 -0.0246,-0.482322 -0.0776,-0.897237 -0.11771,-0.922035 -0.04012,-0.0248 -0.196517,0.03919 -0.347541,0.142202 -0.273899,0.186818 -1.700851,1.555205 -2.751515,2.638585 -0.304832,0.314325 -0.599748,0.5715 -0.655369,0.5715 -0.201237,0 -0.381372,-0.310474 -0.381372,-0.657321 0,-0.396889 0.07115,-0.585229 0.423334,-1.120679 0.310768,-0.472477 0.444124,-0.769595 0.375779,-0.837242 -0.02876,-0.02847 -0.134601,0.04637 -0.235202,0.166295 -0.100601,0.119929 -0.640111,0.635747 -1.198911,1.146262 -1.131191,1.033447 -1.490197,1.220855 -1.916458,1.000427 -0.451072,-0.233259 -0.527674,-0.457548 -0.469322,-1.374171 0.02875,-0.45168 0.09117,-0.953051 0.138711,-1.114156 0.143745,-0.487157 -0.03583,-0.461816 -0.29021,0.04095 -0.13129,0.259492 -0.347537,0.622035 -0.480549,0.805652 -0.133011,0.183616 -0.241838,0.356744 -0.241838,0.384727 0,0.02798 -0.0762,0.147752 -0.169334,0.266151 -0.09313,0.1184 -0.169333,0.286334 -0.169333,0.373188 0,0.08685 -0.06876,0.226676 -0.152801,0.310717 -0.08404,0.08404 -0.29391,0.405127 -0.466377,0.713527 -0.31395,0.561395 -1.097729,1.361136 -1.481834,1.512011 -0.21101,0.08289 -0.740312,0.09262 -0.946988,0.01741 z m 40.858038,-0.156854 c -0.059,-0.234942 0.15354,-0.916504 0.55665,-1.785337 0.13272,-0.286057 0.24131,-0.549757 0.24131,-0.586 0,-0.03624 0.0522,-0.126045 0.11606,-0.199562 0.0638,-0.07352 0.19932,-0.387958 0.3011,-0.698759 0.10178,-0.3108 0.24284,-0.613051 0.31346,-0.671666 0.0706,-0.05862 0.24116,-0.337725 0.37895,-0.620241 0.1378,-0.282517 0.36758,-0.716576 0.51062,-0.964577 0.14305,-0.248 0.34932,-0.678609 0.45838,-0.956908 0.16478,-0.420457 0.17777,-0.513881 0.0768,-0.552619 -0.16318,-0.06262 -1.43248,0.738332 -2.16759,1.36777 -0.3263,0.2794 -0.74849,0.622818 -0.9382,0.763152 -0.18971,0.140333 -0.37733,0.321308 -0.41693,0.402166 -0.0396,0.08086 -0.10448,0.213691 -0.14417,0.295182 -0.0501,0.102775 -0.19272,0.156072 -0.46567,0.173972 -0.39349,0.02581 -0.39349,0.02581 -0.39349,-0.256327 0,-0.155174 0.0568,-0.363224 0.12621,-0.462334 0.13406,-0.19139 1.08752,-0.873477 1.221,-0.873477 0.0435,0 0.20362,-0.104775 0.35577,-0.232834 0.26727,-0.224948 0.47195,-0.368362 1.74563,-1.22314 1.3865,-0.930497 2.1221,-1.13631 2.47191,-0.691608 0.0965,0.122696 0.17548,0.315555 0.17548,0.428576 0,0.259694 -0.37873,1.076453 -0.67932,1.465006 -0.20245,0.261695 -1.09868,2.081065 -1.09868,2.230344 0,0.0316 0.1905,-0.152908 0.42333,-0.410011 0.23283,-0.257103 0.42333,-0.511067 0.42333,-0.564365 0,-0.0533 0.17092,-0.271969 0.37982,-0.485937 0.65409,-0.669965 1.31352,-1.417456 1.31352,-1.488942 0,-0.07144 0.50282,-0.668354 1.01951,-1.210269 0.16491,-0.172968 0.56362,-0.516265 0.88602,-0.762883 0.53456,-0.408912 0.61993,-0.446189 0.96949,-0.423334 0.32663,0.02136 0.40037,0.06083 0.49875,0.266928 0.1558,0.326386 0.002,1.406709 -0.25122,1.761998 -0.21113,0.296504 -0.15452,0.423641 0.0675,0.151713 0.41998,-0.514263 1.64595,-1.886593 2.17881,-2.438908 1.00492,-1.041616 1.88919,-1.401594 2.21637,-0.902259 0.25082,0.382808 0.13384,1.225627 -0.29058,2.093593 -0.19866,0.406268 -0.39444,0.759212 -0.43507,0.784321 -0.13039,0.08059 -1.1992,2.181876 -1.42166,2.795011 -0.21553,0.594051 -0.25237,1.034343 -0.14357,1.716092 0.0726,0.454897 -0.0465,0.612241 -0.46353,0.612241 -0.2367,0 -0.39939,-0.07389 -0.66697,-0.302931 -0.32557,-0.27868 -0.3539,-0.335961 -0.3539,-0.715535 0,-0.374684 0.13694,-1.043889 0.30269,-1.479201 0.0355,-0.09313 0.17859,-0.337639 0.31805,-0.543346 0.13946,-0.205706 0.3763,-0.665013 0.5263,-1.020682 0.34701,-0.822794 0.67752,-1.477045 0.96351,-1.907305 0.2697,-0.405728 0.45217,-0.809833 0.39259,-0.869415 -0.0809,-0.08092 -0.62485,0.399985 -1.33185,1.177549 -0.3881,0.426828 -0.8866,0.965632 -1.10779,1.197343 -0.2212,0.23171 -0.40217,0.454384 -0.40217,0.49483 0,0.04045 -0.12785,0.216523 -0.28412,0.391282 -0.15626,0.174759 -0.3316,0.408242 -0.38965,0.518851 -0.0581,0.110608 -0.235,0.370701 -0.39322,0.577985 -0.15822,0.207283 -0.28768,0.422779 -0.28768,0.478881 0,0.176148 -0.80457,0.954453 -1.08925,1.053693 -0.23568,0.08216 -0.29483,0.07192 -0.44353,-0.07678 -0.19563,-0.195634 -0.18498,-0.300849 0.14165,-1.398528 0.11254,-0.378204 0.26179,-0.735094 0.33167,-0.793088 0.16745,-0.138967 0.63613,-0.961668 0.63613,-1.116626 0,-0.06678 0.0952,-0.250516 0.21167,-0.40831 0.22113,-0.299733 0.27245,-0.508 0.12518,-0.508 -0.18636,0 -1.18639,0.880673 -2.08307,1.834463 -1.15705,1.230739 -1.97568,2.164505 -1.97764,2.255783 -8.5e-4,0.03772 -0.13482,0.243223 -0.29781,0.456675 -0.16298,0.213454 -0.29633,0.431682 -0.29633,0.484953 0,0.05327 -0.11275,0.228767 -0.25056,0.389991 -0.13781,0.161225 -0.25211,0.327716 -0.254,0.369982 -0.002,0.04226 -0.15107,0.270864 -0.33149,0.508 -0.18043,0.237134 -0.37559,0.526404 -0.43368,0.64282 -0.18622,0.373177 -0.52801,0.677516 -0.75694,0.67402 -0.20602,-0.0032 -0.20297,-0.0094 0.0603,-0.123796 0.15249,-0.06626 0.34299,-0.240852 0.42333,-0.387972 0.0803,-0.14712 0.30799,-0.491569 0.5059,-0.765442 0.19791,-0.273874 0.35984,-0.53462 0.35984,-0.579435 0,-0.04481 0.10916,-0.206634 0.24257,-0.359595 0.13342,-0.152962 0.27053,-0.367599 0.30469,-0.476971 0.0342,-0.109373 0.12503,-0.268566 0.20193,-0.353765 0.26799,-0.296936 0.35653,-0.419945 0.4173,-0.579751 0.11514,-0.302803 2.83999,-3.173195 3.68883,-3.885873 0.58291,-0.489399 1.01094,-0.226681 0.56153,0.344654 -0.0941,0.119667 -0.22425,0.368102 -0.28916,0.552078 -0.12864,0.364599 -0.49699,0.984908 -0.6358,1.070697 -0.0478,0.02956 -0.20538,0.434901 -0.35011,0.900753 -0.25482,0.820186 -0.27808,1.261065 -0.0665,1.261065 0.13441,0 0.75075,-0.357922 0.75075,-0.435978 0,-0.03637 0.1143,-0.19631 0.254,-0.35542 0.1397,-0.159109 0.254,-0.330559 0.254,-0.381 0,-0.05044 0.11442,-0.222033 0.25427,-0.381318 0.13986,-0.159285 0.31182,-0.427306 0.38214,-0.595602 0.0703,-0.168297 0.20441,-0.353624 0.29798,-0.411838 0.0936,-0.05821 0.30683,-0.323691 0.47391,-0.589948 0.16708,-0.266257 0.36624,-0.506359 0.44257,-0.533561 0.0763,-0.0272 0.32929,-0.277143 0.56213,-0.555426 0.63732,-0.761737 1.85511,-1.940576 2.00468,-1.940576 0.24317,0 0.0259,0.701449 -0.40646,1.312333 -0.2301,0.325094 -0.63071,1.122482 -0.91308,1.817381 -0.1215,0.29903 -0.37007,0.774449 -0.55237,1.056488 -0.33259,0.514568 -0.54363,1.113989 -0.64304,1.826444 -0.0632,0.45317 0.11164,0.737342 0.59482,0.966626 0.55055,0.261252 0.83491,-0.02051 0.59651,-0.591063 -0.17485,-0.418467 -0.16937,-0.483536 0.11426,-1.357571 0.22756,-0.701225 1.28318,-2.854226 1.44998,-2.957315 0.12026,-0.07433 0.74156,-1.405455 0.85561,-1.833156 0.0828,-0.310392 0.0834,-0.467737 0.003,-0.73572 -0.14247,-0.475509 -0.33199,-0.510756 -0.99398,-0.18486 -0.46201,0.227446 -0.71998,0.460646 -1.74245,1.575125 -0.66008,0.719485 -1.26678,1.412584 -1.34822,1.540221 -0.28986,0.454312 -0.55757,0.725143 -0.65641,0.664061 -0.15366,-0.09497 -0.11705,-0.338952 0.0985,-0.656608 0.22269,-0.328158 0.39548,-0.930729 0.39548,-1.379211 0,-0.288004 -0.22976,-0.639842 -0.41783,-0.639842 -0.19089,0 -0.56703,0.197255 -0.85437,0.448041 -0.17116,0.149394 -0.48712,0.404976 -0.70212,0.567959 -0.215,0.162984 -0.41635,0.372534 -0.44745,0.465667 -0.0311,0.09313 -0.20378,0.296127 -0.38373,0.451098 -0.17994,0.15497 -0.32717,0.330947 -0.32717,0.39106 0,0.06011 -0.21013,0.33337 -0.46696,0.607236 -0.25683,0.273867 -0.63783,0.680541 -0.84667,0.90372 -0.20884,0.22318 -0.3797,0.440983 -0.3797,0.484008 0,0.04302 -0.16193,0.266841 -0.35984,0.49737 -0.19791,0.230529 -0.42829,0.517551 -0.51195,0.637826 -0.17346,0.249365 -0.2961,0.278004 -0.36965,0.08632 -0.0595,-0.154929 0.82333,-2.056298 1.15715,-2.492307 0.30551,-0.399031 0.67695,-1.209141 0.67695,-1.476424 0,-0.119301 -0.0802,-0.297079 -0.17815,-0.395063 -0.22078,-0.22078 -0.48349,-0.180737 -1.19872,0.182716 -0.62319,0.316685 -2.32503,1.44012 -2.84681,1.879271 -0.15215,0.128058 -0.31225,0.232833 -0.35577,0.232833 -0.0435,0 -0.30279,0.152667 -0.57615,0.33926 -0.67612,0.461518 -0.89886,1.017553 -0.40623,1.01411 0.2623,-0.0018 0.37512,-0.09305 0.44132,-0.356816 0.0371,-0.147975 0.21235,-0.333017 0.49355,-0.521246 0.23978,-0.160506 0.60741,-0.469447 0.81696,-0.686536 0.20955,-0.217089 0.62865,-0.542305 0.93134,-0.722702 0.30268,-0.180397 0.72178,-0.443948 0.93133,-0.58567 0.4538,-0.306909 0.762,-0.340807 0.762,-0.08381 0,0.284569 -0.24192,0.932971 -0.55084,1.476409 -0.15883,0.2794 -0.39198,0.71755 -0.51811,0.973667 -0.12613,0.256116 -0.3135,0.579966 -0.41638,0.719666 -0.10287,0.1397 -0.23444,0.4064 -0.29235,0.592667 -0.0579,0.186267 -0.28921,0.719667 -0.51397,1.185333 -0.56909,1.179038 -0.81596,1.959434 -0.68579,2.167873 0.0804,0.128813 0.0768,0.160461 -0.0183,0.160461 -0.0652,0 -0.14299,-0.0974 -0.17286,-0.216435 z m 37.87399,-1.70954 c -0.17935,-0.471724 0.0786,-1.775684 0.46354,-2.342864 0.12197,-0.179735 0.22177,-0.372381 0.22177,-0.428101 0,-0.256557 1.33874,-1.726725 1.57949,-1.734548 0.0538,-0.0017 0.25351,-0.133261 0.44381,-0.292249 0.1903,-0.158988 0.52728,-0.355945 0.74885,-0.437682 0.43464,-0.16034 0.69763,-0.345044 0.70178,-0.492871 0.001,-0.05099 0.16854,-0.511811 0.37136,-1.024044 0.44091,-1.113535 0.41152,-1.243557 -0.20994,-0.928639 -0.22682,0.114935 -0.46614,0.208972 -0.53184,0.208972 -0.0657,0 -0.16497,0.05485 -0.2206,0.121884 -0.14613,0.17608 -1.20107,0.653823 -1.33244,0.603413 -0.2017,-0.0774 -0.11607,-0.529523 0.22753,-1.201389 0.18626,-0.364225 0.33866,-0.756936 0.33866,-0.87269 0,-0.177307 -0.16823,-0.03762 -1.06788,0.88666 -0.58733,0.603417 -1.09216,1.127005 -1.12183,1.163528 -0.0297,0.03652 -0.27053,0.227023 -0.53524,0.423333 -0.26471,0.196311 -0.73565,0.547428 -1.04654,0.780261 -0.77867,0.583168 -0.87795,0.632329 -1.27982,0.633752 -0.29027,10e-4 -0.3909,-0.04462 -0.5715,-0.259248 -0.12055,-0.143272 -0.21919,-0.325295 -0.21919,-0.404494 0,-0.394167 0.66544,-0.829242 1.12903,-0.73818 0.2686,0.05276 0.52779,-0.169571 0.89256,-0.765632 0.39768,-0.649827 0.5828,-1.623751 0.33746,-1.775378 -0.0977,-0.0604 -0.16252,0.0069 -0.74335,0.771625 -0.17786,0.234178 -0.54747,0.654605 -0.82137,0.934283 -0.2739,0.279678 -0.60471,0.650053 -0.73514,0.823056 -0.13042,0.173002 -0.28712,0.31455 -0.3482,0.31455 -0.0611,0 -0.36127,0.2667 -0.66707,0.592666 -0.3058,0.325967 -0.6079,0.592667 -0.67133,0.592667 -0.0634,0 -0.27832,-0.166069 -0.47752,-0.369043 -0.36219,-0.369044 -0.36219,-0.369044 -0.26447,-0.907948 0.0538,-0.296397 0.13271,-0.604265 0.17546,-0.684151 0.0493,-0.0922 0.0459,-0.164935 -0.009,-0.199156 -0.10359,-0.06402 -0.7604,0.613754 -1.39606,1.440631 -0.5504,0.715957 -1.40226,1.481667 -1.64837,1.481667 -0.28819,0 -0.66574,-0.237144 -0.80437,-0.505228 -0.16614,-0.321269 -0.16315,-0.802042 0.008,-1.304612 0.0751,-0.220369 0.11565,-0.421544 0.0901,-0.447056 -0.0255,-0.02551 -0.28697,0.211254 -0.58102,0.526146 -1.21761,1.303909 -1.90039,1.905079 -2.8739,2.530387 -0.32417,0.208221 -1.19655,0.359156 -1.50678,0.260694 -0.0963,-0.03056 -0.27407,-0.224488 -0.39506,-0.430948 -0.12099,-0.206461 -0.25446,-0.375383 -0.29661,-0.375383 -0.14303,0 -0.0775,-0.522541 0.0927,-0.738897 0.0931,-0.1184 0.16933,-0.281491 0.16933,-0.362425 0,-0.619496 1.26416,-2.244222 1.94733,-2.502762 0.0698,-0.02643 0.28855,-0.121001 0.486,-0.21015 0.66253,-0.299131 1.46705,-0.02874 1.34628,0.452462 -0.0278,0.110578 -0.32755,0.440387 -0.6662,0.73291 -0.78971,0.682124 -2.52074,2.369051 -2.52074,2.456507 0,0.03683 0.0543,0.112012 0.12064,0.167083 0.19826,0.164539 1.33371,-0.352108 1.69087,-0.769374 0.15785,-0.184413 0.49111,-0.487402 0.74058,-0.673309 0.24946,-0.185907 0.72781,-0.621969 1.06298,-0.969028 0.33518,-0.347059 0.63998,-0.631572 0.67734,-0.632251 0.0374,-6.77e-4 0.27747,-0.216159 0.53359,-0.478844 0.78632,-0.80649 1.19888,-0.961098 1.63958,-0.614443 0.15145,0.119134 0.22308,0.256144 0.22308,0.426706 0,0.289539 -0.27004,0.867834 -0.54906,1.175815 -0.17926,0.197879 -0.23365,0.345137 -0.3566,0.965606 -0.0487,0.245939 -0.0487,0.245939 0.25171,0.01677 0.27042,-0.206256 1.34674,-1.408201 1.8081,-2.01913 0.0993,-0.131446 0.43307,-0.504401 0.74178,-0.828788 0.63883,-0.671266 0.82011,-0.722453 1.28981,-0.364197 0.27677,0.211103 0.29213,0.247819 0.23913,0.5715 -0.0312,0.190246 -0.11433,0.411235 -0.18484,0.491085 -0.10483,0.118714 -0.35496,0.944257 -0.36004,1.188318 -0.004,0.199162 0.3095,-0.06138 1.39309,-1.157223 0.86168,-0.871418 1.29519,-1.38102 1.515,-1.780915 0.16936,-0.308105 0.30792,-0.610892 0.30792,-0.672859 0,-0.06197 0.079,-0.213055 0.17548,-0.335752 0.20109,-0.255641 0.5821,-0.300082 0.79003,-0.09215 0.23568,0.235679 0.4092,0.983422 0.43133,1.85873 0.0118,0.465667 0.0494,0.846667 0.0835,0.846667 0.0665,0 1.13239,-1.074923 2.21594,-2.23481 0.36522,-0.390945 0.73071,-0.78147 0.8122,-0.867833 0.22295,-0.236276 0.62178,-0.203557 0.79805,0.06547 0.13774,0.210225 0.1378,0.253413 0.001,0.783166 -0.0796,0.30837 -0.25863,0.780304 -0.39783,1.048743 -0.26337,0.507902 -0.31508,0.739596 -0.16505,0.739596 0.0827,0 0.50491,-0.211523 0.88563,-0.443713 0.78728,-0.480148 0.96908,-0.572287 1.12924,-0.572287 0.1007,0 0.18309,0.04035 0.18309,0.08966 0,0.04931 -0.0388,0.06569 -0.0862,0.03638 -0.0774,-0.04782 -0.65496,0.246296 -0.76046,0.38724 -0.0233,0.03111 -0.13758,0.08525 -0.254,0.120317 -0.11641,0.03507 -0.26881,0.111808 -0.33866,0.170535 -0.21355,0.179536 -0.65922,0.381195 -0.84247,0.381195 -0.23583,0 -0.23191,-0.369044 0.008,-0.762 0.21772,-0.356475 0.58039,-1.393635 0.58039,-1.659782 0,-0.252406 -0.20992,-0.45256 -0.41766,-0.398234 -0.0916,0.02397 -0.48285,0.38872 -0.86932,0.810561 -0.38648,0.421842 -1.02654,1.102304 -1.42236,1.512138 -0.39581,0.409834 -0.78868,0.825082 -0.87304,0.922774 -0.22106,0.256012 -0.44563,0.184813 -0.4146,-0.131448 0.11848,-1.207548 -0.1349,-2.515096 -0.5152,-2.65876 -0.23587,-0.0891 -0.4553,0.02282 -0.52773,0.269162 -0.19066,0.648428 -0.69569,1.420569 -1.38295,2.114391 -0.40231,0.406157 -0.80196,0.811922 -0.88811,0.9017 -0.0862,0.08978 -0.20045,0.207038 -0.254,0.260579 -0.0536,0.05354 -0.24484,0.247851 -0.42508,0.4318 -0.3295,0.336279 -0.5056,0.408381 -0.60493,0.247669 -0.0787,-0.127363 0.20294,-1.28579 0.35291,-1.451507 0.0706,-0.07805 0.14698,-0.287732 0.16967,-0.465971 0.0375,-0.294261 0.0167,-0.337701 -0.22571,-0.472238 -0.14682,-0.08149 -0.33054,-0.147218 -0.40826,-0.146059 -0.14389,0.0021 -1.10702,0.929378 -1.25785,1.210974 -0.0958,0.178773 -0.73818,0.908193 -1.60245,1.81945 -0.61936,0.653031 -0.88255,0.753803 -0.87657,0.335625 0.005,-0.316231 0.28314,-1.029391 0.47846,-1.224716 0.25229,-0.252287 0.53078,-0.912758 0.47493,-1.126334 -0.0255,-0.09747 -0.14702,-0.229285 -0.27008,-0.292919 -0.32544,-0.168294 -0.70702,0.01833 -1.27874,0.625412 -0.25612,0.271957 -0.55139,0.52027 -0.65617,0.551806 -0.10477,0.03154 -0.1905,0.09367 -0.1905,0.138069 0,0.09737 -1.08483,1.16817 -1.36485,1.347192 -0.10926,0.06985 -0.42557,0.351731 -0.70291,0.626404 -0.57127,0.565762 -1.42155,1.008077 -1.85663,0.965822 -0.23063,-0.0224 -0.27011,-0.06198 -0.29256,-0.293254 -0.0165,-0.170391 0.0244,-0.308577 0.1128,-0.381 0.0763,-0.0625 0.53863,-0.494639 1.02737,-0.960306 0.48874,-0.465666 1.04758,-0.988951 1.24186,-1.162855 0.19429,-0.173904 0.43898,-0.394464 0.54376,-0.490132 0.36017,-0.328871 0.16717,-0.675846 -0.37544,-0.674954 -0.30126,5e-4 -1.10102,0.323301 -1.41724,0.572042 -0.13255,0.104261 -0.27123,0.189566 -0.30819,0.189566 -0.037,0 -0.18925,0.188352 -0.33842,0.41856 -0.14917,0.230208 -0.3156,0.435594 -0.36986,0.456415 -0.0543,0.02082 -0.20553,0.318243 -0.33616,0.66094 -0.13062,0.342697 -0.2718,0.680235 -0.31372,0.750085 -0.2224,0.370598 -0.24998,0.53153 -0.11447,0.667963 0.0745,0.075 0.20895,0.261145 0.29877,0.413648 0.20942,0.355578 0.4426,0.439857 0.98136,0.354691 0.42254,-0.06679 1.39304,-0.635704 1.72694,-1.012333 0.0726,-0.08193 0.24408,-0.208629 0.381,-0.281541 0.13691,-0.07291 0.51563,-0.444051 0.84159,-0.824753 0.32597,-0.380702 0.66427,-0.754396 0.75179,-0.83043 0.0875,-0.07603 0.25501,-0.22397 0.3722,-0.328745 0.43547,-0.389334 0.50879,-0.192642 0.22558,0.605118 -0.19353,0.545148 -0.21084,0.670567 -0.12741,0.923369 0.11092,0.336072 0.28611,0.516937 0.62583,0.646098 0.21865,0.08313 0.26911,0.06181 0.59251,-0.250368 0.19443,-0.187682 0.42464,-0.406898 0.5116,-0.487145 0.087,-0.08025 0.35725,-0.393555 0.60067,-0.696239 0.56662,-0.704582 1.35357,-1.524 1.46361,-1.524 0.2303,0 0.26207,0.225132 0.10077,0.714065 -0.0903,0.273655 -0.16415,0.590171 -0.16415,0.703371 0,0.197052 0.46331,0.783898 0.61888,0.783898 0.0405,0 0.33873,-0.2667 0.66277,-0.592667 0.32403,-0.325967 0.64009,-0.592667 0.70235,-0.592667 0.0623,0 0.17887,-0.104775 0.25914,-0.232833 0.0803,-0.128058 0.31505,-0.404283 0.52175,-0.613833 0.64918,-0.658153 0.84518,-0.880241 1.04613,-1.185334 0.306,-0.464579 0.69512,-0.846666 0.86226,-0.846666 0.13339,0 0.15272,0.07909 0.15272,0.62466 0,0.680441 -0.10013,0.995428 -0.51926,1.63345 -0.35361,0.538287 -0.46687,0.620556 -0.85431,0.620556 -0.74953,0 -1.17996,0.427963 -0.88429,0.879219 0.27746,0.42346 0.70153,0.350545 1.54987,-0.266485 0.23926,-0.17402 0.63931,-0.457394 0.889,-0.629719 0.52793,-0.36435 0.63235,-0.461525 1.95683,-1.821075 0.54715,-0.56165 0.99483,-1.063652 0.99483,-1.11556 0,-0.05191 0.0812,-0.09438 0.18034,-0.09438 0.16428,0 0.17643,0.03475 0.13638,0.390074 -0.0251,0.222583 -0.20127,0.694605 -0.41031,1.099302 -0.45967,0.889908 -0.40013,1.009196 0.31598,0.633122 0.2735,-0.143632 0.55443,-0.296659 0.62428,-0.340059 0.30507,-0.189554 1.13841,-0.512439 1.32256,-0.512439 0.16818,0 0.20144,0.04271 0.20144,0.258641 0,0.142253 -0.11797,0.532778 -0.26216,0.867834 -0.14419,0.335056 -0.31576,0.785602 -0.38127,1.001214 -0.14235,0.468524 -0.19542,0.517738 -0.80358,0.745282 -0.25921,0.09698 -0.59898,0.290337 -0.75506,0.42968 -0.15607,0.139342 -0.32849,0.25335 -0.38315,0.25335 -0.0547,0 -0.20217,0.09525 -0.32778,0.211666 -0.12562,0.116417 -0.25762,0.211667 -0.29334,0.211667 -0.0932,0 -0.87024,1.086001 -1.03757,1.450055 -0.0776,0.16888 -0.18204,0.332338 -0.23204,0.363241 -0.13152,0.08128 -0.42965,1.136758 -0.44643,1.580526 -0.0161,0.424479 0.122,0.754845 0.31544,0.754845 0.0706,0 0.42172,-0.271713 0.78019,-0.603806 0.64802,-0.600357 0.81829,-0.776971 1.29524,-1.343528 0.71258,-0.84645 0.82676,-0.996942 0.96354,-1.27 0.0816,-0.162983 0.21613,-0.372533 0.29886,-0.465666 0.0827,-0.09313 0.23558,-0.369865 0.33967,-0.614959 0.19221,-0.452573 0.42306,-0.610515 0.72371,-0.495143 0.17069,0.0655 0.42995,-0.07306 0.54742,-0.29256 0.0773,-0.144422 0.0489,-0.210959 -0.18186,-0.426544 -0.27344,-0.255429 -0.27344,-0.255429 -0.041,-0.943974 0.12784,-0.378699 0.28165,-0.785956 0.34182,-0.905016 0.0602,-0.119059 0.13518,-0.358862 0.16669,-0.532895 0.0315,-0.174033 0.11435,-0.440733 0.1841,-0.592666 0.12682,-0.276244 0.12682,-0.276244 0.0887,-0.02224 -0.0595,0.396653 -0.27157,1.117182 -0.56806,1.930066 -0.27163,0.744731 -0.27163,0.744731 -0.0479,0.978299 0.27557,0.28763 0.28404,0.519164 0.0278,0.759877 -0.13759,0.129263 -0.30288,0.184092 -0.55498,0.184092 -0.34989,0 -0.36442,0.01132 -0.57001,0.4445 -0.52515,1.106435 -1.26007,2.061888 -2.57239,3.344333 -0.84057,0.821432 -1.01286,0.9525 -1.2521,0.9525 -0.22467,0 -0.29423,-0.04423 -0.36586,-0.232641 z m -25.34598,-0.779254 c -0.11464,-0.126681 -0.14953,-0.311773 -0.14953,-0.793373 0,-0.579142 0.0255,-0.670469 0.32722,-1.170678 0.70591,-1.170414 1.50371,-1.966867 2.57901,-2.574668 0.82042,-0.463726 1.22063,-0.442082 1.3819,0.07473 0.0419,0.134348 0.0853,0.11506 0.3336,-0.148167 0.20492,-0.217269 0.35754,-0.302621 0.54116,-0.302621 0.22671,0 0.26225,0.03469 0.31306,0.305504 0.0466,0.248338 0.002,0.418648 -0.23621,0.910167 -0.16144,0.332564 -0.34131,0.742738 -0.39971,0.911496 -0.11022,0.318502 -0.0592,0.631688 0.0881,0.54065 0.17207,-0.106346 2.84133,-3.242633 3.32668,-3.908741 0.32173,-0.44154 0.71311,-1.26816 0.63665,-1.344622 -0.0421,-0.04207 -0.69028,0.22099 -1.46434,0.594263 -0.23283,0.112279 -0.82338,0.390117 -1.31233,0.617419 -0.48895,0.227301 -0.94129,0.477008 -1.0052,0.554903 -0.23986,0.292337 -0.60347,0.112541 -0.60347,-0.298395 0,-0.31434 0.50927,-0.874339 0.91575,-1.006978 0.17155,-0.05598 0.55957,-0.226936 0.86225,-0.379905 0.30268,-0.152969 0.74083,-0.359683 0.97367,-0.459364 0.23283,-0.09968 0.65819,-0.292798 0.94525,-0.42915 0.28706,-0.136352 0.56602,-0.247913 0.61992,-0.247913 0.27663,0 0.84648,-0.460757 1.12726,-0.911455 0.48092,-0.771921 0.68548,-1.031049 0.81591,-1.033548 0.0818,-0.0016 0.0504,0.07404 -0.0955,0.230503 -0.11944,0.128058 -0.26421,0.328083 -0.32172,0.4445 -0.29671,0.600689 -0.65578,1.011055 -1.06759,1.220123 -0.23749,0.120566 -0.46308,0.21921 -0.50131,0.21921 -0.0382,0 -0.30113,0.109558 -0.58421,0.243462 -0.28308,0.133904 -0.70519,0.327021 -0.93802,0.42915 -0.23284,0.102129 -0.67099,0.310846 -0.97367,0.463815 -0.30268,0.152969 -0.69196,0.324345 -0.86506,0.380834 -0.37407,0.122072 -0.74361,0.529692 -0.74361,0.820226 0,0.282301 0.22087,0.347819 0.44926,0.133264 0.10265,-0.09644 0.56744,-0.350685 1.03286,-0.564997 0.46542,-0.214311 1.03672,-0.4818 1.26955,-0.594418 0.71805,-0.34731 1.41182,-0.634003 1.53423,-0.634003 0.0642,0 0.11677,0.07511 0.11677,0.16692 0,0.256047 -0.37993,1.057502 -0.69262,1.461062 -0.5268,0.67989 -1.27089,1.578806 -1.76562,2.132981 -0.21115,0.236521 -0.53178,0.620538 -0.71251,0.853371 -0.52258,0.673231 -0.91548,1.058333 -1.07977,1.058333 -0.12325,0 -0.15215,-0.0704 -0.15215,-0.37066 0,-0.376046 0.10287,-0.690826 0.47225,-1.44513 0.19447,-0.397107 0.26405,-0.806355 0.15555,-0.914852 -0.1045,-0.104503 -0.55,0.133801 -0.68852,0.368304 -0.16574,0.280569 -0.44728,0.332979 -0.44728,0.08326 0,-0.532936 -0.24768,-0.550739 -1.17874,-0.08473 -1.29862,0.64998 -2.7828,2.429682 -2.86828,3.439391 -0.0205,0.242325 -0.0132,0.5365 0.0162,0.653724 0.12005,0.478349 0.72163,0.478337 1.23218,-2.7e-5 0.16554,-0.155101 0.66293,-0.614303 1.10531,-1.020447 0.44238,-0.406144 0.85267,-0.826076 0.91175,-0.93318 0.11871,-0.215196 0.41123,-0.404884 0.47043,-0.305054 0.0208,0.03505 0.0656,0.273279 0.0995,0.529395 0.0801,0.603758 0.16975,0.762 0.43181,0.762 0.4668,0 1.10241,-0.543025 1.98208,-1.693333 0.16024,-0.20955 0.51246,-0.6096 0.7827,-0.889 0.27024,-0.2794 0.57594,-0.631565 0.67934,-0.782588 0.1034,-0.151024 0.25916,-0.274849 0.34612,-0.275167 0.14711,-5.42e-4 0.153,0.04507 0.0847,0.655588 -0.10536,0.941226 -0.0601,1.63082 0.14276,2.172888 0.24793,0.662645 0.58628,0.646001 0.71259,-0.03505 0.0423,-0.228032 0.005,-0.390062 -0.16175,-0.702981 -0.25398,-0.476556 -0.28291,-1.136477 -0.0958,-2.185332 0.1439,-0.806757 0.34933,-1.270721 0.80173,-1.810688 0.19507,-0.232833 0.493,-0.677919 0.66207,-0.989079 0.29007,-0.533881 0.34113,-0.581398 0.90651,-0.843657 0.32952,-0.152851 0.76508,-0.298315 0.96792,-0.323254 0.31104,-0.03824 0.40603,-0.09838 0.60653,-0.38401 0.28304,-0.403196 0.39224,-0.719666 0.24834,-0.719666 -0.055,0 -0.44343,0.1524 -0.86307,0.338666 -1.00198,0.444754 -1.09314,0.442951 -1.07053,-0.02117 0.01,-0.197909 -0.0102,-0.445559 -0.0441,-0.550334 -0.0374,-0.115627 -0.0268,-0.1905 0.0271,-0.1905 0.11737,0 0.2064,0.370991 0.15436,0.643238 -0.0247,0.128962 0.001,0.233192 0.0642,0.257302 0.0581,0.02229 0.45462,-0.116626 0.8812,-0.308702 0.42657,-0.192075 0.84106,-0.335647 0.92109,-0.319048 0.23331,0.04839 0.14769,0.454508 -0.20328,0.964089 -0.28952,0.420374 -0.34046,0.456455 -0.64451,0.456455 -0.19544,0 -0.57834,0.114771 -0.93843,0.281288 -0.55045,0.254543 -0.63171,0.324982 -0.85471,0.740833 -0.13554,0.25275 -0.43321,0.696558 -0.66149,0.986239 -0.49669,0.630278 -0.76806,1.284706 -0.89968,2.169646 -0.14283,0.960338 -0.12357,1.239104 0.11206,1.621661 0.27244,0.442329 0.28751,1.026552 0.0348,1.347856 -0.26596,0.338111 -0.49765,0.261975 -0.75223,-0.24719 -0.18729,-0.374586 -0.21167,-0.530578 -0.21167,-1.354666 0,-0.512234 0.0301,-1.039191 0.0668,-1.171017 0.0509,-0.182442 0.0395,-0.232992 -0.0477,-0.211667 -0.1173,0.02868 -1.10949,1.11831 -1.91434,2.10235 -0.47688,0.583052 -1.10585,1.173622 -1.43682,1.349103 -0.11962,0.06342 -0.31596,0.08387 -0.49066,0.05109 -0.32961,-0.06184 -0.45292,-0.279357 -0.45292,-0.79893 0,-0.175474 -0.0236,-0.342585 -0.0523,-0.371357 -0.0288,-0.02877 -0.28595,0.188498 -0.5715,0.482824 -0.28555,0.294325 -0.89136,0.863966 -1.34623,1.265869 -0.76719,0.67784 -0.85357,0.730732 -1.19338,0.730732 -0.25577,0 -0.41146,-0.04987 -0.51586,-0.165229 z m -17.97678,-0.133895 c 0.12665,-0.133227 0.24545,-0.2252 0.26401,-0.204387 0.0186,0.02081 -0.0851,0.129817 -0.23027,0.24223 -0.26401,0.204386 -0.26401,0.204386 -0.0337,-0.03784 z m 43.67148,-0.06071 c 0.004,-0.354023 0.382,-1.35506 0.6232,-1.649844 0.58355,-0.713158 1.34985,-1.341794 1.98373,-1.627354 0.55625,-0.250587 0.66699,-0.0087 0.26966,0.589032 -0.13931,0.20955 -0.25344,0.426307 -0.25364,0.481683 -1.7e-4,0.05538 -0.15463,0.283977 -0.34319,0.508 -1.30012,1.544705 -2.28611,2.27929 -2.27976,1.698483 z m 1.17044,-0.730537 c 0.77792,-0.798333 1.28281,-1.385912 1.28281,-1.492892 0,-0.03575 0.1143,-0.250771 0.254,-0.477812 0.29605,-0.481142 0.29916,-0.494925 0.11174,-0.494925 -0.25731,0 -1.21099,0.692164 -1.72187,1.249691 -0.45946,0.501424 -0.8452,1.224718 -0.8452,1.584822 0,0.06535 -0.0387,0.142758 -0.0861,0.172007 -0.11518,0.07118 -0.0213,0.210813 0.14173,0.210813 0.0717,0 0.45997,-0.338266 0.86284,-0.751704 z m -44.43013,0.558412 c 0.0194,-0.01318 0.11148,-0.07985 0.20461,-0.148166 0.15663,-0.114894 0.16062,-0.113097 0.0531,0.02396 -0.0639,0.08149 -0.15598,0.148167 -0.20461,0.148167 -0.0486,0 -0.0725,-0.01078 -0.0531,-0.02396 z m 0.41628,-0.262008 c 0,-0.01758 0.0667,-0.08426 0.14816,-0.148167 0.13429,-0.105314 0.13728,-0.10232 0.032,0.03197 -0.11061,0.141033 -0.18013,0.185884 -0.18013,0.1162 z m 17.75177,-0.109145 c -0.14124,-0.141242 0.0948,-0.838013 0.3325,-0.981375 0.0585,-0.03528 0.14941,-0.194599 0.20203,-0.354033 0.10597,-0.321101 0.93654,-1.044562 1.64219,-1.430411 0.51808,-0.283285 1.06884,-0.3122 1.06884,-0.05612 0,0.221319 -1.05179,1.459895 -1.65342,1.947046 -0.25879,0.20955 -0.61639,0.504825 -0.79465,0.656166 -0.29957,0.254322 -0.66238,0.353829 -0.79749,0.218722 z m 0.90253,-0.486462 c 0.85908,-0.693213 1.25992,-1.069198 1.69766,-1.592377 0.26182,-0.312923 0.47604,-0.608198 0.47604,-0.656167 0,-0.167386 -0.44561,-0.08527 -0.92561,0.170564 -0.69313,0.369435 -1.29591,0.891767 -1.45864,1.263974 -0.0773,0.176849 -0.18108,0.34657 -0.23057,0.377159 -0.14952,0.09241 -0.37064,0.630651 -0.31676,0.771052 0.0607,0.15809 0.2528,0.07336 0.75788,-0.334205 z m -18.31564,0.341607 c 0,-0.01758 0.0667,-0.08426 0.14817,-0.148167 0.13429,-0.105314 0.13728,-0.10232 0.032,0.03197 -0.11061,0.141033 -0.18014,0.185884 -0.18014,0.1162 z m -3.39746,-0.454867 c -0.10532,-0.134286 -0.10232,-0.137281 0.032,-0.03197 0.14104,0.110606 0.18589,0.180134 0.1162,0.180134 -0.0176,0 -0.0842,-0.06667 -0.14816,-0.148167 z m 3.73613,-0.08234 c 0,-0.04917 0.0785,-0.179344 0.17436,-0.289278 0.17436,-0.19988 0.17436,-0.19988 0.0256,0.05412 -0.19575,0.334301 -0.19998,0.339274 -0.19998,0.235158 z m -3.99013,-0.256324 c -0.10532,-0.134287 -0.10232,-0.137282 0.032,-0.03197 0.0815,0.06391 0.14817,0.130585 0.14817,0.148166 0,0.06968 -0.0695,0.02483 -0.18013,-0.116199 z m -9.72817,-0.533462 c -0.14856,-0.277588 -0.16974,-1.022053 -0.04,-1.405048 0.23061,-0.68059 0.85828,-1.516496 1.63062,-2.171577 0.40699,-0.3452 0.90707,-0.718936 1.1113,-0.830525 0.20422,-0.111589 0.45187,-0.250911 0.55033,-0.309605 0.0985,-0.05869 0.3121,-0.09679 0.47475,-0.08467 0.22889,0.01707 0.32112,0.07528 0.40806,0.257533 0.11232,0.235482 0.11232,0.235482 0.3573,-0.02676 0.19473,-0.208459 0.30205,-0.256758 0.52327,-0.235483 0.25592,0.02461 0.28045,0.05282 0.30497,0.350724 0.0183,0.223038 -0.0409,0.453132 -0.19015,0.738602 -0.24966,0.477462 -0.46849,1.073983 -0.47028,1.281942 -0.003,0.329768 0.19125,0.195911 0.81776,-0.563979 0.73295,-0.888997 0.95901,-1.004052 0.95901,-0.488103 0,0.448435 -0.26502,0.902078 -0.91798,1.571348 -0.62576,0.641392 -0.90119,0.819231 -1.26879,0.819231 -0.33087,0 -0.42203,-0.131536 -0.4896,-0.706457 -0.0313,-0.266 -0.082,-0.499156 -0.11264,-0.518123 -0.0307,-0.01897 -0.48631,0.418757 -1.01249,0.97272 -1.05873,1.114634 -1.64891,1.52186 -2.20558,1.52186 -0.25309,0 -0.3601,-0.04322 -0.42989,-0.173628 z m 1.07287,-0.172038 c 0.45619,-0.261005 0.96574,-0.72991 1.95192,-1.796206 0.28865,-0.312104 0.57868,-0.567461 0.64451,-0.567461 0.0818,0 0.13676,0.145248 0.17357,0.458463 0.0679,0.577562 0.1196,0.710659 0.31729,0.816459 0.11568,0.06191 0.23329,0.04644 0.43454,-0.05713 0.36568,-0.188208 1.30016,-1.145948 1.5024,-1.539785 0.19775,-0.38511 0.30875,-0.812741 0.19948,-0.768542 -0.10736,0.04343 -0.95703,0.980349 -1.20013,1.323372 -0.10726,0.151342 -0.26862,0.275167 -0.35858,0.275167 -0.31417,0 -0.19424,-0.838633 0.24902,-1.741374 0.25549,-0.520347 0.295,-0.75278 0.1486,-0.874284 -0.16415,-0.13623 -0.3997,-0.01604 -0.64574,0.329486 -0.23287,0.327038 -0.30898,0.320067 -0.46033,-0.04216 -0.10724,-0.256674 -0.16252,-0.296333 -0.41305,-0.296333 -0.15908,0 -0.3801,0.07081 -0.49115,0.157362 -0.11106,0.08655 -0.33527,0.224832 -0.49825,0.307296 -0.16299,0.08246 -0.49133,0.325975 -0.72966,0.541138 -0.23832,0.215162 -0.53224,0.458634 -0.65315,0.541047 -0.27486,0.18736 -0.97062,1.252179 -1.1372,1.740431 -0.14034,0.41133 -0.10696,1.12025 0.0623,1.32425 0.16045,0.193334 0.39618,0.159109 0.90357,-0.13119 z m -0.33679,-0.472778 c -0.12516,-0.125161 -0.0482,-0.741522 0.12915,-1.034229 0.26984,-0.445383 1.40278,-1.513798 1.84903,-1.743729 0.211,-0.108714 0.56342,-0.224624 0.78317,-0.257577 0.37455,-0.05617 0.39954,-0.04813 0.39954,0.128544 0,0.413667 -1.79048,2.257398 -2.6565,2.735518 -0.46899,0.258921 -0.43015,0.245717 -0.50439,0.171473 z m 0.60253,-0.405081 c 0.603,-0.313349 2.38902,-2.132694 2.38902,-2.433591 0,-0.144825 -0.44932,-0.05749 -0.91258,0.177379 -0.87331,0.442759 -2.1685,1.950105 -2.01634,2.346621 0.0592,0.154146 0.0741,0.15164 0.5399,-0.09041 z m 7.97061,0.990692 c -0.20525,-0.232833 -0.20525,-0.232833 0.0276,-0.02757 0.12806,0.112893 0.23283,0.217668 0.23283,0.232833 0,0.0664 -0.0686,0.01236 -0.26041,-0.205258 z m 5.17108,-0.55566 c 0,-0.01457 0.12382,-0.138396 0.27517,-0.275166 0.27516,-0.248674 0.27516,-0.248674 0.0265,0.02649 -0.2318,0.256493 -0.30166,0.314083 -0.30166,0.248673 z m -5.75903,-0.271886 c -0.0589,-0.07098 -0.0907,-0.145443 -0.0707,-0.165483 0.02,-0.02004 0.0829,0.03803 0.13979,0.129046 0.12292,0.196827 0.0819,0.218437 -0.0691,0.03644 z m -0.20453,-0.438803 c -0.046,-0.120666 -0.0362,-0.130392 0.0474,-0.0474 0.0579,0.05743 0.0839,0.125751 0.0578,0.151819 -0.0261,0.02607 -0.0734,-0.02092 -0.10521,-0.104423 z m 6.77404,-0.286813 c 0.13632,-0.167381 0.26495,-0.289985 0.28584,-0.272453 0.0209,0.01753 -0.0906,0.154479 -0.24785,0.304328 -0.28585,0.272454 -0.28585,0.272454 -0.038,-0.03187 z m 0.38154,-0.803394 c 0.004,-0.09863 0.0241,-0.118694 0.0511,-0.05115 0.0245,0.06112 0.0215,0.134144 -0.007,0.162278 -0.0281,0.02813 -0.0482,-0.02187 -0.0445,-0.111125 z m 26.52728,-0.07061 c -0.14007,-0.365018 1.04728,-1.573334 1.54604,-1.573334 0.27079,0 0.0665,0.347338 -0.58628,0.996702 -0.70099,0.697357 -0.87363,0.801077 -0.95976,0.576632 z m 0.97286,-0.766512 c 0.2485,-0.262753 0.43386,-0.495694 0.4119,-0.517647 -0.15524,-0.155238 -1.16406,0.732415 -1.16406,1.024245 0,0.200567 0.22961,0.04592 0.75216,-0.506598 z m -35.11346,-0.298822 c 0,-0.116417 0.0192,-0.164042 0.0427,-0.105834 0.0235,0.05821 0.0235,0.153459 0,0.211667 -0.0235,0.05821 -0.0427,0.01058 -0.0427,-0.105833 z m 7.61332,-0.726722 c 0.004,-0.09863 0.0241,-0.118695 0.0511,-0.05115 0.0245,0.06112 0.0215,0.134144 -0.007,0.162278 -0.0281,0.02813 -0.0482,-0.02187 -0.0445,-0.111125 z m -3.91215,-0.268112 c -0.10749,-0.137054 -0.10351,-0.138851 0.0531,-0.02396 0.0931,0.06831 0.18521,0.13499 0.20461,0.148167 0.0194,0.01318 -0.005,0.02396 -0.0531,0.02396 -0.0486,0 -0.1407,-0.06667 -0.20461,-0.148167 z m 0.85494,-0.185784 c 0.0485,-0.09054 0.12995,-0.190481 0.18109,-0.222091 0.0511,-0.03161 0.0275,0.04247 -0.0525,0.164618 -0.16947,0.258644 -0.25723,0.297874 -0.12857,0.05747 z m -1.23319,-0.110549 c -0.16129,-0.1905 -0.16129,-0.1905 0.0292,-0.02921 0.10478,0.08871 0.1905,0.174434 0.1905,0.1905 0,0.06775 -0.0681,0.01773 -0.21971,-0.161289 z m -2.91295,-0.1378 c 0,-0.08539 0.24487,-0.30528 0.28426,-0.255265 0.0144,0.01828 -0.0437,0.09991 -0.12904,0.181398 -0.0854,0.08149 -0.15522,0.114732 -0.15522,0.07387 z m 2.44892,-0.2432 c -0.20526,-0.232833 -0.20526,-0.232833 0.0276,-0.02757 0.12805,0.112893 0.23283,0.217668 0.23283,0.232834 0,0.0664 -0.0686,0.01236 -0.26041,-0.205259 z m 2.16541,0.0635 c 0.0843,-0.09313 0.17229,-0.169333 0.19558,-0.169333 0.0233,0 -0.0266,0.0762 -0.11091,0.169333 -0.0843,0.09313 -0.1723,0.169333 -0.19558,0.169333 -0.0233,0 0.0266,-0.0762 0.11091,-0.169333 z m -3.79119,-0.342933 c 0.10348,-0.108896 0.20453,-0.18106 0.22454,-0.160363 0.02,0.0207 -0.0647,0.109793 -0.18814,0.197992 -0.22454,0.160363 -0.22454,0.160363 -0.0364,-0.03763 z"
         id="path860" />
      <path
         style="fill:#9e2e30;stroke-width:0.0846667"
         d="m 123.01917,70.326912 c -0.23763,-0.104471 -0.54915,-0.460936 -1.00534,-1.150373 -0.21569,-0.325967 -0.50508,-0.745067 -0.6431,-0.931333 -1.01348,-1.367835 -1.30891,-2.052512 -1.4065,-3.259667 -0.044,-0.544054 -0.019,-0.736007 0.17412,-1.340251 0.20861,-0.652548 0.24864,-0.714937 0.53572,-0.834886 0.17064,-0.0713 0.40176,-0.201612 0.5136,-0.289583 0.23845,-0.187569 0.72107,-0.20818 1.03529,-0.04421 0.12088,0.06308 0.50478,0.348594 0.8531,0.634478 0.80768,0.662902 0.95908,0.671825 1.53155,0.09026 0.48397,-0.491667 0.65387,-0.571604 1.41674,-0.666577 0.80451,-0.100156 1.02284,0.01168 1.25132,0.640919 0.15866,0.43696 0.17719,0.640311 0.15216,1.670547 -0.0254,1.045 -0.0481,1.197469 -0.20853,1.397 -0.099,0.123186 -0.26975,0.357885 -0.3794,0.521552 -0.10965,0.163667 -0.26491,0.351974 -0.34502,0.41846 -0.13114,0.108834 -0.4021,0.578187 -0.95606,1.656062 -0.17685,0.344106 -1.01153,1.056902 -1.23763,1.056902 -0.0481,0 -0.18833,0.09668 -0.31167,0.214845 -0.24317,0.232971 -0.70018,0.334637 -0.97035,0.215861 z"
         id="path858" />
      <path
         style="fill:#35302a;stroke-width:0.0846667"
         d="m 129.73959,73.063279 c -0.006,-0.01892 -0.0186,-0.06298 -0.0285,-0.09791 -0.01,-0.03493 -0.0479,-0.131978 -0.0847,-0.215674 -0.0899,-0.204728 0.20079,-1.077282 0.71076,-2.133826 0.22476,-0.465666 0.45605,-0.999066 0.51397,-1.185333 0.0579,-0.186267 0.18948,-0.452967 0.29235,-0.592667 0.10288,-0.1397 0.29025,-0.46355 0.41638,-0.719666 0.12613,-0.256117 0.35928,-0.694267 0.51811,-0.973667 0.30892,-0.543438 0.55084,-1.19184 0.55084,-1.476409 0,-0.256998 -0.3082,-0.2231 -0.762,0.08381 -0.20955,0.141722 -0.62865,0.405273 -0.93133,0.58567 -0.30269,0.180397 -0.72179,0.505613 -0.93134,0.722702 -0.20955,0.217089 -0.57718,0.52603 -0.81696,0.686536 -0.2812,0.188229 -0.45641,0.373271 -0.49355,0.521246 -0.0662,0.263769 -0.17902,0.354982 -0.44132,0.356816 -0.49263,0.0034 -0.26989,-0.552592 0.40623,-1.01411 0.27336,-0.186593 0.53263,-0.33926 0.57615,-0.33926 0.0435,0 0.20362,-0.104775 0.35577,-0.232833 0.52178,-0.439151 2.22362,-1.562586 2.84681,-1.879271 0.71523,-0.363453 0.97794,-0.403496 1.19872,-0.182716 0.098,0.09798 0.17815,0.275762 0.17815,0.395063 0,0.267283 -0.37144,1.077393 -0.67695,1.476424 -0.33382,0.436009 -1.21661,2.337378 -1.15715,2.492307 0.0735,0.191681 0.19619,0.163042 0.36965,-0.08632 0.0837,-0.120275 0.31404,-0.407297 0.51195,-0.637826 0.19791,-0.230529 0.35984,-0.454346 0.35984,-0.49737 0,-0.04303 0.17086,-0.260828 0.3797,-0.484008 0.20884,-0.223179 0.58984,-0.629853 0.84667,-0.90372 0.25683,-0.273866 0.46696,-0.547123 0.46696,-0.607236 0,-0.06011 0.14723,-0.23609 0.32717,-0.39106 0.17995,-0.154971 0.35263,-0.357965 0.38373,-0.451098 0.0311,-0.09313 0.23245,-0.302683 0.44745,-0.465667 0.215,-0.162983 0.53096,-0.418565 0.70212,-0.567959 0.28734,-0.250786 0.66348,-0.448041 0.85437,-0.448041 0.18807,0 0.41783,0.351838 0.41783,0.639842 0,0.448482 -0.17279,1.051053 -0.39548,1.379211 -0.21557,0.317656 -0.25217,0.561641 -0.0985,0.656608 0.0988,0.06108 0.36654,-0.209749 0.65641,-0.664061 0.0814,-0.127637 0.68813,-0.820736 1.34822,-1.540221 1.02247,-1.114479 1.28044,-1.347679 1.74244,-1.575125 0.66199,-0.325896 0.85151,-0.290649 0.99398,0.18486 0.0803,0.267983 0.0796,0.425328 -0.003,0.73572 -0.11405,0.427701 -0.73534,1.758827 -0.85561,1.833156 -0.1668,0.103089 -1.22242,2.25609 -1.44997,2.957315 -0.28363,0.874035 -0.28911,0.939104 -0.11426,1.357571 0.23839,0.570556 -0.046,0.852315 -0.59652,0.591063 -0.48318,-0.229284 -0.65804,-0.513456 -0.59481,-0.966626 0.0994,-0.712455 0.31045,-1.311876 0.64304,-1.826444 0.18229,-0.282039 0.43086,-0.757458 0.55237,-1.056488 0.28236,-0.694899 0.68298,-1.492287 0.91307,-1.817381 0.43237,-0.610884 0.64963,-1.312333 0.40647,-1.312333 -0.14958,0 -1.36736,1.178839 -2.00469,1.940576 -0.23283,0.278283 -0.48579,0.528225 -0.56212,0.555426 -0.0763,0.0272 -0.2755,0.267304 -0.44257,0.533561 -0.16708,0.266257 -0.38034,0.531734 -0.47392,0.589948 -0.0936,0.05821 -0.22766,0.243541 -0.29798,0.411838 -0.0703,0.168296 -0.24228,0.436317 -0.38213,0.595602 -0.13986,0.159285 -0.25428,0.330878 -0.25428,0.381318 0,0.05044 -0.1143,0.221891 -0.254,0.381 -0.1397,0.15911 -0.254,0.319048 -0.254,0.35542 0,0.07806 -0.61634,0.435978 -0.75075,0.435978 -0.21154,0 -0.18828,-0.440879 0.0665,-1.261065 0.14473,-0.465852 0.30228,-0.871191 0.35011,-0.900753 0.13881,-0.08579 0.50716,-0.706098 0.6358,-1.070697 0.0649,-0.183976 0.19503,-0.432411 0.28916,-0.552078 0.44942,-0.571335 0.0214,-0.834053 -0.56152,-0.344654 -0.84885,0.712678 -3.57369,3.58307 -3.68884,3.885873 -0.0608,0.159806 -0.1493,0.282815 -0.4173,0.579751 -0.0769,0.0852 -0.16776,0.244392 -0.20192,0.353765 -0.0342,0.109372 -0.17128,0.324009 -0.30469,0.476971 -0.13342,0.152961 -0.24258,0.31478 -0.24258,0.359595 0,0.04481 -0.16193,0.305561 -0.35983,0.579435 -0.19791,0.273873 -0.42557,0.618322 -0.5059,0.765442 -0.0803,0.14712 -0.26673,0.318221 -0.41419,0.380225 -0.16085,0.06763 -0.22184,0.128159 -0.15245,0.15129 0.0734,0.02446 0.0468,0.05656 -0.0727,0.0878 -0.10357,0.02708 -0.19308,0.03376 -0.1989,0.01484 z M 88.715025,72.76833 c -0.14748,-0.04363 -0.366555,-0.19628 -0.486833,-0.339222 -0.120278,-0.142942 -0.221365,-0.209346 -0.224637,-0.147565 -0.0033,0.06178 -0.0387,0.03613 -0.07872,-0.057 -0.08413,-0.195787 -0.10937,-1.403443 -0.03346,-1.601256 0.02816,-0.07339 0.08053,-0.115312 0.116379,-0.09316 0.03584,0.02215 0.08274,-0.142558 0.104214,-0.366025 0.02147,-0.223468 0.10524,-0.537088 0.18615,-0.696932 0.08091,-0.159846 0.239511,-0.576378 0.352447,-0.925628 0.203574,-0.62955 1.299286,-2.725754 1.637484,-3.132667 1.013395,-1.219299 1.327623,-1.574619 1.912454,-2.162552 1.533936,-1.542072 2.324187,-1.990262 2.753056,-1.561393 0.168515,0.168515 0.183923,0.245857 0.13749,0.690106 -0.06873,0.657615 -0.360452,1.340506 -0.572639,1.340506 -0.213036,0 -0.205308,-0.256841 0.0162,-0.538446 0.334676,-0.425471 0.402238,-1.070221 0.112146,-1.070221 -0.250913,0 -0.764267,0.33681 -1.215696,0.797614 -0.254526,0.259813 -0.50462,0.472386 -0.555764,0.472386 -0.05114,0 -0.280056,0.24765 -0.508692,0.550333 -0.228636,0.302684 -0.438934,0.550334 -0.467329,0.550334 -0.092,0 -0.651652,0.869579 -1.062575,1.651 -0.220391,0.4191 -0.50852,0.900833 -0.640288,1.070517 -0.131768,0.169685 -0.239577,0.370467 -0.239577,0.446183 0,0.07572 -0.08968,0.279783 -0.199298,0.453482 -0.109614,0.1737 -0.228835,0.411068 -0.264937,0.527485 -0.0361,0.116416 -0.155967,0.382813 -0.266369,0.591992 -0.110401,0.20918 -0.20073,0.445446 -0.20073,0.525036 0,0.07959 -0.05715,0.36414 -0.127009,0.632332 -0.126235,0.484648 -0.153087,1.043784 -0.07152,1.48914 0.0365,0.199281 0.0836,0.232833 0.326815,0.232833 0.245369,0 0.35982,-0.08381 0.838229,-0.613833 0.568378,-0.629698 1.083126,-1.334332 1.531148,-2.095978 0.1397,-0.237492 0.46355,-0.726484 0.719667,-1.086647 0.256116,-0.360163 0.537837,-0.786775 0.626046,-0.948025 0.08821,-0.161251 0.228259,-0.369384 0.311223,-0.462517 0.08297,-0.09313 0.176457,-0.272546 0.207761,-0.398694 0.0313,-0.126148 0.110329,-0.273688 0.17561,-0.327867 0.06528,-0.05418 0.118693,-0.14827 0.118693,-0.209092 0,-0.06082 0.04848,-0.160932 0.107744,-0.222466 0.05926,-0.06154 0.216334,-0.369968 0.349055,-0.685407 0.25571,-0.607752 0.56072,-0.932076 0.797438,-0.847933 0.336333,0.11955 0.345539,0.181141 0.127626,0.853881 -0.385295,1.189483 -0.549696,1.747771 -0.659482,2.239538 -0.05975,0.267645 -0.144617,0.534345 -0.188592,0.592667 -0.180259,0.23907 -0.449122,1.470799 -0.449122,2.05754 0,0.314814 0.02668,0.376833 0.162137,0.376833 0.08918,0 0.308251,-0.16367 0.486834,-0.363712 0.178582,-0.200041 0.477095,-0.471751 0.663362,-0.603799 0.186267,-0.132048 0.445165,-0.377953 0.57533,-0.546455 0.222272,-0.287737 0.576682,-0.586926 1.082405,-0.913753 0.120121,-0.07763 0.282569,-0.252949 0.360996,-0.389599 0.120752,-0.210397 0.178081,-0.239756 0.374265,-0.191664 0.394745,0.09677 0.487149,0.255916 0.470945,0.811107 -0.0184,0.630465 0.110926,0.661218 0.608538,0.144708 0.978491,-1.015651 1.915747,-1.639972 2.267587,-1.510481 0.10263,0.03777 0.25829,0.190871 0.34591,0.340224 0.14123,0.240746 0.1491,0.335735 0.0694,0.837321 -0.0495,0.311173 -0.11605,0.670474 -0.14798,0.798446 -0.0704,0.281988 0.14458,0.656324 0.37686,0.656324 0.0865,0 0.25708,-0.130775 0.37899,-0.29061 0.12191,-0.159836 0.29101,-0.312622 0.37578,-0.339525 0.0848,-0.0269 0.21663,-0.180015 0.29304,-0.340246 0.0764,-0.160232 0.24521,-0.358341 0.37511,-0.440242 0.12989,-0.0819 0.48383,-0.399425 0.78651,-0.705609 0.30268,-0.306185 0.69545,-0.666375 0.87282,-0.800423 0.17737,-0.134048 0.37809,-0.351236 0.44604,-0.482641 0.34714,-0.671299 1.30153,-0.114577 1.03567,0.604132 -0.0874,0.236179 -0.0344,0.424522 0.11931,0.424438 0.0597,-3.3e-5 0.43812,-0.333408 0.84099,-0.740834 0.88398,-0.893962 1.50901,-1.257415 1.91749,-1.115016 0.39806,0.138762 0.48496,0.498168 0.35601,1.472413 -0.16417,1.240359 0.10738,1.488868 0.77015,0.704815 0.57571,-0.681054 1.3806,-1.420492 1.46016,-1.341427 0.16527,0.164231 -0.18522,0.645259 -1.1751,1.612775 -0.11911,0.116416 -0.36277,0.373591 -0.54148,0.5715 -0.39428,0.436659 -0.77885,0.488006 -1.16551,0.155619 -0.22988,-0.197614 -0.23892,-0.236599 -0.27988,-1.2065 -0.042,-0.993324 -0.0442,-1.002501 -0.254,-1.026301 -0.25773,-0.02924 -1.01203,0.514813 -1.3555,0.97767 -0.12911,0.17399 -0.67704,0.750398 -1.21762,1.280907 -0.54059,0.53051 -0.98288,0.997235 -0.98288,1.037167 0,0.13737 -0.33281,0.07243 -0.4149,-0.08096 -0.11698,-0.218579 0.0308,-0.79799 0.31031,-1.21658 0.51717,-0.774523 0.67348,-1.254517 0.40854,-1.254517 -0.17917,0 -1.29011,1.05729 -3.03042,2.884081 -0.49152,0.515944 -0.86097,0.56884 -1.25074,0.179076 -0.20442,-0.204425 -0.24759,-0.332215 -0.29956,-0.88677 -0.0334,-0.35636 -0.0373,-0.741153 -0.009,-0.855096 0.0654,-0.260713 -0.0132,-0.474625 -0.17448,-0.474625 -0.218427,0 -0.806737,0.46583 -1.805366,1.429505 -0.535517,0.516773 -1.011767,0.982324 -1.058333,1.034559 -0.463799,0.520247 -0.92668,0.926261 -1.016641,0.891739 -0.06072,-0.0233 -0.136178,-0.159763 -0.167694,-0.303255 -0.06058,-0.275833 0.116567,-0.733489 0.506121,-1.307529 0.449033,-0.661687 0.550426,-1.067685 0.266642,-1.067685 -0.05788,0 -0.447249,0.333375 -0.865255,0.740833 -1.389154,1.354101 -1.683993,1.606021 -1.998822,1.707855 -0.258275,0.08354 -0.355944,0.07846 -0.564448,-0.02936 -0.470281,-0.243192 -0.534515,-0.936045 -0.214827,-2.317198 0.125556,-0.542447 0.107203,-0.694797 -0.0837,-0.694797 -0.120691,0 -0.560376,0.631974 -0.560376,0.805447 0,0.0621 -0.13335,0.287614 -0.296334,0.501134 -0.162983,0.213519 -0.296333,0.42085 -0.296333,0.460733 0,0.03988 -0.07384,0.166386 -0.164085,0.281116 -0.09025,0.11473 -0.18985,0.311258 -0.221341,0.436727 -0.03149,0.12547 -0.119577,0.274964 -0.195748,0.332211 -0.07617,0.05725 -0.24852,0.324168 -0.382999,0.593161 -0.258161,0.516391 -1.053618,1.38207 -1.386124,1.508488 -0.349552,0.1329 -0.564919,0.150814 -0.83885,0.06977 z m 78.786445,-1.790216 c -0.0554,-0.10345 -0.0942,-0.358489 -0.0863,-0.566753 0.0168,-0.443768 0.31491,-1.499242 0.44643,-1.580526 0.05,-0.0309 0.15442,-0.194361 0.23204,-0.363241 0.16733,-0.364054 0.9444,-1.450055 1.03757,-1.450055 0.0357,0 0.16772,-0.09525 0.29334,-0.211667 0.12561,-0.116416 0.27311,-0.211666 0.32778,-0.211666 0.0547,0 0.22708,-0.114008 0.38315,-0.25335 0.15608,-0.139343 0.49585,-0.332698 0.75506,-0.42968 0.60816,-0.227544 0.66123,-0.276758 0.80358,-0.745282 0.0655,-0.215612 0.23708,-0.666158 0.38127,-1.001214 0.14419,-0.335056 0.26216,-0.725581 0.26216,-0.867834 0,-0.215936 -0.0333,-0.258641 -0.20144,-0.258641 -0.18415,0 -1.01749,0.322885 -1.32256,0.512439 -0.0699,0.0434 -0.35078,0.196427 -0.62428,0.340059 -0.71611,0.376074 -0.77565,0.256786 -0.31598,-0.633122 0.20904,-0.404697 0.38522,-0.876719 0.41031,-1.099302 0.0401,-0.355329 0.0279,-0.390074 -0.13638,-0.390074 -0.0992,0 -0.18034,0.04247 -0.18034,0.09438 0,0.05191 -0.44768,0.55391 -0.99483,1.11556 -1.32448,1.35955 -1.4289,1.456725 -1.95683,1.821075 -0.24969,0.172325 -0.64974,0.455699 -0.889,0.629719 -0.84834,0.61703 -1.27241,0.689945 -1.54987,0.266485 -0.29567,-0.451256 0.13476,-0.879219 0.88429,-0.879219 0.38744,0 0.5007,-0.08227 0.85431,-0.620556 0.41913,-0.638022 0.51926,-0.953009 0.51926,-1.63345 0,-0.545572 -0.0193,-0.62466 -0.15272,-0.62466 -0.16714,0 -0.55626,0.382087 -0.86226,0.846666 -0.20095,0.305093 -0.39695,0.527181 -1.04613,1.185334 -0.2067,0.20955 -0.44148,0.485775 -0.52175,0.613833 -0.0803,0.128058 -0.19689,0.232833 -0.25914,0.232833 -0.0623,0 -0.37832,0.2667 -0.70235,0.592667 -0.32404,0.325967 -0.62228,0.592667 -0.66277,0.592667 -0.15557,0 -0.61888,-0.586846 -0.61888,-0.783898 0,-0.1132 0.0739,-0.429716 0.16415,-0.703371 0.1613,-0.488933 0.12953,-0.714065 -0.10077,-0.714065 -0.11004,0 -0.89699,0.819418 -1.46361,1.524 -0.24342,0.302684 -0.51372,0.615991 -0.60067,0.696239 -0.087,0.08025 -0.31717,0.299463 -0.5116,0.487145 -0.3234,0.312178 -0.37386,0.333501 -0.59251,0.250368 -0.33972,-0.129161 -0.51491,-0.310026 -0.62583,-0.646098 -0.0834,-0.252802 -0.0661,-0.378221 0.12741,-0.923369 0.28321,-0.79776 0.20989,-0.994452 -0.22558,-0.605118 -0.11719,0.104775 -0.28468,0.25271 -0.3722,0.328745 -0.0875,0.07603 -0.42582,0.449728 -0.75179,0.83043 -0.32596,0.380702 -0.70468,0.751841 -0.84159,0.824753 -0.13692,0.07291 -0.30837,0.199606 -0.381,0.281541 -0.3339,0.376629 -1.3044,0.945538 -1.72694,1.012333 -0.53876,0.08517 -0.77194,8.86e-4 -0.98136,-0.354691 -0.0898,-0.152503 -0.22427,-0.338644 -0.29877,-0.413648 -0.13551,-0.136433 -0.10793,-0.297365 0.11447,-0.667963 0.0419,-0.06985 0.1831,-0.407388 0.31372,-0.750085 0.13063,-0.342697 0.2819,-0.64012 0.33616,-0.66094 0.0543,-0.02082 0.22069,-0.226207 0.36986,-0.456415 0.14917,-0.230208 0.30146,-0.41856 0.33842,-0.41856 0.037,0 0.17564,-0.08531 0.30819,-0.189566 0.31622,-0.248741 1.11598,-0.571546 1.41724,-0.572042 0.54261,-8.92e-4 0.73561,0.346083 0.37544,0.674954 -0.10478,0.09567 -0.34947,0.316228 -0.54376,0.490132 -0.19428,0.173904 -0.75312,0.697189 -1.24186,1.162855 -0.48874,0.465667 -0.95106,0.897805 -1.02737,0.960306 -0.0884,0.07242 -0.12933,0.210609 -0.1128,0.381 0.0224,0.231276 0.0619,0.270856 0.29256,0.293254 0.43508,0.04225 1.28536,-0.40006 1.85663,-0.965822 0.27734,-0.274673 0.59365,-0.556554 0.70291,-0.626404 0.28002,-0.179022 1.36485,-1.249819 1.36485,-1.347192 0,-0.0444 0.0857,-0.106533 0.1905,-0.138069 0.10478,-0.03154 0.40005,-0.279849 0.65617,-0.551806 0.57172,-0.607082 0.9533,-0.793706 1.27874,-0.625412 0.12306,0.06363 0.24459,0.195447 0.27008,0.292919 0.0559,0.213576 -0.22264,0.874047 -0.47493,1.126334 -0.19532,0.195325 -0.47394,0.908485 -0.47846,1.224716 -0.006,0.418178 0.25721,0.317406 0.87657,-0.335625 0.86427,-0.911257 1.5067,-1.640677 1.60245,-1.81945 0.15083,-0.281596 1.11396,-1.208828 1.25785,-1.210974 0.0777,-0.0012 0.26144,0.06457 0.40826,0.146059 0.2424,0.134537 0.26316,0.177977 0.22571,0.472238 -0.0227,0.178239 -0.099,0.387926 -0.16967,0.465971 -0.14997,0.165717 -0.43162,1.324144 -0.35291,1.451507 0.0993,0.160712 0.27543,0.08861 0.60493,-0.247669 0.18024,-0.183949 0.37153,-0.378259 0.42508,-0.4318 0.0536,-0.05354 0.16785,-0.170802 0.254,-0.260579 0.0861,-0.08978 0.4858,-0.495543 0.88811,-0.9017 0.68726,-0.693822 1.19229,-1.465963 1.38295,-2.114391 0.0308,-0.104825 0.12013,-0.224148 0.19847,-0.265162 0.57489,-0.300986 1.00255,1.043476 0.84446,2.65476 -0.031,0.316261 0.19354,0.38746 0.4146,0.131448 0.0844,-0.09769 0.47723,-0.51294 0.87304,-0.922774 0.39582,-0.409834 1.03588,-1.090296 1.42236,-1.512138 0.38647,-0.421841 0.77767,-0.786594 0.86932,-0.810561 0.20774,-0.05433 0.41766,0.145828 0.41766,0.398234 0,0.266147 -0.36267,1.303307 -0.58039,1.659782 -0.23999,0.392956 -0.24391,0.762 -0.008,0.762 0.18325,0 0.62892,-0.201659 0.84247,-0.381195 0.0699,-0.05873 0.22225,-0.135467 0.33866,-0.170535 0.11642,-0.03507 0.23072,-0.08921 0.254,-0.120317 0.10041,-0.134148 0.68124,-0.436202 0.75323,-0.39171 0.0434,0.02685 0.0968,9.5e-4 0.11869,-0.05755 0.0271,-0.07264 0.0591,-0.05933 0.10102,0.042 0.0741,0.179271 -0.0177,0.59605 -0.11774,0.534253 -0.0391,-0.02419 -0.13427,0.174277 -0.2114,0.441038 -0.0771,0.266761 -0.18127,0.599319 -0.2314,0.739019 -0.6664,1.856861 -0.63933,1.69859 -0.33855,1.97956 0.23199,0.216707 0.2605,0.283304 0.18318,0.427779 -0.11747,0.219498 -0.37673,0.358058 -0.54742,0.29256 -0.30065,-0.115372 -0.5315,0.04257 -0.72371,0.495143 -0.10409,0.245094 -0.25694,0.521825 -0.33967,0.614959 -0.0827,0.09313 -0.21722,0.302683 -0.29886,0.465666 -0.13678,0.273058 -0.25096,0.42355 -0.96354,1.27 -0.47695,0.566557 -0.64721,0.743171 -1.29524,1.343528 -0.35846,0.332093 -0.70955,0.603806 -0.78019,0.603806 -0.0706,0 -0.17374,-0.08464 -0.2291,-0.188092 z m 1.16689,-1.272408 c 0.31371,-0.291042 0.65613,-0.624417 0.76094,-0.740834 0.51615,-0.573318 0.87624,-1.036286 0.87657,-1.126983 2e-4,-0.05538 0.11433,-0.272133 0.25364,-0.481683 0.57742,-0.868623 0.13627,-0.921207 -1.05685,-0.125973 -0.22086,0.147204 -0.9247,0.832078 -1.19654,1.164295 -0.2412,0.294784 -0.61933,1.295821 -0.6232,1.649844 -0.004,0.362698 0.36679,0.235281 0.98544,-0.338666 z M 154.9579,64.966241 c 0.65276,-0.649364 0.85707,-0.996702 0.58628,-0.996702 -0.49876,0 -1.68611,1.208316 -1.54604,1.573334 0.0861,0.224445 0.25877,0.120725 0.95976,-0.576632 z m -12.85544,5.174921 c -0.15408,-0.154086 -0.17373,-0.254968 -0.14429,-0.740833 0.0293,-0.483365 0.087,-0.650491 0.41063,-1.18851 0.56536,-0.939988 1.6097,-1.947844 2.45863,-2.372749 0.93106,-0.466012 1.17874,-0.448209 1.17874,0.08473 0,0.249716 0.28154,0.197306 0.44728,-0.08326 0.13852,-0.234503 0.58402,-0.472807 0.68852,-0.368304 0.1085,0.108497 0.0389,0.517745 -0.15555,0.914852 -0.36938,0.754304 -0.47225,1.069084 -0.47225,1.44513 0,0.300262 0.0289,0.37066 0.15215,0.37066 0.16429,0 0.55719,-0.385102 1.07977,-1.058333 0.18073,-0.232833 0.50136,-0.61685 0.71251,-0.853371 0.49473,-0.554175 1.23882,-1.453091 1.76562,-2.132981 0.31269,-0.40356 0.69262,-1.205015 0.69262,-1.461062 0,-0.09181 -0.0525,-0.16692 -0.11677,-0.16692 -0.12241,0 -0.81618,0.286693 -1.53423,0.634003 -0.23283,0.112618 -0.80413,0.380107 -1.26955,0.594418 -0.46542,0.214312 -0.93021,0.468561 -1.03286,0.564997 -0.22839,0.214555 -0.44926,0.149037 -0.44926,-0.133264 0,-0.290534 0.36954,-0.698154 0.74361,-0.820226 0.1731,-0.05649 0.56238,-0.227865 0.86506,-0.380834 0.30268,-0.152969 0.74083,-0.361686 0.97367,-0.463815 0.23283,-0.102129 0.65494,-0.295246 0.93802,-0.42915 0.28308,-0.133904 0.54597,-0.243462 0.58421,-0.243462 0.0382,0 0.26382,-0.09864 0.50131,-0.21921 0.41181,-0.209068 0.77088,-0.619434 1.06759,-1.220123 0.0575,-0.116417 0.20228,-0.316442 0.32172,-0.4445 0.14915,-0.159913 0.17905,-0.23364 0.0955,-0.235408 -0.0863,-0.0018 -0.0768,-0.0287 0.0328,-0.09243 0.2503,-0.145553 0.31281,0.01463 0.30966,0.793502 -0.002,0.510124 0.0665,0.514148 1.08175,0.0635 0.41964,-0.186266 0.80802,-0.338666 0.86307,-0.338666 0.1439,0 0.0347,0.31647 -0.24834,0.719666 -0.2005,0.285632 -0.29549,0.345768 -0.60653,0.38401 -0.20284,0.02494 -0.6384,0.170403 -0.96792,0.323254 -0.56538,0.262259 -0.61644,0.309776 -0.90651,0.843657 -0.16907,0.31116 -0.467,0.756246 -0.66207,0.989079 -0.4524,0.539967 -0.65783,1.003931 -0.80173,1.810688 -0.18709,1.048855 -0.15816,1.708776 0.0958,2.185332 0.16676,0.312919 0.20405,0.474949 0.16175,0.702981 -0.12631,0.681055 -0.46466,0.697699 -0.71259,0.03505 -0.20281,-0.542068 -0.24812,-1.231662 -0.14276,-2.172888 0.0683,-0.61052 0.0624,-0.656126 -0.0847,-0.655588 -0.087,3.22e-4 -0.24272,0.124143 -0.34612,0.275167 -0.1034,0.151023 -0.4091,0.503188 -0.67934,0.782588 -0.27024,0.2794 -0.62246,0.67945 -0.7827,0.889 -0.87967,1.150308 -1.51528,1.693333 -1.98208,1.693333 -0.26206,0 -0.35173,-0.158242 -0.43181,-0.762 -0.034,-0.256116 -0.0788,-0.494345 -0.0995,-0.529395 -0.0592,-0.09983 -0.35172,0.08986 -0.47043,0.305054 -0.0591,0.107104 -0.46937,0.525688 -0.91175,0.930186 -0.44238,0.404498 -0.91863,0.847535 -1.05833,0.984527 -0.24955,0.244709 -0.61255,0.426295 -0.85218,0.426295 -0.0668,0 -0.20176,-0.08027 -0.29987,-0.178377 z m 1.28631,-0.85879 c 0.17826,-0.151341 0.53586,-0.446616 0.79465,-0.656166 0.60163,-0.487151 1.65342,-1.725727 1.65342,-1.947046 0,-0.256085 -0.55076,-0.22717 -1.06884,0.05612 -0.70565,0.385849 -1.53622,1.10931 -1.64219,1.430411 -0.0526,0.159434 -0.14353,0.318749 -0.20203,0.354033 -0.13397,0.08081 -0.38894,0.593921 -0.38894,0.782717 0,0.354576 0.42438,0.344605 0.85393,-0.02006 z m -31.42093,-1.293976 c -0.1693,-0.204 -0.20268,-0.91292 -0.0623,-1.32425 0.16658,-0.488252 0.86234,-1.553071 1.1372,-1.740431 0.12091,-0.08241 0.41483,-0.325885 0.65315,-0.541047 0.23833,-0.215163 0.56667,-0.458675 0.72966,-0.541138 0.16298,-0.08246 0.38719,-0.220747 0.49825,-0.307296 0.11105,-0.08655 0.33207,-0.157362 0.49115,-0.157362 0.25053,0 0.30581,0.03966 0.41305,0.296333 0.15135,0.362229 0.22746,0.3692 0.46033,0.04216 0.24604,-0.345526 0.48159,-0.465716 0.64574,-0.329486 0.1464,0.121504 0.10689,0.353937 -0.1486,0.874284 -0.28252,0.575383 -0.41007,1.00373 -0.41136,1.38154 -0.001,0.299587 0.0262,0.359834 0.16234,0.359834 0.09,0 0.25132,-0.123825 0.35858,-0.275167 0.2431,-0.343023 1.09277,-1.279945 1.20013,-1.323372 0.10927,-0.0442 -0.002,0.383432 -0.19948,0.768542 -0.20224,0.393837 -1.13672,1.351577 -1.5024,1.539785 -0.20125,0.103578 -0.31886,0.119043 -0.43454,0.05713 -0.19769,-0.1058 -0.24941,-0.238897 -0.31729,-0.816459 -0.0368,-0.313215 -0.0918,-0.458463 -0.17357,-0.458463 -0.0658,0 -0.35586,0.255357 -0.64451,0.567461 -0.98618,1.066296 -1.49573,1.535201 -1.95192,1.796206 -0.50739,0.290299 -0.74312,0.324524 -0.90357,0.13119 z m 1.07117,-0.775441 c 0.86602,-0.47812 2.6565,-2.321851 2.6565,-2.735518 0,-0.176673 -0.025,-0.184712 -0.39954,-0.128544 -0.21975,0.03295 -0.57217,0.148863 -0.78317,0.257577 -0.44625,0.229931 -1.57919,1.298346 -1.84903,1.743729 -0.21953,0.362337 -0.25636,1.090673 -0.0551,1.090673 0.01,0 0.20333,-0.102563 0.43039,-0.227917 z"
         id="path856" />
    </g>
  </g>
</svg>
