<?xml version="1.0" encoding="UTF-8" standalone="no"?>
<!-- Created with Inkscape (http://www.inkscape.org/) -->

<svg
   width="37.035137mm"
   height="78.130318mm"
   viewBox="0 0 37.035138 78.130317"
   version="1.1"
   id="svg5"
   inkscape:version="1.1.2 (b8e25be833, 2022-02-05)"
   sodipodi:docname="arrow.svg"
   xmlns:inkscape="http://www.inkscape.org/namespaces/inkscape"
   xmlns:sodipodi="http://sodipodi.sourceforge.net/DTD/sodipodi-0.dtd"
   xmlns="http://www.w3.org/2000/svg"
   xmlns:svg="http://www.w3.org/2000/svg">
  <sodipodi:namedview
     id="namedview7"
     pagecolor="#ffffff"
     bordercolor="#666666"
     borderopacity="1.0"
     inkscape:pageshadow="2"
     inkscape:pageopacity="0.0"
     inkscape:pagecheckerboard="0"
     inkscape:document-units="mm"
     showgrid="false"
     fit-margin-top="0"
     fit-margin-left="0"
     fit-margin-right="0"
     fit-margin-bottom="0"
     inkscape:zoom="2.8792368"
     inkscape:cx="2.9521712"
     inkscape:cy="187.37604"
     inkscape:window-width="1920"
     inkscape:window-height="1001"
     inkscape:window-x="-9"
     inkscape:window-y="-9"
     inkscape:window-maximized="1"
     inkscape:current-layer="layer1" />
  <defs
     id="defs2" />
  <g
     inkscape:label="Warstwa 1"
     inkscape:groupmode="layer"
     id="layer1"
     transform="translate(-90.030233,-42.624103)">
    <path
       style="fill:#000000;stroke-width:0.0846667"
       d="m 121.10292,120.6333 c -0.58442,-0.0888 -1.77886,-0.26385 -2.286,-0.3351 -0.28776,-0.0404 -1.36921,-0.20316 -1.98967,-0.29939 -0.2794,-0.0433 -0.79375,-0.11898 -1.143,-0.1681 -0.34925,-0.0491 -0.72325,-0.10413 -0.8311,-0.12223 -0.10786,-0.0181 -1.23181,-0.0562 -2.49767,-0.0847 -1.26586,-0.0285 -2.70161,-0.0682 -3.19056,-0.0882 -0.48895,-0.02 -3.28496,-0.0568 -6.21336,-0.0819 -2.92839,-0.025 -5.357313,-0.0659 -5.397599,-0.0908 -0.04029,-0.0249 -1.001947,-0.0215 -2.137025,0.008 -1.740172,0.0446 -2.112071,0.0327 -2.371756,-0.0758 -0.169387,-0.0708 -0.330568,-0.18755 -0.358179,-0.2595 -0.02944,-0.0767 -0.152608,-0.13082 -0.297871,-0.13082 -0.383489,0 -0.50287,-0.51055 -0.181706,-0.77709 0.102939,-0.0854 0.18507,-0.073 0.43535,0.0659 0.215324,0.1195 0.500231,0.17855 0.943476,0.19556 0.34925,0.0134 0.656842,0.0377 0.683537,0.0541 0.0267,0.0163 0.719672,0.0561 1.539949,0.0884 1.250385,0.0492 1.536725,0.0377 1.771796,-0.0712 0.509763,-0.23615 3.134388,-0.58506 5.233388,-0.69571 1.37075,-0.0723 2.46662,-0.14374 2.6605,-0.17354 0.0967,-0.0149 0.51873,-0.051 0.93783,-0.0803 2.1502,-0.15025 2.34925,-0.26841 0.71967,-0.42718 -0.25612,-0.025 -0.96097,-0.0995 -1.56633,-0.16575 -0.60537,-0.0662 -1.34832,-0.14347 -1.651,-0.1717 -0.30269,-0.0282 -0.71858,-0.0694 -0.9242,-0.0914 -0.43794,-0.0469 -5.448676,-0.51766 -6.314807,-0.59325 -0.325966,-0.0284 -0.706966,-0.0657 -0.846666,-0.0828 -0.1397,-0.0171 -0.602379,-0.0563 -1.028176,-0.087 -0.853353,-0.0615 -0.792695,-0.096 -0.916045,0.52037 -0.04375,0.21859 -0.01788,0.27733 0.165297,0.37536 0.247897,0.13267 0.340147,0.39988 0.266018,0.77053 -0.06295,0.31476 -0.184024,0.44083 -0.543429,0.56587 -0.304537,0.10595 -0.588027,0.0384 -0.772679,-0.18408 -0.062,-0.0747 -0.222355,-0.13582 -0.356353,-0.13582 -0.226591,0 -0.5823,-0.24945 -0.5823,-0.40835 0,-0.0383 0.340316,-1.8576 0.756257,-4.04283 0.415941,-2.18523 0.78079,-4.1446 0.810776,-4.35415 0.02998,-0.20955 0.18279,-1.05501 0.339568,-1.87879 0.156777,-0.82379 0.308265,-1.66199 0.33664,-1.86267 0.02837,-0.20068 0.140457,-0.86018 0.249071,-1.46554 0.221896,-1.23675 0.448882,-2.56084 0.515261,-3.00568 0.02432,-0.16298 0.09981,-0.60113 0.16776,-0.973665 0.06795,-0.372534 0.14437,-0.848784 0.169825,-1.058334 0.02545,-0.20955 0.06342,-0.43815 0.08436,-0.508 0.02094,-0.06985 0.07466,-0.37465 0.119363,-0.677333 0.0447,-0.302683 0.141311,-0.931333 0.214682,-1.397 0.07337,-0.465667 0.173711,-1.113367 0.222977,-1.439333 0.04927,-0.325967 0.125273,-0.821267 0.168904,-1.100667 0.04363,-0.2794 0.135818,-0.90805 0.204859,-1.397 0.160693,-1.138032 0.286525,-2.00632 0.33742,-2.328333 0.08367,-0.529351 0.377295,-2.90171 0.424411,-3.429 0.02705,-0.302683 0.06449,-0.683683 0.08321,-0.846667 0.052,-0.45267 0.120277,-1.092793 0.171593,-1.608666 0.02548,-0.256117 0.06374,-0.599017 0.08502,-0.762 0.02128,-0.162984 0.05984,-0.543984 0.08569,-0.846667 0.02585,-0.302683 0.06362,-0.683683 0.08393,-0.846666 0.02032,-0.162984 0.07722,-0.715434 0.126449,-1.227667 0.04923,-0.512233 0.106743,-1.083733 0.127808,-1.27 0.02106,-0.186267 0.07882,-0.738717 0.128352,-1.227667 0.04953,-0.48895 0.104049,-1.02235 0.121154,-1.185333 0.01711,-0.162983 0.05636,-0.543983 0.08722,-0.846667 0.03087,-0.302683 0.06996,-0.645583 0.08688,-0.762 0.07486,-0.515182 0.135646,-1.524 0.09182,-1.524 -0.02652,0 -1.239525,0.589776 -2.695577,1.310612 -1.456052,0.720837 -2.761667,1.333053 -2.901367,1.360479 -0.189386,0.03718 -0.302999,0.004 -0.446619,-0.130551 l -0.192619,-0.180418 -0.523635,0.210416 c -0.367345,0.147613 -0.567217,0.187092 -0.669648,0.132273 -0.08031,-0.04298 -0.23863,-0.07814 -0.351828,-0.07814 -0.268317,0 -0.651984,-0.305029 -0.651984,-0.51835 0,-0.09206 0.06471,-0.289325 0.143796,-0.438355 0.07909,-0.149029 0.13385,-0.337593 0.121695,-0.41903 -0.01932,-0.12942 0.593961,-1.372881 1.639045,-3.323265 0.174664,-0.325967 0.46041,-0.859367 0.634991,-1.185333 0.795484,-1.48528 1.393703,-2.576485 1.699862,-3.100702 0.182936,-0.31323 0.332611,-0.587613 0.332611,-0.609739 0,-0.02213 0.3429,-0.638428 0.762,-1.369559 0.4191,-0.731131 0.762,-1.343574 0.762,-1.360984 0,-0.01741 0.4191,-0.759227 0.931333,-1.64848 0.512234,-0.889253 0.931334,-1.634678 0.931334,-1.6565 0,-0.02182 0.28575,-0.536959 0.635,-1.144751 0.34925,-0.607791 0.635,-1.123454 0.635,-1.145918 0,-0.03688 1.16536,-2.092946 1.35975,-2.399033 0.0444,-0.06985 0.10543,-0.18415 0.1357,-0.254 0.0303,-0.06985 0.41102,-0.74429 0.84612,-1.498755 0.4351,-0.754465 0.7911,-1.388993 0.7911,-1.410062 0,-0.03656 2.03289,-3.600075 2.20461,-3.864517 0.0453,-0.06985 0.10774,-0.18415 0.13863,-0.254 0.0309,-0.06985 0.65929,-1.163069 1.39646,-2.429375 0.73716,-1.266307 1.3403,-2.342632 1.3403,-2.391834 0,-0.0492 0.0344,-0.08946 0.0764,-0.08946 0.042,0 0.11939,-0.104775 0.17196,-0.232833 0.14577,-0.355113 0.31676,-0.628943 0.4425,-0.708641 0.16801,-0.106491 0.52618,-0.08959 0.69345,0.03271 0.13686,0.100074 0.84187,1.830933 2.49108,6.11576 0.37638,0.9779 0.91902,2.3876 1.20585,3.132666 3.24461,8.42812 6.36085,17.446596 8.03067,23.241 0.0887,0.307984 -0.0136,0.968427 -0.17504,1.129909 -0.0765,0.07654 -0.22782,0.151759 -0.33618,0.16715 -0.12341,0.01753 -0.24119,0.125928 -0.31527,0.290173 -0.065,0.144203 -0.18813,0.280456 -0.27351,0.302783 -0.18367,0.04803 -0.99576,-0.193748 -1.61988,-0.482273 -0.24402,-0.11281 -0.61513,-0.283522 -0.82468,-0.379362 -1.32819,-0.607453 -3.3191,-1.951707 -4.49016,-3.031733 -0.49907,-0.460281 -1.52117,-1.08381 -1.52117,-0.927987 0,0.09501 0.28427,0.694753 0.34847,0.735181 0.0415,0.02613 0.269,0.52143 0.50558,1.100667 0.45647,1.117622 1.2234,2.971638 1.34625,3.254492 0.13221,0.3044 1.28326,3.198826 1.5825,3.979333 0.7779,2.029048 1.27184,3.333182 1.73162,4.572 0.72396,1.950599 2.73554,7.520835 3.16459,8.762999 0.20105,0.582084 0.7093,2.054788 1.12943,3.272677 0.42013,1.217889 1.0521,2.866265 1.40438,3.663065 0.35228,0.7968 0.64051,1.46601 0.64051,1.48714 0,0.0211 0.15002,0.39206 0.33338,0.82428 0.83077,1.95832 1.57381,3.99967 2.15055,5.90818 0.44327,1.46685 0.91573,3.46751 0.88823,3.76127 -0.0138,0.14733 0.17337,0.85873 0.43102,1.63835 0.49272,1.49089 0.49825,1.63757 0.0723,1.91668 -0.34478,0.22591 -0.53972,0.0864 -0.99769,-0.71386 -0.575,-1.00481 -1.00085,-1.9395 -1.75441,-3.85077 -0.34884,-0.88477 -0.70179,-1.74202 -0.78435,-1.905 -0.19141,-0.3779 -0.6778,-1.69036 -2.38465,-6.43467 -0.77823,-2.16315 -1.78791,-5.280016 -2.90729,-8.974675 -0.88707,-2.927915 -2.82098,-8.72761 -3.45843,-10.371666 -0.90683,-2.338788 -3.9702,-11.405782 -3.90817,-11.567431 0.0248,-0.06472 -0.10776,-0.572838 -0.29466,-1.129154 -0.37512,-1.116585 -0.39576,-1.248584 -0.21822,-1.395923 0.14994,-0.12444 0.47108,0.02006 0.47108,0.211969 0,0.06921 0.0972,0.170132 0.21604,0.224271 0.19104,0.08705 0.24042,0.07214 0.42676,-0.128815 0.11944,-0.128818 0.30166,-0.22725 0.42068,-0.22725 0.36706,0 4.29621,1.922334 6.15071,3.009224 0.27475,0.161027 0.51655,0.292776 0.53734,0.292776 0.12609,0 -0.10927,-0.549912 -1.62494,-3.796658 -0.2031,-0.435046 -0.36926,-0.803244 -0.36926,-0.818218 0,-0.01497 -0.18573,-0.421029 -0.41274,-0.902342 -0.227,-0.481314 -0.70757,-1.522815 -1.06794,-2.314449 -0.36036,-0.791633 -0.86043,-1.871861 -1.11126,-2.400507 -0.25083,-0.528645 -0.45606,-0.972799 -0.45606,-0.987008 0,-0.01421 -0.16624,-0.38178 -0.36942,-0.816826 -0.20318,-0.435046 -0.45579,-0.981492 -0.56136,-1.214325 -0.10557,-0.232834 -0.45369,-0.98845 -0.77359,-1.679148 -0.3199,-0.690698 -0.58163,-1.268447 -0.58163,-1.283885 0,-0.01544 -0.19533,-0.440922 -0.43406,-0.945518 -0.23873,-0.504597 -0.57757,-1.241299 -0.75296,-1.637116 -0.1754,-0.395816 -0.4337,-0.967316 -0.57402,-1.27 -0.14032,-0.302683 -0.58655,-1.274233 -0.99163,-2.159 -0.40508,-0.884766 -0.86472,-1.887832 -1.02143,-2.229035 -0.15671,-0.341203 -0.32225,-0.597297 -0.36788,-0.569099 -0.20416,0.126178 -1.40432,2.080212 -2.08262,3.390801 -0.40971,0.791633 -0.98081,1.896533 -1.26912,2.455333 -0.28831,0.5588 -0.77757,1.501775 -1.08724,2.0955 -1.82449,3.498033 -2.583703,4.96314 -3.718309,7.1755 -0.489573,0.954617 -1.02243,1.983317 -1.184125,2.286 -0.161696,0.302683 -0.452219,0.848535 -0.645607,1.213005 -0.865367,1.630917 -3.222935,5.363689 -3.565302,5.644995 -0.02834,0.02328 -0.139568,0.168352 -0.24718,0.322375 -0.346796,0.496363 -0.18705,0.467296 0.965816,-0.175741 2.564136,-1.430205 5.583545,-2.937016 5.781551,-2.885237 0.09724,0.02543 0.215312,0.156717 0.262386,0.291751 0.0643,0.184418 0.13936,0.245518 0.30166,0.245518 0.29134,0 0.55474,0.2814 0.55474,0.592667 0,0.24307 -0.07,0.339443 -0.47991,0.660531 -0.1706,0.133647 -0.18743,0.24246 -0.23823,1.540802 -0.0301,0.76835 -0.0688,1.5494 -0.086,1.735667 -0.0172,0.186267 -0.0558,0.719667 -0.08574,1.185333 -0.0299,0.465667 -0.06816,0.980017 -0.08503,1.143 -0.01686,0.162984 -0.05394,0.658284 -0.0824,1.100667 -0.02846,0.442383 -0.06801,0.937683 -0.0879,1.100667 -0.01988,0.162983 -0.0943,0.905933 -0.165374,1.650999 -0.07107,0.745067 -0.147987,1.526117 -0.170923,1.735667 -0.07462,0.681677 -0.718904,5.793626 -0.757644,6.011333 -0.02071,0.116417 -0.07873,0.519324 -0.128914,0.895349 -0.05019,0.376026 -0.104502,0.757026 -0.120699,0.846667 -0.03606,0.199583 -0.1415,0.918493 -0.185331,1.263651 -0.01774,0.1397 -0.06891,0.4445 -0.113699,0.677333 -0.04479,0.232833 -0.105181,0.61607 -0.134192,0.851638 -0.04938,0.400943 -0.03886,0.434633 0.164636,0.527352 0.279232,0.127226 0.278969,0.293758 -0.0026,1.6362 -0.120983,0.576846 -0.351237,1.69651 -0.511675,2.488143 -0.160438,0.791634 -0.306776,1.496482 -0.325195,1.566332 -0.01842,0.0699 -0.151827,0.71755 -0.296461,1.43935 -0.144634,0.72178 -0.277984,1.36948 -0.296333,1.43933 -0.01835,0.0699 -0.1517,0.71755 -0.296333,1.43933 -0.144634,0.72179 -0.278442,1.36949 -0.29735,1.43934 -0.01891,0.0699 -0.148747,0.6985 -0.28853,1.397 -0.139783,0.6985 -0.273282,1.3462 -0.296664,1.43933 -0.02338,0.0931 -0.177873,0.83608 -0.343314,1.651 -0.16544,0.81492 -0.399219,1.93887 -0.519508,2.49767 -0.34201,1.58879 -0.340411,1.56523 -0.106763,1.57281 0.10987,0.004 0.256913,0.0178 0.326763,0.0315 0.06985,0.0138 0.5461,0.0518 1.058333,0.0844 0.512234,0.0327 1.064684,0.073 1.227667,0.0898 0.162983,0.0167 0.734483,0.0547 1.27,0.0844 0.535517,0.0297 1.068917,0.0675 1.185333,0.084 0.116417,0.0165 0.63076,0.0536 1.143,0.0824 0.51223,0.0288 1.10278,0.0675 1.31233,0.0861 0.20955,0.0185 0.74295,0.057 1.18533,0.0855 0.44239,0.0285 0.93769,0.0668 1.10067,0.085 0.16298,0.0182 0.77258,0.0562 1.35467,0.0843 0.58208,0.0282 1.15358,0.0666 1.27,0.0854 0.11641,0.0188 0.64981,0.0577 1.18533,0.0864 0.53552,0.0287 1.06892,0.0659 1.18533,0.0825 0.11642,0.0167 0.61172,0.0556 1.10067,0.0866 0.48895,0.031 0.98554,0.068 1.10353,0.0823 0.118,0.0143 0.5752,0.0524 1.016,0.0848 0.44081,0.0323 0.91577,0.0729 1.05547,0.0901 0.1397,0.0172 0.65405,0.0543 1.143,0.0826 0.48895,0.0282 0.93287,0.0651 0.98649,0.0819 0.45369,0.14225 5.47881,0.21196 7.61677,0.10567 1.21792,-0.0605 1.29036,-0.0552 1.50284,0.11198 0.16075,0.12644 0.22323,0.25391 0.22323,0.45541 0,0.50147 -0.072,0.5208 -2.21742,0.59542 -2.99584,0.1042 -3.12817,0.13571 -1.76191,0.41954 0.53066,0.11023 1.58506,0.34304 1.905,0.42061 0.0466,0.0113 0.31327,0.0725 0.59267,0.13598 0.2794,0.0635 0.52705,0.12021 0.55033,0.12601 0.0233,0.006 0.26138,0.0585 0.52911,0.11709 0.26773,0.0586 0.54395,0.16373 0.61383,0.23361 0.18148,0.18148 0.15687,0.55903 -0.051,0.78213 -0.16669,0.17893 -0.24085,0.19026 -1.16416,0.17791 -0.54238,-0.007 -1.02848,-0.01 -1.08023,-0.006 -0.0524,0.004 -0.0771,0.0965 -0.0556,0.20845 0.026,0.13598 -0.0253,0.26047 -0.15852,0.38456 -0.22102,0.20591 -0.55114,0.21428 -1.6814,0.0426 z m -3.25136,-1.96947 c -0.0449,-0.0726 -0.40624,-0.14737 -2.32197,-0.48039 -0.66356,-0.11535 -1.78386,-0.1384 -2.13134,-0.0439 -0.19546,0.0532 -0.1987,0.0618 -0.0423,0.11179 0.16667,0.0533 0.86218,0.16807 1.69333,0.27934 0.23284,0.0312 0.61384,0.0828 0.84667,0.11471 0.69117,0.0948 2.01051,0.1072 1.95564,0.0184 z m -4.11964,-57.946618 c -0.0418,-0.151341 -0.32768,-0.980016 -0.63528,-1.841499 -0.59061,-1.654098 -1.40845,-3.961081 -1.60579,-4.529667 -0.0647,-0.186267 -0.46467,-1.310217 -0.88892,-2.497667 -0.42425,-1.18745 -0.9973,-2.799603 -1.27343,-3.582562 -0.27614,-0.782959 -0.54521,-1.504182 -0.59795,-1.602716 -0.10883,-0.203353 -0.10155,-0.210564 -0.7685,0.76092 l -0.31387,0.45718 0.15879,0.396089 c 0.14999,0.374165 0.54273,1.227987 1.27266,2.766756 0.17671,0.372533 0.40677,0.867833 0.51124,1.100667 0.10447,0.232833 0.39427,0.855025 0.644,1.382648 0.24972,0.527623 0.45405,0.970973 0.45405,0.985222 0,0.01425 0.17145,0.392181 0.381,0.839851 0.95005,2.029625 1.1579,2.477765 1.85997,4.010112 0.69797,1.523389 0.98044,2.000487 0.80203,1.354666 z"
       id="path854" />
  </g>
</svg>
