<?xml version="1.0" encoding="UTF-8" standalone="no"?>
<!-- Created with Inkscape (http://www.inkscape.org/) -->

<svg
   width="5.5993752mm"
   height="4.9619837mm"
   viewBox="0 0 5.5993752 4.9619837"
   version="1.1"
   id="svg5"
   inkscape:version="1.1.2 (b8e25be833, 2022-02-05)"
   sodipodi:docname="serce.svg"
   xmlns:inkscape="http://www.inkscape.org/namespaces/inkscape"
   xmlns:sodipodi="http://sodipodi.sourceforge.net/DTD/sodipodi-0.dtd"
   xmlns="http://www.w3.org/2000/svg"
   xmlns:svg="http://www.w3.org/2000/svg">
  <sodipodi:namedview
     id="namedview7"
     pagecolor="#ffffff"
     bordercolor="#666666"
     borderopacity="1.0"
     inkscape:pageshadow="2"
     inkscape:pageopacity="0.0"
     inkscape:pagecheckerboard="0"
     inkscape:document-units="mm"
     showgrid="false"
     fit-margin-top="0"
     fit-margin-left="0"
     fit-margin-right="0"
     fit-margin-bottom="0"
     inkscape:zoom="32.574846"
     inkscape:cx="11.251013"
     inkscape:cy="8.4881445"
     inkscape:window-width="1920"
     inkscape:window-height="1001"
     inkscape:window-x="-9"
     inkscape:window-y="-9"
     inkscape:window-maximized="1"
     inkscape:current-layer="layer1" />
  <defs
     id="defs2" />
  <g
     inkscape:label="Warstwa 1"
     inkscape:groupmode="layer"
     id="layer1"
     transform="translate(-263.62337,-186.3163)">
    <path
       style="fill:#a02729;stroke-width:0.0423333"
       d="m 266.67793,191.13343 c -0.0701,-0.075 -0.14395,-0.17982 -0.1641,-0.23283 -0.0202,-0.053 -0.0616,-0.0964 -0.0921,-0.0964 -0.0305,0 -0.15889,-0.10478 -0.28535,-0.23284 -0.14193,-0.14371 -0.26604,-0.23283 -0.32424,-0.23283 -0.0519,0 -0.1223,-0.04 -0.15652,-0.0888 -0.0631,-0.0901 -0.25338,-0.20749 -0.33627,-0.20749 -0.0249,0 -0.0867,-0.0389 -0.13726,-0.0863 -0.0505,-0.0475 -0.16607,-0.0983 -0.25673,-0.1128 -0.18252,-0.0293 -0.46288,-0.22996 -0.49548,-0.35462 -0.0115,-0.0441 -0.0664,-0.0975 -0.12196,-0.11861 -0.1138,-0.0433 -0.41521,-0.3597 -0.41521,-0.43591 0,-0.0273 -0.0591,-0.0991 -0.13135,-0.15937 -0.12792,-0.10679 -0.1315,-0.11954 -0.13747,-0.48991 -0.004,-0.24518 0.0153,-0.4329 0.0543,-0.52843 0.1143,-0.28031 0.39202,-0.54332 0.76487,-0.72437 0.0582,-0.0283 0.24486,-0.06 0.41478,-0.0704 0.24725,-0.0152 0.32444,-0.005 0.38657,0.0512 0.0427,0.0386 0.15133,0.0903 0.2414,0.11477 0.17705,0.0481 0.31192,0.1461 0.31192,0.2266 0,0.0277 0.0348,0.0819 0.0773,0.12038 0.0724,0.0655 0.0827,0.0639 0.16125,-0.0252 0.0462,-0.0524 0.10518,-0.14537 0.13118,-0.2067 0.026,-0.0613 0.12791,-0.15658 0.22648,-0.21167 0.0986,-0.0551 0.19523,-0.13349 0.21481,-0.17424 0.0196,-0.0407 0.0517,-0.10701 0.0714,-0.14725 0.0197,-0.0402 0.0911,-0.0848 0.15875,-0.099 0.0676,-0.0142 0.22309,-0.0786 0.34547,-0.14307 0.18921,-0.0997 0.28936,-0.12062 0.66919,-0.14001 0.44669,-0.0228 0.44669,-0.0228 0.60299,0.12552 0.086,0.0816 0.18993,0.16008 0.23103,0.17445 0.0411,0.0144 0.0926,0.0731 0.11439,0.13048 0.0218,0.0574 0.077,0.12432 0.12258,0.14872 0.17852,0.0955 0.26161,0.31317 0.28858,0.75587 0.0179,0.29424 0.0111,0.42909 -0.0228,0.45002 -0.0266,0.0164 -0.0484,0.0667 -0.0484,0.11169 0,0.045 -0.0388,0.10579 -0.0863,0.13509 -0.0475,0.0293 -0.17517,0.16757 -0.28381,0.30727 -0.1997,0.2568 -0.49574,0.55482 -0.72651,0.73136 -0.12425,0.0951 -0.25805,0.31019 -0.25805,0.4149 0,0.0296 -0.0433,0.1076 -0.0962,0.17341 -0.13477,0.16768 -0.24248,0.4178 -0.24248,0.5631 0,0.0677 -0.019,0.13484 -0.0423,0.14923 -0.0233,0.0144 -0.0423,0.10211 -0.0423,0.19493 0,0.37052 -0.4253,0.51937 -0.68615,0.24013 z"
       id="path836" />
  </g>
</svg>
