<?xml version="1.0" encoding="UTF-8" standalone="no"?>
<!-- Created with Inkscape (http://www.inkscape.org/) -->

<svg
   width="97.759384mm"
   height="24.417242mm"
   viewBox="0 0 97.759384 24.417243"
   version="1.1"
   id="svg5"
   sodipodi:docname="bedzie-slub.svg"
   inkscape:version="1.1.2 (b8e25be833, 2022-02-05)"
   xmlns:inkscape="http://www.inkscape.org/namespaces/inkscape"
   xmlns:sodipodi="http://sodipodi.sourceforge.net/DTD/sodipodi-0.dtd"
   xmlns="http://www.w3.org/2000/svg"
   xmlns:svg="http://www.w3.org/2000/svg">
  <sodipodi:namedview
     id="namedview982"
     pagecolor="#ffffff"
     bordercolor="#666666"
     borderopacity="1.0"
     inkscape:pageshadow="2"
     inkscape:pageopacity="0.0"
     inkscape:pagecheckerboard="true"
     inkscape:document-units="mm"
     showgrid="false"
     fit-margin-top="0"
     fit-margin-left="0"
     fit-margin-right="0"
     fit-margin-bottom="0"
     inkscape:zoom="2.8284271"
     inkscape:cx="289.56023"
     inkscape:cy="-15.556349"
     inkscape:window-width="2880"
     inkscape:window-height="1526"
     inkscape:window-x="-2891"
     inkscape:window-y="696"
     inkscape:window-maximized="1"
     inkscape:current-layer="svg5" />
  <defs
     id="defs2">
    <meshgradient
       inkscape:collect="always"
       id="meshgradient1721"
       gradientUnits="userSpaceOnUse"
       x="6.550477"
       y="7.5288348">
      <meshrow
         id="meshrow1723">
        <meshpatch
           id="meshpatch1725">
          <stop
             path="c 31.7697,0  63.5394,0  95.3091,0"
             style="stop-color:#ffffff;stop-opacity:1"
             id="stop1727" />
          <stop
             path="c 0,12.4714  0,24.9428  0,37.4142"
             style="stop-color:#000000;stop-opacity:1"
             id="stop1729" />
          <stop
             path="c -31.7697,0  -63.5394,0  -95.3091,0"
             style="stop-color:#ffffff;stop-opacity:1"
             id="stop1731" />
          <stop
             path="c 0,-12.4714  0,-24.9428  0,-37.4142"
             style="stop-color:#000000;stop-opacity:1"
             id="stop1733" />
        </meshpatch>
      </meshrow>
    </meshgradient>
    <meshgradient
       inkscape:collect="always"
       id="meshgradient2571"
       gradientUnits="userSpaceOnUse"
       x="6.550477"
       y="7.5288348">
      <meshrow
         id="meshrow2583">
        <meshpatch
           id="meshpatch2581">
          <stop
             path="c 31.7697,0  63.5394,0  95.3091,0"
             style="stop-color:#ffffff;stop-opacity:1"
             id="stop2573" />
          <stop
             path="c 0,12.4714  0,24.9428  0,37.4142"
             style="stop-color:#000000;stop-opacity:1"
             id="stop2575" />
          <stop
             path="c -31.7697,0  -63.5394,0  -95.3091,0"
             style="stop-color:#ffffff;stop-opacity:1"
             id="stop2577" />
          <stop
             path="c 0,-12.4714  0,-24.9428  0,-37.4142"
             style="stop-color:#000000;stop-opacity:1"
             id="stop2579" />
        </meshpatch>
      </meshrow>
    </meshgradient>
    <meshgradient
       inkscape:collect="always"
       id="meshgradient3137"
       gradientUnits="userSpaceOnUse"
       x="6.550477"
       y="7.5288348">
      <meshrow
         id="meshrow3149">
        <meshpatch
           id="meshpatch3147">
          <stop
             path="c 31.7697,0  63.5394,0  95.3091,0"
             style="stop-color:#ffffff;stop-opacity:1"
             id="stop3139" />
          <stop
             path="c 0,12.4714  0,24.9428  0,37.4142"
             style="stop-color:#000000;stop-opacity:1"
             id="stop3141" />
          <stop
             path="c -31.7697,0  -63.5394,0  -95.3091,0"
             style="stop-color:#ffffff;stop-opacity:1"
             id="stop3143" />
          <stop
             path="c 0,-12.4714  0,-24.9428  0,-37.4142"
             style="stop-color:#000000;stop-opacity:1"
             id="stop3145" />
        </meshpatch>
      </meshrow>
    </meshgradient>
  </defs>
  <g
     id="layer1"
     transform="rotate(10,134.90454,-11.403608)"
     style="fill:url(#meshgradient1721);fill-opacity:1"
     inkscape:export-filename="C:\projects\strony-slubne\20230422_annamateusz\page-source\src\public\layer1.png"
     inkscape:export-xdpi="96"
     inkscape:export-ydpi="96"
     clip-path="none">
    <g
       id="g2606"
       transform="translate(1.2811626,-0.74066715)"
       style="fill:url(#meshgradient2571);fill-opacity:1;stroke-width:1;stroke-miterlimit:4;stroke-dasharray:none">
      <g
         id="g2954"
         style="fill:url(#meshgradient3137)">
        <path
           id="path2610"
           style="fill:#a0292b;fill-opacity:1;stroke-width:3.77953;stroke-miterlimit:4;stroke-dasharray:none"
           transform="matrix(0.26056372,-0.04594441,0.04594441,0.26056372,1.4852981,16.829489)"
           d="m 341.37305,27.523438 c -1.18157,0.135355 -2.51209,0.724095 -3.78907,1.753906 -0.83336,0.672059 -1.73557,1.326901 -2.0039,1.455078 -0.26833,0.128189 -0.51084,0.365294 -0.53906,0.52539 -0.0521,0.295644 -2.22348,1.723271 -2.53711,1.667969 -0.0942,-0.0166 -0.50671,0.31989 -0.91407,0.748047 -0.78435,0.824392 -1.25256,1.224307 -2.47851,2.113281 -0.41726,0.302572 -0.8173,0.651229 -0.89063,0.777344 -0.0733,0.126103 -0.63446,0.743283 -1.24609,1.371094 -0.61163,0.627812 -1.11972,1.19461 -1.13086,1.257812 -0.0111,0.0632 -0.25009,0.347655 -0.52734,0.632813 -1.02839,1.057623 -3.04637,3.946906 -3.27539,4.6875 -0.12622,0.408289 -0.49182,1.24236 -0.8125,1.853516 -0.963,1.835218 -1.09315,3.638085 -0.3086,4.273437 0.76048,0.615864 2.39668,0.531167 3.04297,-0.15625 0.18992,-0.202003 0.57507,-0.45627 0.85742,-0.566406 0.28235,-0.110117 1.01593,-0.515394 1.62891,-0.900391 0.613,-0.384991 1.42442,-0.878405 1.80273,-1.097656 0.37831,-0.219254 0.83906,-0.596229 1.02344,-0.837891 0.53228,-0.697578 3.87562,-2.858754 4.92383,-3.18164 0.28837,-0.08883 0.87814,-0.42953 1.30859,-0.757813 0.43047,-0.328291 1.31918,-0.827526 1.97461,-1.109375 0.65542,-0.281858 1.93329,-1.010495 2.83985,-1.619141 0.90656,-0.608633 1.76615,-1.123094 1.91211,-1.142578 0.41099,-0.0549 1.67642,-1.187599 1.74218,-1.560546 0.0323,-0.183376 0.29073,-0.489311 0.57617,-0.679688 0.75661,-0.50461 1.44251,-1.851079 1.35743,-2.666016 -0.0363,-0.347758 -0.077,-0.998547 -0.0879,-1.447265 -0.0269,-1.100808 -0.28976,-2.518162 -0.54102,-2.904297 -0.11299,-0.173635 -0.45797,-0.707196 -0.76367,-1.185547 -0.465,-0.727601 -1.17369,-1.152573 -2.02149,-1.287109 -0.35324,-0.05606 -0.72919,-0.0627 -1.12304,-0.01758 z M 23.943359,51.695312 c -0.259008,0.01681 -0.690417,0.03626 -0.958984,0.03906 -2.382341,0.02477 -3.006293,5.172604 -0.855469,7.0625 0.222793,0.195765 0.563067,0.644246 0.75586,0.998047 0.192787,0.353789 0.429919,0.65699 0.52539,0.673828 0.09548,0.01684 0.353615,0.277794 0.574219,0.578125 0.27721,0.377394 0.62951,0.622674 1.142578,0.792969 1.020739,0.338832 2.240784,0.995756 3.091797,1.664062 0.54964,0.431626 1.01781,0.634493 2.037109,0.886719 0.775254,0.191846 1.531395,0.481524 1.826172,0.699219 0.276714,0.204366 0.88527,0.488078 1.351563,0.630859 0.466289,0.14278 1.325168,0.447969 1.910156,0.677735 0.584993,0.22976 1.27032,0.485462 1.523438,0.570312 1.073095,0.359654 6.672265,1.118673 7.164062,0.970703 0.269923,-0.08121 0.824527,-0.17422 1.232422,-0.207031 1.050257,-0.08451 1.214406,-0.156339 1.433594,-0.626953 0.106941,-0.229644 0.347849,-0.537432 0.535156,-0.683594 1.375109,-1.073002 0.648409,-3.313367 -1.277344,-3.935547 -0.671943,-0.217079 -1.451768,-0.565102 -1.732422,-0.773437 -0.280643,-0.208356 -0.886653,-0.48933 -1.345703,-0.625 C 42.353048,60.93304 41.936035,60.699248 41.757812,60.460935 41.569071,60.208521 41.262051,60.043541 40.837891,59.96875 39.819388,59.78916 38.588266,59.270556 38.1875,58.851562 37.917294,58.569077 37.447427,58.36992 36.447266,58.115234 35.331847,57.831189 35.010913,57.68603 34.701172,57.320312 34.492108,57.073481 34.157492,56.841299 33.960938,56.806641 33.764355,56.771981 33.501285,56.577949 33.375,56.376953 c -0.126297,-0.200997 -0.429583,-0.400292 -0.673828,-0.443359 -0.24424,-0.04307 -0.723156,-0.266239 -1.064453,-0.498047 -2.221149,-1.508721 -5.762949,-3.284686 -7.210938,-3.666016 -0.206846,-0.05448 -0.370995,-0.08145 -0.482422,-0.07422 z m 339.697261,4.589844 c -0.39501,0.01045 -0.75841,0.05997 -1.0664,0.154297 -0.35189,0.107776 -0.89289,0.152335 -1.20313,0.09766 -0.31022,-0.0547 -0.86796,-0.008 -1.23828,0.105469 -0.37031,0.113431 -0.79996,0.183529 -0.95508,0.15625 -0.15502,-0.0273 -0.65265,0.02304 -1.10546,0.109375 -0.52519,0.100171 -1.05415,0.08734 -1.46289,-0.0332 -0.53282,-0.157108 -0.74037,-0.131236 -1.22657,0.150391 -0.42356,0.245315 -0.84446,0.322176 -1.52539,0.283203 -0.51703,-0.0296 -1.1671,0.04648 -1.44531,0.166015 -0.50156,0.215534 -1.79529,0.367772 -2.88477,0.341797 -0.31143,-0.0074 -0.74603,0.08359 -0.96679,0.201172 -0.22073,0.117613 -0.72994,0.20372 -1.13282,0.19336 -0.92623,-0.0238 -2.17887,0.281564 -2.35351,0.572265 -0.13064,0.217439 -2.55124,0.928403 -2.93164,0.861328 -0.10574,-0.01864 -0.35359,0.0925 -0.55078,0.246094 -0.19732,0.153581 -0.71174,0.384811 -1.14258,0.515625 -1.03066,0.312955 -2.14747,1.187252 -2.24414,1.753906 -0.17159,1.007671 0.107,1.833968 0.79883,2.363282 0.53482,0.40916 1.49727,0.591189 2.00976,0.380859 0.25178,-0.103323 1.11408,-0.06807 2.45508,0.101562 2.33207,0.294982 4.21932,0.372765 4.55859,0.185547 0.35138,-0.193903 1.44047,-0.204509 3.44727,-0.0332 1.31126,0.111911 1.96,0.09389 2.28516,-0.06055 0.28269,-0.134273 1.03128,-0.189086 1.98437,-0.144531 0.99305,0.04644 1.77597,-0.01334 2.22852,-0.171875 0.61112,-0.214102 1.02102,-0.202789 3.30859,0.0957 2.11733,0.276308 2.71006,0.302546 3.13867,0.134766 0.29074,-0.113791 0.72883,-0.171582 0.97266,-0.128907 0.9843,0.172246 2.99999,-0.709689 3.11523,-1.363281 0.0229,-0.129741 0.23589,-0.456744 0.47657,-0.726562 0.82998,-0.931018 0.58219,-3.89435 -0.41211,-4.919922 -0.70605,-0.728239 -2.23047,-1.302543 -3.67579,-1.507813 -0.43359,-0.06158 -0.86078,-0.09053 -1.25586,-0.08008 z m -38.90429,18.810547 c -1.60259,-0.282579 -4.01286,1.696692 -3.67188,3.015625 0.0617,0.238422 0.0713,0.666971 0.0215,0.949219 -0.16002,0.90753 0.52025,1.610671 1.92383,1.994141 0.81297,0.222095 1.24625,0.425693 1.43945,0.675781 0.19257,0.249298 0.60107,0.44072 1.34961,0.634765 0.59062,0.153076 1.34075,0.428939 1.66601,0.611328 0.64427,0.36123 1.94986,0.95302 3.60938,1.634766 0.58325,0.239609 1.40567,0.6784 1.82617,0.97461 0.42051,0.296175 1.1411,0.657494 1.60156,0.804687 0.46046,0.147203 0.94573,0.409165 1.08008,0.582031 0.13437,0.172908 0.41786,0.349917 0.62695,0.390625 0.20917,0.04084 0.64366,0.23137 0.9668,0.425781 0.32315,0.194419 0.92608,0.508399 1.33984,0.695313 0.41383,0.186918 1.00769,0.540515 1.32032,0.787109 0.31262,0.246592 0.66529,0.465538 0.7832,0.486328 0.11791,0.02079 0.38411,0.174536 0.5918,0.341797 0.42631,0.343308 2.10548,1.109111 2.63867,1.203125 0.1931,0.03405 0.47137,0.18881 0.61719,0.345704 0.30468,0.327898 1.04947,0.514034 1.23437,0.30664 0.0689,-0.07728 0.45717,-0.165947 0.86328,-0.195312 1.53453,-0.110895 2.59252,-3.535368 1.59766,-5.173828 -0.10893,-0.179398 -0.26955,-0.563234 -0.35742,-0.853516 -0.2182,-0.72104 -1.99058,-2.857088 -2.43555,-2.935547 -0.10093,-0.0178 -0.31905,-0.237683 -0.48437,-0.490234 -0.16534,-0.252526 -0.45467,-0.488007 -0.64454,-0.521485 -0.18985,-0.03348 -0.49317,-0.225786 -0.67382,-0.427734 -0.18066,-0.201949 -0.60506,-0.498005 -0.94336,-0.65625 -0.33831,-0.158271 -0.68158,-0.402419 -0.76172,-0.542969 -0.0801,-0.140509 -0.42559,-0.354165 -0.76953,-0.476562 -0.34393,-0.122393 -0.83243,-0.351468 -1.08203,-0.507813 -0.24963,-0.156348 -0.9409,-0.419901 -1.53711,-0.585937 -0.59623,-0.166078 -1.22277,-0.432405 -1.39258,-0.591797 -0.16981,-0.159393 -0.45605,-0.315799 -0.63672,-0.347656 -0.18067,-0.03186 -0.52053,-0.205186 -0.75586,-0.384766 -0.31867,-0.243169 -1.08281,-0.457878 -2.99219,-0.841797 -1.41018,-0.283544 -3.12355,-0.694172 -3.80859,-0.914063 -0.51081,-0.163981 -0.87839,-0.262729 -1.24219,-0.316406 -0.36379,-0.05371 -0.72566,-0.06343 -1.22656,-0.04883 -0.67175,0.0196 -1.42858,-0.0023 -1.68164,-0.04687 z M 21.451172,77.910156 c -0.482822,-0.01274 -0.80376,0.03281 -1.201172,0.13086 -0.510847,0.126006 -1.230991,0.176325 -1.599609,0.111328 -0.368617,-0.065 -0.936587,-0.05751 -1.261719,0.01563 -0.745734,0.167743 -2.83614,0.237525 -3.519531,0.117187 -0.285122,-0.05019 -0.804737,-0.0085 -1.154297,0.09375 -0.349557,0.102233 -1.316934,0.15447 -2.148438,0.115235 -0.8315018,-0.03924 -1.6362717,-0.03327 -1.7890622,0.01367 -0.1527961,0.04698 -0.9460848,0.01157 -1.7636719,-0.07617 -0.9183459,-0.09857 -1.632078,-0.0921 -1.8671875,0.01758 -0.2093072,0.09761 -0.4872559,0.161582 -0.6171875,0.138672 -2.4524079,-0.432426 -4.62999328,1.670864 -4.52539065,4.373047 0.01971168,0.509229 0.03953418,1.074585 0.04296875,1.253906 0.0080288,0.419142 0.9577479,2.019422 1.3554688,2.283203 0.650605,0.431512 5.1725367,0.989028 5.9726562,0.736328 0.4010834,-0.126687 1.319132,-0.205122 2.0390625,-0.175781 0.8110685,0.03308 1.4862675,-0.03566 1.7753905,-0.179688 0.256632,-0.127818 0.879619,-0.215344 1.384766,-0.195312 0.641989,0.02547 1.066538,-0.06086 1.416015,-0.28711 0.331355,-0.214499 0.768719,-0.313538 1.294922,-0.289062 0.436671,0.02034 0.924036,-0.04183 1.082032,-0.140625 0.410562,-0.256757 1.69639,-0.439387 2.332031,-0.330078 0.332044,0.05753 0.703437,-0.01172 0.957031,-0.177735 0.253937,-0.16626 0.711084,-0.249862 1.185547,-0.21875 0.525547,0.03449 0.956958,-0.05781 1.341797,-0.289062 0.311291,-0.187057 0.854183,-0.335725 1.208984,-0.330078 0.354809,0.0057 0.939005,-0.149645 1.296875,-0.34375 0.667672,-0.362132 1.241353,-0.51609 2.042969,-0.548828 0.251061,-0.01026 0.712496,-0.190403 1.027344,-0.400391 0.314833,-0.20997 0.690988,-0.359887 0.83789,-0.333984 1.118334,0.197192 2.681703,-2.504193 2.125,-3.673829 -0.188173,-0.395321 -1.470553,-0.835013 -2.615234,-1.023437 -0.68682,-0.112982 -1.324197,-0.135751 -1.648438,-0.0039 -0.260926,0.106082 -1.186981,0.05273 -2.833984,-0.16211 -1.04689,-0.136565 -1.691006,-0.207964 -2.173828,-0.220703 z m 25.691406,15.017578 c -0.822947,-0.188365 -1.893494,0.08657 -3.216797,0.828125 -0.644509,0.36117 -1.558337,0.867629 -2.027343,1.123047 -1.152489,0.627608 -3.982688,2.54889 -4.013672,2.72461 -0.03865,0.219169 -1.638678,1.198039 -1.886719,1.154296 -0.121404,-0.02141 -0.617526,0.289032 -1.103516,0.689454 -0.48601,0.40052 -1.051038,0.747534 -1.253906,0.771484 -0.202852,0.0239 -0.534315,0.15115 -0.736328,0.2832 -1.074202,0.7023 -2.137412,1.23342 -2.386719,1.18946 -0.155103,-0.0273 -0.660612,0.28378 -1.125,0.69336 -0.464391,0.40959 -0.896081,0.73765 -0.958984,0.72656 -0.06291,-0.0111 -0.396302,0.14965 -0.738282,0.35742 -0.341955,0.20778 -0.692918,0.36323 -0.78125,0.34766 -0.08833,-0.0156 -0.339828,0.17946 -0.55664,0.43164 -0.216817,0.25218 -0.829903,0.79451 -1.365234,1.20507 -1.216292,0.93297 -1.863938,2.49392 -1.638672,3.95704 0.06755,0.43872 0.101181,0.92319 0.07422,1.07617 -0.02697,0.15296 0.0032,0.3571 0.06641,0.45312 0.06317,0.096 0.205579,0.59217 0.318359,1.10352 0.112791,0.51135 0.35754,1.14997 0.541016,1.41797 0.183483,0.26798 0.411027,0.65798 0.507812,0.86914 0.110823,0.24171 0.485424,0.51981 1.007813,0.74804 1.885329,0.82372 2.482806,0.71506 4.992187,-0.9082 0.983714,-0.63634 1.920892,-1.18251 2.083984,-1.21289 0.163059,-0.0303 0.395968,-0.21931 0.515626,-0.41992 0.119674,-0.20062 1.01223,-0.9224 1.984374,-1.60547 0.972161,-0.68306 2.24452,-1.68714 2.828126,-2.23047 0.583604,-0.54331 1.222924,-1.05315 1.419921,-1.13086 0.19696,-0.0777 0.374166,-0.23411 0.394532,-0.34961 0.02036,-0.11549 0.581942,-0.71 1.248047,-1.32031 1.752221,-1.60547 2.289184,-2.16829 3.140624,-3.29297 0.417779,-0.55183 0.862172,-1.13062 0.988282,-1.28711 0.373422,-0.46334 0.896959,-1.406314 1.273437,-2.294919 0.193744,-0.457305 0.552129,-1.123469 0.796875,-1.482422 0.526445,-0.772074 1.094019,-3.384494 0.820313,-3.775391 -0.31358,-0.447836 -0.719128,-0.726795 -1.212891,-0.839844 z" />
      </g>
      <path
         id="path2608"
         style="fill:#35302a;fill-opacity:1;stroke-width:3.77953;stroke-miterlimit:4;stroke-dasharray:none"
         transform="matrix(0.26056372,-0.04594441,0.04594441,0.26056372,1.4852981,16.829489)"
         d="m 296.41992,40.435547 c -0.37562,0.07853 -0.83114,0.404 -1.43164,0.984375 -0.32314,0.312317 -0.73511,0.662481 -0.91211,0.779297 -0.17695,0.116797 -0.33317,0.281134 -0.34765,0.363281 -0.0422,0.239403 -2.60748,3.68665 -2.80079,3.763672 -0.24862,0.09902 -1.36156,1.743801 -1.60937,2.378906 -0.11415,0.292626 -0.4582,0.890522 -0.76367,1.328125 -0.67676,0.969534 -1.92134,3.291515 -1.99805,3.726563 -0.0307,0.174194 -0.35249,0.717449 -0.71484,1.207031 -0.9409,1.271436 -1.75839,2.689707 -1.84961,3.207031 -0.0431,0.244569 -0.14794,0.472977 -0.23047,0.50586 -0.0826,0.03288 -0.26672,0.451601 -0.41016,0.929687 -0.1434,0.478088 -0.36987,1.005728 -0.50195,1.173828 -0.13211,0.168107 -0.2842,0.641644 -0.33789,1.054688 -0.0535,0.413073 -0.21128,0.897661 -0.35156,1.076171 -0.14032,0.178506 -0.42034,0.881088 -0.6211,1.560547 -0.45909,1.553904 -0.95921,3.259933 -1.33594,4.556641 -0.21476,0.739445 -0.26371,1.243272 -0.1875,1.90625 0.057,0.495393 0.0347,1.296437 -0.0488,1.779297 -0.1912,1.101579 -0.10851,2.672863 0.16211,3.103515 0.14146,0.225096 0.15265,0.621197 0.0391,1.265626 -0.1943,1.101929 0.30621,2.965422 0.98828,3.683593 0.21899,0.230598 0.41661,0.546739 0.4375,0.703125 0.0217,0.162108 0.30839,0.408653 0.66992,0.574219 0.34872,0.1597 0.72896,0.380956 0.84375,0.490234 0.47751,0.454583 1.06795,0.409755 3.45508,-0.255859 0.93696,-0.261253 1.8914,-0.958057 2.26758,-1.65625 0.15388,-0.285615 0.6019,-0.790445 0.99609,-1.123047 0.51922,-0.438088 0.84523,-0.895589 1.18164,-1.660156 0.57115,-1.298031 0.77266,-1.570046 1.11914,-1.509766 0.32909,0.05718 1.58699,-0.47553 2.38086,-1.009765 2.32158,-1.562295 3.53177,-2.520188 3.98242,-3.148438 0.28451,-0.396624 0.74013,-0.951523 1.01563,-1.234375 1.34853,-1.384708 2.09467,-3.008779 1.43555,-3.125 -0.88194,-0.155509 -2.02511,0.250997 -3.04297,1.080078 -0.59075,0.481191 -1.37625,1.076344 -1.74414,1.324219 -0.3679,0.247884 -0.75336,0.548734 -0.85547,0.667969 -0.67775,0.79142 -1.59452,0.875424 -2.11328,0.191406 -0.54379,-0.717013 -1.30624,-0.698235 -4.76758,0.128906 -0.51878,0.123974 -1.74661,1.24803 -1.82031,1.666016 -0.0209,0.118589 -0.23711,0.482084 -0.48047,0.804687 -0.74773,0.991221 -0.40864,2.335551 0.63476,2.519532 0.72521,0.127872 0.83123,0.302098 0.6875,1.117187 -0.21109,1.197149 -1.65651,2.772937 -2.41797,2.638672 -0.20718,-0.03653 -0.7733,-2.037 -0.70117,-2.476563 0.0286,-0.173674 -0.0339,-0.650581 -0.13867,-1.058593 -0.1133,-0.440931 -0.13069,-1.082392 -0.043,-1.580078 0.11937,-0.676966 0.0846,-0.945169 -0.18359,-1.408203 -0.32134,-0.554824 -0.32209,-0.585667 0.008,-0.970704 0.18716,-0.218612 0.37816,-0.610118 0.42383,-0.86914 0.0874,-0.495497 0.33769,-0.622875 0.99023,-0.507813 0.67659,0.1193 1.258,-0.15162 1.75586,-0.818359 0.90094,-1.206511 1.88779,-2.914935 2.13281,-3.689453 0.13619,-0.43022 0.44674,-0.961179 0.70508,-1.207031 0.25365,-0.241409 0.54962,-0.684368 0.65821,-0.984376 0.10864,-0.300011 0.37221,-0.807221 0.58593,-1.126953 0.97592,-1.459831 1.11706,-1.709934 1.18946,-2.111328 0.0421,-0.235283 0.25463,-0.614121 0.47265,-0.84375 0.21803,-0.229628 0.41458,-0.52432 0.4375,-0.654297 0.0231,-0.129951 0.3328,-0.806911 0.6875,-1.503906 0.7479,-1.469546 0.88089,-1.758155 1.81836,-3.957031 0.38373,-0.900082 0.76275,-2.003139 0.8418,-2.451172 0.0799,-0.452628 0.36022,-1.174256 0.63086,-1.623047 0.99501,-1.649856 1.56577,-7.544397 0.79883,-8.246094 -0.19969,-0.182741 -0.47603,-0.522607 -0.61328,-0.757812 -0.21958,-0.376274 -0.44373,-0.600117 -0.70704,-0.667969 -0.10971,-0.02827 -0.22635,-0.03009 -0.35156,-0.0039 z m -1.04492,5.304687 c 1.13151,0.06051 0.14722,4.167476 -1.97266,8.234375 -0.32009,0.614045 -0.60362,1.233577 -0.6289,1.376953 -0.0253,0.14337 -0.28431,0.575463 -0.57422,0.957032 -0.28993,0.381572 -0.7105,1.186439 -0.9375,1.791015 -0.24881,0.662704 -0.61753,1.306899 -0.92774,1.623047 -0.28299,0.28843 -0.60187,0.729329 -0.70898,0.978516 -0.17042,0.396353 -0.99153,1.681221 -2.3418,3.664062 -0.22212,0.326184 -0.60645,0.679928 -0.85156,0.785157 -1.2002,0.515251 -1.3239,-0.623823 -0.26367,-2.416016 0.30029,-0.507578 0.68583,-1.408314 0.85547,-2.003906 0.1697,-0.595579 0.44281,-1.229486 0.60742,-1.408203 0.1646,-0.178718 0.41873,-0.6447 0.5625,-1.03711 0.14382,-0.392403 0.53315,-1.138315 0.86719,-1.65625 0.334,-0.517944 0.69151,-1.223232 0.79492,-1.566406 0.10336,-0.343194 0.43622,-1.031177 0.73828,-1.529297 0.30205,-0.498127 0.57419,-1.061513 0.60742,-1.25 0.0332,-0.188506 0.20324,-0.509906 0.375,-0.716797 0.17179,-0.206892 0.62566,-0.942956 1.00977,-1.634765 2.45578,-4.422889 2.32045,-4.216467 2.78906,-4.191407 z m -48.3125,1.722657 c -0.93223,0.116472 -1.7109,0.708647 -2.46484,1.80664 -0.35575,0.518093 -0.8612,1.159209 -1.12305,1.425781 -0.26183,0.266586 -0.59871,0.778841 -0.74805,1.138672 -0.14935,0.359832 -0.39819,0.756517 -0.55468,0.878907 -0.74916,0.586014 -2.55005,3.791095 -2.76368,4.919921 -0.01,0.05297 -0.27432,0.321744 -0.58593,0.597657 -0.32268,0.285753 -0.70016,0.840814 -0.87891,1.289062 -0.17259,0.432856 -0.54112,1.113039 -0.82031,1.513672 -0.2792,0.400637 -0.62252,1.074635 -0.75977,1.494141 -0.13723,0.419513 -0.45051,1.11239 -0.69922,1.541015 -0.2487,0.428627 -0.50131,1.052715 -0.56054,1.388672 -0.0592,0.335968 -0.4645,1.206185 -0.89844,1.931641 -0.66215,1.106931 -0.87804,1.664107 -1.35352,3.464844 -0.64168,2.430151 -1.04096,3.104443 -2.02734,3.425781 -0.21469,0.06994 -0.62854,0.391915 -0.91797,0.716797 -0.28943,0.324892 -0.94537,0.894919 -1.45898,1.265625 -0.51362,0.3707 -1.12672,0.889631 -1.36329,1.15625 -1.5759,1.776252 -3.17347,3.133734 -3.5996,3.058593 -0.2896,-0.05106 -0.38891,-1.765185 -0.14063,-2.412109 0.73501,-1.915183 -1.84227,-8.991438 -3.52734,-9.685547 -1.1216,-0.462006 -2.3882,0.560477 -2.66993,2.158203 -0.0761,0.431713 -0.30372,1.114916 -0.50781,1.517579 -0.20406,0.402666 -0.3955,0.864854 -0.42578,1.027343 -0.0521,0.284145 -0.69921,1.099653 -1.83984,2.314453 -2.09728,2.233702 -3.35936,3.471376 -3.96094,3.882813 -0.87423,0.597923 -1.14898,0.952383 -1.27344,1.658203 -0.19922,1.129849 1.05915,1.600257 1.83985,0.6875 0.21893,-0.255976 0.74816,-0.634161 1.17578,-0.839844 0.47764,-0.229709 0.95452,-0.626697 1.23828,-1.029297 0.25405,-0.360463 0.59181,-0.759447 0.75195,-0.886718 0.85807,-0.681966 2.1931,-2.149081 2.95117,-3.244141 0.9869,-1.4256 1.31966,-1.727414 1.80078,-1.642578 1.05707,0.186389 0.41566,6.092835 -0.83984,7.738281 -0.18163,0.23799 -0.42774,0.704114 -0.54883,1.037109 -0.49246,1.35428 -1.37099,1.783499 -3.05078,1.488282 -1.26907,-0.223092 -1.57318,-0.18185 -2.7168,0.380859 -0.90976,0.447646 -1.50238,1.155176 -1.6875,2.015625 -0.13058,0.606384 -0.0133,0.819745 1.31055,2.378906 0.81006,0.95402 4.72204,0.814537 5.2461,-0.1875 0.0821,-0.156911 0.36245,-0.353541 0.625,-0.435546 0.26252,-0.08199 1.47212,-0.843779 2.68554,-1.69336 1.21344,-0.849583 2.44796,-1.620083 2.7461,-1.71289 0.29814,-0.09282 0.75019,-0.407029 1.00586,-0.699219 0.25563,-0.292183 0.96426,-0.944352 1.57421,-1.447266 0.60994,-0.50292 1.31332,-1.182851 1.56055,-1.511719 0.2472,-0.328878 0.62433,-0.722567 0.83984,-0.875 0.71706,-0.507204 1.6166,-1.473903 1.93164,-2.076172 0.95174,-1.819287 2.28185,-0.05017 1.83985,2.447266 -0.15234,0.861608 -0.12922,1.00939 0.23437,1.503906 0.22171,0.301547 0.5328,0.919591 0.69141,1.375 0.70828,2.033504 3.17693,2.968267 5.62305,2.128907 0.59445,-0.203967 1.0914,-0.425431 1.10351,-0.494141 0.0121,-0.06871 0.24976,-0.174782 0.52735,-0.236328 0.29675,-0.06579 0.75413,-0.394855 1.10937,-0.794922 0.3323,-0.374233 0.89042,-0.906516 1.24024,-1.183594 0.55457,-0.439247 1.96072,-2.193178 2.01757,-2.515625 0.0242,-0.137452 1.05865,-1.095198 1.79688,-1.664062 0.3565,-0.274727 0.64875,-0.711718 0.90039,-1.34961 0.39273,-0.995516 0.87966,-1.483577 2.125,-2.126953 1.05538,-0.54528 1.42772,-0.232536 0.84961,0.712891 -1.8084,2.957238 -1.24748,5.330935 1.73633,7.347656 1.68557,1.139117 2.15026,1.21779 2.72265,0.458985 0.17646,-0.233919 0.91096,-0.832186 1.63282,-1.328126 0.72185,-0.495938 1.48221,-1.128094 1.68945,-1.404296 0.20724,-0.276211 0.62393,-0.724061 0.92773,-0.996094 0.3038,-0.272062 0.56713,-0.572348 0.58399,-0.667969 0.0169,-0.09561 0.30748,-0.400207 0.64648,-0.675781 0.33901,-0.275574 0.84158,-0.800446 1.11524,-1.167969 0.27367,-0.367519 0.79766,-0.832763 1.16601,-1.035156 0.42827,-0.235303 0.78045,-0.588253 0.97656,-0.978516 0.16866,-0.335658 0.45921,-0.661884 0.64454,-0.722656 0.18536,-0.06079 0.48574,-0.304149 0.66796,-0.542969 0.84568,-1.108312 1.03923,-0.468243 0.67579,2.244141 -0.44419,3.315039 -0.34743,3.590229 1.83984,5.169922 1.44248,1.041787 1.79586,1.031961 2.81641,-0.08203 0.29952,-0.326966 0.61135,-0.582818 0.69336,-0.56836 0.082,0.01447 0.62441,-0.419387 1.20507,-0.964844 0.58068,-0.545451 1.48544,-1.282382 2.00977,-1.636718 0.58788,-0.397279 1.27733,-1.07475 1.79883,-1.765625 0.46511,-0.616197 1.22905,-1.453028 1.69922,-1.859375 0.98723,-0.853244 0.99623,-0.874662 0.66992,-1.712891 -0.47109,-1.210127 -1.69862,-1.131006 -2.5293,0.164063 -0.17621,0.274693 -0.63795,0.756264 -1.02734,1.070312 -1.18154,0.952956 -1.54899,1.336387 -2.16407,2.267578 -0.42394,0.641825 -0.69805,0.90225 -0.97265,0.921875 -0.21009,0.015 -0.48127,0.111132 -0.60352,0.214844 -0.91081,0.772541 -0.97348,-0.791028 -0.14648,-3.697266 1.28494,-4.515518 1.2698,-4.860626 -0.27149,-5.83789 -1.88808,-1.197154 -3.15719,-1.053356 -4.50586,0.513671 -0.526,0.611155 -1.03699,1.143879 -1.13671,1.183594 -0.0997,0.03973 -0.5299,0.521 -0.95313,1.06836 -0.42324,0.547357 -0.87581,1.086179 -1.00586,1.197265 -0.13003,0.111109 -0.59645,0.651422 -1.03711,1.199219 -0.44067,0.547804 -1.05146,1.243408 -1.35742,1.546875 -0.30595,0.303482 -0.79143,0.802508 -1.07813,1.109375 -0.28668,0.306879 -0.87076,0.841041 -1.29882,1.185547 -0.4281,0.344501 -1.37142,1.112984 -2.09571,1.708984 -1.532,1.260633 -2.24633,1.370335 -1.9707,0.302735 0.0772,-0.299137 0.29344,-1.176026 0.48047,-1.947266 0.20576,-0.848451 0.44155,-1.481937 0.59766,-1.605469 0.43327,-0.34287 0.98075,-1.305578 1.30273,-2.292969 0.16827,-0.516084 0.4431,-1.118017 0.61133,-1.33789 0.34712,-0.45368 0.33275,-0.726713 -0.0781,-1.453125 -0.15872,-0.28059 -0.27829,-0.570741 -0.26562,-0.642578 0.0697,-0.395389 -2.32913,-1.72776 -2.58789,-1.4375 -0.0668,0.07502 -0.44276,0.215458 -0.83594,0.3125 -0.82025,0.202438 -1.91822,1.01473 -2,1.478515 -0.0334,0.189453 -0.28477,0.399619 -0.63086,0.529297 -0.31646,0.118583 -0.79293,0.490315 -1.06055,0.824219 -0.26762,0.3339 -0.99064,0.926003 -1.60547,1.318359 -0.62448,0.398517 -1.34628,1.024473 -1.63476,1.417969 -0.28402,0.38741 -0.70917,0.868977 -0.94531,1.070313 -0.23614,0.201324 -0.60799,0.695639 -0.82617,1.099609 -0.23184,0.42924 -0.5749,0.812058 -0.82618,0.919922 -0.23647,0.101527 -0.44719,0.27554 -0.46679,0.386719 -0.0196,0.111161 -0.24494,0.403807 -0.50196,0.648437 -0.25706,0.244632 -0.60376,0.747052 -0.76953,1.117188 -0.1997,0.445743 -0.54471,0.837493 -1.02344,1.162109 -0.39749,0.269552 -0.80824,0.676339 -0.91015,0.904297 -0.10431,0.233388 -0.35243,0.446647 -0.57031,0.488281 -0.21281,0.04067 -0.78239,0.338257 -1.26368,0.660156 -1.97487,1.320886 -2.59488,0.38473 -2.49609,-3.763671 0.0655,-2.749662 -0.17121,-2.412981 1.79102,-2.535157 0.56998,-0.03549 0.74572,-0.199948 1.01562,-0.951172 0.1208,-0.336128 0.52073,-0.958522 0.89063,-1.384765 0.36994,-0.426233 0.81819,-1.106629 0.99609,-1.511719 0.17785,-0.405099 0.50303,-0.971203 0.7207,-1.259766 0.21768,-0.288559 0.57613,-0.918909 0.79688,-1.40039 0.22081,-0.481472 0.57103,-1.002003 0.77734,-1.15625 0.20628,-0.154261 0.51063,-0.605797 0.67578,-1.001953 0.1652,-0.396153 0.55762,-1.203567 0.87305,-1.794922 0.31541,-0.59136 0.73432,-1.484975 0.93164,-1.986328 0.19732,-0.501353 0.47855,-1.213574 0.625,-1.582032 0.1465,-0.368438 0.49748,-0.940002 0.7793,-1.271484 0.28184,-0.331477 0.54682,-0.794414 0.58789,-1.027344 0.0411,-0.232925 0.25289,-0.767122 0.4707,-1.1875 1.11061,-2.14324 1.52104,-3.174317 2.00977,-5.023437 0.17966,-0.679732 0.41048,-1.3733 0.51172,-1.542969 1.11971,-1.877082 1.13485,-4.085368 0.0312,-4.617188 -0.55582,-0.267849 -1.06095,-0.447802 -1.52734,-0.535156 -0.34979,-0.06551 -0.67754,-0.07984 -0.98828,-0.04102 z m -0.0664,5.183593 c 0.44252,0.14462 0.39201,0.924681 -0.12109,1.857422 -0.20632,0.375056 -0.42606,0.971326 -0.48828,1.324219 -0.13099,0.739627 -1.53459,3.545132 -2.35742,4.712891 -0.30803,0.437154 -0.58699,0.944755 -0.6211,1.128906 -0.0591,0.323483 -0.43662,0.999769 -1.0664,1.904297 -1.61372,2.317642 -2.31684,3.435603 -2.50391,3.980469 -0.12169,0.354399 -0.53492,0.975366 -0.91797,1.380859 -0.38306,0.405492 -0.82008,0.970022 -0.97265,1.255859 -0.27848,0.52184 -0.88963,0.708264 -1.04493,0.31836 -0.0988,-0.248076 0.37967,-1.728928 0.69922,-2.166016 0.14465,-0.197891 0.40927,-0.918545 0.58985,-1.601562 0.23386,-0.884629 0.44281,-1.354476 0.73047,-1.632813 0.2221,-0.214909 0.53131,-0.745749 0.68359,-1.179687 0.44211,-1.259913 1.28391,-2.973434 1.58008,-3.214844 0.26991,-0.219978 1.69869,-2.528029 1.75195,-2.830078 0.0152,-0.08634 0.34117,-0.52559 0.72461,-0.976563 0.38346,-0.450968 0.96728,-1.347527 1.29687,-1.992187 0.78193,-1.529262 1.57962,-2.419052 2.03711,-2.269532 z m -24.28125,1.267578 c -1.72027,0.270242 -4.52619,2.593668 -5.39843,4.902344 -0.0989,0.261872 -0.59426,1.013274 -1.09961,1.669922 -0.50534,0.656649 -0.89008,1.264635 -0.85547,1.351563 0.22418,0.562887 1.98452,-0.02045 2.92383,-0.96875 0.32612,-0.329253 0.86446,-0.788529 1.19726,-1.021485 0.33275,-0.232982 0.68974,-0.642511 0.79492,-0.912109 0.12399,-0.317909 0.56278,-0.745215 1.24414,-1.212891 1.96744,-1.3504 2.87664,-2.659639 2.37891,-3.419922 -0.12624,-0.192816 -0.3052,-0.314463 -0.52539,-0.373046 -0.19267,-0.05127 -0.4144,-0.05422 -0.66016,-0.01563 z m -87.85156,3.597657 c -0.51863,0.0767 -0.95126,0.420091 -1.4043,1.058593 -0.93143,1.312761 -2.21829,3.454589 -2.27929,3.796876 -0.0276,0.154882 -0.38828,0.732729 -0.80274,1.285156 -0.41444,0.552424 -0.93253,1.448167 -1.15234,1.990234 -0.21981,0.542064 -0.67521,1.477578 -1.00977,2.078125 -0.33454,0.60055 -0.6298,1.22371 -0.6582,1.384766 -0.0284,0.161055 -0.26514,0.640252 -0.52539,1.064453 -0.26024,0.424196 -0.61795,1.221864 -0.79492,1.771484 -0.17693,0.549625 -0.4536,1.304126 -0.61524,1.677735 -0.16163,0.373608 -0.48755,1.376674 -0.72461,2.230468 -0.82803,2.9825 -1.8982,4.381293 -2.41992,3.166016 -0.72167,-1.681051 -6.74425,-0.901888 -7.06445,0.914063 -0.0142,0.08059 -0.17827,0.168644 -0.36328,0.193359 -0.39101,0.05223 -1.67258,1.29173 -2.42188,2.341797 -0.28545,0.400029 -0.6491,0.801652 -0.80859,0.892578 -0.15953,0.09094 -0.30667,0.252697 -0.32617,0.363281 -0.0195,0.110574 -0.3247,0.578567 -0.67969,1.037109 -0.35499,0.458544 -0.83298,1.27627 -1.0625,1.81836 -0.22952,0.54209 -0.54703,1.124873 -0.70508,1.294922 -0.15805,0.170048 -0.33174,0.556711 -0.38476,0.857422 -0.053,0.30073 -0.19258,0.711039 -0.3125,0.912109 -2.62003,4.392205 2.08491,10.086758 5.75781,6.96875 0.36056,-0.30609 0.91888,-0.742753 1.24023,-0.970703 0.32138,-0.227937 0.70926,-0.679725 0.86133,-1.001953 0.15207,-0.32223 0.4814,-0.73793 0.73047,-0.925781 0.24911,-0.187858 0.59095,-0.608249 0.76172,-0.935547 0.1708,-0.327314 0.51444,-0.767567 0.76172,-0.976563 0.24727,-0.208986 0.46625,-0.474037 0.48633,-0.58789 0.0361,-0.20493 0.78915,-1.239862 2.30664,-3.171876 1.20107,-1.529185 1.68266,-1.324198 2.0039,0.84961 0.0833,0.563814 0.28443,1.293296 0.44727,1.621094 0.16284,0.327787 0.27937,0.6857 0.25976,0.796875 -0.0196,0.111175 0.13983,0.361839 0.35157,0.554687 0.21173,0.192827 0.51716,0.545455 0.67968,0.78711 0.57105,0.84908 2.95044,0.934438 4.47266,0.160156 0.39264,-0.199712 0.88135,-0.400745 1.08594,-0.447266 0.20457,-0.04648 0.53122,-0.260927 0.72461,-0.476562 0.19331,-0.215638 0.54698,-0.539651 0.78711,-0.720704 1.0315,-0.777726 1.74563,-1.444391 2.19336,-2.048828 0.26344,-0.355657 0.68794,-0.844559 0.94335,-1.083984 0.25541,-0.239418 0.47706,-0.504047 0.49219,-0.589844 0.0151,-0.08578 0.22323,-0.329058 0.46485,-0.539062 0.62476,-0.542968 2.37524,-2.667811 2.42382,-2.94336 0.081,-0.459598 0.92399,-0.998964 1.14844,-0.734375 0.23935,0.281964 -0.15432,2.435031 -0.69336,3.789063 -0.17902,0.449756 -0.37251,1.083965 -0.42968,1.408203 -0.0572,0.324238 -0.25458,0.825076 -0.43946,1.113281 -1.92126,2.995393 0.77451,3.546309 5.0957,1.041016 0.72834,-0.422264 1.45268,-0.660395 2.14649,-0.703125 0.26647,-0.01638 0.94223,-0.200381 1.50195,-0.408203 1.90884,-0.708913 2.06626,-0.466509 1.45117,2.234375 -0.34045,1.494891 -0.59226,2.297855 -1.70117,5.451172 -0.36716,1.044085 -0.75648,1.484441 -1.52148,1.71875 -0.38251,0.117168 -0.78165,0.292093 -0.88867,0.390625 -0.10704,0.09852 -0.49498,0.191847 -0.86133,0.207031 -0.36636,0.01521 -0.86402,0.149852 -1.10742,0.298828 -0.24343,0.148973 -0.90255,0.555985 -1.46485,0.904295 -0.5623,0.34832 -1.4205,0.76944 -1.90625,0.9336 -0.92761,0.31347 -1.59002,0.84255 -2.28906,1.83984 -0.23077,0.32923 -0.50181,0.63449 -0.60547,0.67578 -0.10365,0.0413 -0.52804,0.54142 -0.94141,1.11133 -0.41336,0.56992 -0.96764,1.24213 -1.23242,1.49414 -0.64819,0.61698 -1.36511,1.86468 -1.75,3.04492 -0.17418,0.53405 -0.45207,1.11813 -0.61914,1.29883 -1.42379,1.53995 -1.7295,5.87541 -0.53515,7.5957 0.82858,1.19344 1.23525,1.34669 2.26171,0.84766 0.86787,-0.42192 4.11277,-2.60048 4.14844,-2.78516 0.0381,-0.19855 1.34167,-1.54839 1.68164,-1.74218 0.15515,-0.0885 0.29905,-0.24988 0.31836,-0.35938 0.0193,-0.10951 0.37219,-0.5687 0.78711,-1.01953 1.10129,-1.19654 1.2068,-1.32062 1.6836,-2.00391 0.23859,-0.34194 0.6122,-0.77954 0.82812,-0.97265 0.21593,-0.19314 0.40448,-0.43262 0.42188,-0.53125 0.0174,-0.0986 0.53631,-0.82938 1.15234,-1.625 1.1831,-1.52801 2.12197,-3.12817 2.25391,-3.84375 0.26073,-1.41246 1.46885,-2.37779 2.70312,-2.16016 1.77585,0.31313 2.99525,-0.41338 2.93945,-1.75195 -0.0247,-0.59258 -0.68854,-1.425813 -1.20898,-1.517581 -0.75044,-0.132324 -0.95158,-0.712482 -0.6543,-1.875 0.82923,-3.24271 1.23415,-4.651267 1.44531,-4.998047 0.13015,-0.214003 0.26666,-0.796712 0.30274,-1.296875 0.0687,-0.956072 0.61314,-2.67697 1.17773,-3.728516 0.22077,-0.411254 0.31264,-0.780821 0.27539,-1.08789 -0.0311,-0.255879 -0.0783,-0.684793 -0.10546,-0.951172 -0.12016,-1.177771 -1.58684,-1.223918 -3.44532,-0.109375 -1.01459,0.608458 -2.18696,1.136549 -2.42968,1.09375 -0.10064,-0.01775 -0.29156,0.105098 -0.42383,0.273437 -0.38285,0.487303 -1.14989,0.892294 -1.81836,0.958985 -0.33954,0.03388 -0.71666,0.187516 -0.83789,0.341796 -0.97101,1.235922 -1.39478,-0.968144 -0.46485,-2.417968 0.21232,-0.331452 0.42701,-1.034893 0.58203,-1.914063 0.13482,-0.764543 0.42458,-1.779701 0.64258,-2.255859 1.11941,-2.445059 0.28706,-3.992633 -2.18359,-4.066406 -1.17796,-0.03518 -1.39087,0.100923 -2.5293,1.611328 -0.59689,0.791937 -1.15887,1.352193 -1.60156,1.59375 -0.37538,0.204821 -0.95578,0.73546 -1.28906,1.179687 -0.33327,0.444226 -0.82994,0.950184 -1.10547,1.125 -0.27552,0.174811 -0.82895,0.77112 -1.22852,1.326172 -0.89057,1.237106 -1.81751,2.26404 -2.69531,2.984375 -0.36526,0.299728 -0.92998,0.804331 -1.25391,1.121094 -1.30249,1.273685 -2.80097,2.278044 -3.21484,2.154297 -1.18865,-0.355427 -1.00577,-7.4974 0.24219,-9.472657 0.21688,-0.343336 0.45355,-0.966244 0.52734,-1.384765 0.10305,-0.584394 0.27185,-0.902214 0.72656,-1.371094 0.32567,-0.335792 0.6156,-0.737757 0.64454,-0.892578 0.0293,-0.154764 0.24332,-0.534564 0.47656,-0.84375 0.23324,-0.309183 0.45761,-0.749234 0.49805,-0.978516 0.0404,-0.229263 0.28508,-0.592786 0.54296,-0.808593 0.25791,-0.215788 0.55962,-0.649868 0.66993,-0.962891 0.11032,-0.313006 0.30148,-0.762863 0.42578,-1 0.12427,-0.237157 0.26686,-0.660461 0.3164,-0.941406 0.0495,-0.280922 0.28542,-0.79697 0.52344,-1.144531 0.23802,-0.347556 0.47953,-0.877096 0.53711,-1.179688 0.0574,-0.302623 0.41088,-1.010459 0.7832,-1.570312 0.74614,-1.121996 1.04819,-1.958548 1.88086,-5.191407 0.88908,-3.451857 0.80971,-4.098737 -0.57422,-4.71875 -0.31812,-0.142527 -0.60216,-0.235779 -0.86328,-0.279297 -0.19583,-0.03263 -0.3779,-0.03529 -0.55078,-0.0098 z m -48.951171,1.597656 c -0.834926,-0.0984 -2.33866,1.064015 -3.857421,3.066406 -0.756322,0.997159 -1.65163,2.156547 -1.990235,2.576172 -0.338622,0.419626 -0.654457,0.979206 -0.701172,1.244141 -0.04672,0.264936 -0.219322,0.586242 -0.384765,0.714844 -0.165441,0.128581 -0.517441,0.704058 -0.78125,1.277343 -0.26381,0.573286 -0.725807,1.36948 -1.027344,1.771485 -0.301545,0.402 -0.59014,0.965538 -0.640625,1.25 -0.05047,0.284484 -0.277171,0.726883 -0.503906,0.984375 -0.226757,0.257471 -0.577502,0.81603 -0.78125,1.242187 -0.203753,0.426155 -0.674233,1.413551 -1.044922,2.19336 -0.370682,0.779816 -0.81758,1.603771 -0.990235,1.830078 -0.172687,0.226301 -0.396559,0.737456 -0.498046,1.136718 -0.101603,0.399243 -0.415383,1.380495 -0.697266,2.179688 -0.281857,0.799197 -0.686633,2.00607 -0.898438,2.683594 -0.211805,0.677503 -0.488231,1.422655 -0.615234,1.65625 -0.126896,0.233624 -0.202539,0.497223 -0.167969,0.583984 0.03458,0.08682 -0.135045,0.802867 -0.378906,1.591797 -0.41985,1.358573 -0.432847,1.479662 -0.236328,2.3125 0.162352,0.688157 0.156428,1.020953 -0.02539,1.527344 -0.376039,1.047292 -0.4115,1.703387 -0.136718,2.58789 0.155778,0.50151 0.213388,1.096472 0.142578,1.498047 -0.1514,0.858634 0.04394,2.185339 0.408203,2.767578 0.157072,0.2511 0.357968,0.693997 0.445312,0.984375 1.269963,4.221799 6.736381,2.654259 9.703125,-2.783203 0.92969,-1.703938 1.086846,-1.823167 2.574219,-1.957031 0.550558,-0.04955 0.783359,-0.175068 1.091797,-0.582031 0.228932,-0.302056 0.634893,-0.583522 0.972656,-0.675782 0.318678,-0.08703 0.799327,-0.394313 1.066406,-0.68164 0.863756,-0.929258 1.489838,-0.625663 1.138672,0.550781 -0.305917,1.024848 -0.178835,1.783861 0.376953,2.21875 0.398447,0.311776 0.60598,0.670467 0.78125,1.361328 0.173488,0.683876 1.172341,1.735171 2.632813,2.771485 0.67596,0.479656 0.706254,0.729133 0.191406,1.537112 -1.415902,2.22195 -1.249751,5.86214 0.3125,6.85742 0.244009,0.15547 0.434765,0.34096 0.421875,0.41406 -0.04933,0.27976 0.660513,0.65847 1.78125,0.94727 1.945615,0.50138 2.649444,-0.0648 1.324219,-1.06446 -3.566478,-2.69035 -2.536989,-5.95151 3.21289,-10.173824 1.214696,-0.891982 2.431747,-1.876322 2.705077,-2.185547 0.27334,-0.309233 0.73482,-0.700201 1.02539,-0.869141 0.29058,-0.168948 0.78111,-0.552572 1.08984,-0.851562 0.30876,-0.298989 0.78671,-0.630709 1.0625,-0.738282 0.2928,-0.114173 0.74094,-0.531591 1.07422,-1.001953 0.78594,-1.109286 1.50234,-1.821726 1.99024,-1.978515 0.27606,-0.0887 0.47992,-0.319493 0.61914,-0.703125 0.11399,-0.31417 0.33425,-0.713881 0.49219,-0.888672 0.24945,-0.275976 0.27527,-0.421326 0.18164,-1.105469 -0.0592,-0.433288 -0.11272,-0.989807 -0.11719,-1.236328 -0.0131,-0.728583 -1.13572,-0.582107 -1.48242,0.193359 -0.0905,0.202475 -0.70641,0.840144 -1.36914,1.417969 -0.66273,0.577817 -1.53893,1.400915 -1.94727,1.830078 -0.6607,0.69443 -2.2076,1.699312 -2.5293,1.642578 -0.0666,-0.01174 -0.19978,0.126651 -0.29492,0.308594 -0.35684,0.68232 -4.468471,3.386081 -5.298825,3.484375 -0.420893,0.04981 -1.049954,0.264035 -1.396484,0.474609 -1.641679,0.99751 -3.583523,0.510853 -3.345703,-0.83789 0.123929,-0.702838 0.119278,-0.701878 2.037109,-2.125 0.385527,-0.286091 0.714495,-0.593002 0.730469,-0.683594 0.01598,-0.0906 0.540143,-0.530542 1.164063,-0.978516 0.623956,-0.447956 1.28184,-1.0096 1.460937,-1.246093 0.179088,-0.236495 0.610122,-0.653894 0.958984,-0.927735 0.348861,-0.273831 0.645949,-0.562001 0.660157,-0.642578 0.0142,-0.08056 0.195018,-0.166977 0.40039,-0.191406 0.65476,-0.07788 2.984693,-1.996921 3.947263,-3.25 1.47914,-1.925575 -0.81253,-4.239602 -3.244138,-3.275391 -0.384299,0.152382 -0.930374,0.234875 -1.21289,0.185547 -0.353831,-0.06182 -0.689898,0.03014 -1.083985,0.292969 -0.314677,0.209885 -0.732681,0.401954 -0.925781,0.427734 -0.193097,0.02576 -0.738137,0.224806 -1.212891,0.441407 -0.474756,0.216598 -0.923827,0.382227 -0.998046,0.36914 -0.157472,-0.02777 -1.589172,1.264218 -2.251954,2.03125 -0.25132,0.290847 -0.942096,0.788061 -1.535156,1.105469 -0.593066,0.317387 -1.301562,0.781932 -1.574219,1.033203 -0.272653,0.251292 -1.29068,1.018289 -2.263671,1.703125 -1.95669,1.377208 -2.096261,1.404729 -3.480469,0.703125 -1.100766,-0.557942 -2.756677,-0.598112 -3.59961,-0.08594 -0.352436,0.214154 -0.708441,0.379451 -0.789062,0.365235 -0.223338,-0.03938 -1.426535,0.73019 -1.462891,0.935547 -0.01758,0.09933 -0.320918,0.587822 -0.673828,1.085937 -0.794929,1.121978 -0.768647,1.552385 0.136719,2.169922 1.192117,0.813122 1.342596,1.920176 0.433594,3.183594 -1.196368,1.662815 -2.115948,1.55701 -2.355469,-0.269531 -0.06599,-0.503102 -0.17664,-1.252005 -0.244141,-1.666016 -0.0675,-0.414011 -0.0721,-1.310858 -0.01172,-1.990234 0.0728,-0.819357 0.03806,-1.351716 -0.105468,-1.580078 -0.173877,-0.276729 -0.165023,-0.510683 0.04102,-1.197266 0.340216,-1.133757 0.422274,-1.20506 1.41211,-1.1875 0.466426,0.0083 0.98745,-0.07167 1.15625,-0.177734 0.52717,-0.331261 2.360433,-3.200112 2.480469,-3.88086 0.11007,-0.62424 0.534125,-1.384137 0.861328,-1.544922 0.20195,-0.09927 0.379734,-0.449493 0.541015,-1.0625 0.182633,-0.694152 0.368942,-1.027259 0.777344,-1.388672 0.295768,-0.261737 0.626838,-0.680232 0.732422,-0.929687 0.105572,-0.249458 0.507338,-1.033518 0.892578,-1.742188 0.795859,-1.463943 1.414882,-2.749393 1.753906,-3.638671 0.127687,-0.33491 0.52441,-1.361514 0.882813,-2.28125 0.358425,-0.919731 0.724188,-1.880317 0.8125,-2.132813 0.08831,-0.252502 0.370113,-1.006208 0.626953,-1.675781 0.793235,-2.067922 1.003858,-2.982302 1.222656,-5.304688 0.235516,-2.499996 0.170861,-2.903784 -0.554687,-3.36914 -0.276377,-0.177261 -0.618648,-0.487915 -0.759766,-0.689454 -0.11356,-0.16218 -0.270215,-0.250729 -0.462891,-0.273437 z m 83.314451,3.863281 c -0.16855,0.01716 -0.354,0.05759 -0.56445,0.115235 -1.64894,0.451638 -1.81283,3.097855 -0.25391,4.113281 1.64442,1.071096 3.73374,-1.195461 2.65039,-2.875 -0.53685,-0.832288 -0.89942,-1.228867 -1.37109,-1.333984 -0.1415,-0.03154 -0.29238,-0.03669 -0.46094,-0.01953 z m -84.224607,0.400391 c 0.374977,0.139849 0.438995,1.825644 -0.06055,3.283203 -0.236944,0.691254 -0.549857,1.74392 -0.697265,2.339844 -0.147411,0.595925 -0.393961,1.208451 -0.546875,1.361328 -0.152915,0.152882 -0.299787,0.423421 -0.328125,0.599609 -0.02832,0.176178 -0.331102,0.856945 -0.671875,1.511719 -0.34077,0.654775 -0.704459,1.441916 -0.806641,1.75 -0.102171,0.308089 -0.419601,0.800026 -0.705078,1.09375 -0.360113,0.370519 -0.60859,0.840771 -0.8125,1.539062 -0.196436,0.672751 -0.501236,1.265539 -0.921875,1.78711 -0.346105,0.42918 -0.716682,0.986873 -0.822266,1.236328 -0.105581,0.249456 -0.34447,0.571006 -0.53125,0.716797 -0.186783,0.14578 -0.724894,0.927653 -1.195312,1.738281 -0.57735,0.994859 -1.013593,1.563969 -1.34375,1.751953 -1.192872,0.679239 -1.280702,-0.233712 -0.21875,-2.271484 0.319901,-0.613775 0.717834,-1.603151 0.884765,-2.199219 0.266539,-0.951806 1.030674,-2.486222 2.636719,-5.302734 0.254631,-0.446572 0.449067,-0.97754 0.435547,-1.181641 -0.01353,-0.20409 0.108036,-0.513611 0.269531,-0.685547 0.161481,-0.171926 0.492135,-0.715552 0.734375,-1.208984 0.242262,-0.493428 0.628239,-1.169438 0.857422,-1.503906 0.229181,-0.334454 0.435534,-0.718571 0.458985,-0.851563 0.04657,-0.264113 0.546401,-1.14149 1.210937,-2.125 0.233284,-0.345252 0.558737,-0.97851 0.720703,-1.40625 0.161967,-0.42774 0.409719,-0.871311 0.552734,-0.986328 0.143018,-0.115029 0.337816,-0.360406 0.431641,-0.544922 0.184295,-0.362512 0.343757,-0.488017 0.46875,-0.441406 z m 48.769527,2.095703 c 0.42374,0.07472 8.4e-4,1.919348 -0.53515,2.335938 -0.3558,0.276527 -0.65194,0.305768 -0.8086,0.08203 -0.31282,-0.446761 0.83296,-2.508036 1.34375,-2.417968 z m -1.72851,3.316406 c 0.23075,0.130299 -0.0327,1.352222 -0.34961,1.621094 -0.59688,0.50637 -0.86932,0.437291 -0.75781,-0.191406 0.11829,-0.667023 0.82973,-1.58649 1.10742,-1.429688 z m 56.98242,3.994141 c -0.84441,0.02453 -1.82717,0.270557 -2.91601,0.746094 -0.5816,0.254005 -1.42025,0.516499 -1.86524,0.582031 -1.42624,0.210092 -4.22924,2.512159 -4.43359,3.640625 -0.0174,0.09613 -0.3143,0.384489 -0.65821,0.640625 -0.47323,0.35245 -0.71668,0.701362 -1,1.43164 -0.20591,0.530675 -0.487,1.187455 -0.625,1.460938 -0.13873,0.27485 -0.27023,0.893421 -0.29492,1.382812 -0.0334,0.664804 -0.11307,0.939946 -0.31836,1.107422 -0.57553,0.469665 -1.08558,1.835193 -0.94922,2.53711 0.0293,0.150656 0.36721,0.510234 0.75196,0.798828 0.38475,0.288614 0.68768,0.587478 0.67382,0.666016 -0.0488,0.277028 0.64465,1.293293 1.34376,1.96875 0.74975,0.72442 1.52145,0.910955 3.20898,0.779296 0.31712,-0.02476 0.78853,-0.0089 1.04883,0.03516 0.2603,0.04407 0.63847,0.02018 0.83984,-0.05469 0.20136,-0.07487 0.97884,-0.332339 1.72656,-0.572265 0.74773,-0.239939 1.68726,-0.67404 2.08789,-0.964844 0.40064,-0.290805 0.9395,-0.538095 1.19727,-0.548828 0.33145,-0.01382 0.59383,-0.188031 0.89844,-0.591797 0.23683,-0.313965 0.683,-0.67041 0.99023,-0.792969 0.30723,-0.12256 0.86297,-0.505834 1.23633,-0.849609 0.37337,-0.343769 1.06531,-0.8931 1.53906,-1.222657 0.47376,-0.329553 0.9432,-0.766848 1.04297,-0.972656 0.28917,-0.596562 1.4099,-1.914248 1.86133,-2.189453 0.68941,-0.420372 1.24974,-1.884762 1.13086,-2.955078 -0.1791,-1.612464 -0.59861,-1.481751 -2.89258,0.892578 -0.38517,0.398665 -0.85522,0.774364 -1.04297,0.835937 -0.18771,0.06157 -0.50832,0.33245 -0.71289,0.601563 -0.55759,0.733594 -5.52038,4.473492 -5.85742,4.414063 -0.0952,-0.01679 -0.3101,0.182796 -0.47852,0.445312 -0.40679,0.634215 -0.84715,0.880873 -1.57617,0.882812 -0.33137,8.92e-4 -0.75801,0.136351 -0.94726,0.300782 -0.78456,0.68167 -3.8919,0.719975 -4.11133,0.05078 -0.32412,-0.988425 0.4147,-2.414038 1.36133,-2.626953 0.31948,-0.07187 0.59309,-0.198043 0.60742,-0.279297 0.0143,-0.08126 0.61088,-0.563988 1.32617,-1.072266 0.71527,-0.508279 1.63675,-1.272739 2.04687,-1.699218 0.41014,-0.426483 0.98995,-1.027086 1.28711,-1.333985 0.29717,-0.306892 0.84704,-0.676844 1.22461,-0.820312 1.77975,-0.676382 4.58376,-3.991648 4.17969,-4.94336 -0.39869,-0.939073 -1.13597,-1.497471 -2.13476,-1.662109 -0.24971,-0.04116 -0.51541,-0.05701 -0.79688,-0.04883 z m -23.66797,3.199219 c -0.1573,0.0227 -0.30545,0.07549 -0.4375,0.160156 -0.2136,0.136953 -0.75795,0.347905 -1.21094,0.46875 -0.52678,0.140549 -0.99102,0.404256 -1.29101,0.734375 -0.25796,0.283865 -1.23137,1.065235 -2.16211,1.736328 -0.93079,0.671085 -1.70223,1.269594 -1.71289,1.330078 -0.0107,0.06045 -0.23874,0.157128 -0.50781,0.216797 -0.34341,0.07613 -0.60584,0.303565 -0.87891,0.759766 -0.21396,0.357489 -0.4537,0.639018 -0.5332,0.625 -0.81141,-0.143073 -1.59537,2.310017 -0.89258,2.792968 0.55654,0.382438 1.26815,0.150276 1.69922,-0.554687 0.28169,-0.460673 0.51372,-0.618715 1.13281,-0.771485 0.6888,-0.16997 0.81789,-0.272414 1.09766,-0.873046 0.25205,-0.541179 0.42358,-0.705387 0.84765,-0.800782 0.29294,-0.06589 0.59501,-0.189198 0.67188,-0.27539 0.22895,-0.256823 1.52445,-0.596164 1.64062,-0.429688 0.0592,0.0847 -0.1307,1.100529 -0.41992,2.25586 -1.06925,4.271856 -1.09597,4.576218 -0.57031,6.332031 0.52416,1.750729 0.67759,1.986576 1.4707,2.267578 0.81816,0.289865 1.82086,0.277144 2.39258,-0.0293 0.27338,-0.146525 0.56469,-0.255001 0.64844,-0.240234 0.22488,0.03965 2.70544,-1.590087 3.18945,-2.095703 0.22932,-0.239553 0.91931,-0.967845 1.5332,-1.619141 0.61391,-0.651288 1.36423,-1.351993 1.66797,-1.554688 1.02228,-0.6823 2.36126,-3.425924 2.08399,-4.271484 -0.1373,-0.418737 -0.68659,-0.568828 -0.88282,-0.242187 -0.0746,0.124172 -0.35319,0.293282 -0.62109,0.376953 -0.2679,0.08366 -0.68821,0.428948 -0.93164,0.765625 -0.61476,0.850345 -1.27624,1.491272 -1.58789,1.541015 -0.14457,0.02308 -0.55682,0.319445 -0.91602,0.65625 -0.35921,0.336798 -0.78875,0.628446 -0.95312,0.650391 -0.16439,0.02197 -0.48335,0.22523 -0.71094,0.449219 -1.6319,1.606291 -2.65906,0.735409 -2.05859,-1.744141 1.31454,-5.428032 1.54081,-6.860689 1.1875,-7.470703 -0.35005,-0.60438 -0.93195,-1.015917 -1.49219,-1.128906 -0.16807,-0.0339 -0.33489,-0.04028 -0.49219,-0.01758 z m 21.06836,0.402343 c 0.7173,0.124652 0.71993,0.723845 0.006,1.316407 -2.18551,1.813276 -3.85422,3.157578 -4.08203,3.285156 -0.69941,0.391667 -0.90474,-0.0043 -0.56055,-1.082031 0.48347,-1.513681 3.40742,-3.73322 4.63672,-3.519532 z m -65.35547,5.621094 c 0.17843,-0.02013 0.36277,-0.01854 0.52539,0.0039 0.32525,0.04492 0.56784,0.169498 0.53711,0.34375 -0.093,0.527549 -1.1474,2.612026 -1.73242,3.425782 -0.34209,0.475825 -0.70592,1.072297 -0.80859,1.322265 -0.10267,0.24997 -0.69972,0.984079 -1.32813,1.632813 -0.62841,0.648733 -1.48226,1.597873 -1.89453,2.109375 -0.41226,0.511502 -1.22792,1.341939 -1.81445,1.845703 -0.58653,0.503764 -1.07951,0.981726 -1.09375,1.0625 -0.0142,0.08075 -0.27987,0.247071 -0.5918,0.369141 -1.27202,0.497757 -1.99323,-0.460638 -1.51172,-2.011719 0.77567,-2.498566 2.46229,-5.384631 3.79688,-6.498047 0.32264,-0.269153 0.88303,-0.797686 1.24609,-1.171875 1.01241,-1.04347 1.92749,-1.609659 3.10352,-1.921875 0.32811,-0.08711 0.80951,-0.25802 1.06836,-0.38086 0.14565,-0.06913 0.31961,-0.110726 0.49804,-0.130859 z m -23.406248,2.238281 c 0.417078,0.109184 0.328024,0.606711 -0.667968,1.494141 -0.323012,0.287792 -0.928279,0.885262 -1.345703,1.328125 -0.417456,0.442868 -1.184863,1.057858 -1.707032,1.365234 h -0.002 c -2.445751,1.439834 -2.109688,-0.516708 0.460938,-2.683593 1.353785,-1.141205 2.72548,-1.644235 3.261718,-1.503907 z m 45.505858,18.515626 c 0.59013,0.0778 0.34367,1.30254 -0.60156,2.54883 -0.17115,0.22567 -0.46243,0.79291 -0.64844,1.26172 -0.18601,0.4688 -0.55449,1.05945 -0.81836,1.31054 -0.26385,0.25112 -0.49367,0.54026 -0.51172,0.64258 -0.0655,0.37161 -1.56362,2.40394 -1.80664,2.45117 -0.13727,0.0267 -0.48789,0.39399 -0.77929,0.81641 -0.49085,0.71156 -1.45007,1.50503 -3.67969,3.04492 -3.64065,2.51443 -2.08455,-4.06409 1.80078,-7.61328 0.49933,-0.45613 1.10498,-1.07977 1.3457,-1.38672 0.24073,-0.30695 0.74332,-0.74269 1.11914,-0.9668 1.43372,-0.85489 2.86575,-1.6086 3.36328,-1.77148 0.28451,-0.0931 0.69517,-0.22751 0.91211,-0.29883 0.11872,-0.039 0.22039,-0.0502 0.30469,-0.0391 z" />
    </g>
  </g>
  <script
     id="mesh_polyfill"
     type="text/javascript">
!function(){const t=&quot;http://www.w3.org/2000/svg&quot;,e=&quot;http://www.w3.org/1999/xlink&quot;,s=&quot;http://www.w3.org/1999/xhtml&quot;,r=2;if(document.createElementNS(t,&quot;meshgradient&quot;).x)return;const n=(t,e,s,r)=&gt;{let n=new x(.5*(e.x+s.x),.5*(e.y+s.y)),o=new x(.5*(t.x+e.x),.5*(t.y+e.y)),i=new x(.5*(s.x+r.x),.5*(s.y+r.y)),a=new x(.5*(n.x+o.x),.5*(n.y+o.y)),h=new x(.5*(n.x+i.x),.5*(n.y+i.y)),l=new x(.5*(a.x+h.x),.5*(a.y+h.y));return[[t,o,a,l],[l,h,i,r]]},o=t=&gt;{let e=t[0].distSquared(t[1]),s=t[2].distSquared(t[3]),r=.25*t[0].distSquared(t[2]),n=.25*t[1].distSquared(t[3]),o=e&gt;s?e:s,i=r&gt;n?r:n;return 18*(o&gt;i?o:i)},i=(t,e)=&gt;Math.sqrt(t.distSquared(e)),a=(t,e)=&gt;t.scale(2/3).add(e.scale(1/3)),h=t=&gt;{let e,s,r,n,o,i,a,h=new g;return t.match(/(\w+\(\s*[^)]+\))+/g).forEach(t=&gt;{let l=t.match(/[\w.-]+/g),d=l.shift();switch(d){case&quot;translate&quot;:2===l.length?e=new g(1,0,0,1,l[0],l[1]):(console.error(&quot;mesh.js: translate does not have 2 arguments!&quot;),e=new g(1,0,0,1,0,0)),h=h.append(e);break;case&quot;scale&quot;:1===l.length?s=new g(l[0],0,0,l[0],0,0):2===l.length?s=new g(l[0],0,0,l[1],0,0):(console.error(&quot;mesh.js: scale does not have 1 or 2 arguments!&quot;),s=new g(1,0,0,1,0,0)),h=h.append(s);break;case&quot;rotate&quot;:if(3===l.length&amp;&amp;(e=new g(1,0,0,1,l[1],l[2]),h=h.append(e)),l[0]){r=l[0]*Math.PI/180;let t=Math.cos(r),e=Math.sin(r);Math.abs(t)&lt;1e-16&amp;&amp;(t=0),Math.abs(e)&lt;1e-16&amp;&amp;(e=0),a=new g(t,e,-e,t,0,0),h=h.append(a)}else console.error(&quot;math.js: No argument to rotate transform!&quot;);3===l.length&amp;&amp;(e=new g(1,0,0,1,-l[1],-l[2]),h=h.append(e));break;case&quot;skewX&quot;:l[0]?(r=l[0]*Math.PI/180,n=Math.tan(r),o=new g(1,0,n,1,0,0),h=h.append(o)):console.error(&quot;math.js: No argument to skewX transform!&quot;);break;case&quot;skewY&quot;:l[0]?(r=l[0]*Math.PI/180,n=Math.tan(r),i=new g(1,n,0,1,0,0),h=h.append(i)):console.error(&quot;math.js: No argument to skewY transform!&quot;);break;case&quot;matrix&quot;:6===l.length?h=h.append(new g(...l)):console.error(&quot;math.js: Incorrect number of arguments for matrix!&quot;);break;default:console.error(&quot;mesh.js: Unhandled transform type: &quot;+d)}}),h},l=t=&gt;{let e=[],s=t.split(/[ ,]+/);for(let t=0,r=s.length-1;t&lt;r;t+=2)e.push(new x(parseFloat(s[t]),parseFloat(s[t+1])));return e},d=(t,e)=&gt;{for(let s in e)t.setAttribute(s,e[s])},c=(t,e,s,r,n)=&gt;{let o,i,a=[0,0,0,0];for(let h=0;h&lt;3;++h)e[h]&lt;t[h]&amp;&amp;e[h]&lt;s[h]||t[h]&lt;e[h]&amp;&amp;s[h]&lt;e[h]?a[h]=0:(a[h]=.5*((e[h]-t[h])/r+(s[h]-e[h])/n),o=Math.abs(3*(e[h]-t[h])/r),i=Math.abs(3*(s[h]-e[h])/n),a[h]&gt;o?a[h]=o:a[h]&gt;i&amp;&amp;(a[h]=i));return a},u=[[1,0,0,0,0,0,0,0,0,0,0,0,0,0,0,0],[0,0,0,0,1,0,0,0,0,0,0,0,0,0,0,0],[-3,3,0,0,-2,-1,0,0,0,0,0,0,0,0,0,0],[2,-2,0,0,1,1,0,0,0,0,0,0,0,0,0,0],[0,0,0,0,0,0,0,0,1,0,0,0,0,0,0,0],[0,0,0,0,0,0,0,0,0,0,0,0,1,0,0,0],[0,0,0,0,0,0,0,0,-3,3,0,0,-2,-1,0,0],[0,0,0,0,0,0,0,0,2,-2,0,0,1,1,0,0],[-3,0,3,0,0,0,0,0,-2,0,-1,0,0,0,0,0],[0,0,0,0,-3,0,3,0,0,0,0,0,-2,0,-1,0],[9,-9,-9,9,6,3,-6,-3,6,-6,3,-3,4,2,2,1],[-6,6,6,-6,-3,-3,3,3,-4,4,-2,2,-2,-2,-1,-1],[2,0,-2,0,0,0,0,0,1,0,1,0,0,0,0,0],[0,0,0,0,2,0,-2,0,0,0,0,0,1,0,1,0],[-6,6,6,-6,-4,-2,4,2,-3,3,-3,3,-2,-1,-2,-1],[4,-4,-4,4,2,2,-2,-2,2,-2,2,-2,1,1,1,1]],f=t=&gt;{let e=[];for(let s=0;s&lt;16;++s){e[s]=0;for(let r=0;r&lt;16;++r)e[s]+=u[s][r]*t[r]}return e},p=(t,e,s)=&gt;{const r=e*e,n=s*s,o=e*e*e,i=s*s*s;return t[0]+t[1]*e+t[2]*r+t[3]*o+t[4]*s+t[5]*s*e+t[6]*s*r+t[7]*s*o+t[8]*n+t[9]*n*e+t[10]*n*r+t[11]*n*o+t[12]*i+t[13]*i*e+t[14]*i*r+t[15]*i*o},y=t=&gt;{let e=[],s=[],r=[];for(let s=0;s&lt;4;++s)e[s]=[],e[s][0]=n(t[0][s],t[1][s],t[2][s],t[3][s]),e[s][1]=[],e[s][1].push(...n(...e[s][0][0])),e[s][1].push(...n(...e[s][0][1])),e[s][2]=[],e[s][2].push(...n(...e[s][1][0])),e[s][2].push(...n(...e[s][1][1])),e[s][2].push(...n(...e[s][1][2])),e[s][2].push(...n(...e[s][1][3]));for(let t=0;t&lt;8;++t){s[t]=[];for(let r=0;r&lt;4;++r)s[t][r]=[],s[t][r][0]=n(e[0][2][t][r],e[1][2][t][r],e[2][2][t][r],e[3][2][t][r]),s[t][r][1]=[],s[t][r][1].push(...n(...s[t][r][0][0])),s[t][r][1].push(...n(...s[t][r][0][1])),s[t][r][2]=[],s[t][r][2].push(...n(...s[t][r][1][0])),s[t][r][2].push(...n(...s[t][r][1][1])),s[t][r][2].push(...n(...s[t][r][1][2])),s[t][r][2].push(...n(...s[t][r][1][3]))}for(let t=0;t&lt;8;++t){r[t]=[];for(let e=0;e&lt;8;++e)r[t][e]=[],r[t][e][0]=s[t][0][2][e],r[t][e][1]=s[t][1][2][e],r[t][e][2]=s[t][2][2][e],r[t][e][3]=s[t][3][2][e]}return r};class x{constructor(t,e){this.x=t||0,this.y=e||0}toString(){return`(x=${this.x}, y=${this.y})`}clone(){return new x(this.x,this.y)}add(t){return new x(this.x+t.x,this.y+t.y)}scale(t){return void 0===t.x?new x(this.x*t,this.y*t):new x(this.x*t.x,this.y*t.y)}distSquared(t){let e=this.x-t.x,s=this.y-t.y;return e*e+s*s}transform(t){let e=this.x*t.a+this.y*t.c+t.e,s=this.x*t.b+this.y*t.d+t.f;return new x(e,s)}}class g{constructor(t,e,s,r,n,o){void 0===t?(this.a=1,this.b=0,this.c=0,this.d=1,this.e=0,this.f=0):(this.a=t,this.b=e,this.c=s,this.d=r,this.e=n,this.f=o)}toString(){return`affine: ${this.a} ${this.c} ${this.e} \n       ${this.b} ${this.d} ${this.f}`}append(t){t instanceof g||console.error(&quot;mesh.js: argument to Affine.append is not affine!&quot;);let e=this.a*t.a+this.c*t.b,s=this.b*t.a+this.d*t.b,r=this.a*t.c+this.c*t.d,n=this.b*t.c+this.d*t.d,o=this.a*t.e+this.c*t.f+this.e,i=this.b*t.e+this.d*t.f+this.f;return new g(e,s,r,n,o,i)}}class w{constructor(t,e){this.nodes=t,this.colors=e}paintCurve(t,e){if(o(this.nodes)&gt;r){const s=n(...this.nodes);let r=[[],[]],o=[[],[]];for(let t=0;t&lt;4;++t)r[0][t]=this.colors[0][t],r[1][t]=(this.colors[0][t]+this.colors[1][t])/2,o[0][t]=r[1][t],o[1][t]=this.colors[1][t];let i=new w(s[0],r),a=new w(s[1],o);i.paintCurve(t,e),a.paintCurve(t,e)}else{let s=Math.round(this.nodes[0].x);if(s&gt;=0&amp;&amp;s&lt;e){let r=4*(~~this.nodes[0].y*e+s);t[r]=Math.round(this.colors[0][0]),t[r+1]=Math.round(this.colors[0][1]),t[r+2]=Math.round(this.colors[0][2]),t[r+3]=Math.round(this.colors[0][3])}}}}class m{constructor(t,e){this.nodes=t,this.colors=e}split(){let t=[[],[],[],[]],e=[[],[],[],[]],s=[[[],[]],[[],[]]],r=[[[],[]],[[],[]]];for(let s=0;s&lt;4;++s){const r=n(this.nodes[0][s],this.nodes[1][s],this.nodes[2][s],this.nodes[3][s]);t[0][s]=r[0][0],t[1][s]=r[0][1],t[2][s]=r[0][2],t[3][s]=r[0][3],e[0][s]=r[1][0],e[1][s]=r[1][1],e[2][s]=r[1][2],e[3][s]=r[1][3]}for(let t=0;t&lt;4;++t)s[0][0][t]=this.colors[0][0][t],s[0][1][t]=this.colors[0][1][t],s[1][0][t]=(this.colors[0][0][t]+this.colors[1][0][t])/2,s[1][1][t]=(this.colors[0][1][t]+this.colors[1][1][t])/2,r[0][0][t]=s[1][0][t],r[0][1][t]=s[1][1][t],r[1][0][t]=this.colors[1][0][t],r[1][1][t]=this.colors[1][1][t];return[new m(t,s),new m(e,r)]}paint(t,e){let s,n=!1;for(let t=0;t&lt;4;++t)if((s=o([this.nodes[0][t],this.nodes[1][t],this.nodes[2][t],this.nodes[3][t]]))&gt;r){n=!0;break}if(n){let s=this.split();s[0].paint(t,e),s[1].paint(t,e)}else{new w([...this.nodes[0]],[...this.colors[0]]).paintCurve(t,e)}}}class b{constructor(t){this.readMesh(t),this.type=t.getAttribute(&quot;type&quot;)||&quot;bilinear&quot;}readMesh(t){let e=[[]],s=[[]],r=Number(t.getAttribute(&quot;x&quot;)),n=Number(t.getAttribute(&quot;y&quot;));e[0][0]=new x(r,n);let o=t.children;for(let t=0,r=o.length;t&lt;r;++t){e[3*t+1]=[],e[3*t+2]=[],e[3*t+3]=[],s[t+1]=[];let r=o[t].children;for(let n=0,o=r.length;n&lt;o;++n){let o=r[n].children;for(let r=0,i=o.length;r&lt;i;++r){let i=r;0!==t&amp;&amp;++i;let h,d=o[r].getAttribute(&quot;path&quot;),c=&quot;l&quot;;null!=d&amp;&amp;(c=(h=d.match(/\s*([lLcC])\s*(.*)/))[1]);let u=l(h[2]);switch(c){case&quot;l&quot;:0===i?(e[3*t][3*n+3]=u[0].add(e[3*t][3*n]),e[3*t][3*n+1]=a(e[3*t][3*n],e[3*t][3*n+3]),e[3*t][3*n+2]=a(e[3*t][3*n+3],e[3*t][3*n])):1===i?(e[3*t+3][3*n+3]=u[0].add(e[3*t][3*n+3]),e[3*t+1][3*n+3]=a(e[3*t][3*n+3],e[3*t+3][3*n+3]),e[3*t+2][3*n+3]=a(e[3*t+3][3*n+3],e[3*t][3*n+3])):2===i?(0===n&amp;&amp;(e[3*t+3][3*n+0]=u[0].add(e[3*t+3][3*n+3])),e[3*t+3][3*n+1]=a(e[3*t+3][3*n],e[3*t+3][3*n+3]),e[3*t+3][3*n+2]=a(e[3*t+3][3*n+3],e[3*t+3][3*n])):(e[3*t+1][3*n]=a(e[3*t][3*n],e[3*t+3][3*n]),e[3*t+2][3*n]=a(e[3*t+3][3*n],e[3*t][3*n]));break;case&quot;L&quot;:0===i?(e[3*t][3*n+3]=u[0],e[3*t][3*n+1]=a(e[3*t][3*n],e[3*t][3*n+3]),e[3*t][3*n+2]=a(e[3*t][3*n+3],e[3*t][3*n])):1===i?(e[3*t+3][3*n+3]=u[0],e[3*t+1][3*n+3]=a(e[3*t][3*n+3],e[3*t+3][3*n+3]),e[3*t+2][3*n+3]=a(e[3*t+3][3*n+3],e[3*t][3*n+3])):2===i?(0===n&amp;&amp;(e[3*t+3][3*n+0]=u[0]),e[3*t+3][3*n+1]=a(e[3*t+3][3*n],e[3*t+3][3*n+3]),e[3*t+3][3*n+2]=a(e[3*t+3][3*n+3],e[3*t+3][3*n])):(e[3*t+1][3*n]=a(e[3*t][3*n],e[3*t+3][3*n]),e[3*t+2][3*n]=a(e[3*t+3][3*n],e[3*t][3*n]));break;case&quot;c&quot;:0===i?(e[3*t][3*n+1]=u[0].add(e[3*t][3*n]),e[3*t][3*n+2]=u[1].add(e[3*t][3*n]),e[3*t][3*n+3]=u[2].add(e[3*t][3*n])):1===i?(e[3*t+1][3*n+3]=u[0].add(e[3*t][3*n+3]),e[3*t+2][3*n+3]=u[1].add(e[3*t][3*n+3]),e[3*t+3][3*n+3]=u[2].add(e[3*t][3*n+3])):2===i?(e[3*t+3][3*n+2]=u[0].add(e[3*t+3][3*n+3]),e[3*t+3][3*n+1]=u[1].add(e[3*t+3][3*n+3]),0===n&amp;&amp;(e[3*t+3][3*n+0]=u[2].add(e[3*t+3][3*n+3]))):(e[3*t+2][3*n]=u[0].add(e[3*t+3][3*n]),e[3*t+1][3*n]=u[1].add(e[3*t+3][3*n]));break;case&quot;C&quot;:0===i?(e[3*t][3*n+1]=u[0],e[3*t][3*n+2]=u[1],e[3*t][3*n+3]=u[2]):1===i?(e[3*t+1][3*n+3]=u[0],e[3*t+2][3*n+3]=u[1],e[3*t+3][3*n+3]=u[2]):2===i?(e[3*t+3][3*n+2]=u[0],e[3*t+3][3*n+1]=u[1],0===n&amp;&amp;(e[3*t+3][3*n+0]=u[2])):(e[3*t+2][3*n]=u[0],e[3*t+1][3*n]=u[1]);break;default:console.error(&quot;mesh.js: &quot;+c+&quot; invalid path type.&quot;)}if(0===t&amp;&amp;0===n||r&gt;0){let e=window.getComputedStyle(o[r]).stopColor.match(/^rgb\s*\(\s*(\d+)\s*,\s*(\d+)\s*,\s*(\d+)\s*\)$/i),a=window.getComputedStyle(o[r]).stopOpacity,h=255;a&amp;&amp;(h=Math.floor(255*a)),e&amp;&amp;(0===i?(s[t][n]=[],s[t][n][0]=Math.floor(e[1]),s[t][n][1]=Math.floor(e[2]),s[t][n][2]=Math.floor(e[3]),s[t][n][3]=h):1===i?(s[t][n+1]=[],s[t][n+1][0]=Math.floor(e[1]),s[t][n+1][1]=Math.floor(e[2]),s[t][n+1][2]=Math.floor(e[3]),s[t][n+1][3]=h):2===i?(s[t+1][n+1]=[],s[t+1][n+1][0]=Math.floor(e[1]),s[t+1][n+1][1]=Math.floor(e[2]),s[t+1][n+1][2]=Math.floor(e[3]),s[t+1][n+1][3]=h):3===i&amp;&amp;(s[t+1][n]=[],s[t+1][n][0]=Math.floor(e[1]),s[t+1][n][1]=Math.floor(e[2]),s[t+1][n][2]=Math.floor(e[3]),s[t+1][n][3]=h))}}e[3*t+1][3*n+1]=new x,e[3*t+1][3*n+2]=new x,e[3*t+2][3*n+1]=new x,e[3*t+2][3*n+2]=new x,e[3*t+1][3*n+1].x=(-4*e[3*t][3*n].x+6*(e[3*t][3*n+1].x+e[3*t+1][3*n].x)+-2*(e[3*t][3*n+3].x+e[3*t+3][3*n].x)+3*(e[3*t+3][3*n+1].x+e[3*t+1][3*n+3].x)+-1*e[3*t+3][3*n+3].x)/9,e[3*t+1][3*n+2].x=(-4*e[3*t][3*n+3].x+6*(e[3*t][3*n+2].x+e[3*t+1][3*n+3].x)+-2*(e[3*t][3*n].x+e[3*t+3][3*n+3].x)+3*(e[3*t+3][3*n+2].x+e[3*t+1][3*n].x)+-1*e[3*t+3][3*n].x)/9,e[3*t+2][3*n+1].x=(-4*e[3*t+3][3*n].x+6*(e[3*t+3][3*n+1].x+e[3*t+2][3*n].x)+-2*(e[3*t+3][3*n+3].x+e[3*t][3*n].x)+3*(e[3*t][3*n+1].x+e[3*t+2][3*n+3].x)+-1*e[3*t][3*n+3].x)/9,e[3*t+2][3*n+2].x=(-4*e[3*t+3][3*n+3].x+6*(e[3*t+3][3*n+2].x+e[3*t+2][3*n+3].x)+-2*(e[3*t+3][3*n].x+e[3*t][3*n+3].x)+3*(e[3*t][3*n+2].x+e[3*t+2][3*n].x)+-1*e[3*t][3*n].x)/9,e[3*t+1][3*n+1].y=(-4*e[3*t][3*n].y+6*(e[3*t][3*n+1].y+e[3*t+1][3*n].y)+-2*(e[3*t][3*n+3].y+e[3*t+3][3*n].y)+3*(e[3*t+3][3*n+1].y+e[3*t+1][3*n+3].y)+-1*e[3*t+3][3*n+3].y)/9,e[3*t+1][3*n+2].y=(-4*e[3*t][3*n+3].y+6*(e[3*t][3*n+2].y+e[3*t+1][3*n+3].y)+-2*(e[3*t][3*n].y+e[3*t+3][3*n+3].y)+3*(e[3*t+3][3*n+2].y+e[3*t+1][3*n].y)+-1*e[3*t+3][3*n].y)/9,e[3*t+2][3*n+1].y=(-4*e[3*t+3][3*n].y+6*(e[3*t+3][3*n+1].y+e[3*t+2][3*n].y)+-2*(e[3*t+3][3*n+3].y+e[3*t][3*n].y)+3*(e[3*t][3*n+1].y+e[3*t+2][3*n+3].y)+-1*e[3*t][3*n+3].y)/9,e[3*t+2][3*n+2].y=(-4*e[3*t+3][3*n+3].y+6*(e[3*t+3][3*n+2].y+e[3*t+2][3*n+3].y)+-2*(e[3*t+3][3*n].y+e[3*t][3*n+3].y)+3*(e[3*t][3*n+2].y+e[3*t+2][3*n].y)+-1*e[3*t][3*n].y)/9}}this.nodes=e,this.colors=s}paintMesh(t,e){let s=(this.nodes.length-1)/3,r=(this.nodes[0].length-1)/3;if(&quot;bilinear&quot;===this.type||s&lt;2||r&lt;2){let n;for(let o=0;o&lt;s;++o)for(let s=0;s&lt;r;++s){let r=[];for(let t=3*o,e=3*o+4;t&lt;e;++t)r.push(this.nodes[t].slice(3*s,3*s+4));let i=[];i.push(this.colors[o].slice(s,s+2)),i.push(this.colors[o+1].slice(s,s+2)),(n=new m(r,i)).paint(t,e)}}else{let n,o,a,h,l,d,u;const x=s,g=r;s++,r++;let w=new Array(s);for(let t=0;t&lt;s;++t){w[t]=new Array(r);for(let e=0;e&lt;r;++e)w[t][e]=[],w[t][e][0]=this.nodes[3*t][3*e],w[t][e][1]=this.colors[t][e]}for(let t=0;t&lt;s;++t)for(let e=0;e&lt;r;++e)0!==t&amp;&amp;t!==x&amp;&amp;(n=i(w[t-1][e][0],w[t][e][0]),o=i(w[t+1][e][0],w[t][e][0]),w[t][e][2]=c(w[t-1][e][1],w[t][e][1],w[t+1][e][1],n,o)),0!==e&amp;&amp;e!==g&amp;&amp;(n=i(w[t][e-1][0],w[t][e][0]),o=i(w[t][e+1][0],w[t][e][0]),w[t][e][3]=c(w[t][e-1][1],w[t][e][1],w[t][e+1][1],n,o));for(let t=0;t&lt;r;++t){w[0][t][2]=[],w[x][t][2]=[];for(let e=0;e&lt;4;++e)n=i(w[1][t][0],w[0][t][0]),o=i(w[x][t][0],w[x-1][t][0]),w[0][t][2][e]=n&gt;0?2*(w[1][t][1][e]-w[0][t][1][e])/n-w[1][t][2][e]:0,w[x][t][2][e]=o&gt;0?2*(w[x][t][1][e]-w[x-1][t][1][e])/o-w[x-1][t][2][e]:0}for(let t=0;t&lt;s;++t){w[t][0][3]=[],w[t][g][3]=[];for(let e=0;e&lt;4;++e)n=i(w[t][1][0],w[t][0][0]),o=i(w[t][g][0],w[t][g-1][0]),w[t][0][3][e]=n&gt;0?2*(w[t][1][1][e]-w[t][0][1][e])/n-w[t][1][3][e]:0,w[t][g][3][e]=o&gt;0?2*(w[t][g][1][e]-w[t][g-1][1][e])/o-w[t][g-1][3][e]:0}for(let s=0;s&lt;x;++s)for(let r=0;r&lt;g;++r){let n=i(w[s][r][0],w[s+1][r][0]),o=i(w[s][r+1][0],w[s+1][r+1][0]),c=i(w[s][r][0],w[s][r+1][0]),x=i(w[s+1][r][0],w[s+1][r+1][0]),g=[[],[],[],[]];for(let t=0;t&lt;4;++t){(d=[])[0]=w[s][r][1][t],d[1]=w[s+1][r][1][t],d[2]=w[s][r+1][1][t],d[3]=w[s+1][r+1][1][t],d[4]=w[s][r][2][t]*n,d[5]=w[s+1][r][2][t]*n,d[6]=w[s][r+1][2][t]*o,d[7]=w[s+1][r+1][2][t]*o,d[8]=w[s][r][3][t]*c,d[9]=w[s+1][r][3][t]*x,d[10]=w[s][r+1][3][t]*c,d[11]=w[s+1][r+1][3][t]*x,d[12]=0,d[13]=0,d[14]=0,d[15]=0,u=f(d);for(let e=0;e&lt;9;++e){g[t][e]=[];for(let s=0;s&lt;9;++s)g[t][e][s]=p(u,e/8,s/8),g[t][e][s]&gt;255?g[t][e][s]=255:g[t][e][s]&lt;0&amp;&amp;(g[t][e][s]=0)}}h=[];for(let t=3*s,e=3*s+4;t&lt;e;++t)h.push(this.nodes[t].slice(3*r,3*r+4));l=y(h);for(let s=0;s&lt;8;++s)for(let r=0;r&lt;8;++r)(a=new m(l[s][r],[[[g[0][s][r],g[1][s][r],g[2][s][r],g[3][s][r]],[g[0][s][r+1],g[1][s][r+1],g[2][s][r+1],g[3][s][r+1]]],[[g[0][s+1][r],g[1][s+1][r],g[2][s+1][r],g[3][s+1][r]],[g[0][s+1][r+1],g[1][s+1][r+1],g[2][s+1][r+1],g[3][s+1][r+1]]]])).paint(t,e)}}}transform(t){if(t instanceof x)for(let e=0,s=this.nodes.length;e&lt;s;++e)for(let s=0,r=this.nodes[0].length;s&lt;r;++s)this.nodes[e][s]=this.nodes[e][s].add(t);else if(t instanceof g)for(let e=0,s=this.nodes.length;e&lt;s;++e)for(let s=0,r=this.nodes[0].length;s&lt;r;++s)this.nodes[e][s]=this.nodes[e][s].transform(t)}scale(t){for(let e=0,s=this.nodes.length;e&lt;s;++e)for(let s=0,r=this.nodes[0].length;s&lt;r;++s)this.nodes[e][s]=this.nodes[e][s].scale(t)}}document.querySelectorAll(&quot;rect,circle,ellipse,path,text&quot;).forEach((r,n)=&gt;{let o=r.getAttribute(&quot;id&quot;);o||(o=&quot;patchjs_shape&quot;+n,r.setAttribute(&quot;id&quot;,o));const i=r.style.fill.match(/^url\(\s*&quot;?\s*#([^\s&quot;]+)&quot;?\s*\)/),a=r.style.stroke.match(/^url\(\s*&quot;?\s*#([^\s&quot;]+)&quot;?\s*\)/);if(i&amp;&amp;i[1]){const a=document.getElementById(i[1]);if(a&amp;&amp;&quot;meshgradient&quot;===a.nodeName){const i=r.getBBox();let l=document.createElementNS(s,&quot;canvas&quot;);d(l,{width:i.width,height:i.height});const c=l.getContext(&quot;2d&quot;);let u=c.createImageData(i.width,i.height);const f=new b(a);&quot;objectBoundingBox&quot;===a.getAttribute(&quot;gradientUnits&quot;)&amp;&amp;f.scale(new x(i.width,i.height));const p=a.getAttribute(&quot;gradientTransform&quot;);null!=p&amp;&amp;f.transform(h(p)),&quot;userSpaceOnUse&quot;===a.getAttribute(&quot;gradientUnits&quot;)&amp;&amp;f.transform(new x(-i.x,-i.y)),f.paintMesh(u.data,l.width),c.putImageData(u,0,0);const y=document.createElementNS(t,&quot;image&quot;);d(y,{width:i.width,height:i.height,x:i.x,y:i.y});let g=l.toDataURL();y.setAttributeNS(e,&quot;xlink:href&quot;,g),r.parentNode.insertBefore(y,r),r.style.fill=&quot;none&quot;;const w=document.createElementNS(t,&quot;use&quot;);w.setAttributeNS(e,&quot;xlink:href&quot;,&quot;#&quot;+o);const m=&quot;patchjs_clip&quot;+n,M=document.createElementNS(t,&quot;clipPath&quot;);M.setAttribute(&quot;id&quot;,m),M.appendChild(w),r.parentElement.insertBefore(M,r),y.setAttribute(&quot;clip-path&quot;,&quot;url(#&quot;+m+&quot;)&quot;),u=null,l=null,g=null}}if(a&amp;&amp;a[1]){const o=document.getElementById(a[1]);if(o&amp;&amp;&quot;meshgradient&quot;===o.nodeName){const i=parseFloat(r.style.strokeWidth.slice(0,-2))*(parseFloat(r.style.strokeMiterlimit)||parseFloat(r.getAttribute(&quot;stroke-miterlimit&quot;))||1),a=r.getBBox(),l=Math.trunc(a.width+i),c=Math.trunc(a.height+i),u=Math.trunc(a.x-i/2),f=Math.trunc(a.y-i/2);let p=document.createElementNS(s,&quot;canvas&quot;);d(p,{width:l,height:c});const y=p.getContext(&quot;2d&quot;);let g=y.createImageData(l,c);const w=new b(o);&quot;objectBoundingBox&quot;===o.getAttribute(&quot;gradientUnits&quot;)&amp;&amp;w.scale(new x(l,c));const m=o.getAttribute(&quot;gradientTransform&quot;);null!=m&amp;&amp;w.transform(h(m)),&quot;userSpaceOnUse&quot;===o.getAttribute(&quot;gradientUnits&quot;)&amp;&amp;w.transform(new x(-u,-f)),w.paintMesh(g.data,p.width),y.putImageData(g,0,0);const M=document.createElementNS(t,&quot;image&quot;);d(M,{width:l,height:c,x:0,y:0});let S=p.toDataURL();M.setAttributeNS(e,&quot;xlink:href&quot;,S);const k=&quot;pattern_clip&quot;+n,A=document.createElementNS(t,&quot;pattern&quot;);d(A,{id:k,patternUnits:&quot;userSpaceOnUse&quot;,width:l,height:c,x:u,y:f}),A.appendChild(M),o.parentNode.appendChild(A),r.style.stroke=&quot;url(#&quot;+k+&quot;)&quot;,g=null,p=null,S=null}}})}();
</script>
</svg>
