<?xml version="1.0" encoding="UTF-8" standalone="no"?>
<!-- Created with Inkscape (http://www.inkscape.org/) -->

<svg
   width="60.608768mm"
   height="12.764063mm"
   viewBox="0 0 60.608768 12.764063"
   version="1.1"
   id="svg5"
   inkscape:version="1.1.2 (b8e25be833, 2022-02-05)"
   sodipodi:docname="zdrapki.svg"
   xmlns:inkscape="http://www.inkscape.org/namespaces/inkscape"
   xmlns:sodipodi="http://sodipodi.sourceforge.net/DTD/sodipodi-0.dtd"
   xmlns="http://www.w3.org/2000/svg"
   xmlns:svg="http://www.w3.org/2000/svg">
  <sodipodi:namedview
     id="namedview7"
     pagecolor="#ffffff"
     bordercolor="#666666"
     borderopacity="1.0"
     inkscape:pageshadow="2"
     inkscape:pageopacity="0.0"
     inkscape:pagecheckerboard="0"
     inkscape:document-units="mm"
     showgrid="false"
     fit-margin-top="0"
     fit-margin-left="0"
     fit-margin-right="0"
     fit-margin-bottom="0"
     inkscape:zoom="11.516947"
     inkscape:cx="50.490811"
     inkscape:cy="21.663727"
     inkscape:window-width="3200"
     inkscape:window-height="1721"
     inkscape:window-x="1911"
     inkscape:window-y="-1085"
     inkscape:window-maximized="1"
     inkscape:current-layer="layer1" />
  <defs
     id="defs2" />
  <g
     inkscape:label="Warstwa 1"
     inkscape:groupmode="layer"
     id="layer1"
     transform="translate(-98.95237,-103.35967)">
    <path
       style="fill:#000000;stroke-width:0.0846667"
       d="m 104.15334,116.0978 c -0.035,-0.035 -0.29649,-0.063 -1.09468,-0.11709 -0.53717,-0.0364 -0.57693,-0.0913 -0.531,-0.73319 0.0222,-0.31082 0.0987,-0.65806 0.16981,-0.77165 0.32513,-0.51899 0.29074,-0.62729 -0.42278,-1.33145 -0.83563,-0.82467 -1.02524,-1.05343 -1.38823,-1.6748 -0.35635,-0.61002 -0.71318,-1.45511 -0.64373,-1.52456 0.0279,-0.0279 0.44225,0.1064 0.92083,0.29841 0.87033,0.34917 1.03669,0.39247 1.78927,0.46572 0.37598,0.0366 0.40217,0.0263 0.40217,-0.15827 0,-0.10858 0.0233,-0.31402 0.0518,-0.45655 0.0463,-0.2313 0.0329,-0.2542 -0.12396,-0.21317 -0.10345,0.0271 -0.23346,-0.0117 -0.31589,-0.0941 -0.12664,-0.12664 -0.15401,-0.12751 -0.28487,-0.009 -0.0796,0.0721 -0.19012,0.13102 -0.24555,0.13102 -0.0651,0 -0.082,0.0746 -0.0478,0.21088 0.0367,0.14628 0.0138,0.2259 -0.0748,0.25991 -0.15443,0.0593 -0.78297,-0.24761 -0.88665,-0.43288 -0.0622,-0.11123 -0.11071,-0.11598 -0.30053,-0.0295 -0.19164,0.0873 -0.25151,0.0803 -0.39073,-0.0457 -0.13019,-0.11783 -0.14788,-0.19224 -0.085,-0.35761 0.10465,-0.27525 0.10211,-0.28587 -0.0541,-0.22594 -0.0734,0.0282 -0.16732,0.14022 -0.20867,0.24898 -0.0894,0.23509 -0.452725,0.35086 -0.632606,0.20157 -0.307813,-0.25546 0.01546,-0.72916 0.427106,-0.62585 0.17881,0.0449 0.21837,0.0331 0.16718,-0.0497 -0.0369,-0.0597 -0.0727,-0.18907 -0.0796,-0.28752 -0.008,-0.1106 -0.0597,-0.16753 -0.13606,-0.14901 -0.502842,0.12196 -1.1819,0.0206 -1.1819,-0.17643 0,-0.15853 0.584664,-0.64266 0.845226,-0.69989 0.320864,-0.0705 0.317054,-0.12688 -0.02299,-0.34032 -0.149548,-0.0939 -0.283367,-0.25035 -0.297375,-0.34773 -0.02184,-0.15184 0.03063,-0.18476 0.368164,-0.23103 0.216495,-0.0297 0.485565,-0.0309 0.597925,-0.003 0.16542,0.0415 0.19411,0.0247 0.15074,-0.0883 -0.03,-0.0783 0.008,-0.20739 0.0861,-0.29392 0.11058,-0.12218 0.12154,-0.20205 0.0526,-0.38339 -0.1208,-0.31773 0.019,-0.55663 0.32566,-0.55663 0.1711,0 0.26438,-0.0591 0.33388,-0.21166 0.075,-0.16455 0.15966,-0.21167 0.38048,-0.21167 0.15622,0 0.31106,0.027 0.34408,0.0601 0.033,0.033 0.21091,0.0492 0.39528,0.0358 0.38948,-0.0281 0.48474,0.10331 0.35164,0.48512 -0.0786,0.22537 -0.0693,0.24448 0.11835,0.24448 0.11854,0 0.20357,-0.0498 0.20357,-0.11914 0,-0.0655 0.0595,-0.26078 0.13217,-0.43391 0.13216,-0.31478 0.13216,-0.31478 0.36785,-0.0271 0.22673,0.27672 0.23756,0.28051 0.28485,0.0997 0.0729,-0.27876 -0.0278,-0.76836 -0.15797,-0.76836 -0.14887,0 -0.30091,-0.29178 -0.23777,-0.45631 0.0705,-0.18374 0.35706,-0.25488 0.51123,-0.12693 0.0857,0.0711 0.11421,0.18824 0.0834,0.34238 -0.0637,0.31852 0.0953,0.39339 0.20771,0.0978 0.10893,-0.28652 0.10691,-0.32259 -0.0181,-0.32259 -0.17403,0 -0.29384,-0.27996 -0.19022,-0.4445 0.12753,-0.20251 0.354,-0.23257 0.53283,-0.0707 0.16322,0.14772 0.26199,0.10098 0.26199,-0.124 0,-0.1941 0.30983,-0.2665 0.46716,-0.10918 0.19992,0.19992 0.1472,0.367 -0.15573,0.49357 -0.15467,0.0646 -0.38327,0.26476 -0.508,0.44473 -0.2595,0.37446 -0.29554,0.53136 -0.0786,0.34212 0.43596,-0.38028 0.86783,-0.38803 0.86783,-0.0156 0,0.24791 -0.29656,0.39686 -0.53796,0.27021 -0.19976,-0.1048 -0.72633,0.2969 -0.84129,0.64178 -0.0972,0.29165 -0.0563,0.33381 0.22151,0.22818 0.14921,-0.0567 0.23804,-0.0553 0.27498,0.005 0.03,0.0486 0.1493,0.0645 0.26509,0.0354 0.26036,-0.0654 0.44834,0.0796 0.44834,0.34582 0,0.20514 0.11709,0.26966 0.21166,0.11663 0.0288,-0.0466 0.16438,-0.0847 0.30133,-0.0847 0.17688,0 0.25191,0.0429 0.25904,0.14817 0.0165,0.24359 -0.0208,0.40044 -0.10246,0.43039 -0.0423,0.0155 -0.0769,0.0631 -0.0769,0.10583 0,0.14404 0.26354,0.079 0.54281,-0.13405 0.15263,-0.11642 0.31914,-0.21167 0.37003,-0.21167 0.11194,0 0.0467,0.50932 -0.11708,0.91389 -0.12249,0.30259 -0.0659,0.37602 0.26581,0.34487 0.0914,-0.009 0.25447,-0.01 0.36249,-0.002 0.28078,0.0192 0.2131,0.34025 -0.11173,0.52999 -0.29285,0.17107 -0.97728,0.20793 -1.12465,0.0606 -0.0551,-0.0551 -0.1294,-0.0689 -0.1651,-0.0307 -0.0357,0.0382 -0.0192,0.0858 0.0367,0.10583 0.21319,0.0764 0.54925,0.3944 0.62373,0.59029 0.19607,0.5157 0.18899,0.59557 -0.0569,0.64258 -0.12837,0.0245 -0.31353,0.008 -0.41146,-0.0365 -0.21023,-0.0958 -0.59892,-0.68462 -0.68781,-1.04195 -0.0344,-0.13843 -0.14128,-0.31541 -0.23745,-0.39328 -0.16441,-0.13313 -0.18155,-0.13201 -0.28722,0.0189 -0.24537,0.35031 -0.6699,0.0962 -0.5811,-0.34777 0.0414,-0.20678 0.0225,-0.25379 -0.1017,-0.25379 -0.20723,0 -0.52064,0.3491 -0.52064,0.57993 0,0.10341 0.0613,0.28164 0.13631,0.39606 0.075,0.11442 0.11241,0.27032 0.0832,0.34644 -0.0657,0.17127 0.1744,0.36274 0.38562,0.30751 0.12109,-0.0317 0.13505,-0.0732 0.0672,-0.19996 -0.16328,-0.30508 0.20267,-0.6646 0.54341,-0.53384 0.0764,0.0293 0.13893,0.14448 0.13893,0.25592 0,0.14234 0.0477,0.2026 0.16027,0.2026 0.32928,0 0.37105,0.63176 0.0514,0.77741 -0.21643,0.0986 -0.29532,0.4309 -0.127,0.53493 0.11246,0.0695 0.10878,0.52544 -0.005,0.59564 -0.0492,0.0304 -0.18256,0.0319 -0.29633,0.003 -0.16032,-0.0402 -0.20686,-0.10757 -0.20686,-0.29931 0,-0.13606 0.0381,-0.27093 0.0847,-0.29971 0.0466,-0.0288 0.0847,-0.1647 0.0847,-0.30205 0,-0.22748 -0.0149,-0.24042 -0.16723,-0.14529 -0.13195,0.0824 -0.18909,0.0826 -0.27093,6.8e-4 -0.15825,-0.15825 -0.21334,-0.12705 -0.26924,0.15245 -0.0282,0.14089 -0.14852,0.35344 -0.26742,0.47234 -0.21618,0.21618 -0.21618,0.21618 0.0618,0.18834 0.26431,-0.0265 0.27926,-0.0128 0.30361,0.27858 0.0141,0.16854 -0.0526,0.69653 -0.14816,1.17332 -0.20289,1.01209 -0.19504,0.93329 -0.093,0.93329 0.0445,0 0.10521,-0.14287 0.13501,-0.3175 0.10844,-0.63544 0.21623,-0.95709 0.3028,-0.90359 0.0539,0.0333 0.0656,0.21275 0.0304,0.46822 -0.0313,0.22782 -0.0374,0.41421 -0.0136,0.41421 0.0238,0 0.12739,-0.25718 0.23009,-0.5715 0.10269,-0.31433 0.2158,-0.6034 0.25134,-0.64238 0.1348,-0.14782 0.15633,0.10091 0.0452,0.52219 -0.0635,0.24073 -0.0838,0.43769 -0.0451,0.43769 0.0623,0 1.01494,-1.84054 1.01494,-1.96089 0,-0.0262 -0.0993,-0.0287 -0.22067,-0.005 -0.25455,0.0487 -0.36878,-0.082 -0.3707,-0.42389 -9.9e-4,-0.1765 0.0488,-0.24378 0.21018,-0.2843 0.2956,-0.0742 0.46487,0.0111 0.47159,0.2377 0.006,0.19315 0.006,0.19315 0.0976,0.003 0.0924,-0.19168 0.23533,-0.259 0.23533,-0.11089 0,0.3707 -1.1276,2.8398 -1.46194,3.20121 -0.0969,0.10478 -0.1315,0.1905 -0.0768,0.1905 0.0627,0 0.0994,0.1547 0.0994,0.41924 0,0.2943 0.0883,0.62008 0.29634,1.09321 0.29844,0.67878 0.36795,1.05796 0.21164,1.15457 -0.0987,0.061 -1.26319,0.10555 -1.3183,0.0504 z m 0.27188,-0.41029 c 0.10951,-0.1408 0.11979,-0.14055 0.20694,0.005 0.0714,0.11939 0.15106,0.14063 0.35977,0.096 0.14743,-0.0316 0.28008,-0.0681 0.29478,-0.0813 0.0147,-0.0131 -0.0954,-0.26576 -0.24464,-0.56141 -0.14924,-0.29564 -0.29632,-0.72812 -0.32684,-0.96106 -0.0418,-0.31926 -0.0858,-0.41312 -0.1787,-0.38121 -0.0678,0.0233 -0.39458,0.0423 -0.72626,0.0423 -0.60305,0 -0.60305,0 -0.8255,0.72935 -0.12234,0.40115 -0.22244,0.81548 -0.22244,0.92075 0,0.16759 0.0317,0.18507 0.25446,0.14051 0.13995,-0.028 0.34966,-0.008 0.46602,0.0455 0.11636,0.053 0.23326,0.0747 0.25978,0.0482 0.0265,-0.0265 0.074,-0.30893 0.10547,-0.62759 0.0412,-0.41656 0.091,-0.57938 0.17725,-0.57938 0.14224,0 0.16714,0.21613 0.0922,0.80019 -0.0303,0.23615 -0.0365,0.448 -0.0137,0.47076 0.0812,0.0812 0.20794,0.0391 0.32139,-0.10678 z m -0.22356,-2.13783 c 0.0917,-0.0593 0.0139,-0.0824 -0.28016,-0.0834 -0.25017,-8e-4 -0.38699,0.0314 -0.35484,0.0834 0.0665,0.10766 0.4684,0.10766 0.635,0 z m -0.58844,-0.47947 c 0.0612,-0.0622 0.41911,-1.65984 0.41911,-1.87079 0,-0.044 -0.40958,-0.12197 -0.91017,-0.17326 -0.53066,-0.0544 -1.17494,-0.1844 -1.54516,-0.31182 -0.34925,-0.12021 -0.70547,-0.24172 -0.79159,-0.27002 -0.1508,-0.0496 -0.15116,-0.0408 -0.01,0.23578 0.31608,0.61818 0.88546,1.42351 1.3808,1.95303 0.5189,0.55471 0.5189,0.55471 0.95293,0.53133 0.23872,-0.0129 0.46543,-0.0553 0.50379,-0.0943 z m 1.43511,-2.3992 c 0,-0.0466 -0.0404,-0.0847 -0.0897,-0.0847 -0.0493,0 -0.0661,0.0381 -0.0373,0.0847 0.0288,0.0466 0.0691,0.0847 0.0897,0.0847 0.0205,0 0.0373,-0.0381 0.0373,-0.0847 z m -1.10336,-0.79935 c -0.003,-0.17147 -0.005,-0.17164 -0.127,-0.01 -0.0684,0.0904 -0.1231,0.24279 -0.12162,0.33867 0.003,0.17147 0.005,0.17164 0.127,0.01 0.0684,-0.0904 0.1231,-0.24279 0.12162,-0.33867 z m -2.07461,-0.16697 c -0.0789,-0.12046 -0.17947,-0.21901 -0.22343,-0.21901 -0.0886,0 -0.0259,0.13432 0.1682,0.36035 0.18486,0.21521 0.22371,0.11579 0.0552,-0.14134 z m -0.80136,-0.087 c 0,-0.0205 -0.0381,-0.0609 -0.0847,-0.0897 -0.0466,-0.0288 -0.0847,-0.012 -0.0847,0.0373 0,0.0493 0.0381,0.0897 0.0847,0.0897 0.0466,0 0.0847,-0.0168 0.0847,-0.0373 z m 2.68876,-0.26546 c -0.0833,-0.0833 -0.23343,0.0446 -0.23343,0.19894 0,0.12924 0.0111,0.12901 0.14313,-0.003 0.0787,-0.0787 0.11935,-0.1669 0.0903,-0.19596 z m -3.66243,0.13347 c 0.0288,-0.0466 0.012,-0.0847 -0.0373,-0.0847 -0.0493,0 -0.08966,0.0381 -0.08966,0.0847 0,0.0466 0.0168,0.0847 0.03734,0.0847 0.0205,0 0.0609,-0.0381 0.0897,-0.0847 z m 2.53094,-0.0493 c 0.0926,-0.24121 0.0486,-0.33518 -0.0783,-0.16739 -0.0684,0.0904 -0.12431,0.19516 -0.12431,0.23283 0,0.12119 0.14953,0.0729 0.20261,-0.0654 z m 0.64406,0.0173 c 0,-0.0641 -0.0571,-0.16406 -0.127,-0.22203 -0.13464,-0.11174 -0.16525,-0.0289 -0.0756,0.20474 0.0632,0.16475 0.20261,0.17665 0.20261,0.0173 z m 2.032,-0.0154 c 0,-0.0726 -0.0381,-0.10845 -0.0847,-0.0797 -0.0466,0.0288 -0.0847,0.0882 -0.0847,0.13199 0,0.0438 0.0381,0.0797 0.0847,0.0797 0.0466,0 0.0847,-0.0594 0.0847,-0.13199 z m -3.13267,-0.0698 c 0,-0.0644 -0.0667,-0.13999 -0.14816,-0.16795 -0.0815,-0.028 -0.24203,-0.0913 -0.35674,-0.14083 -0.2479,-0.10698 -0.21924,-0.0726 0.17,0.2037 0.35748,0.25379 0.3349,0.24671 0.3349,0.10508 z m 2.70934,0.0325 c 0,-0.0466 -0.0404,-0.0847 -0.0897,-0.0847 -0.0493,0 -0.0661,0.0381 -0.0373,0.0847 0.0288,0.0466 0.0691,0.0847 0.0897,0.0847 0.0205,0 0.0373,-0.0381 0.0373,-0.0847 z m 1.60866,-0.0323 c 0,-0.12495 -0.49257,-0.64504 -0.61091,-0.64504 -0.0389,0 -0.0135,0.11069 0.0564,0.24598 0.22391,0.433 0.55448,0.67091 0.55448,0.39906 z m -5.12233,-0.22171 c 0.0288,-0.0466 0.0142,-0.0847 -0.0323,-0.0847 -0.0466,0 -0.10822,0.0381 -0.13699,0.0847 -0.0288,0.0466 -0.0142,0.0847 0.0323,0.0847 0.0466,0 0.10822,-0.0381 0.137,-0.0847 z m 2.30545,-0.22769 c 0.0419,-0.12557 -0.17918,-0.19605 -0.32346,-0.10314 -0.10172,0.0655 -0.10059,0.0891 0.008,0.16012 0.14613,0.0958 0.27245,0.073 0.31579,-0.057 z m -1.28945,-0.11214 c 0,-0.18148 -0.24601,-0.15527 -0.2817,0.03 -0.0218,0.11315 0.0127,0.14763 0.12584,0.12584 0.0857,-0.0165 0.15586,-0.0866 0.15586,-0.15586 z m -1.22767,0.001 c 0,-0.0466 -0.0358,-0.0847 -0.0797,-0.0847 -0.0438,0 -0.10321,0.0381 -0.13199,0.0847 -0.0288,0.0466 0.007,0.0847 0.0797,0.0847 0.0726,0 0.13199,-0.0381 0.13199,-0.0847 z m 1.75682,-0.13406 c -0.0807,-0.0807 -0.24244,0.05 -0.18231,0.14729 0.0357,0.0578 0.0831,0.0564 0.1439,-0.004 0.0498,-0.0499 0.0671,-0.11413 0.0384,-0.14285 z m -2.26482,0.0494 c 0,-0.0466 -0.0168,-0.0847 -0.0373,-0.0847 -0.0205,0 -0.0609,0.0381 -0.0897,0.0847 -0.0288,0.0466 -0.012,0.0847 0.0373,0.0847 0.0493,0 0.0897,-0.0381 0.0897,-0.0847 z m 1.01477,-0.46698 c -0.206,-0.21928 -0.5935,-0.28809 -0.58862,-0.10452 0.004,0.13734 0.24966,0.42979 0.4639,0.55149 0.13944,0.0792 0.18149,0.0671 0.24531,-0.0705 0.0586,-0.12643 0.0298,-0.21637 -0.12059,-0.37646 z m 1.18657,-0.1418 c 0,-0.34081 -0.20324,-0.26783 -0.23816,0.0855 -0.0211,0.21412 1.3e-4,0.25782 0.10584,0.21726 0.079,-0.0303 0.13232,-0.15238 0.13232,-0.30277 z m 0.57808,0.15628 c 0.0254,-0.13208 0.004,-0.14063 -0.14719,-0.0596 -0.21415,0.11461 -0.23463,0.28158 -0.0297,0.24212 0.081,-0.0156 0.16056,-0.0977 0.17689,-0.18257 z m -3.09214,-0.12849 c 0.097,-0.097 0.15738,-0.19524 0.13424,-0.21839 -0.0968,-0.0968 -0.664368,0.0713 -0.890139,0.26356 -0.24371,0.20756 -0.24371,0.20756 0.16794,0.16935 0.265679,-0.0247 0.474169,-0.10073 0.587959,-0.21452 z m 0.48206,0.11532 c 0,-0.0698 -0.034,-0.127 -0.0756,-0.127 -0.0416,0 -0.0975,0.0572 -0.12435,0.127 -0.0297,0.0774 -1.3e-4,0.127 0.0756,0.127 0.0684,0 0.12435,-0.0572 0.12435,-0.127 z m 1.524,-0.28015 c 0,-0.22393 -0.0501,-0.47566 -0.11133,-0.5594 -0.10475,-0.14325 -0.11975,-0.13939 -0.254,0.0655 -0.17756,0.271 -0.18061,0.47054 -0.0109,0.71287 0.22755,0.32487 0.3762,0.23835 0.3762,-0.21898 z m 4.61931,0.19818 c 0.15574,-0.1178 0.1503,-0.12445 -0.10389,-0.127 -0.37335,-0.004 -0.58651,0.0826 -0.43736,0.17712 0.16829,0.10668 0.35705,0.0892 0.54125,-0.0501 z m -2.03496,-0.22074 c 0.0307,-0.0966 0.0378,-0.19371 0.0158,-0.2157 -0.0517,-0.0517 -0.31414,0.20972 -0.31414,0.31279 0,0.15454 0.24365,0.0752 0.29835,-0.0971 z m 0.63298,0.0167 c 0,-0.0409 -0.0571,-0.12173 -0.127,-0.1797 -0.103,-0.0855 -0.127,-0.0821 -0.127,0.0179 0,0.0678 0.0254,0.14865 0.0564,0.1797 0.0804,0.0804 0.19756,0.0698 0.19756,-0.0179 z m 0.55518,-0.0458 c 0.0903,-0.0661 0.14523,-0.13781 0.12202,-0.15947 -0.0686,-0.064 -0.4232,0.097 -0.4232,0.19215 0,0.12088 0.10707,0.10926 0.30118,-0.0327 z m -2.30227,-0.22474 c 0.23796,-0.18718 0.29784,-0.41719 0.10861,-0.41719 -0.15193,0 -0.66753,0.35277 -0.71155,0.48684 -0.0565,0.17197 0.3564,0.12429 0.60294,-0.0696 z m -2.23224,0.0584 c 0,-0.077 -0.33006,-0.10969 -0.43513,-0.0431 -0.0783,0.0496 -0.0271,0.0734 0.15996,0.0743 0.15134,7.1e-4 0.27517,-0.0133 0.27517,-0.0312 z m 1.51394,-0.25175 c 0.0544,-0.0656 0.0739,-0.23816 0.0454,-0.40217 -0.0784,-0.45087 -0.10494,-0.49941 -0.24378,-0.44613 -0.0918,0.0352 -0.1302,0.16815 -0.1302,0.45013 0,0.50871 0.1181,0.65182 0.32861,0.39817 z m 3.52065,-0.16029 c 0.0637,-0.15134 0.099,-0.29195 0.0786,-0.31246 -0.0594,-0.0596 -0.26377,0.18921 -0.32612,0.39713 -0.0898,0.29938 0.11553,0.22917 0.24755,-0.0847 z m -5.6395,0.11519 c 0.16182,-0.10254 -0.34987,-0.34802 -0.72543,-0.34802 -0.341336,0 -0.301742,0.13017 0.0917,0.30138 0.31006,0.13494 0.47523,0.14709 0.63376,0.0466 z m 4.95831,0.0239 c 0.22113,-0.0849 0.15134,-0.20261 -0.12007,-0.20261 -0.2558,0 -0.34462,0.11866 -0.14817,0.19793 0.0582,0.0235 0.11224,0.0457 0.12008,0.0494 0.008,0.004 0.0745,-0.0164 0.14816,-0.0447 z m -4.10003,-0.28575 c 0.0575,-0.13887 0.0813,-0.31315 0.0528,-0.38729 -0.046,-0.1198 -0.0659,-0.12068 -0.17864,-0.008 -0.1577,0.1577 -0.30362,0.52807 -0.23506,0.59663 0.11685,0.11684 0.26276,0.0354 0.36086,-0.20144 z m 2.94283,0.14664 c -0.0533,-0.1602 -0.31754,-0.18298 -0.31754,-0.0274 0,0.0785 0.0724,0.13321 0.17639,0.13321 0.10346,0 0.16182,-0.0438 0.14115,-0.10584 z m 0.44446,-0.10583 c 0,-0.0699 -0.0359,-0.127 -0.0797,-0.127 -0.10676,0 -0.18322,0.13221 -0.11558,0.19986 0.0953,0.0954 0.19525,0.0581 0.19525,-0.0729 z m -2.76981,-0.29765 c -0.0474,-0.18135 -0.17602,-0.29841 -0.24835,-0.22608 -0.0593,0.0593 0.12717,0.39673 0.21921,0.39673 0.0406,0 0.0537,-0.0768 0.0291,-0.17065 z m 1.79253,0.0918 c 0.0268,-0.0434 0.01,-0.10274 -0.0373,-0.13199 -0.16641,-0.10285 -0.0905,-0.4597 0.12826,-0.60304 0.24389,-0.1598 0.22307,-0.24489 -0.0395,-0.16155 -0.18561,0.0589 -0.36701,0.3512 -0.46085,0.74257 -0.0494,0.20603 -0.0319,0.23283 0.15246,0.23283 0.11455,0 0.2302,-0.0355 0.25699,-0.0788 z m -0.63967,-0.27248 c 0.11486,-0.32947 0.11837,-0.8337 0.007,-1.00337 -0.14531,-0.22136 -0.24998,0.0695 -0.25141,0.6985 -0.001,0.61408 0.0948,0.73407 0.24442,0.30487 z m 1.19362,0.0653 c 0,-0.17793 -0.24364,-0.35092 -0.3477,-0.24687 -0.0589,0.0589 -0.0423,0.13071 0.052,0.22502 0.16909,0.16909 0.29573,0.17845 0.29573,0.0219 z m 0.94583,-0.0235 c 0.0852,-0.0771 0.15483,-0.198 0.15483,-0.26875 0,-0.0964 -0.0531,-0.0787 -0.21166,0.0702 -0.31866,0.29936 -0.26432,0.48918 0.0568,0.19854 z m -4.32037,-0.12037 c 0.0937,-0.0501 0.15049,-0.14287 0.12624,-0.20607 -0.0242,-0.0632 0.0674,-0.27936 0.20356,-0.48034 0.28452,-0.41982 0.3276,-0.69008 0.10257,-0.64352 -0.11135,0.023 -0.14248,0.10075 -0.12529,0.31274 0.0245,0.30261 0.0117,0.30558 -0.56058,0.12941 -0.16525,-0.0509 -0.19391,-0.0341 -0.16884,0.099 0.0166,0.0881 0.1157,0.19789 0.22021,0.24385 0.26592,0.11697 0.23658,0.26695 -0.064,0.32706 -0.14897,0.0298 -0.254,0.10419 -0.254,0.17992 0,0.1508 0.27217,0.17066 0.52013,0.0379 z m 3.67189,-0.57105 c -0.11951,-0.1195 -0.1894,0.19477 -0.0982,0.44155 0.0972,0.263 0.0972,0.263 0.12397,-0.063 0.0147,-0.17929 0.003,-0.34964 -0.0258,-0.37855 z m -3.08961,0.15529 c -0.15766,-0.0974 -0.20717,-0.0479 -0.13643,0.13643 0.0435,0.11322 0.0779,0.12248 0.15792,0.0425 0.08,-0.08 0.0753,-0.11905 -0.0215,-0.17889 z m 0.86609,0.0413 c -0.0314,-0.1258 -0.46675,-0.10258 -0.51001,0.0272 -0.0271,0.0812 0.0408,0.1044 0.24694,0.0847 0.15633,-0.015 0.27471,-0.0653 0.26307,-0.11187 z m -0.43,-0.52113 c 0.0852,-0.0771 0.15484,-0.21175 0.15484,-0.29931 0,-0.23968 -0.30684,-0.0471 -0.3589,0.2252 -0.0479,0.25072 -0.007,0.26546 0.20406,0.0741 z m 45.38743,8.09609 c -1.0823,-0.13657 -2.25509,-0.81499 -2.52331,-1.45967 -0.0821,-0.19744 -0.16054,-0.63696 -0.17483,-0.98015 -0.0225,-0.53958 0.006,-0.69133 0.21716,-1.143 0.21734,-0.46571 1.01326,-1.40981 1.18854,-1.40981 0.0365,0 0.11133,-0.18098 0.16624,-0.40217 0.0549,-0.22119 0.18938,-0.59936 0.29883,-0.84038 0.23366,-0.51458 0.23003,-0.5205 -0.58258,-0.95002 -0.66768,-0.35291 -0.74025,-0.42227 -0.71043,-0.67885 0.0255,-0.21891 0.0255,-0.21891 1.11819,-0.23285 1.09273,-0.0139 1.09273,-0.0139 1.37253,-0.4314 0.1539,-0.2296 0.33795,-0.46571 0.409,-0.52468 0.254,-0.21081 0.52584,-0.0309 0.9096,0.602 0.27504,0.45359 0.41996,0.61261 0.57764,0.63384 0.31192,0.042 0.96004,0.21732 1.05716,0.28597 0.0466,0.0329 0.18944,0.0849 0.3175,0.11548 0.17648,0.0422 0.23283,0.10645 0.23283,0.26567 0,0.24559 0.0651,0.25599 0.48955,0.0783 0.74968,-0.31387 3.19539,-0.45932 4.40636,-0.26204 1.49357,0.24331 2.66776,1.06186 2.89761,2.01996 0.19874,0.82844 -0.0425,1.62712 -0.67033,2.21936 -0.25747,0.24287 -0.25904,0.24921 -0.0908,0.36703 0.2296,0.16081 0.14621,0.40214 -0.27028,0.78215 -0.28784,0.26263 -0.32725,0.34599 -0.34051,0.72034 -0.008,0.23283 -0.0318,0.47095 -0.0523,0.52916 -0.0626,0.1775 -0.52721,0.12461 -0.6919,-0.0788 -0.14949,-0.18462 -0.14949,-0.18462 -0.59245,0.047 -0.57868,0.30258 -1.05075,0.28688 -1.08838,-0.0362 -0.0164,-0.14058 0.065,-0.32964 0.23283,-0.54081 0.27267,-0.34312 0.31747,-0.47072 0.16525,-0.47072 -0.051,0 -0.1939,-0.0709 -0.3175,-0.15765 -0.22474,-0.15766 -0.22474,-0.15766 -0.60574,0.12941 -0.39405,0.29691 -2.20476,1.21358 -2.39719,1.21358 -0.0599,0 -0.14514,0.0329 -0.18937,0.0731 -0.0675,0.0614 -0.50712,0.19008 -1.0541,0.30853 -0.0699,0.0151 -0.29845,0.0682 -0.508,0.11802 -0.53853,0.12794 -2.4667,0.18238 -3.19674,0.0903 z m 3.24969,-0.45208 c 1.77736,-0.38628 3.8159,-1.3724 4.63987,-2.24449 0.32337,-0.34224 0.24655,-0.40892 -0.12554,-0.10897 -0.50431,0.40652 -1.53841,0.8923 -2.49295,1.17108 -1.04527,0.30527 -1.51244,0.37931 -2.58233,0.40923 -1.18532,0.0332 -1.50226,-0.0149 -2.45704,-0.37259 -1.19754,-0.44861 -1.8355,-1.69739 -1.39909,-2.73864 0.0732,-0.17463 0.0971,-0.3175 0.0531,-0.3175 -0.044,0 -0.3264,0.28256 -0.6276,0.62792 -0.43681,0.50084 -0.5665,0.71587 -0.64084,1.0625 -0.17645,0.82275 -0.0972,1.12535 0.44088,1.68322 0.47948,0.49711 1.12433,0.78724 2.17525,0.97868 0.42406,0.0772 2.4287,-0.0227 3.01629,-0.15044 z m 5.47575,-0.5307 c 0.14903,-0.0764 0.29039,-0.16857 0.31414,-0.20495 0.0238,-0.0364 0.1445,-0.0916 0.26833,-0.12265 0.18265,-0.0458 0.25224,-0.0151 0.36872,0.16262 0.21818,0.33299 0.3084,0.26452 0.28297,-0.21474 -0.0222,-0.41821 -0.009,-0.44586 0.35355,-0.7659 0.37659,-0.33203 0.37659,-0.33203 -0.0783,-0.30696 -0.45489,0.0251 -0.45489,0.0251 -0.57406,-0.3771 -0.0655,-0.2212 -0.15626,-0.40217 -0.2016,-0.40217 -0.0453,0 -0.12946,0.17584 -0.18694,0.39076 -0.11746,0.43915 -0.27644,0.54007 -0.85285,0.54137 -0.35432,7.7e-4 -0.35432,7.7e-4 0.006,0.21647 0.19791,0.11862 0.35984,0.2632 0.35984,0.32129 0,0.0581 -0.11346,0.28453 -0.25214,0.5032 -0.27062,0.42673 -0.23316,0.477 0.19284,0.25876 z m -6.51137,-0.78193 c 0.37199,-0.0106 0.37199,-0.0106 0.2867,-0.3466 -0.0802,-0.31585 -0.30056,-0.50034 -0.47149,-0.3947 -0.17567,0.10857 -0.29902,-0.16219 -0.44291,-0.97219 -0.27214,-1.53206 -0.20964,-1.40112 -0.69626,-1.45876 -0.51911,-0.0615 -0.60323,-0.0182 -0.52624,0.27107 0.0327,0.12297 0.0739,0.33789 0.0915,0.47759 0.0176,0.1397 0.0536,0.31115 0.08,0.381 0.0264,0.0698 0.1048,0.4318 0.17424,0.80434 0.0695,0.37253 0.16107,0.81068 0.2036,0.97366 0.0855,0.32778 -0.0379,0.30267 1.30087,0.26459 z m 1.95077,-0.29549 c 0.19838,-0.12998 0.3872,-0.63797 0.38556,-1.03725 -0.002,-0.38248 -0.21764,-1.09972 -0.41462,-1.37635 -0.21282,-0.29887 -0.83411,-0.56225 -1.12125,-0.47532 -0.31792,0.0962 -0.65985,0.47162 -0.75648,0.83047 -0.19051,0.70748 0.44929,2.17402 0.94845,2.17402 0.0823,0 0.17139,0.0353 0.19805,0.0784 0.0576,0.0932 0.49053,-0.0173 0.76029,-0.194 z m -0.86782,-0.90181 c -0.20647,-0.47286 -0.29935,-1.08351 -0.19138,-1.25822 0.12846,-0.20785 0.38334,-0.0624 0.50297,0.28709 0.1701,0.49685 0.17466,1.34116 0.007,1.37508 -0.0876,0.0178 -0.19329,-0.11601 -0.31902,-0.40395 z m 1.61719,1.10834 c 0.0366,-0.003 0.024,-0.0857 -0.0279,-0.18265 -0.09,-0.16821 -0.10189,-0.16956 -0.25698,-0.0292 -0.21663,0.19605 -0.2055,0.29717 0.0279,0.25366 0.10477,-0.0195 0.22041,-0.0383 0.25697,-0.0418 z m -4.38717,-0.23913 c -0.0349,-0.12806 -0.0944,-0.38523 -0.13231,-0.5715 -0.17918,-0.88042 -0.51621,-2.37277 -0.54159,-2.39815 -0.0156,-0.0156 -0.12153,0.0327 -0.23537,0.10725 -0.5478,0.35893 -0.69954,1.57348 -0.27968,2.23857 0.12788,0.20258 0.30544,0.38739 0.39458,0.4107 0.0891,0.0233 0.16207,0.0759 0.16207,0.11693 0,0.0692 0.45896,0.30654 0.62301,0.32213 0.04,0.004 0.0442,-0.0979 0.009,-0.22593 z m 4.92852,-0.29217 c 0.32648,-0.11806 0.33671,-0.18653 0.15565,-1.04136 -0.19899,-0.93943 -0.18284,-1.04043 0.17713,-1.10796 0.19529,-0.0366 0.3271,-0.0226 0.36515,0.039 0.0327,0.053 0.12801,0.47103 0.2117,0.92898 0.14568,0.79721 0.16065,0.83101 0.35193,0.79444 0.37239,-0.0712 0.40972,-0.21167 0.25857,-0.97312 -0.15939,-0.80294 -0.17308,-1.07832 -0.0536,-1.07832 0.0466,0 0.0847,-0.13335 0.0847,-0.29633 0,-0.32263 -0.0427,-0.34076 -0.508,-0.21582 -0.16299,0.0438 -0.44874,0.10031 -0.635,0.12567 -1.23852,0.16857 -1.50447,0.21173 -1.54317,0.25042 -0.0239,0.0239 -0.0186,0.17614 0.0118,0.33826 0.041,0.21862 0.10378,0.30165 0.243,0.32145 0.17063,0.0243 0.20242,0.11716 0.34959,1.02152 0.089,0.54716 0.18158,0.99483 0.20565,0.99483 0.0241,0 0.1703,-0.0458 0.32495,-0.10167 z m 0.79796,-0.0927 c -0.10866,-0.10867 -0.21886,-0.0247 -0.13841,0.10549 0.0312,0.0504 0.0954,0.0677 0.14285,0.0384 0.0578,-0.0357 0.0564,-0.0831 -0.004,-0.1439 z m 2.69039,-0.52179 c 0.13742,-0.46542 0.2773,-0.58927 0.59401,-0.52593 0.23328,0.0467 0.24723,0.0322 0.29724,-0.30696 0.0906,-0.61459 -0.16793,-1.1918 -0.66525,-1.48523 -0.27828,-0.16418 -0.27828,-0.16418 -0.19714,0.18624 0.0973,0.42009 0.0373,1.38664 -0.0942,1.51816 -0.0516,0.0516 -0.0938,0.18886 -0.0938,0.30506 0,0.11619 -0.10238,0.31812 -0.22751,0.44873 -0.22751,0.23747 -0.22751,0.23747 0.0238,0.23747 0.22445,0 0.26329,-0.0404 0.36283,-0.37754 z m -2.81067,0.023 c -0.027,-0.0675 -0.0471,-0.0475 -0.0512,0.0511 -0.004,0.0893 0.0163,0.13926 0.0445,0.11112 0.0281,-0.0281 0.0311,-0.10116 0.007,-0.16227 z m 4.71105,-0.48607 c 0.40074,-0.37415 0.56511,-0.7493 0.56511,-1.28977 0,-0.52808 -0.22581,-0.97653 -0.69558,-1.3814 -0.46663,-0.40217 -0.72038,-0.53169 -1.45567,-0.74299 -0.83233,-0.23919 -3.09081,-0.25705 -4.02941,-0.0319 -0.86899,0.20848 -2.286,0.66089 -2.286,0.72984 0,0.031 0.31432,2.6e-4 0.6985,-0.0684 0.89149,-0.15927 3.47056,-0.17499 4.15148,-0.0253 1.16262,0.25558 2.03133,0.84947 2.31002,1.57921 0.1422,0.37234 0.13848,0.68983 -0.0182,1.55122 -0.0517,0.28429 -0.0517,0.28429 0.19207,0.13306 0.13408,-0.0832 0.38953,-0.28731 0.56767,-0.45363 z m -2.58661,-0.0911 c 0.36775,-0.22422 0.46471,-0.50975 0.3948,-1.16259 -0.0972,-0.90781 -0.65708,-1.29807 -1.19652,-0.83405 -0.22307,0.19188 -0.23756,0.24518 -0.23756,0.87442 0,0.60351 0.0236,0.70098 0.23714,0.981 0.27052,0.35466 0.41139,0.37946 0.80214,0.14122 z m -0.4744,-0.85277 c -0.13015,-0.56381 -0.12801,-0.86392 0.006,-0.81931 0.1265,0.0422 0.30279,0.59282 0.31181,0.97393 0.0104,0.44084 -0.2043,0.3363 -0.31762,-0.15462 z m -5.77783,-0.0467 c 0.006,-0.1784 -0.21129,-0.43517 -0.29624,-0.35023 -0.0242,0.0243 0.002,0.22766 0.0586,0.45201 0.0819,0.32532 0.11577,0.37455 0.1672,0.24313 0.0355,-0.0906 0.0672,-0.24583 0.0704,-0.34491 z m 0.16383,-1.31487 c -0.0309,-0.86002 -0.0309,-0.86002 0.62441,-1.0795 0.3604,-0.12072 0.65568,-0.24394 0.65616,-0.27381 5.1e-4,-0.0299 -0.0848,-0.0732 -0.18961,-0.0962 -0.10478,-0.023 -0.4953,-0.10857 -0.86784,-0.19013 -0.63945,-0.13999 -0.68555,-0.16539 -0.82433,-0.45417 -0.0808,-0.16823 -0.23693,-0.45326 -0.34685,-0.63339 -0.19985,-0.32751 -0.19985,-0.32751 -0.53033,0.18579 -0.33049,0.5133 -0.33049,0.5133 -1.34225,0.51801 -0.59756,0.003 -0.97884,0.0357 -0.93134,0.0803 0.0442,0.0416 0.28999,0.18685 0.5461,0.3228 0.95441,0.50662 0.94493,0.49191 0.68778,1.06674 -0.39973,0.89354 -0.50554,1.15952 -0.46126,1.15952 0.0262,0 0.2622,-0.12796 0.52441,-0.28436 0.65387,-0.39001 1.02445,-0.56231 1.20943,-0.56231 0.086,0 0.39446,0.24498 0.68549,0.5444 0.29103,0.29941 0.54305,0.54706 0.56003,0.55033 0.017,0.003 0.017,-0.38107 0,-0.85407 z m 1.85411,0.52408 c 0.0809,-0.0451 0.67622,-0.15911 1.32302,-0.25346 0.64681,-0.0944 1.22734,-0.21414 1.29007,-0.2662 0.0627,-0.0521 0.20747,-0.0712 0.32163,-0.0426 0.11417,0.0287 0.22854,0.0182 0.25415,-0.0233 0.0256,-0.0414 -0.0387,-0.0982 -0.14298,-0.12615 -0.31514,-0.0845 -2.10454,-0.0593 -3.03807,0.0427 -0.48225,0.0527 -1.00063,0.0984 -1.15197,0.1016 -0.25293,0.005 -0.27517,0.0281 -0.27517,0.28147 0,0.27569 0,0.27569 0.61383,0.30491 0.33761,0.0161 0.62388,0.0368 0.63615,0.046 0.0123,0.009 0.0885,-0.02 0.16934,-0.0651 z m -2.88153,-0.21449 c -0.20587,-0.18117 -0.26279,-0.19427 -0.46566,-0.10718 -0.31861,0.13677 -0.3276,0.14824 -0.18634,0.23757 0.0685,0.0433 0.29599,0.0781 0.50554,0.0774 0.381,-0.001 0.381,-0.001 0.14646,-0.20778 z m 1.43538,-0.73546 c -0.027,-0.0675 -0.0471,-0.0475 -0.0511,0.0512 -0.004,0.0893 0.0163,0.13926 0.0445,0.11113 0.0281,-0.0281 0.0311,-0.10116 0.007,-0.16228 z m -23.72243,4.35375 c -0.083,-0.0608 -0.63474,-0.92799 -0.63474,-0.99767 0,-0.0194 -0.14342,-0.27402 -0.31872,-0.56588 -0.58032,-0.96621 -0.57109,-0.93079 -0.33952,-1.30247 0.11269,-0.18087 0.40531,-0.70985 0.65028,-1.17552 0.24496,-0.46567 0.47286,-0.87541 0.50644,-0.91053 0.0336,-0.0351 1.15435,-0.0831 2.49062,-0.10665 2.07968,-0.0366 2.42957,-0.0252 2.42957,0.0793 0,0.0672 -0.0782,0.14693 -0.17379,0.17726 -0.14316,0.0454 -0.15531,0.0774 -0.069,0.1815 0.0842,0.10147 0.0809,0.14146 -0.0167,0.20325 -0.16234,0.10273 -0.24855,0.099 -0.24855,-0.0109 0,-0.0536 -0.0732,-0.0671 -0.17981,-0.0333 -0.0989,0.0314 -0.22271,0.064 -0.27516,0.0725 -0.20753,0.0336 -0.56103,0.33302 -0.56103,0.47517 0,0.16488 -0.16137,0.25332 -0.46223,0.25332 -0.1069,0 -0.24254,0.058 -0.30142,0.12898 -0.0937,0.11293 -0.0533,0.12708 0.32477,0.1137 0.23749,-0.008 0.4823,0.0266 0.54401,0.0778 0.0716,0.0594 0.15715,0.0647 0.23637,0.0146 0.0683,-0.0432 0.20989,-0.0791 0.31466,-0.0798 0.14142,-9.7e-4 0.1905,-0.051 0.1905,-0.19413 0,-0.10605 0.0593,-0.2775 0.1318,-0.381 0.11229,-0.1603 0.20946,-0.18798 0.65617,-0.18687 0.62774,0.002 0.69765,0.0386 0.79704,0.42217 0.0767,0.2962 0.0767,0.2962 0.62171,0.31511 0.29972,0.0104 0.6402,0.0312 0.75662,0.0462 0.11641,0.015 0.3323,-0.004 0.47975,-0.0421 0.17393,-0.045 0.38208,-0.0303 0.59266,0.0418 0.26201,0.0897 0.3654,0.0906 0.53625,0.005 0.21963,-0.11035 1.51119,-0.0986 1.79917,0.0164 0.12374,0.0494 0.14817,0.0115 0.14817,-0.23005 0,-0.43433 0.16024,-0.59223 0.64195,-0.63254 0.52295,-0.0438 0.8148,0.10215 0.92072,0.46036 0.0621,0.21008 0.12832,0.27394 0.28394,0.27394 0.20234,0 0.20215,-8.8e-4 -0.0633,-0.30327 -0.2836,-0.323 -0.28551,-0.38636 -0.0298,-0.98789 0.13495,-0.3175 0.13495,-0.3175 1.55106,-0.3175 1.61776,0 1.46375,-0.069 1.96697,0.88068 0.94233,1.77831 0.89969,1.54766 0.44989,2.43355 -0.2212,0.43566 -0.51285,1.01117 -0.64811,1.27893 -0.24594,0.48684 -0.24594,0.48684 -1.68592,0.48684 -0.792,0 -1.43999,-0.0322 -1.43999,-0.0716 0,-0.096 0.28777,-0.35179 0.39571,-0.35179 0.0473,0 0.15501,-0.0762 0.23929,-0.16933 0.1812,-0.20022 0.25212,-0.18788 -1.04042,-0.18105 -0.52567,0.003 -1.05656,-0.0333 -1.17976,-0.0801 -0.30474,-0.11587 -1.03949,0.0681 -1.03949,0.26029 0,0.075 -0.0476,0.23899 -0.10583,0.36433 -0.10152,0.2186 -0.13257,0.22791 -0.762,0.22855 -0.38144,4.2e-4 -0.65617,-0.0348 -0.65617,-0.084 0,-0.0466 0.0345,-0.0847 0.0767,-0.0847 0.043,0 0.0362,-0.13225 -0.0155,-0.30052 -0.0853,-0.27799 -0.11462,-0.29862 -0.39081,-0.27516 -0.24047,0.0204 -0.34314,0.0913 -0.52752,0.36402 -0.22894,0.33866 -0.22894,0.33866 -1.18877,0.381 -0.73417,0.0324 -0.97636,0.0163 -1.03016,-0.0682 -0.0554,-0.0871 -0.0966,-0.0888 -0.19403,-0.008 -0.1325,0.10996 -1.11802,0.1682 -1.17891,0.0697 -0.0742,-0.12003 0.20472,-0.25357 0.41786,-0.20008 0.16245,0.0408 0.31781,-0.011 0.60597,-0.20185 0.3079,-0.20394 0.44734,-0.24698 0.67865,-0.20944 0.18795,0.0305 0.29113,0.0133 0.29113,-0.0485 0,-0.11351 0.0148,-0.11272 -1.82033,-0.097 -0.79164,0.007 -1.73633,0.0148 -2.09932,0.0178 -0.55069,0.005 -0.67993,-0.0209 -0.78047,-0.15367 -0.1399,-0.18476 -0.16463,-0.81753 -0.041,-1.04857 0.0567,-0.10603 0.0567,-0.17602 0,-0.21109 -0.10251,-0.0633 -0.11128,-0.88577 -0.0111,-1.04373 0.0391,-0.0617 0.23184,-0.1338 0.42821,-0.16014 0.30593,-0.041 0.34008,-0.0649 0.23857,-0.16636 -0.10151,-0.10151 -0.17208,-0.0878 -0.493,0.0956 -0.206,0.11775 -0.44255,0.21455 -0.52568,0.21511 -0.34328,0.002 -1.33053,0.88981 -1.33053,1.19608 0,0.15042 0.0462,0.16941 0.35984,0.14801 0.31212,-0.0213 0.35854,-0.003 0.35011,0.14169 -0.005,0.0914 -0.0411,0.24244 -0.0794,0.33558 -0.0589,0.14316 -0.05,0.15344 0.0571,0.0665 0.16378,-0.13288 0.63508,-0.0112 0.59937,0.15475 -0.0139,0.0646 -0.11687,0.3079 -0.22885,0.54074 -0.11197,0.23283 -0.22323,0.49 -0.24724,0.5715 -0.0453,0.15386 -0.19878,0.19088 -0.34557,0.0834 z m 9.52526,-0.98548 c 0,-0.37295 0,-0.37295 0.32646,-0.32916 0.41819,0.0561 0.67245,-0.083 0.82671,-0.45218 0.17527,-0.41948 0.0781,-0.84961 -0.22761,-1.00771 -0.29376,-0.15191 -0.68378,-0.1604 -0.83454,-0.0182 -0.0898,0.0847 -0.11995,0.0847 -0.15099,0 -0.0213,-0.0582 -0.14993,-0.10583 -0.28575,-0.10583 -0.24695,0 -0.24695,0 -0.24695,1.143 0,1.143 0,1.143 0.29634,1.143 0.29381,0 0.29633,-0.003 0.29633,-0.37294 z m 0.0333,-0.8976 c -0.15386,-0.15387 -0.0355,-0.50368 0.18949,-0.56016 0.26762,-0.0672 0.4695,0.11003 0.43764,0.38412 -0.0203,0.17434 -0.0772,0.224 -0.27987,0.2439 -0.13993,0.0137 -0.29619,-0.0168 -0.34726,-0.0679 z m -6.46799,0.38154 c 0,-0.18546 -0.0367,-0.21167 -0.29633,-0.21167 -0.31102,0 -0.3686,-0.0821 -0.18869,-0.26912 0.27455,-0.28537 0.48502,-0.61443 0.48502,-0.75829 0,-0.14157 -0.0736,-0.15792 -0.7106,-0.15792 -0.56988,0 -0.72079,0.0265 -0.762,0.13392 -0.0949,0.24725 -0.053,0.28941 0.28727,0.28941 0.32525,0 0.43821,0.0978 0.24841,0.21513 -0.14731,0.091 -0.58708,0.73218 -0.58708,0.85591 0,0.0875 0.17876,0.1143 0.762,0.1143 0.75636,0 0.762,-0.002 0.762,-0.21167 z m 1.40156,0.11962 c 0.041,-0.0663 0.0827,-0.0663 0.14893,0 0.0506,0.0506 0.21416,0.0921 0.36342,0.0921 0.26696,0 0.27094,-0.006 0.24496,-0.35984 -0.0145,-0.19791 -0.03,-0.73131 -0.0343,-1.18533 -0.008,-0.8255 -0.008,-0.8255 -0.26189,-0.8255 -0.24795,0 -0.254,0.01 -0.254,0.41834 0,0.40338 -0.10049,0.60822 -0.21081,0.42971 -0.069,-0.11155 -0.51597,-0.11086 -0.72521,0.001 -0.28493,0.15248 -0.43695,0.5527 -0.34139,0.89878 0.12353,0.4474 0.31859,0.62271 0.69287,0.62271 0.1763,0 0.34615,-0.0414 0.37743,-0.0921 z m -0.50877,-0.57336 c -0.0873,-0.27521 0.0355,-0.43526 0.33406,-0.43526 0.21045,0 0.28861,0.0428 0.32382,0.1775 0.0757,0.28945 -0.0231,0.41517 -0.32635,0.41517 -0.2001,0 -0.29603,-0.0455 -0.33153,-0.15741 z m 2.34167,0.13974 c 0.0231,-0.48199 0.0428,-0.52975 0.23688,-0.57485 0.15148,-0.0352 0.21928,-0.11443 0.23845,-0.27866 0.0292,-0.24973 -0.0618,-0.28465 -0.34581,-0.13268 -0.13571,0.0726 -0.18894,0.0726 -0.21315,0 -0.0178,-0.0532 -0.1434,-0.0968 -0.27921,-0.0968 -0.24695,0 -0.24695,0 -0.24695,0.80433 0,0.80434 0,0.80434 0.29229,0.80434 0.2923,0 0.2923,0 0.3175,-0.52567 z m 2.18421,-0.11642 c 0,-0.78802 -0.14838,-0.96725 -0.79913,-0.96528 -0.49331,0.001 -0.66781,0.0822 -0.59391,0.27482 0.0369,0.0962 0.14728,0.13113 0.38006,0.12023 0.42589,-0.0199 0.47256,0.13574 0.0608,0.20267 -0.33971,0.0552 -0.65645,0.28461 -0.65645,0.47541 0,0.0643 0.0593,0.20742 0.13186,0.3181 0.12083,0.18441 0.18812,0.201 0.80434,0.19831 0.67247,-0.003 0.67247,-0.003 0.67247,-0.62426 z m -0.95079,0.25574 c -0.0988,-0.0988 0.0359,-0.29099 0.20406,-0.29099 0.11256,0 0.1573,0.0477 0.13813,0.1472 -0.0289,0.14995 -0.24515,0.24083 -0.34219,0.14379 z m 4.16812,0.13235 c 0,-0.1397 0.0355,-0.254 0.0789,-0.254 0.0434,0 0.16029,0.1143 0.25976,0.254 0.14846,0.20849 0.24051,0.254 0.51377,0.254 0.18309,0 0.3329,-0.0304 0.3329,-0.0675 0,-0.0371 -0.1524,-0.2163 -0.33867,-0.39818 -0.18627,-0.18188 -0.33867,-0.37617 -0.33867,-0.43175 0,-0.0556 0.13335,-0.21812 0.29634,-0.36123 0.16298,-0.1431 0.29633,-0.28039 0.29633,-0.3051 0,-0.0247 -0.1465,-0.0449 -0.32554,-0.0449 -0.21802,0 -0.37616,0.0559 -0.47879,0.16933 -0.24443,0.27009 -0.29634,0.20436 -0.29634,-0.37529 0,-0.45651 -0.0255,-0.55271 -0.1574,-0.59459 -0.0866,-0.0275 -0.21993,-0.026 -0.29634,0.003 -0.1191,0.0457 -0.13892,0.21311 -0.13892,1.17314 0,0.6159 0.0254,1.14523 0.0564,1.17627 0.0311,0.0311 0.1644,0.0565 0.29634,0.0565 0.21009,0 0.23988,-0.0316 0.23988,-0.254 z m 2.0139,-0.5715 c -0.0242,-0.8255 -0.0242,-0.8255 -0.25706,-0.83405 -0.23284,-0.009 -0.23284,-0.009 -0.23284,0.8255 0,0.83405 0,0.83405 0.25707,0.83405 0.25707,0 0.25707,0 0.23283,-0.8255 z m 1.03566,0.0841 c 0.20869,-0.17494 0.49292,-0.4255 0.63162,-0.5568 0.25217,-0.23871 0.25217,-0.23871 0.0244,-0.18155 -0.18348,0.046 -0.29989,-0.002 -0.59917,-0.24722 -0.34905,-0.28601 -0.37923,-0.29545 -0.50059,-0.15652 -0.0822,0.0941 -0.12262,0.28631 -0.11121,0.52885 0.01,0.20955 0.0241,0.50482 0.0316,0.65617 0.008,0.15134 0.043,0.27516 0.0788,0.27516 0.0358,0 0.2358,-0.14314 0.4445,-0.31809 z m -1.01756,-1.4542 c 0,-0.29913 -0.28261,-0.43671 -0.48381,-0.23552 -0.20119,0.2012 -0.0636,0.48381 0.23552,0.48381 0.21817,0 0.24829,-0.0301 0.24829,-0.24829 z m -1.143,-0.76771 c 0.0288,-0.0466 0.012,-0.0847 -0.0373,-0.0847 -0.0493,0 -0.0897,0.0381 -0.0897,0.0847 0,0.0466 0.0168,0.0847 0.0373,0.0847 0.0205,0 0.0609,-0.0381 0.0897,-0.0847 z m -10.16945,4.21802 c -0.0556,-0.0899 0.1073,-0.15989 0.24725,-0.10619 0.0693,0.0266 0.15123,0.008 0.18197,-0.0421 0.0836,-0.13526 0.6024,-0.10904 0.72323,0.0366 0.12161,0.14652 0.1323,0.14378 -0.62191,0.15921 -0.2722,0.006 -0.51095,-0.0158 -0.53054,-0.0475 z m -19.50621,-1.76157 c -0.16815,-0.10719 -0.0297,-0.33917 0.29849,-0.5 0.24054,-0.11789 0.24054,-0.11789 0.0463,-0.27517 -0.10683,-0.0865 -0.24249,-0.15728 -0.30148,-0.15728 -0.17191,0 -0.31592,-0.23136 -0.25786,-0.41429 0.0502,-0.15813 0.1088,-0.16567 0.9595,-0.12353 1.01045,0.05 1.4259,0.14565 1.65017,0.37973 0.14303,0.14929 0.32928,0.15745 3.34433,0.14661 4.0436,-0.0145 5.2207,-0.0691 5.23627,-0.24252 0.006,-0.0699 0.0158,-0.19367 0.0212,-0.27516 0.0139,-0.21096 0.36204,-0.19105 1.1105,0.0635 0.99534,0.33854 1.28007,0.62341 0.80399,0.80441 -0.11656,0.0443 -0.38117,0.15768 -0.58802,0.25191 -0.20685,0.0942 -0.40099,0.17132 -0.43143,0.17132 -0.0304,0 -0.18518,0.0616 -0.34387,0.13691 -0.34057,0.16162 -0.51578,0.0701 -0.55755,-0.29127 -0.0262,-0.22664 -0.0262,-0.22664 -4.17008,-0.1992 -4.14389,0.0274 -4.14389,0.0274 -4.37213,0.21948 -0.18715,0.15748 -0.40225,0.20969 -1.19507,0.29006 -1.15033,0.11663 -1.09401,0.11598 -1.25324,0.0145 z m 12.065,-0.63057 c 0.42333,-0.19574 0.42333,-0.19574 0.0247,-0.37128 -0.62896,-0.27698 -0.70345,-0.27179 -0.69234,0.0482 0.0217,0.6262 0.017,0.62389 0.66765,0.32304 z m 12.79204,-2.19444 c -0.27171,-0.25625 -0.34771,-0.28785 -0.52775,-0.2194 -0.27964,0.10632 -0.28396,0.10506 -0.28396,-0.0826 0,-0.1524 0.0766,-0.16308 1.22767,-0.17118 1.05494,-0.007 1.22766,0.01 1.22766,0.1223 0,0.072 -0.0857,0.17007 -0.1905,0.21791 -0.10477,0.0478 -0.29124,0.14229 -0.41437,0.20989 -0.47724,0.26205 -0.69654,0.2458 -1.03875,-0.0769 z m -2.07221,-0.16185 c -0.35159,-0.18189 -0.24096,-0.27306 0.36311,-0.29925 0.70151,-0.0304 0.89713,0.0903 0.44943,0.27739 -0.37173,0.15532 -0.54552,0.15999 -0.81254,0.0219 z m 4.85883,-0.0192 c -0.0466,-0.0155 -0.18944,-0.0513 -0.3175,-0.0796 -0.41007,-0.0904 -0.24934,-0.21746 0.27517,-0.21746 0.37777,0 0.508,0.0302 0.508,0.11794 0,0.16203 -0.24006,0.25437 -0.46567,0.17911 z m -37.475024,-0.86855 c -0.02661,-0.39307 0.07757,-0.52561 0.414924,-0.52787 0.12317,-8.3e-4 0.21954,0.0678 0.26579,0.1892 0.0963,0.25279 -0.11034,0.48683 -0.42981,0.48683 -0.169136,0 -0.24386,-0.0441 -0.250904,-0.14816 z m 6.577744,-0.0696 c -0.18852,-0.18852 -0.16525,-0.34995 0.0729,-0.50602 0.39289,-0.25743 0.75418,0.1748 0.42296,0.50602 -0.0732,0.0732 -0.18475,0.13305 -0.24795,0.13305 -0.0632,0 -0.17477,-0.0599 -0.24795,-0.13305 z m -1.798,-0.76179 c -0.0791,-0.20602 0.0828,-0.4175 0.31951,-0.4175 0.16849,0 0.20244,0.0426 0.20244,0.254 0,0.21428 -0.0365,0.2582 -0.23331,0.28084 -0.15887,0.0183 -0.25097,-0.0192 -0.28864,-0.11734 z m -1.99682,-0.52626 c -0.22433,-0.0464 -0.29377,-0.44166 -0.1022,-0.58174 0.22834,-0.16697 0.52707,-0.13927 0.63302,0.0587 0.18494,0.34558 -0.0881,0.61461 -0.53082,0.52304 z m 0.27511,-0.3569 c 0,-0.0466 -0.0168,-0.0847 -0.0373,-0.0847 -0.0205,0 -0.0609,0.0381 -0.0897,0.0847 -0.0288,0.0466 -0.012,0.0847 0.0373,0.0847 0.0493,0 0.0897,-0.0381 0.0897,-0.0847 z"
       id="path872" />
  </g>
</svg>
