<?xml version="1.0" encoding="UTF-8" standalone="no"?>
<!-- Created with Inkscape (http://www.inkscape.org/) -->

<svg
   width="97.155006mm"
   height="41.275002mm"
   viewBox="0 0 97.155006 41.275002"
   version="1.1"
   id="svg5"
   xmlns="http://www.w3.org/2000/svg"
   xmlns:svg="http://www.w3.org/2000/svg">
  <defs
     id="defs2" />
  <g
     id="layer1"
     transform="translate(-4.8348675,-5.8985815)">
    <g
       id="g2606"
       transform="translate(1.2811626,-0.74066715)"
       style="stroke-width:1;stroke-miterlimit:4;stroke-dasharray:none">
      <path
         style="fill:#a0292b;stroke-width:1;stroke-miterlimit:4;stroke-dasharray:none"
         d="m 13.512624,45.626229 c -0.146602,-0.03547 -0.256351,-0.09038 -0.296333,-0.148271 -0.03492,-0.05057 -0.112693,-0.14218 -0.172817,-0.203577 -0.06012,-0.0614 -0.152586,-0.216406 -0.205469,-0.344464 -0.05288,-0.128059 -0.113228,-0.250931 -0.1341,-0.27305 -0.02087,-0.02212 -0.03795,-0.07384 -0.03795,-0.114937 0,-0.0411 -0.03089,-0.165712 -0.06865,-0.276923 -0.125918,-0.370884 -0.02932,-0.807686 0.244735,-1.106666 0.120622,-0.131592 0.256054,-0.30117 0.300962,-0.376841 0.04491,-0.07567 0.101065,-0.137583 0.124795,-0.137583 0.02373,0 0.108237,-0.05715 0.187792,-0.127 0.07956,-0.06985 0.158473,-0.127 0.175374,-0.127 0.0169,0 0.114334,-0.104775 0.216519,-0.232834 0.102185,-0.128058 0.219886,-0.232833 0.261557,-0.232833 0.06698,0 0.320115,-0.186937 0.567749,-0.419283 0.04657,-0.04369 0.127013,-0.09217 0.178769,-0.107734 0.05176,-0.01556 0.182658,-0.131949 0.290893,-0.258639 0.108234,-0.126689 0.223476,-0.230344 0.256093,-0.230344 0.06664,0 0.438412,-0.328521 0.438412,-0.387403 0,-0.04721 0.649516,-0.678126 0.920976,-0.894609 0.110471,-0.0881 0.324682,-0.261403 0.476024,-0.385122 0.497175,-0.406432 0.882188,-0.473278 1.154943,-0.200523 0.08928,0.08928 0.06142,0.795628 -0.04028,1.02099 -0.04728,0.104775 -0.110079,0.295275 -0.139551,0.423334 -0.05727,0.248834 -0.150129,0.518277 -0.226141,0.656166 -0.02567,0.04657 -0.114993,0.218017 -0.198496,0.381 -0.170182,0.332167 -0.284087,0.503339 -0.66689,1.002171 -0.145521,0.189629 -0.264583,0.370167 -0.264583,0.401196 0,0.03103 -0.03908,0.08039 -0.08683,0.109691 -0.04776,0.0293 -0.190826,0.191043 -0.31793,0.359424 -0.127102,0.168383 -0.412671,0.488316 -0.634596,0.710963 -0.221925,0.222648 -0.42147,0.452081 -0.443435,0.509853 -0.02196,0.05777 -0.07356,0.117648 -0.114654,0.133059 -0.0411,0.01541 -0.260516,0.200662 -0.4876,0.411666 -0.579274,0.538253 -0.730195,0.594117 -1.259286,0.466123 z M 5.8250624,39.303482 C 5.7093115,39.253024 5.3876421,38.879261 5.366293,38.770416 5.3571593,38.72385 5.3263416,38.57793 5.2978092,38.44615 c -0.1514056,-0.699285 0.3192953,-1.3479 0.9781727,-1.3479 0.034908,0 0.1044222,-0.02869 0.1544754,-0.06374 0.056222,-0.03938 0.2418533,-0.07396 0.4856695,-0.09048 0.2170649,-0.0147 0.4254718,-0.04249 0.4631263,-0.06174 0.037655,-0.01925 0.2472045,-0.0579 0.4656667,-0.08588 0.2184622,-0.02798 0.4678825,-0.08582 0.5542675,-0.128518 0.086385,-0.0427 0.2197349,-0.07766 0.2963333,-0.07768 0.1835961,-4.2e-5 0.7252475,-0.11419 0.911852,-0.192159 0.081358,-0.03399 0.2289526,-0.06181 0.3279868,-0.06181 0.099035,0 0.2842316,-0.04607 0.4115506,-0.102375 0.198093,-0.08761 0.325572,-0.106595 0.883684,-0.131625 0.43902,-0.01969 0.682843,-0.04849 0.745957,-0.08812 0.209145,-0.131329 1.050222,-0.07912 1.157732,0.07186 0.198797,0.279185 -0.08355,1.0546 -0.384007,1.0546 -0.03947,0 -0.130986,0.0566 -0.203373,0.125775 -0.07239,0.06918 -0.184749,0.1374 -0.249695,0.151608 -0.207368,0.04536 -0.34959,0.111814 -0.506923,0.236847 -0.08433,0.06702 -0.229182,0.133978 -0.321894,0.148803 -0.09271,0.01483 -0.2279,0.07854 -0.300417,0.141581 -0.08965,0.07794 -0.197047,0.121766 -0.33557,0.136937 -0.125057,0.01369 -0.240533,0.05689 -0.299061,0.111879 -0.05845,0.05491 -0.151619,0.08981 -0.240781,0.09019 -0.170647,7.24e-4 -0.4978505,0.10718 -0.5930319,0.192945 -0.036627,0.033 -0.1604518,0.07209 -0.2751667,0.08686 -0.138234,0.0178 -0.2474908,0.06305 -0.3239749,0.134165 -0.080666,0.07501 -0.187938,0.117149 -0.3563895,0.140009 -0.1325432,0.01799 -0.2908938,0.0696 -0.3518902,0.114696 -0.068718,0.05081 -0.2415721,0.09958 -0.454427,0.128225 -0.1889383,0.02543 -0.4242686,0.08832 -0.5229559,0.139757 -0.1968719,0.102615 -1.4003137,0.165164 -1.5896635,0.08262 z M 14.168791,32.58558 c -0.06985,-0.01048 -0.26035,-0.04604 -0.423334,-0.07903 -0.162983,-0.03299 -0.401108,-0.07289 -0.529166,-0.08867 -0.128059,-0.01578 -0.299509,-0.06186 -0.381,-0.102397 -0.08681,-0.04318 -0.297183,-0.08386 -0.508,-0.09823 -0.277181,-0.01889 -0.408453,-0.05053 -0.5715,-0.137743 -0.252448,-0.135037 -0.600559,-0.250054 -0.882094,-0.291444 -0.141511,-0.0208 -0.244792,-0.06836 -0.334362,-0.153959 -0.07128,-0.06812 -0.150589,-0.123855 -0.17624,-0.123856 -0.02565,-1e-6 -0.101037,-0.06818 -0.167525,-0.151507 -0.06649,-0.08333 -0.175742,-0.184866 -0.2427879,-0.225639 -0.6472568,-0.39362 -0.7216051,-1.764054 -0.1019916,-1.879964 0.06985,-0.01307 0.1815865,-0.03708 0.2483025,-0.05336 0.229612,-0.05603 1.435764,0.287839 2.176413,0.620489 0.09958,0.04472 0.234737,0.08132 0.300356,0.08132 0.06562,0 0.153786,0.0381 0.195929,0.08467 0.04214,0.04657 0.119833,0.08467 0.172646,0.08467 0.05281,0 0.149874,0.04477 0.215689,0.09948 0.09751,0.08106 0.188679,0.104658 0.492367,0.127423 0.272307,0.02041 0.403447,0.0505 0.486834,0.111691 0.123675,0.09076 0.467961,0.169401 0.741597,0.169401 0.113957,0 0.202052,0.02879 0.26283,0.08589 0.05739,0.05391 0.176603,0.09554 0.320228,0.111818 0.125845,0.01426 0.296471,0.0598 0.379169,0.101196 0.0827,0.04139 0.301773,0.09629 0.486833,0.121982 0.530366,0.07364 0.822951,0.624035 0.513946,0.966799 -0.04209,0.04669 -0.0907,0.137866 -0.108013,0.202616 -0.03549,0.132698 -0.07485,0.158866 -0.344626,0.22914 -0.104775,0.02729 -0.244992,0.07708 -0.311593,0.110642 -0.121346,0.06115 -1.614773,0.121 -1.910907,0.07659 z m 81.282498,-7.701844 c -0.0452,-0.03418 -0.124621,-0.06215 -0.1765,-0.06215 -0.143248,0 -0.615836,-0.122245 -0.742692,-0.192112 -0.0618,-0.03404 -0.138282,-0.06189 -0.16996,-0.06189 -0.03168,0 -0.133515,-0.04082 -0.226301,-0.09071 -0.09279,-0.04989 -0.263957,-0.115003 -0.380374,-0.144694 -0.116416,-0.02969 -0.287866,-0.08329 -0.381,-0.1191 -0.09313,-0.03581 -0.215459,-0.06595 -0.271835,-0.06697 -0.05638,-0.001 -0.137642,-0.03366 -0.180598,-0.07254 -0.04295,-0.03887 -0.181796,-0.08475 -0.308538,-0.10195 -0.126742,-0.0172 -0.331224,-0.07861 -0.454402,-0.136465 -0.123177,-0.05786 -0.35731,-0.134351 -0.520293,-0.169987 -0.463732,-0.101393 -0.831533,-0.195537 -1.016,-0.260061 -0.09313,-0.03258 -0.300999,-0.06967 -0.461925,-0.08242 -0.203958,-0.01617 -0.319367,-0.04757 -0.381,-0.10368 -0.06183,-0.05629 -0.183849,-0.08931 -0.405909,-0.109828 -0.383337,-0.03543 -0.592667,-0.187915 -0.592667,-0.431739 0,-0.07583 -0.0221,-0.186381 -0.04912,-0.245672 -0.149445,-0.328 0.387515,-0.954516 0.818075,-0.954516 0.06799,0 0.266086,-0.02943 0.44022,-0.0654 0.25969,-0.05364 0.378248,-0.05696 0.659515,-0.01844 0.188599,0.02582 0.654207,0.05439 1.034678,0.06348 0.515154,0.01231 0.724061,0.03323 0.818265,0.08195 0.06957,0.03598 0.166213,0.06541 0.214753,0.06541 0.04854,0 0.13045,0.02759 0.18202,0.06132 0.05157,0.03373 0.22711,0.0743 0.390094,0.09018 0.162983,0.01587 0.355422,0.0528 0.427647,0.08207 0.07222,0.02927 0.209237,0.06638 0.304478,0.08247 0.09524,0.01609 0.195534,0.05621 0.222868,0.08914 0.02734,0.03294 0.127775,0.08091 0.223198,0.106605 0.09542,0.02569 0.219596,0.08298 0.275946,0.127303 0.05635,0.04432 0.144183,0.08059 0.195191,0.08059 0.05101,0 0.13749,0.04763 0.192172,0.105833 0.05468,0.05821 0.121611,0.105833 0.148729,0.105833 0.119546,0 0.679298,0.475134 0.769282,0.652986 0.03623,0.0716 0.09583,0.164331 0.132457,0.206069 0.334501,0.381215 0.216581,1.322006 -0.178169,1.421404 -0.104466,0.02631 -0.201722,0.06689 -0.21612,0.09019 -0.03865,0.06254 -0.241732,0.04895 -0.336186,-0.02249 z M 25.728192,21.002163 c -0.07465,-0.106573 -0.08874,-0.475327 -0.02462,-0.643992 0.132621,-0.34882 0.932381,-0.06779 0.932381,0.32763 0,0.361085 -0.704476,0.606599 -0.907766,0.316362 z M 37.296264,19.96621 c -0.345203,-0.356865 -0.563519,-0.514024 -0.797392,-0.574017 -0.292794,-0.07511 -0.310161,-0.221683 -0.0816,-0.688661 0.141333,-0.288758 0.144623,-0.307627 0.145229,-0.833038 7.33e-4,-0.632794 0.0022,-0.635267 0.364755,-0.618178 0.270867,0.01277 0.270867,0.01277 0.419981,0.235908 0.170205,0.254702 0.561168,0.542553 0.796793,0.586646 0.52394,0.09805 0.620463,0.487319 0.212399,0.856595 -0.307793,0.278538 -0.37514,0.418998 -0.37514,0.782407 0,0.319127 -0.03403,0.36028 -0.323601,0.391385 -0.194678,0.02091 -0.21382,0.01355 -0.361427,-0.139047 z m 9.139372,-1.220492 c -0.115257,-0.06535 -0.117854,-0.07499 -0.105833,-0.392816 0.01398,-0.369573 0.392262,-0.495819 0.75499,-0.251966 0.168495,0.113276 0.239047,0.512566 0.109558,0.620034 -0.10345,0.08585 -0.621164,0.102741 -0.758715,0.02475 z m 46.34616,-0.679208 c -0.204585,-0.106133 -0.315379,-0.30861 -0.316861,-0.579056 -8.47e-4,-0.152091 0.250499,-0.430854 0.504672,-0.559752 0.106253,-0.05388 0.229477,-0.138128 0.273834,-0.187211 0.04435,-0.04908 0.10389,-0.08924 0.132296,-0.08924 0.102226,0 0.699998,-0.29664 0.724044,-0.359299 0.03215,-0.08377 0.344347,-0.220357 0.586782,-0.256712 0.105448,-0.01581 0.234366,-0.06212 0.286478,-0.102907 0.05212,-0.04078 0.16143,-0.08428 0.242921,-0.09666 0.285073,-0.04329 0.614863,-0.142824 0.735648,-0.222028 0.067,-0.04393 0.233159,-0.09301 0.36924,-0.109052 0.179214,-0.02113 0.285144,-0.06091 0.384238,-0.144293 0.113746,-0.09571 0.166421,-0.111781 0.312454,-0.09532 0.112044,0.01263 0.250707,-0.0087 0.382948,-0.05893 0.11402,-0.0433 0.241401,-0.07875 0.283074,-0.07876 0.04167,-1.9e-5 0.150453,-0.03813 0.241732,-0.0847 0.09128,-0.04657 0.234154,-0.08467 0.3175,-0.08467 0.08335,0 0.222504,-0.0362 0.309241,-0.08045 0.404888,-0.206558 1.280757,-0.154032 1.628643,0.09767 0.3062,0.221544 0.5072,0.982292 0.33371,1.263015 -0.0503,0.08136 -0.0914,0.17645 -0.0914,0.211307 0,0.175597 -0.484363,0.497936 -0.748751,0.498287 -0.06549,8.5e-5 -0.176784,0.03535 -0.247312,0.07836 -0.103974,0.06341 -0.259897,0.0841 -0.824289,0.109384 -0.609773,0.02732 -0.717203,0.04305 -0.866601,0.126915 -0.110634,0.0621 -0.311823,0.113886 -0.572711,0.147412 -0.250389,0.03218 -0.443078,0.08076 -0.510566,0.128735 -0.07763,0.05518 -0.245859,0.08937 -0.592666,0.120455 -0.530771,0.04757 -0.813596,0.100241 -0.896244,0.166909 -0.0798,0.06437 -0.575487,0.131301 -1.196691,0.161585 -0.357209,0.01741 -0.583235,0.04764 -0.644093,0.08613 -0.123872,0.07834 -0.383087,0.07494 -0.54124,-0.0071 z m -5.350045,-2.786424 c -0.233617,-0.129504 -0.282516,-0.605241 -0.115913,-1.127678 0.05548,-0.173979 0.112446,-0.408116 0.126585,-0.520303 0.02565,-0.203494 0.419303,-1.0491 0.638671,-1.371927 0.05914,-0.08704 0.107535,-0.172142 0.107535,-0.189121 0,-0.01698 0.10679,-0.187705 0.237316,-0.379391 0.130522,-0.191686 0.248205,-0.37816 0.26151,-0.414386 0.01331,-0.03623 0.101778,-0.146055 0.1966,-0.244065 0.278596,-0.28796 0.382376,-0.413587 0.548873,-0.66443 0.08647,-0.130278 0.177906,-0.23687 0.203188,-0.23687 0.08426,0 0.584513,-0.4716006 0.584513,-0.5510305 0,-0.043012 0.05239,-0.1156191 0.116416,-0.1613484 0.06403,-0.045729 0.268817,-0.2577465 0.455084,-0.4711491 0.608897,-0.6976031 1.374559,-0.8843148 1.786801,-0.435722 0.101634,0.1105958 0.215405,0.2338532 0.252823,0.2739051 0.08321,0.089069 0.217301,0.4459148 0.274879,0.7315116 0.02347,0.1164166 0.06349,0.2844413 0.08892,0.3733882 0.05961,0.2084341 -0.05697,0.5903971 -0.230932,0.7566421 -0.06563,0.06272 -0.119329,0.154339 -0.119329,0.203604 0,0.100198 -0.277161,0.453742 -0.381729,0.48693 -0.03712,0.01178 -0.237875,0.185253 -0.446129,0.385494 -0.208251,0.200242 -0.507776,0.448801 -0.665607,0.552356 -0.157832,0.103553 -0.366391,0.274448 -0.46347,0.379766 -0.09708,0.105318 -0.234645,0.221264 -0.305702,0.257659 -0.258292,0.132292 -1.030562,0.848652 -1.137204,1.054871 -0.03694,0.07144 -0.139578,0.190852 -0.22808,0.265363 -0.0885,0.07451 -0.277122,0.240595 -0.419159,0.369074 -0.142033,0.128479 -0.3143,0.267687 -0.382812,0.309352 -0.06851,0.04167 -0.157463,0.125961 -0.197667,0.187324 -0.136817,0.208809 -0.559537,0.305713 -0.785986,0.180181 z M 64.376127,13.166013 c -0.06985,-0.02739 -0.187968,-0.08309 -0.262479,-0.123779 -0.07451,-0.04069 -0.157493,-0.07399 -0.184391,-0.07399 -0.0269,0 -0.105508,-0.04763 -0.174685,-0.105834 -0.08885,-0.07476 -0.176106,-0.105833 -0.297205,-0.105833 -0.10588,0 -0.264935,-0.04751 -0.415951,-0.124254 -0.134484,-0.06834 -0.326669,-0.146376 -0.427079,-0.173414 -0.100411,-0.02704 -0.228664,-0.08542 -0.285014,-0.129746 -0.05635,-0.04432 -0.135763,-0.08059 -0.176479,-0.08059 -0.133312,0 -0.371018,-0.311909 -0.403674,-0.529691 -0.119122,-0.794362 0.247625,-1.120265 1.187624,-1.055364 0.296333,0.02046 0.296333,0.02046 0.628489,-0.403742 0.239772,-0.3062121 0.357844,-0.4242033 0.424497,-0.4242033 0.05079,0 0.135874,-0.030489 0.189074,-0.067754 0.685245,-0.4799643 1.834282,0.7349613 1.29794,1.3723673 -0.05821,0.06918 -0.105833,0.136358 -0.105833,0.149292 0,0.01294 -0.05508,0.105435 -0.12239,0.205556 -0.247041,0.367449 -0.356764,0.755235 -0.345563,1.221271 0.01185,0.492728 -0.123186,0.60798 -0.526881,0.449699 z M 50.414542,11.899332 c -0.05595,-0.07567 -0.113639,-0.171353 -0.128194,-0.212627 -0.01456,-0.04127 -0.06024,-0.08717 -0.101511,-0.101987 -0.04127,-0.01482 -0.183168,-0.128687 -0.31532,-0.253039 -0.132147,-0.124354 -0.278705,-0.226097 -0.325683,-0.226097 -0.04697,0 -0.111849,-0.03775 -0.144162,-0.08389 -0.03232,-0.04614 -0.142934,-0.122327 -0.245821,-0.169309 -0.102882,-0.04698 -0.223706,-0.113766 -0.268495,-0.148408 -0.04479,-0.03464 -0.149568,-0.0755 -0.232833,-0.0908 -0.171022,-0.03142 -0.369693,-0.18096 -0.47882,-0.360402 -0.04042,-0.06647 -0.09849,-0.12086 -0.129032,-0.12086 -0.06789,0 -0.369045,-0.3019839 -0.369045,-0.3700558 0,-0.026942 -0.06074,-0.1057539 -0.13498,-0.1751366 -0.272114,-0.2543124 -0.194479,-0.9865214 0.144882,-1.366426 0.317775,-0.355744 1.056602,-0.5518652 1.32229,-0.3510028 0.04585,0.034661 0.155656,0.082487 0.244018,0.1062806 0.116463,0.03136 0.189137,0.088372 0.264177,0.2072422 0.160215,0.2537953 0.253814,0.2301165 0.408622,-0.1033734 0.03317,-0.071456 0.138625,-0.1704325 0.242841,-0.2279203 0.120049,-0.066222 0.204949,-0.1512478 0.243747,-0.2441117 0.03274,-0.078373 0.0884,-0.1424963 0.123677,-0.1424963 0.03528,0 0.182304,-0.059649 0.326729,-0.1325543 0.439712,-0.221965 1.10515,-0.232606 1.353121,-0.021638 0.222826,0.1895742 0.246287,0.2122018 0.472796,0.4560499 0.300605,0.3236127 0.333883,1.3083795 0.04792,1.418113 -0.0329,0.012624 -0.139945,0.130858 -0.237883,0.2627414 -0.184104,0.2479198 -0.538895,0.6060761 -0.732409,0.7393621 -0.112069,0.07719 -0.279549,0.357106 -0.279549,0.467223 0,0.033 -0.03118,0.08588 -0.06928,0.117503 -0.131653,0.109262 -0.287566,0.54268 -0.340915,0.9477 -0.04641,0.352349 -0.451794,0.462709 -0.660887,0.179917 z m 6.245014,-1.199027 c -0.0205,-0.03664 -0.08336,-0.08959 -0.139687,-0.117667 -0.241902,-0.120602 -0.137922,-0.304212 0.1643,-0.290117 0.353665,0.01649 0.474124,0.06497 0.474124,0.190801 0,0.216866 -0.401133,0.391387 -0.498737,0.216983 z M 72.388511,8.2381642 C 71.85528,8.1960376 71.974906,7.377956 72.513869,7.3808856 c 0.495761,0.00269 0.741807,0.4556921 0.428599,0.789088 -0.09517,0.1013009 -0.110684,0.1032106 -0.553957,0.068191 z"
         id="path2610" />
      <path
         style="fill:#35302a;stroke-width:1;stroke-miterlimit:4;stroke-dasharray:none"
         d="m 41.055592,41.73338 c -0.390243,-0.393373 -0.509984,-1.537528 -0.209749,-2.004197 0.03523,-0.05476 0.08111,-0.219965 0.101948,-0.36712 0.04606,-0.325214 0.175478,-0.682925 0.316027,-0.873469 0.05741,-0.07783 0.171082,-0.278549 0.252606,-0.44604 0.08152,-0.16749 0.168772,-0.317227 0.193884,-0.332747 0.02511,-0.01552 0.08248,-0.107082 0.127484,-0.203471 0.136322,-0.291973 0.284034,-0.461073 0.511333,-0.585372 0.119026,-0.06509 0.323194,-0.21374 0.453706,-0.330333 0.130512,-0.116593 0.28359,-0.252897 0.340173,-0.302898 0.05658,-0.05 0.180407,-0.107925 0.275166,-0.128719 0.09476,-0.02079 0.191404,-0.06284 0.214766,-0.09343 0.02336,-0.03059 0.119621,-0.09498 0.213907,-0.143082 0.188564,-0.0962 0.269829,-0.228662 0.317528,-0.517582 0.144062,-0.87259 0.172422,-1.093433 0.192447,-1.498588 0.03618,-0.732011 -0.01566,-0.787591 -0.480465,-0.515175 -0.136296,0.07988 -0.304004,0.158754 -0.372685,0.175275 -0.178818,0.04301 -0.356668,0.138001 -0.527042,0.281488 -1.010844,0.851324 -1.738825,0.831732 -1.375834,-0.03703 0.03493,-0.08359 0.0635,-0.223251 0.0635,-0.310362 0,-0.08711 0.02126,-0.260999 0.04724,-0.386414 0.07823,-0.377577 0.08212,-0.956536 0.0068,-1.01901 -0.07064,-0.05863 -0.26575,0.120503 -0.26575,0.243982 0,0.07403 -0.357901,0.708142 -0.495745,0.878331 -0.05331,0.06582 -0.09692,0.138524 -0.09692,0.161575 0,0.02305 -0.04545,0.102551 -0.100998,0.176668 -0.05555,0.07412 -0.143791,0.220484 -0.196094,0.325259 -0.08889,0.178064 -0.244473,0.384961 -0.477514,0.635 -0.05425,0.05821 -0.131755,0.159072 -0.17223,0.22414 -0.04048,0.06507 -0.115458,0.13591 -0.166628,0.157426 -0.05117,0.02152 -0.169236,0.09646 -0.262369,0.166537 -0.361062,0.271686 -0.985014,0.358858 -1.172819,0.163854 -0.05345,-0.0555 -0.149569,-0.134057 -0.213598,-0.174574 -0.06403,-0.04052 -0.116417,-0.0981 -0.116417,-0.127967 0,-0.02987 -0.04704,-0.118058 -0.104531,-0.195985 -0.05749,-0.07793 -0.14349,-0.258752 -0.191104,-0.401834 -0.183579,-0.551655 -0.318707,-0.582729 -0.561408,-0.129097 -0.306637,0.573133 -0.45529,0.877672 -0.45529,0.932729 0,0.03059 -0.04487,0.109458 -0.0997,0.175273 -0.05483,0.06582 -0.123808,0.195865 -0.153273,0.288998 -0.02947,0.09313 -0.09961,0.218746 -0.155887,0.27914 -0.05627,0.06039 -0.122618,0.184219 -0.147435,0.275167 -0.02482,0.09095 -0.105065,0.226036 -0.178329,0.300195 -0.07326,0.07416 -0.19857,0.213645 -0.278456,0.309967 -0.813769,0.98119 -2.301828,-0.286719 -1.820943,-1.551544 0.02201,-0.0579 0.04002,-0.171375 0.04002,-0.25217 0,-0.08079 0.02731,-0.189092 0.06068,-0.240661 0.03337,-0.05157 0.08923,-0.217956 0.124127,-0.369751 0.0349,-0.151794 0.121892,-0.387091 0.193322,-0.522882 0.07143,-0.13579 0.129873,-0.2712 0.129873,-0.300909 0,-0.02971 0.03058,-0.0794 0.06797,-0.110424 0.03738,-0.03102 0.113783,-0.152419 0.169782,-0.269767 0.146996,-0.308034 0.423852,-0.689495 0.523336,-0.72107 0.04707,-0.01494 0.08558,-0.04487 0.08558,-0.06652 0,-0.487882 1.533772,-0.967872 1.799049,-0.563008 0.191776,0.292687 0.40593,-0.120963 0.484657,-0.936139 0.02254,-0.233359 0.06139,-0.510014 0.08634,-0.614789 0.02495,-0.104775 0.06244,-0.314325 0.0833,-0.465666 0.02086,-0.151342 0.07747,-0.375384 0.125791,-0.497871 0.04832,-0.122488 0.08786,-0.258106 0.08786,-0.301376 0,-0.04327 0.04874,-0.219277 0.10832,-0.391129 0.05958,-0.171852 0.134803,-0.436283 0.167172,-0.587624 0.03237,-0.151342 0.126441,-0.408517 0.209049,-0.5715 0.08261,-0.162984 0.150256,-0.330389 0.150328,-0.372013 1.7e-4,-0.09199 0.236511,-0.70939 0.418896,-1.094242 0.157705,-0.332774 0.341823,-0.419458 0.699587,-0.329373 0.389093,0.09797 0.439227,0.262683 0.36616,1.202961 -0.06843,0.880622 -0.109053,1.112701 -0.251931,1.439333 -0.07129,0.162984 -0.130558,0.363009 -0.131699,0.4445 -0.0011,0.08149 -0.03976,0.23121 -0.08581,0.332706 -0.04605,0.101498 -0.08374,0.246292 -0.08374,0.321767 0,0.07548 -0.01758,0.192456 -0.03907,0.25996 -0.02149,0.0675 -0.05082,0.193611 -0.06518,0.280238 -0.01436,0.08663 -0.07298,0.213202 -0.130266,0.281278 -0.05728,0.06808 -0.104149,0.17417 -0.104149,0.235765 0,0.0616 -0.0381,0.186675 -0.08467,0.277953 -0.04657,0.09128 -0.08501,0.200057 -0.08544,0.24173 -4.24e-4,0.04167 -0.05757,0.159599 -0.127,0.262057 -0.09694,0.143065 -0.12623,0.233721 -0.12623,0.390727 0,0.112442 -0.03334,0.285787 -0.07408,0.385213 -0.23442,0.572017 0.04634,2.441339 0.372387,2.479337 0.113525,0.01323 0.458001,-0.317359 0.738863,-0.709077 0.06985,-0.09742 0.193601,-0.254757 0.275003,-0.349638 0.195629,-0.228023 0.389989,-0.53792 0.5652,-0.901182 0.07861,-0.162984 0.195097,-0.343959 0.258856,-0.402167 0.06376,-0.05821 0.170278,-0.213066 0.236707,-0.344127 0.06643,-0.131062 0.193108,-0.296071 0.281507,-0.366688 0.104252,-0.08328 0.225271,-0.255035 0.344416,-0.488809 0.227237,-0.445861 0.276565,-0.491048 0.585112,-0.536001 0.647153,-0.09429 0.934537,0.270763 0.755199,0.959287 -0.03493,0.134086 -0.0635,0.411853 -0.0635,0.617259 0,0.236202 -0.02334,0.429323 -0.0635,0.525442 -0.175695,0.420497 0.03584,0.975389 0.232064,0.608741 0.0245,-0.04577 0.115656,-0.103215 0.202573,-0.127643 0.171115,-0.04809 0.352544,-0.188761 0.429912,-0.333324 0.02673,-0.04994 0.07071,-0.0908 0.09775,-0.0908 0.06521,0 0.346459,-0.191302 0.58287,-0.396459 0.433045,-0.375796 0.817537,-0.430994 0.902958,-0.129629 0.01932,0.06816 0.05138,0.177302 0.07124,0.242544 0.02384,0.0783 0.01621,0.179033 -0.02242,0.296334 -0.0988,0.299935 -0.161169,0.773281 -0.135131,1.025564 0.01362,0.131982 0.005,0.290482 -0.01909,0.352223 -0.03909,0.10006 -0.0807,0.4853 -0.147781,1.368331 -0.02405,0.316568 0.05553,0.458426 0.25715,0.458426 0.139823,0 0.350804,0.186394 0.384468,0.339664 0.07604,0.346221 -0.208287,0.591669 -0.685394,0.591669 -0.331616,0 -0.602005,0.307016 -0.605063,0.687028 -0.0015,0.192518 -0.172478,0.652634 -0.410547,1.105135 -0.123961,0.235613 -0.225382,0.450069 -0.225382,0.47657 0,0.0265 -0.03877,0.09747 -0.08616,0.157715 -0.04739,0.06024 -0.12417,0.191399 -0.17063,0.291459 -0.09284,0.199945 -0.114316,0.237127 -0.346296,0.599501 -0.0874,0.136532 -0.158916,0.272312 -0.158916,0.301733 0,0.02942 -0.02976,0.07819 -0.06612,0.108369 -0.07968,0.06613 -0.356959,0.47789 -0.357826,0.531372 -8.09e-4,0.04976 -0.746276,0.766559 -0.953023,0.916369 -0.244534,0.17719 -0.358,0.156113 -0.628729,-0.116787 z m 0.705644,-1.154114 c 0.51021,-0.503681 0.723586,-0.754494 0.818792,-0.962453 0.05652,-0.123455 0.131029,-0.23531 0.165575,-0.248567 0.06115,-0.02347 0.358023,-0.62205 0.358023,-0.72189 0,-0.02749 0.04682,-0.113444 0.104033,-0.190999 0.05722,-0.07755 0.126067,-0.247943 0.152998,-0.378641 0.02693,-0.130698 0.07697,-0.292176 0.111198,-0.35884 0.216037,-0.420761 0.194552,-0.792403 -0.03858,-0.667397 -0.05325,0.02855 -0.153964,0.08246 -0.223814,0.119798 -0.122156,0.0653 -0.460034,0.327283 -0.794329,0.61591 -0.08763,0.07566 -0.199111,0.21205 -0.247735,0.30309 -0.04862,0.09104 -0.177711,0.281541 -0.286862,0.423334 -0.84931,1.1033 -0.952394,2.889091 -0.119297,2.066655 z M 35.219042,36.16738 c 0.07567,-0.04614 0.137583,-0.10164 0.137583,-0.123338 0,-0.0217 0.106104,-0.168898 0.235787,-0.327108 0.129683,-0.158211 0.304451,-0.4122 0.388373,-0.564421 0.08392,-0.15222 0.262169,-0.438688 0.396103,-0.636597 0.133935,-0.197908 0.256011,-0.416983 0.27128,-0.486833 0.01527,-0.06985 0.0828,-0.2413 0.150076,-0.381 0.115048,-0.238914 0.294048,-0.831155 0.294048,-0.972889 0,-0.09363 -0.277694,-0.08327 -0.416798,0.01555 -0.0618,0.0439 -0.179044,0.110729 -0.260535,0.148501 -0.292085,0.135385 -0.504514,0.325168 -0.720368,0.643573 -0.07741,0.114181 -0.199401,0.277111 -0.271101,0.362066 -0.296601,0.351433 -0.603281,1.180691 -0.690598,1.867365 -0.0542,0.426278 0.177579,0.643275 0.48615,0.455135 z m 3.815695,-7.043074 c 0.07023,-0.08462 0.08285,-0.41501 0.01674,-0.438359 -0.07956,-0.0281 -0.223182,0.244138 -0.223359,0.423375 -1.69e-4,0.16894 0.07436,0.174345 0.20662,0.01498 z m 0.282224,-0.749119 c 0.12052,-0.133174 0.145562,-0.632604 0.03172,-0.632604 -0.137233,0 -0.340537,0.589407 -0.2385,0.691444 0.0511,0.0511 0.126778,0.02956 0.20678,-0.05884 z m -8.447669,12.489664 c -0.305293,-0.02376 -0.508,-0.08945 -0.508,-0.164621 0,-0.01964 -0.05786,-0.05967 -0.128581,-0.08897 -0.452799,-0.187556 -0.663081,-1.127919 -0.396235,-1.771932 0.09703,-0.234182 0.0774,-0.297855 -0.120768,-0.391779 -0.428159,-0.202926 -0.736947,-0.431189 -0.813573,-0.601412 -0.07741,-0.171959 -0.147344,-0.255965 -0.265489,-0.318896 -0.164799,-0.08778 -0.233583,-0.279748 -0.200958,-0.560841 0.03745,-0.322673 -0.139373,-0.372526 -0.321742,-0.09071 -0.05639,0.08714 -0.167198,0.188976 -0.246235,0.226295 -0.08377,0.03956 -0.176453,0.131685 -0.222228,0.220909 -0.06167,0.120211 -0.117094,0.163493 -0.258273,0.201699 -0.381405,0.103216 -0.41662,0.141308 -0.580577,0.628007 -0.523205,1.553111 -1.875824,2.213126 -2.400698,1.171428 -0.0361,-0.07165 -0.108568,-0.177904 -0.161032,-0.236113 -0.121665,-0.134987 -0.233612,-0.471448 -0.233612,-0.702134 0,-0.107889 -0.04198,-0.260524 -0.105612,-0.384042 -0.112236,-0.217845 -0.133425,-0.390438 -0.08356,-0.680601 0.02411,-0.1403 0.01027,-0.227018 -0.06365,-0.398867 -0.08947,-0.207978 -0.09184,-0.240431 -0.04486,-0.613717 0.02729,-0.21677 0.03898,-0.411329 0.02598,-0.432354 -0.01299,-0.02102 -0.0053,-0.0928 0.01703,-0.159505 0.02236,-0.0667 0.06034,-0.27368 0.0844,-0.459946 0.02406,-0.186267 0.0738,-0.519642 0.110523,-0.740834 0.03673,-0.221191 0.07342,-0.491099 0.08155,-0.599795 0.0081,-0.108695 0.04308,-0.252364 0.07768,-0.319263 0.03459,-0.0669 0.112612,-0.301817 0.173371,-0.522039 0.06076,-0.220222 0.137889,-0.498914 0.1714,-0.619316 0.03351,-0.120402 0.09959,-0.282327 0.146845,-0.359833 0.04725,-0.07751 0.08599,-0.203466 0.08607,-0.279911 8.5e-5,-0.07644 0.04933,-0.236029 0.109432,-0.35463 0.0601,-0.118602 0.143963,-0.347774 0.186363,-0.509272 0.0424,-0.161498 0.107527,-0.327265 0.144727,-0.36837 0.0372,-0.04111 0.06764,-0.132975 0.06764,-0.204154 0,-0.07118 0.05642,-0.231603 0.125373,-0.3565 0.06895,-0.124896 0.249127,-0.468097 0.400383,-0.762669 0.373828,-0.728036 0.799717,-1.123442 0.997268,-0.925891 0.04603,0.04603 0.149272,0.111092 0.229426,0.144583 0.210432,0.08792 0.246461,0.190329 0.299955,0.852558 0.04969,0.615182 0.0368,0.862732 -0.07488,1.438002 -0.03616,0.186267 -0.07508,0.395817 -0.08649,0.465667 -0.01141,0.06985 -0.06257,0.33655 -0.113706,0.592666 -0.05113,0.256117 -0.107599,0.541867 -0.125483,0.635 -0.04748,0.24729 -0.150058,0.611068 -0.29017,1.029089 -0.06782,0.202351 -0.136445,0.425062 -0.152491,0.494912 -0.01605,0.06985 -0.0824,0.193918 -0.147441,0.275708 -0.08981,0.112933 -0.123236,0.208664 -0.138931,0.397927 -0.01386,0.167138 -0.04427,0.266479 -0.09233,0.301623 -0.07787,0.05694 -0.153149,0.2741 -0.153149,0.441811 0,0.182894 -0.346346,1.014947 -0.468488,1.125484 -0.03911,0.03539 -0.170857,0.08012 -0.292773,0.09939 -0.258722,0.0409 -0.277464,0.06324 -0.314022,0.374285 -0.02214,0.188367 -0.01337,0.250041 0.04465,0.314155 0.04789,0.05291 0.08167,0.189855 0.100347,0.406694 0.01548,0.179806 0.0581,0.412646 0.09471,0.517421 0.03661,0.104775 0.09953,0.295275 0.139839,0.423333 0.14633,0.464926 0.390956,0.449984 0.626289,-0.03825 0.178806,-0.370965 0.08878,-0.651978 -0.259202,-0.809076 -0.264278,-0.119311 -0.291247,-0.230506 -0.135666,-0.559374 0.06907,-0.146005 0.1256,-0.287302 0.125618,-0.313994 3.8e-5,-0.05518 0.278697,-0.311302 0.3387,-0.311302 0.02166,0 0.106473,-0.0589 0.188466,-0.130893 0.196106,-0.172183 0.62947,-0.238121 0.941925,-0.143317 0.392909,0.119215 0.427668,0.105571 0.874235,-0.343178 0.222062,-0.223147 0.452427,-0.469544 0.511925,-0.547548 0.0595,-0.078 0.222679,-0.231786 0.362628,-0.341735 0.139948,-0.109951 0.297098,-0.271364 0.34922,-0.358697 0.137456,-0.230312 0.451213,-0.632299 0.49352,-0.632299 0.01994,0 0.129317,-0.06402 0.24307,-0.142269 0.113752,-0.07825 0.247021,-0.155027 0.296152,-0.17062 0.04913,-0.01559 0.148526,-0.08492 0.220876,-0.154065 0.09061,-0.08659 0.17448,-0.12578 0.269515,-0.125929 0.07588,-1.27e-4 0.214168,-0.04715 0.307302,-0.104512 0.589287,-0.362952 1.29306,0.134738 0.996121,0.70443 -0.193238,0.370734 -0.712677,0.977901 -0.879705,1.028277 -0.05239,0.0158 -0.09525,0.04644 -0.09525,0.06809 0,0.02165 -0.06408,0.110851 -0.142397,0.19823 -0.07832,0.08738 -0.171688,0.216022 -0.207487,0.285872 -0.0358,0.06985 -0.181269,0.245957 -0.323268,0.391347 -0.142,0.145391 -0.258181,0.284258 -0.258181,0.308593 0,0.02434 -0.07144,0.119729 -0.15875,0.211986 -0.434331,0.458928 -0.433917,0.45831 -0.433917,0.647138 0,0.362359 0.528975,0.399782 0.910904,0.06444 0.08062,-0.07079 0.234446,-0.155148 0.341826,-0.187465 0.211845,-0.06376 1.159133,-0.95722 1.220764,-1.151402 0.01643,-0.05178 0.04452,-0.09414 0.06241,-0.09414 0.08643,0 0.443291,-0.332636 0.583543,-0.543933 0.08668,-0.130585 0.277161,-0.385525 0.423297,-0.566533 0.146136,-0.181008 0.27739,-0.375675 0.291675,-0.432592 0.05471,-0.217988 0.340767,-0.307762 0.377668,-0.118525 0.01249,0.06403 0.05161,0.206563 0.08695,0.316743 0.05579,0.17396 0.05632,0.212962 0.004,0.296333 -0.03312,0.0528 -0.07272,0.167272 -0.08799,0.254372 -0.01865,0.106357 -0.06094,0.17587 -0.128798,0.211667 -0.119925,0.06327 -0.274193,0.282159 -0.428012,0.607307 -0.06523,0.137883 -0.162355,0.266951 -0.233397,0.310153 -0.06692,0.0407 -0.176257,0.149344 -0.242969,0.241436 -0.06671,0.09209 -0.176891,0.214383 -0.244843,0.271757 -0.06795,0.05737 -0.170198,0.180515 -0.227213,0.273649 -0.05701,0.09313 -0.329091,0.405156 -0.604615,0.693384 -1.304218,1.364355 -1.422829,2.261778 -0.36993,2.798926 0.391249,0.199601 0.234029,0.379041 -0.295962,0.337791 z m -0.843549,-5.310506 c 0.121934,-0.104081 0.294046,-0.299343 0.382471,-0.433917 0.08842,-0.134573 0.218816,-0.318176 0.289759,-0.408006 0.499997,-0.63312 -0.14178,-0.517825 -0.675673,0.121384 -0.570233,0.682717 -0.567723,1.208077 0.0034,0.720539 z m -4.989638,-0.287222 c 0.07739,-0.06415 0.165073,-0.232625 0.269801,-0.518373 0.08533,-0.232834 0.189494,-0.461434 0.231465,-0.508 0.04197,-0.04657 0.08944,-0.141817 0.105489,-0.211667 0.01605,-0.06985 0.08684,-0.231507 0.157304,-0.359237 0.08564,-0.155227 0.138184,-0.323681 0.15846,-0.508 0.02105,-0.191315 0.06424,-0.325682 0.141049,-0.438771 0.06089,-0.08965 0.120913,-0.232529 0.133379,-0.3175 0.01247,-0.08497 0.0707,-0.306892 0.129409,-0.493159 0.05871,-0.186267 0.106162,-0.37729 0.105453,-0.424497 -7.11e-4,-0.04721 0.02557,-0.124172 0.05839,-0.171033 0.03282,-0.04686 0.06871,-0.217787 0.07974,-0.379836 0.01103,-0.162049 0.04458,-0.450908 0.07456,-0.64191 0.08426,-0.536984 -0.111834,-1.13334 -0.237295,-0.721641 -0.01597,0.05239 -0.05519,0.12515 -0.08717,0.161693 -0.03198,0.03654 -0.07659,0.163721 -0.09914,0.282616 -0.02255,0.118895 -0.07775,0.298546 -0.122673,0.399224 -0.127967,0.286799 -0.218037,0.538605 -0.218037,0.609563 0,0.03573 -0.03629,0.144884 -0.08064,0.24256 -0.04435,0.09768 -0.11374,0.291894 -0.154194,0.431594 -0.04045,0.1397 -0.101515,0.296724 -0.135692,0.348942 -0.03418,0.05222 -0.05158,0.137943 -0.03868,0.1905 0.0129,0.05256 -0.01404,0.200333 -0.05987,0.328392 -0.289074,0.807669 -0.417275,1.242582 -0.442996,1.502833 -0.01611,0.162984 -0.07441,0.439209 -0.129565,0.613834 -0.183082,0.579677 -0.118157,0.813664 0.161455,0.581873 z m 23.223823,-1.980939 c -0.219566,-0.03678 -0.2701,-0.09105 -0.487113,-0.523143 -0.21764,-0.43335 -0.224472,-0.513908 -0.14213,-1.676125 0.02227,-0.314325 0.02471,-0.587331 0.0054,-0.60668 -0.03792,-0.03804 -0.359414,0.109623 -0.407272,0.187061 -0.01607,0.02599 -0.08919,0.07232 -0.162493,0.102948 -0.106115,0.04434 -0.143735,0.09476 -0.184547,0.247352 -0.0453,0.169357 -0.07387,0.201664 -0.245537,0.277599 -0.154294,0.06825 -0.207811,0.120395 -0.260045,0.253372 -0.07993,0.203493 -0.254405,0.296594 -0.416991,0.222515 -0.205312,-0.09355 -0.113756,-0.768834 0.104239,-0.768834 0.02136,0 0.07101,-0.08425 0.110336,-0.187229 0.05019,-0.131415 0.10802,-0.202354 0.194001,-0.237969 0.06737,-0.02791 0.122498,-0.06404 0.122498,-0.08028 0,-0.01625 0.173207,-0.2076 0.384905,-0.425225 0.211698,-0.217625 0.429228,-0.465896 0.483402,-0.551713 0.063,-0.0998 0.172208,-0.190305 0.303014,-0.25113 0.11248,-0.0523 0.244902,-0.132325 0.294267,-0.177824 0.162759,-0.150013 0.486004,-0.08024 0.676369,0.145995 0.120086,0.142715 0.126492,0.526903 0.03336,2.001647 -0.04254,0.673669 0.265028,0.853059 0.616442,0.359541 0.04901,-0.06882 0.123329,-0.135996 0.165155,-0.149272 0.04182,-0.01327 0.139962,-0.109441 0.218084,-0.213703 0.07812,-0.104262 0.171992,-0.19992 0.208602,-0.212574 0.07892,-0.02728 0.221983,-0.225448 0.343099,-0.475262 0.04796,-0.09891 0.141156,-0.207742 0.207116,-0.24185 0.06596,-0.03411 0.131157,-0.0913 0.14489,-0.127082 0.03612,-0.09413 0.186055,-0.07988 0.241067,0.02292 0.111095,0.207583 -0.111498,0.984037 -0.346532,1.208788 -0.06983,0.06677 -0.233346,0.283319 -0.363386,0.481227 -0.130035,0.197909 -0.276313,0.419524 -0.32506,0.492479 -0.102887,0.153983 -0.674387,0.692855 -0.734805,0.692855 -0.0225,0 -0.09368,0.04151 -0.158179,0.09225 -0.134891,0.106102 -0.395677,0.155291 -0.622177,0.117353 z m 3.920113,-1.285159 c -0.213195,-0.143879 -0.440415,-0.376549 -0.440415,-0.450977 0,-0.0211 -0.09287,-0.08543 -0.206383,-0.142955 -0.113513,-0.05752 -0.218288,-0.135599 -0.232833,-0.173509 -0.06778,-0.176629 0.0028,-0.555352 0.131182,-0.704172 0.04579,-0.05307 0.05373,-0.128651 0.0319,-0.303411 -0.01608,-0.128652 -0.01006,-0.29584 0.01346,-0.37383 0.02339,-0.0776 0.06648,-0.261962 0.09575,-0.409697 0.04027,-0.203301 0.08762,-0.305093 0.194733,-0.418671 0.07784,-0.08254 0.141622,-0.171211 0.141736,-0.197059 0.0014,-0.303426 0.626326,-1.032297 0.988302,-1.152567 0.112936,-0.03752 0.319781,-0.144241 0.459651,-0.237146 0.698301,-0.463823 1.273382,-0.470244 1.567442,-0.0175 0.149009,0.229417 -0.42893,1.222532 -0.861593,1.480542 -0.09179,0.05473 -0.218698,0.176112 -0.282029,0.26973 -0.06333,0.09362 -0.186555,0.276552 -0.273825,0.406521 -0.08727,0.129968 -0.292062,0.371552 -0.455083,0.536854 -0.163026,0.165302 -0.296405,0.318411 -0.296405,0.340242 0,0.02183 -0.06541,0.06702 -0.145356,0.100426 -0.236876,0.09897 -0.36402,0.504864 -0.234154,0.74752 0.08792,0.164287 0.89615,0.0114 1.069259,-0.202265 0.04176,-0.05154 0.146533,-0.10635 0.232834,-0.121806 0.189869,-0.034 0.293061,-0.118327 0.369917,-0.30227 0.03182,-0.07614 0.07879,-0.138442 0.10439,-0.138442 0.09055,0 1.211783,-1.202377 1.323365,-1.419143 0.04094,-0.07952 0.112137,-0.164757 0.158221,-0.189423 0.04609,-0.02467 0.150927,-0.144316 0.232973,-0.26589 0.488637,-0.724059 0.592311,-0.777161 0.713063,-0.36524 0.08015,0.273424 0.0014,0.680321 -0.15892,0.821529 -0.104982,0.09245 -0.336258,0.487439 -0.384196,0.656167 -0.01654,0.05821 -0.118681,0.193899 -0.226983,0.301535 -0.108301,0.107637 -0.263588,0.283026 -0.34508,0.389754 -0.08149,0.106729 -0.209055,0.23173 -0.283477,0.27778 -0.07442,0.04605 -0.173998,0.159564 -0.221285,0.252253 -0.06082,0.119202 -0.121454,0.176319 -0.207183,0.195149 -0.06667,0.01464 -0.195686,0.103678 -0.286715,0.197858 -0.09103,0.09418 -0.315896,0.250497 -0.499703,0.34737 -0.183807,0.09687 -0.374307,0.199666 -0.423333,0.228427 -0.04903,0.02876 -0.146287,0.05268 -0.216137,0.05315 -0.06985,4.74e-4 -0.193675,0.01805 -0.275167,0.03907 -0.433659,0.111838 -0.643272,0.0984 -0.871919,-0.05591 z m 0.539505,-2.448692 c 0.0535,-0.04371 0.426817,-0.47025 0.912973,-1.043136 0.158873,-0.187214 0.130649,-0.343363 -0.06198,-0.342896 -0.330128,8e-4 -0.990066,0.713456 -1.046493,1.13008 -0.04017,0.296631 0.03125,0.39014 0.195496,0.255952 z m 7.929402,0.762 c -0.41659,-0.345436 -0.457018,-0.395617 -0.45085,-0.559618 0.0087,-0.232707 0.130378,-0.443936 0.346862,-0.602375 0.272132,-0.199165 0.34975,-0.224405 0.690673,-0.224582 0.451256,-2.54e-4 0.660277,-0.152044 0.726372,-0.527546 0.01625,-0.09233 0.05931,-0.225434 0.0957,-0.29579 0.25154,-0.486427 0.146854,-2.055173 -0.137143,-2.055173 -0.129261,0 -0.202138,0.09465 -0.393789,0.511452 -0.147214,0.320162 -0.427177,0.76327 -0.619426,0.980389 -0.03588,0.04052 -0.105846,0.160071 -0.155482,0.265667 -0.05544,0.11794 -0.161764,0.243352 -0.275666,0.325151 -0.101981,0.07324 -0.222474,0.195959 -0.267762,0.272716 -0.161485,0.2737 -0.510142,0.209251 -0.510142,-0.0943 0,-0.189629 0.05487,-0.295254 0.255193,-0.491217 0.137846,-0.134845 0.409804,-0.515041 0.853665,-1.193421 0.241393,-0.36894 0.372825,-0.61099 0.373266,-0.687423 4.23e-4,-0.04373 0.02883,-0.173029 0.0635,-0.287325 0.03468,-0.114296 0.06304,-0.30271 0.06304,-0.418697 0,-0.429253 0.282431,-0.753965 0.595906,-0.685114 0.470958,0.10344 1.467307,1.828681 1.363781,2.361478 -0.03497,0.179972 0.0703,0.622311 0.148103,0.622311 0.114486,0 0.468152,-0.426816 0.797166,-0.962047 0.04939,-0.08034 0.185352,-0.244404 0.30215,-0.364593 0.116798,-0.12019 0.261853,-0.29867 0.322343,-0.396623 0.06049,-0.09795 0.153124,-0.201078 0.20585,-0.229165 0.242253,-0.129048 0.315134,-0.322809 0.370679,-0.9855 0.04116,-0.491052 0.07236,-0.646218 0.194035,-0.965066 0.07974,-0.208965 0.144988,-0.453787 0.144988,-0.54405 0,-0.09026 0.03691,-0.264841 0.08203,-0.387952 0.04511,-0.123111 0.09552,-0.318431 0.112005,-0.434046 0.01649,-0.115614 0.07444,-0.306114 0.128783,-0.423333 0.05434,-0.117219 0.119333,-0.311892 0.14442,-0.432608 0.02598,-0.12501 0.09924,-0.286956 0.170188,-0.376238 0.06852,-0.08621 0.124719,-0.168423 0.124896,-0.182684 0.0038,-0.303946 0.325455,-1.222203 0.493743,-1.409316 0.03515,-0.03908 0.08221,-0.153379 0.104593,-0.254 0.02238,-0.10062 0.08648,-0.249621 0.142455,-0.331113 0.05598,-0.08149 0.158141,-0.271992 0.227034,-0.423333 0.259563,-0.570199 0.612547,-0.726473 1.241091,-0.549455 0.311984,0.08787 0.409626,0.664165 0.20411,1.204709 -0.01858,0.04886 -0.04653,0.240511 -0.06211,0.425879 -0.04239,0.504268 -0.102573,0.791571 -0.293488,1.401048 -0.03744,0.119542 -0.06808,0.26855 -0.06808,0.331129 0,0.06258 -0.04762,0.195042 -0.105829,0.294362 -0.0582,0.09932 -0.123202,0.264637 -0.144437,0.367371 -0.02123,0.102735 -0.06182,0.30109 -0.0902,0.44079 -0.02838,0.1397 -0.09661,0.391927 -0.151625,0.560505 -0.05502,0.168578 -0.120345,0.39717 -0.145182,0.507983 -0.02483,0.110813 -0.08333,0.242119 -0.129993,0.291791 -0.04667,0.04967 -0.113817,0.201257 -0.149229,0.336856 -0.03541,0.135599 -0.09994,0.316243 -0.1434,0.401432 -0.04346,0.08519 -0.10171,0.247936 -0.129451,0.361661 -0.02774,0.113725 -0.11328,0.311547 -0.19009,0.439606 -0.07681,0.128058 -0.152768,0.309033 -0.168795,0.402166 -0.03581,0.208142 -0.07403,0.259091 -0.220917,0.294526 -0.505672,0.121988 -0.459118,0.02317 -0.349851,0.742641 0.164854,1.085462 0.369413,1.300537 0.823307,0.865628 0.110617,-0.105988 0.244962,-0.209374 0.298543,-0.229746 0.05486,-0.02086 0.110202,-0.08794 0.126666,-0.153545 0.01608,-0.06408 0.103852,-0.188911 0.195042,-0.277409 0.109821,-0.106578 0.181885,-0.224785 0.213441,-0.350105 0.0262,-0.10406 0.09325,-0.251016 0.148992,-0.326569 0.05574,-0.07555 0.101346,-0.161804 0.101346,-0.191669 0,-0.02987 0.0466,-0.08483 0.103551,-0.122149 0.06052,-0.03965 0.132487,-0.15496 0.173173,-0.277457 0.03829,-0.115284 0.112395,-0.261403 0.164673,-0.32471 0.05228,-0.06331 0.141042,-0.20837 0.197248,-0.322364 0.05709,-0.115785 0.216277,-0.311968 0.360688,-0.4445 0.142172,-0.130481 0.303001,-0.318482 0.357395,-0.41778 0.05439,-0.0993 0.161908,-0.217718 0.238917,-0.263156 0.08422,-0.04969 0.140022,-0.116336 0.140022,-0.167235 0,-0.124603 0.24889,-0.3864 0.45333,-0.476834 0.09799,-0.04335 0.189603,-0.09732 0.203581,-0.119939 0.05409,-0.08752 0.740089,0.149721 0.740089,0.255948 0,0.0193 0.04438,0.08894 0.09863,0.154759 0.140441,0.170398 0.156946,0.24135 0.08734,0.375511 -0.03373,0.06502 -0.0778,0.234561 -0.09795,0.376765 -0.03853,0.272071 -0.136618,0.547761 -0.23376,0.657007 -0.035,0.03936 -0.0674,0.21552 -0.08204,0.446049 -0.01331,0.20955 -0.02941,0.447675 -0.03579,0.529167 -0.02277,0.290842 0.15812,0.229492 0.499386,-0.16937 0.16134,-0.188573 0.371661,-0.432395 0.467381,-0.541828 0.09571,-0.109433 0.223613,-0.275169 0.284213,-0.368302 0.0606,-0.09313 0.164004,-0.245534 0.229781,-0.338667 0.06578,-0.09313 0.192955,-0.302683 0.282609,-0.465667 0.08965,-0.162983 0.186555,-0.324908 0.215333,-0.359833 0.02878,-0.03492 0.121975,-0.1961 0.207107,-0.358167 0.08513,-0.162067 0.174553,-0.306885 0.198717,-0.321818 0.02416,-0.01493 0.133092,-0.177215 0.242071,-0.360627 0.279416,-0.470274 0.603669,-0.566439 1.150637,-0.341251 0.446502,0.183826 0.466606,0.273247 0.339259,1.508863 -0.08196,0.795256 0.0058,1.199797 0.207628,0.956653 0.02709,-0.03264 0.09348,-0.07045 0.147532,-0.08401 0.07065,-0.01773 0.129955,-0.0977 0.21093,-0.284414 0.117483,-0.270894 0.195296,-0.387842 0.45938,-0.690433 0.08703,-0.09972 0.185466,-0.246486 0.218757,-0.326157 0.156943,-0.375614 0.473486,-0.452977 0.651832,-0.159306 0.123537,0.20342 0.122255,0.209812 -0.09578,0.477494 -0.103839,0.127482 -0.264791,0.380636 -0.357674,0.562564 -0.10414,0.203978 -0.252751,0.411919 -0.387676,0.542445 -0.120341,0.116417 -0.322089,0.34978 -0.448331,0.518584 -0.126238,0.168804 -0.247557,0.306916 -0.269596,0.306916 -0.02203,0 -0.09163,0.08096 -0.154652,0.179917 -0.214736,0.337155 -0.306214,0.356065 -0.729937,0.150887 -0.642501,-0.311119 -0.68047,-0.37795 -0.717038,-1.262137 -0.02992,-0.723447 -0.109702,-0.881852 -0.279133,-0.554212 -0.03651,0.0706 -0.103615,0.148294 -0.149119,0.172648 -0.0455,0.02435 -0.106075,0.122178 -0.134599,0.217387 -0.03317,0.1107 -0.108678,0.218764 -0.209457,0.299752 -0.08668,0.06966 -0.20212,0.215282 -0.256544,0.323618 -0.05442,0.108336 -0.160867,0.268466 -0.236538,0.355846 -0.07567,0.08738 -0.137583,0.179888 -0.137583,0.205575 0,0.02569 -0.05454,0.116119 -0.1212,0.200961 -0.06666,0.08484 -0.155,0.220933 -0.196308,0.302425 -0.04131,0.08149 -0.210359,0.28103 -0.375662,0.443419 -0.165303,0.162389 -0.329379,0.351754 -0.364609,0.420812 -0.114283,0.224021 -0.238815,0.22497 -0.730351,0.0056 -0.870128,-0.388395 -1.125403,-0.981238 -0.790067,-1.834873 0.1072,-0.272905 -0.0042,-0.337151 -0.25414,-0.146582 -0.294932,0.224857 -0.399419,0.374162 -0.456011,0.651602 -0.03626,0.177773 -0.09223,0.305386 -0.1725,0.393349 -0.166221,0.182143 -0.391486,0.479032 -0.391486,0.515962 0,0.08663 -0.286351,0.60847 -0.410671,0.748401 -0.07842,0.08827 -0.199365,0.252764 -0.268757,0.365543 -0.07418,0.120564 -0.178236,0.226619 -0.252536,0.257395 -0.0695,0.02879 -0.126369,0.06744 -0.126369,0.0859 0,0.01846 -0.119062,0.09939 -0.264583,0.179849 -0.598805,0.331092 -1.28513,0.200978 -1.563108,-0.296338 -0.06225,-0.111376 -0.171793,-0.258454 -0.243417,-0.32684 -0.117458,-0.112148 -0.130213,-0.149497 -0.130103,-0.381 4.24e-4,-0.67105 -0.427554,-1.070763 -0.591951,-0.552996 -0.05442,0.171404 -0.244166,0.464341 -0.407704,0.629445 -0.04915,0.04962 -0.129709,0.169627 -0.179011,0.266678 -0.04931,0.09705 -0.200778,0.306601 -0.3366,0.465667 -0.135827,0.159065 -0.290475,0.361109 -0.343658,0.448986 -0.05319,0.08788 -0.156777,0.190772 -0.2302,0.228656 -0.07342,0.03788 -0.360249,0.295615 -0.637392,0.572736 -0.27714,0.27712 -0.556777,0.531203 -0.621415,0.564629 -0.06464,0.03343 -0.129121,0.09731 -0.143295,0.141967 -0.09051,0.285171 -1.103003,0.501518 -1.357909,0.290153 z m 6.061511,-6.127751 c 0.02662,-0.08149 0.114821,-0.249012 0.196004,-0.372268 0.08118,-0.123257 0.160223,-0.304232 0.175645,-0.402167 0.02371,-0.150567 0.15541,-0.473696 0.469405,-1.151731 0.122542,-0.264622 0.190127,-0.457918 0.190529,-0.54492 4.24e-4,-0.04955 0.04965,-0.194855 0.109826,-0.322914 0.160748,-0.34208 0.39748,-1.137804 0.397628,-1.336542 0,-0.09481 0.03002,-0.260088 0.06655,-0.367293 0.09084,-0.266614 0.06832,-0.472219 -0.05363,-0.48957 -0.126077,-0.01794 -0.293357,0.250453 -0.426838,0.684848 -0.05626,0.183118 -0.167098,0.443499 -0.246296,0.578623 -0.07919,0.135124 -0.143988,0.26466 -0.143988,0.287857 0,0.08115 -0.266399,0.74856 -0.326619,0.818279 -0.06608,0.07651 -0.206806,0.561332 -0.264117,0.909932 -0.01974,0.120065 -0.07515,0.272465 -0.123148,0.338667 -0.06216,0.08574 -0.09545,0.217786 -0.115752,0.459033 -0.01567,0.186266 -0.0519,0.386291 -0.0805,0.4445 -0.06319,0.128571 -0.119486,0.536374 -0.08234,0.596473 0.05838,0.09446 0.209047,0.01796 0.257645,-0.130807 z m -18.256403,2.415816 c -0.452853,-0.192959 -0.532168,-0.890234 -0.123266,-1.083674 0.278337,-0.131677 0.396875,-0.09468 0.681871,0.212838 0.359448,0.387853 -0.08092,1.074373 -0.558605,0.870836 z m 30.590572,-1.273954 c -0.03493,-0.0232 -0.143849,-0.06311 -0.242049,-0.0887 -0.101808,-0.02653 -0.188417,-0.07762 -0.201511,-0.118863 -0.01263,-0.03979 -0.07832,-0.113268 -0.145978,-0.163292 -0.210719,-0.155792 -0.426462,-0.618404 -0.426462,-0.914454 0,-0.173135 -0.02151,-0.275825 -0.06871,-0.327977 -0.0903,-0.09978 -0.183799,-0.50566 -0.184629,-0.801476 -4.23e-4,-0.129653 -0.03142,-0.339203 -0.06903,-0.465666 -0.05032,-0.169246 -0.06048,-0.30256 -0.03848,-0.5051 0.03858,-0.355183 0.09055,-0.82285 0.138794,-1.248834 0.02109,-0.186266 0.06155,-0.381996 0.08991,-0.434955 0.02836,-0.05296 0.04745,-0.186364 0.04243,-0.296456 -0.005,-0.110091 0.0127,-0.240971 0.0394,-0.290843 0.02669,-0.04987 0.06114,-0.19799 0.07655,-0.329151 0.01541,-0.131162 0.04439,-0.248589 0.06439,-0.26095 0.02,-0.01236 0.03636,-0.07623 0.03636,-0.141937 0,-0.138987 0.148167,-0.546398 0.334916,-0.920917 0.07192,-0.144215 0.130751,-0.3005 0.130751,-0.3473 0,-0.116882 0.217809,-0.778938 0.349601,-1.062658 0.05949,-0.128058 0.121493,-0.299508 0.137799,-0.381 0.03539,-0.176871 0.249831,-0.657027 0.310062,-0.694253 0.04684,-0.02895 0.557205,-1.045155 0.557205,-1.109474 0,-0.02207 0.03334,-0.07168 0.07408,-0.110243 0.04075,-0.03857 0.131233,-0.148848 0.201083,-0.245073 0.276911,-0.38147 0.43633,-0.430721 0.635,-0.196175 0.04657,0.05498 0.134121,0.131408 0.19456,0.169849 0.232076,0.1476 0.353928,1.709761 0.170464,2.185369 -0.0499,0.129373 -0.08982,0.330086 -0.08984,0.451695 -1.3e-5,0.120373 -0.048,0.425173 -0.106633,0.677333 -0.143244,0.616019 -0.16455,0.697367 -0.291906,1.114639 -0.0604,0.197908 -0.109872,0.388408 -0.109931,0.423333 0,0.03492 -0.03796,0.12065 -0.08422,0.1905 -0.04626,0.06985 -0.08424,0.178742 -0.08439,0.241981 -4.23e-4,0.107915 -0.02542,0.179469 -0.212636,0.604686 -0.041,0.09313 -0.08642,0.237377 -0.100936,0.320541 -0.01451,0.08316 -0.07139,0.212209 -0.12639,0.286765 -0.05602,0.07593 -0.112344,0.228515 -0.128046,0.346871 -0.02826,0.213069 -0.207073,0.703061 -0.386393,1.058827 -0.09909,0.196602 -0.238468,0.294163 -0.420243,0.294163 -0.175315,0 -0.234302,0.04479 -0.234302,0.177914 0,0.06959 -0.03169,0.180164 -0.07041,0.245725 -0.06822,0.115475 -0.06689,0.123394 0.04233,0.253197 0.09115,0.10833 0.112746,0.177079 0.112746,0.358956 0,0.133711 0.03396,0.299817 0.08374,0.409502 0.04606,0.101497 0.08417,0.222639 0.0847,0.269206 0.0014,0.117848 0.241258,0.613833 0.296922,0.613833 0.204576,0 0.508309,-0.47753 0.508309,-0.799162 0,-0.218986 -0.03575,-0.259171 -0.230585,-0.259171 -0.280315,0 -0.430378,-0.335164 -0.281089,-0.627794 0.04859,-0.09524 0.08834,-0.199234 0.08834,-0.231095 0,-0.112298 0.268596,-0.461705 0.398077,-0.517843 0.863896,-0.374552 1.061123,-0.414946 1.235757,-0.253101 0.166598,0.154396 0.402183,0.09071 0.542417,-0.146644 0.02113,-0.03576 0.107535,-0.131698 0.192007,-0.21319 0.08447,-0.08149 0.261442,-0.272958 0.39326,-0.42548 0.227126,-0.262795 0.50684,-0.421186 0.743796,-0.421186 0.177081,0 0.05733,0.457389 -0.230428,0.880151 -0.05879,0.08636 -0.152621,0.252265 -0.20853,0.368682 -0.08856,0.184404 -0.359851,0.48905 -0.892992,1.002791 -0.182309,0.175676 -0.485416,0.372641 -0.573791,0.372861 -0.09305,2.12e-4 -0.133015,0.08022 -0.222199,0.444681 -0.05253,0.214675 -0.116319,0.348829 -0.231483,0.486834 -0.08743,0.104775 -0.181038,0.257175 -0.208013,0.338666 -0.06594,0.199207 -0.28241,0.424571 -0.514545,0.535692 -0.591418,0.28311 -0.743695,0.321679 -0.889,0.22517 z m 0.06798,-4.683526 c 0.05903,-0.03868 0.142431,-0.148219 0.185323,-0.243416 0.260731,-0.578694 0.415586,-0.950982 0.441774,-1.062087 0.01646,-0.06985 0.07943,-0.199127 0.139916,-0.287283 0.0663,-0.09663 0.132626,-0.281559 0.167009,-0.465667 0.03137,-0.16796 0.1045,-0.397629 0.162513,-0.510373 0.05801,-0.112744 0.105482,-0.236505 0.105482,-0.275023 0,-0.03852 0.04515,-0.212972 0.100343,-0.387676 0.36551,-1.157083 0.433104,-2.272839 0.135492,-2.236618 -0.123254,0.015 -0.0971,-0.0448 -0.533781,1.220474 -0.0683,0.197908 -0.153031,0.410397 -0.188286,0.472198 -0.03525,0.0618 -0.0641,0.153802 -0.0641,0.204447 0,0.05064 -0.04567,0.20963 -0.101486,0.353301 -0.05582,0.143671 -0.110634,0.33827 -0.121806,0.432443 -0.01118,0.09417 -0.07206,0.294197 -0.135293,0.4445 -0.06324,0.150302 -0.130877,0.362339 -0.150313,0.471193 -0.01943,0.108853 -0.06371,0.242203 -0.09839,0.296333 -0.03468,0.05413 -0.07685,0.231768 -0.0937,0.394751 -0.01685,0.162984 -0.07557,0.415831 -0.130493,0.561884 -0.193916,0.515692 -0.109262,0.806017 0.179794,0.616619 z M 60.44163,23.047635 c -0.01301,-0.02106 0.05939,-0.197267 0.160892,-0.391583 0.101507,-0.194317 0.195805,-0.412847 0.20955,-0.485624 0.15831,-0.83805 1.174683,-1.834218 1.508684,-1.478689 0.164622,0.175234 -0.01276,0.558261 -0.463359,1.000519 -0.15605,0.153164 -0.250224,0.284158 -0.267928,0.37269 -0.01502,0.07508 -0.08949,0.198692 -0.16549,0.274687 -0.07601,0.07599 -0.195338,0.220626 -0.265188,0.321401 -0.201181,0.29025 -0.632884,0.522967 -0.717161,0.386599 z"
         id="path2608" />
    </g>
  </g>
</svg>
