<?xml version="1.0" encoding="UTF-8" standalone="no"?>
<!-- Created with Inkscape (http://www.inkscape.org/) -->

<svg
   width="36.738579mm"
   height="14.985418mm"
   viewBox="0 0 36.738579 14.985418"
   version="1.1"
   id="svg919"
   xmlns="http://www.w3.org/2000/svg"
   xmlns:svg="http://www.w3.org/2000/svg">
  <defs
     id="defs916" />
  <g
     id="layer1"
     transform="translate(-69.548795,-163.65645)">
    <g
       id="g1080"
       transform="translate(-2.5253835,0.53499247)">
      <path
         style="fill:#625e5a;stroke-width:0.0846667"
         d="m 81.640663,175.82923 c -0.301883,-0.30189 -0.30899,-0.42722 -0.03862,-0.68122 0.180416,-0.16949 0.26655,-0.18938 0.632381,-0.14605 0.408924,0.0484 0.432317,0.0395 0.678974,-0.25976 0.33464,-0.40598 0.511782,-0.7893 0.511782,-1.10745 0,-0.40378 -0.153824,-0.4024 -0.579602,0.005 -0.595712,0.57027 -1.157303,0.99743 -1.311338,0.99743 -0.07888,0 -0.162191,-0.097 -0.194776,-0.22688 -0.04501,-0.17932 -0.01429,-0.25962 0.146554,-0.3831 1.061904,-0.81523 1.236131,-0.99371 1.506867,-1.54365 0.153598,-0.312 0.335725,-0.58894 0.404727,-0.61542 0.400752,-0.15378 0.883555,0.75616 0.903958,1.70371 0.0072,0.33286 0.05205,0.59878 0.103983,0.61607 0.05026,0.0167 0.265652,-0.123 0.478659,-0.3105 0.213007,-0.18749 0.413657,-0.3409 0.44589,-0.3409 0.200799,0 0.602247,-0.43894 0.841566,-0.92017 0.525738,-1.05717 0.82578,-1.57782 1.177452,-2.04316 0.193553,-0.25612 0.428072,-0.61287 0.521154,-0.79277 0.09308,-0.17991 0.410932,-0.58949 0.706333,-0.91017 0.48076,-0.5219 0.570409,-0.58306 0.854712,-0.58306 0.538912,0 0.771539,0.49975 0.472933,1.016 -0.06734,0.11642 -0.147378,0.26882 -0.177869,0.33867 -0.372355,0.853 -0.623539,1.32153 -1.101112,2.05385 -1.020544,1.56492 -1.554228,2.26415 -1.728123,2.26415 -0.232915,0 -0.339301,0.18788 -0.339301,0.59923 0,0.83012 0.365936,0.7324 1.488635,-0.39755 0.422933,-0.42566 0.861083,-0.80239 0.973667,-0.83719 0.112584,-0.0348 0.377453,-0.189 0.588598,-0.34268 0.543329,-0.39546 0.802271,-0.44498 1.06012,-0.20274 0.293662,0.27588 0.267775,0.62768 -0.08719,1.18485 -0.30568,0.47981 -0.375715,0.75808 -0.1908,0.75808 0.12301,0 0.784867,-0.52646 1.782903,-1.41817 0.802987,-0.71744 1.101179,-0.79549 1.405631,-0.36793 0.216913,0.30463 0.217784,0.40353 0.0076,0.86668 -0.192734,0.42475 -0.219886,0.75008 -0.0626,0.75008 0.05973,0 0.365506,-0.21325 0.679514,-0.47389 0.567934,-0.47141 0.767004,-0.52619 0.876376,-0.24117 0.06099,0.15893 -0.632166,0.90849 -1.029482,1.11325 -0.1397,0.072 -0.412812,0.25951 -0.606916,0.41669 -0.194103,0.15718 -0.405705,0.28579 -0.470224,0.28579 -0.06452,0 -0.242106,-0.12876 -0.394636,-0.28613 -0.255964,-0.26409 -0.272924,-0.31549 -0.220163,-0.66732 0.09147,-0.60997 -0.05339,-0.59523 -1.001857,0.10191 -0.218091,0.16031 -0.396533,0.31954 -0.396533,0.35384 0,0.10402 -0.759604,0.58237 -0.924794,0.58237 -0.199483,0 -0.853206,-0.70792 -0.853206,-0.92393 0,-0.0911 0.03665,-0.2621 0.08143,-0.3799 0.0532,-0.13992 0.05209,-0.23231 -0.0032,-0.26648 -0.0853,-0.0527 -0.366953,0.17097 -1.314863,1.0443 -0.583222,0.53733 -0.832574,0.63679 -1.409328,0.56215 -0.56485,-0.0731 -0.740715,-0.31439 -0.740715,-1.01623 0,-0.29366 -0.04,-0.55864 -0.08888,-0.58885 -0.04888,-0.0302 -0.21081,0.0442 -0.359833,0.1653 -0.392486,0.31902 -1.128372,0.8163 -1.621314,1.09561 -1.311485,0.74312 -1.672181,0.81218 -2.085152,0.39921 z m 1.276513,-0.14252 c 0.20955,-0.10852 0.55245,-0.28006 0.762,-0.38122 0.20955,-0.10116 0.502887,-0.28335 0.65186,-0.40485 0.86529,-0.70577 1.206945,-0.94059 1.368485,-0.94059 0.16425,0 0.180988,0.0458 0.180988,0.49536 0,0.58535 0.12722,1.00014 0.342006,1.11509 0.195762,0.10477 0.771322,0.10727 1.028316,0.004 0.163119,-0.0653 0.511146,-0.37 0.958012,-0.83888 0.369148,-0.38733 0.898876,-0.77604 1.057571,-0.77604 0.184277,0 0.189696,0.0201 0.135269,0.50114 -0.05405,0.47777 -0.04428,0.5153 0.209501,0.80434 0.14641,0.16675 0.320744,0.30318 0.387409,0.30318 0.157451,0 0.487468,-0.2093 0.961916,-0.61007 0.938898,-0.79309 1.107108,-0.90803 1.3335,-0.91123 0.174958,-0.002 0.1905,0.0356 0.1905,0.4664 0,0.34974 0.04713,0.53284 0.185256,0.71966 0.22735,0.30751 0.332052,0.31249 0.635882,0.0302 0.130458,-0.1212 0.370545,-0.28943 0.533529,-0.37385 0.388307,-0.20111 1.100666,-0.83823 1.100666,-0.98441 0,-0.20546 -0.172507,-0.12261 -0.730734,0.35097 -0.356196,0.30218 -0.625562,0.46567 -0.767258,0.46567 -0.210209,0 -0.216401,-0.0143 -0.165935,-0.38246 0.02883,-0.21036 0.11021,-0.49421 0.180841,-0.6308 0.180453,-0.34896 0.160563,-0.5357 -0.08126,-0.76288 l -0.209679,-0.19698 -0.319487,0.22294 c -0.175718,0.12261 -0.548088,0.43261 -0.827488,0.68888 -0.2794,0.25628 -0.535303,0.46655 -0.568673,0.46729 -0.03337,7.6e-4 -0.253718,0.17279 -0.48966,0.38234 -0.519034,0.46098 -0.846666,0.51469 -0.846666,0.13881 0,-0.1332 0.100903,-0.39037 0.224228,-0.5715 0.123326,-0.18112 0.277744,-0.45674 0.343152,-0.61249 0.10429,-0.24834 0.102505,-0.30824 -0.01451,-0.48684 -0.185154,-0.28258 -0.458931,-0.25678 -0.907187,0.0855 -0.208269,0.15902 -0.509023,0.34523 -0.668342,0.41378 -0.159319,0.0686 -0.62325,0.47016 -1.030958,0.89245 -0.569193,0.58955 -0.80983,0.78066 -1.036529,0.82318 -0.162383,0.0305 -0.347868,0.0352 -0.412189,0.0105 -0.154036,-0.0591 -0.248613,-0.58753 -0.178953,-0.99985 0.04502,-0.26648 0.09108,-0.32855 0.243774,-0.32855 0.205909,0 0.976568,-0.86185 1.278518,-1.42979 0.09313,-0.17518 0.276083,-0.46807 0.406555,-0.65086 0.428489,-0.60031 0.775529,-1.18505 0.980107,-1.6514 0.110731,-0.25242 0.292985,-0.65253 0.405009,-0.88912 0.114826,-0.24251 0.179628,-0.49285 0.148544,-0.57385 -0.06395,-0.16664 -0.298324,-0.30831 -0.510059,-0.30831 -0.209337,0 -1.142766,1.00855 -1.384094,1.49548 -0.111627,0.22524 -0.344623,0.58097 -0.517768,0.79052 -0.319971,0.38724 -0.631878,0.92424 -1.155678,1.98966 -0.185948,0.37823 -0.397945,0.66926 -0.585902,0.80434 -0.275498,0.19799 -0.875128,0.65722 -1.106307,0.84726 -0.05624,0.0462 -0.180069,0.0841 -0.275167,0.0841 -0.157543,0 -0.172907,-0.0524 -0.172907,-0.58949 0,-0.86941 -0.367354,-1.78438 -0.714682,-1.78006 -0.04931,5.9e-4 -0.19927,0.22939 -0.333248,0.50841 -0.269031,0.56027 -0.854406,1.18967 -1.343903,1.44498 -0.204203,0.10651 -0.3175,0.22541 -0.3175,0.33321 0,0.0922 0.04067,0.16762 0.09038,0.16762 0.125147,0 0.93165,-0.66655 1.262651,-1.04354 0.171958,-0.19584 0.348359,-0.31113 0.476076,-0.31113 0.192455,0 0.202889,0.0272 0.202756,0.52917 -8.5e-5,0.47534 -0.03303,0.57653 -0.323494,0.99483 l -0.323354,0.46567 -0.519069,0.007 c -0.742757,0.0106 -0.977719,0.25003 -0.590777,0.60207 0.352721,0.3209 0.500978,0.31761 1.164167,-0.0258 z m 4.318,-3.48398 c 0,-0.28134 0.734559,-1.51327 1.460659,-2.44968 0.291981,-0.37655 0.657708,-0.49779 0.65411,-0.21684 -0.0027,0.21321 -0.423213,1.04332 -0.700325,1.38257 -0.392242,0.4802 -0.826735,1.09685 -0.925365,1.31332 -0.05964,0.13089 -0.163882,0.20395 -0.291003,0.20395 -0.159739,0 -0.198076,-0.0452 -0.198076,-0.23332 z m 0.376512,-0.0819 c 0.06177,-0.16098 0.465964,-0.72689 0.835407,-1.16966 0.248707,-0.29807 0.76999,-1.30282 0.708058,-1.36475 -0.06167,-0.0617 -0.819508,0.82956 -1.049841,1.23464 -0.121114,0.213 -0.345931,0.59329 -0.499595,0.8451 -0.259303,0.42492 -0.294566,0.6005 -0.120603,0.6005 0.03884,0 0.0958,-0.0656 0.126574,-0.14583 z m 8.066836,3.63818 c -0.45884,-0.50701 -0.418443,-1.94495 0.09624,-3.42569 0.307561,-0.88485 0.350773,-0.96893 0.811726,-1.57952 0.197977,-0.26224 0.413296,-0.57714 0.478487,-0.69976 0.39908,-0.75069 1.827137,-2.30864 2.072793,-2.26133 0.08428,0.0162 0.224886,0.15219 0.312458,0.30213 0.140037,0.23978 0.147766,0.32782 0.06414,0.73063 -0.124611,0.60025 -1.151007,2.65931 -1.669151,3.3485 -0.224242,0.29826 -0.477899,0.66021 -0.563682,0.80433 -0.257781,0.43307 -0.590408,0.74046 -0.754752,0.69748 -0.285366,-0.0746 -0.401612,0.16946 -0.401612,0.84325 0,0.72998 0.121015,0.86542 0.475612,0.53229 l 0.212997,-0.2001 -0.174971,-0.14168 c -0.25623,-0.20748 -0.221498,-0.52601 0.08553,-0.78435 0.143272,-0.12056 0.305197,-0.22452 0.359833,-0.23104 0.487708,-0.0581 0.806924,-0.0365 0.968745,0.0658 0.175401,0.11083 0.223177,0.10009 0.550334,-0.12371 0.513685,-0.3514 0.900863,-0.53766 0.995745,-0.47902 0.184988,0.11433 0.06722,0.44355 -0.280858,0.78517 -0.199671,0.19596 -0.38848,0.35629 -0.419573,0.35629 -0.0311,0 -0.196895,0.0952 -0.368444,0.21167 -0.171549,0.11642 -0.397213,0.21167 -0.501475,0.21167 -0.125219,0 -0.325241,0.1588 -0.589252,0.46783 -0.219827,0.25731 -0.508313,0.52401 -0.641081,0.59267 -0.338894,0.17525 -0.951563,0.1624 -1.119789,-0.0235 z m 0.833914,-0.0234 c 0.304876,-0.11592 0.711253,-0.46438 0.94929,-0.814 0.117243,-0.17221 0.267455,-0.28673 0.381,-0.29048 0.103096,-0.003 0.301748,-0.079 0.441448,-0.16807 0.1397,-0.089 0.339689,-0.1996 0.44442,-0.24569 0.307227,-0.1352 0.783246,-0.60995 0.783246,-0.78116 0,-0.15025 -0.01333,-0.15116 -0.275166,-0.0187 -0.151342,0.0765 -0.39645,0.22993 -0.544685,0.34084 -0.284517,0.2129 -0.654606,0.26567 -0.752486,0.10729 -0.03593,-0.0581 -0.218201,-0.079 -0.474621,-0.0544 -0.307339,0.0295 -0.481733,0.1027 -0.666333,0.27956 -0.293879,0.28155 -0.311491,0.37699 -0.08071,0.43734 0.43327,0.1133 0.01823,0.8712 -0.477084,0.8712 -0.19638,0 -0.200249,-0.0154 -0.200249,-0.79741 0,-0.98983 0.0271,-1.06526 0.382734,-1.06526 0.230845,0 0.325789,-0.0623 0.541275,-0.35534 0.143728,-0.19544 0.261324,-0.4031 0.261324,-0.46146 0,-0.0584 0.05371,-0.13658 0.119358,-0.17382 0.227238,-0.12891 0.721231,-0.91988 1.356023,-2.17124 0.723453,-1.42614 0.84868,-1.91715 0.575112,-2.25499 l -0.167447,-0.20679 -0.285356,0.22055 c -0.156946,0.1213 -0.456806,0.43653 -0.666356,0.70052 -0.20955,0.26399 -0.504825,0.62505 -0.656167,0.80237 -0.151342,0.17732 -0.275167,0.3592 -0.275167,0.40418 0,0.0801 -0.655132,1.04187 -0.766544,1.12536 -0.105358,0.0789 -0.310355,0.5481 -0.49943,1.143 -0.103601,0.32596 -0.238269,0.70696 -0.299259,0.84666 -0.06099,0.1397 -0.13759,0.56618 -0.17022,0.94773 -0.11058,1.29307 0.278747,1.91483 1.022049,1.63223 z m 0.230665,-3.67648 c 0.04828,-0.29754 0.121121,-0.43185 0.972696,-1.79369 0.625226,-0.99987 0.807503,-1.21612 1.025062,-1.21612 0.276971,0 0.225832,0.33638 -0.164401,1.08138 -0.706159,1.34815 -1.359248,2.21026 -1.679195,2.21661 -0.183044,0.004 -0.197219,-0.0229 -0.154162,-0.28818 z m 0.585441,-0.23698 c 0.684648,-0.84244 1.573427,-2.46714 1.406178,-2.57051 -0.134127,-0.0829 -0.38661,0.24726 -1.131673,1.4798 -0.626855,1.03699 -0.812339,1.45055 -0.650584,1.45055 0.046,0 0.215241,-0.16193 0.376079,-0.35984 z m -14.326701,-0.478 c 0,-0.11018 1.178415,-1.30623 1.507383,-1.52995 0.268015,-0.18227 0.286609,-0.18399 0.4445,-0.0411 0.226452,0.20494 0.206392,0.42488 -0.05525,0.60577 -0.121019,0.0837 -0.359144,0.27091 -0.529167,0.41609 -0.538947,0.46023 -1.367466,0.79297 -1.367466,0.54919 z m 0.764814,-0.30659 c 0.231286,-0.1172 0.420519,-0.24894 0.420519,-0.29276 0,-0.0438 0.17145,-0.18015 0.381,-0.30296 0.36209,-0.2122 0.49357,-0.46629 0.302413,-0.58443 -0.136669,-0.0845 -0.858348,0.46932 -1.161497,0.89128 -0.16031,0.22314 -0.337397,0.42435 -0.393527,0.44715 -0.05613,0.0228 -0.07221,0.0445 -0.03574,0.0481 0.03647,0.004 0.255548,-0.0892 0.486833,-0.20641 z"
         id="path1086" />
      <path
         style="fill:#a5393a;stroke-width:0.0846667"
         d="m 74.977139,177.96055 c -0.214176,-0.18727 -0.292222,-0.60606 -0.161461,-0.86641 0.09427,-0.1877 0.388221,-0.408 0.777831,-0.58295 0.599916,-0.26939 1.485785,-0.7122 1.747478,-0.87349 0.263636,-0.16249 0.328115,-0.17334 0.446411,-0.0752 0.08991,0.0746 0.118647,0.17658 0.08216,0.29152 -0.07729,0.24353 -0.740295,0.9979 -1.117951,1.27203 -0.42613,0.3093 -1.484421,0.9786 -1.550889,0.98082 -0.02977,0.001 -0.130378,-0.0649 -0.223583,-0.14635 z m 30.073911,-0.17163 c -0.98063,-0.63848 -1.66032,-1.06462 -1.92141,-1.20464 -0.35696,-0.19145 -0.46375,-0.37163 -0.32169,-0.5428 0.31443,-0.37886 1.88183,0.15318 2.66663,0.90515 0.39399,0.3775 0.55369,0.75937 0.41182,0.98469 -0.14283,0.22684 -0.31272,0.19788 -0.83535,-0.1424 z m 1.3317,-3.06818 c -0.77118,-0.0469 -1.08021,-0.0984 -1.17806,-0.19623 -0.10856,-0.10856 -0.11308,-0.15619 -0.0249,-0.26243 0.18392,-0.22161 0.67583,-0.30825 2.04789,-0.3607 l 1.32349,-0.0506 0.15314,0.23373 c 0.138,0.21061 0.14079,0.25577 0.0283,0.45679 -0.11525,0.20587 -0.17037,0.22385 -0.71463,0.23305 -0.32437,0.005 -1.06019,-0.0186 -1.63518,-0.0536 z m -34.124137,-0.72975 c -0.238724,-0.16721 -0.247931,-0.66531 -0.01461,-0.79018 0.112547,-0.0602 0.558455,-0.0615 1.418167,-0.004 1.65478,0.11058 1.974338,0.15852 2.030407,0.30463 0.135343,0.3527 -0.449225,0.50898 -2.142801,0.57287 -0.895296,0.0338 -1.147286,0.0175 -1.291166,-0.0833 z m 30.753397,-1.60191 c -0.12559,-0.3273 0.86125,-1.51772 1.53955,-1.85714 0.18514,-0.0926 0.41282,-0.23187 0.50595,-0.30939 0.18839,-0.1568 0.79278,-0.34364 0.89909,-0.27794 0.12199,0.0754 0.23133,0.62106 0.17022,0.84954 -0.0383,0.14305 -0.1946,0.29899 -0.43742,0.43632 -0.4884,0.2762 -1.6671,0.86691 -1.72983,0.86691 -0.0266,0 -0.19931,0.0953 -0.38373,0.21167 -0.38981,0.24608 -0.49441,0.26092 -0.56383,0.08 z m -25.936834,-0.47536 c -1.30661,-0.54033 -2.116667,-1.17795 -2.116667,-1.6661 0,-0.49405 0.360163,-0.44039 1.31727,0.19624 0.282114,0.18765 0.586914,0.38976 0.677333,0.44913 0.09042,0.0594 0.317824,0.18122 0.505346,0.27077 0.187523,0.0896 0.43124,0.25895 0.541594,0.37641 0.166556,0.17729 0.182387,0.23558 0.09318,0.34306 -0.123417,0.14871 -0.691075,0.16571 -1.01806,0.0305 z m 21.039666,-4.82132 c -0.505295,-0.40853 -0.620268,-0.6084 -0.460624,-0.80076 0.08419,-0.10144 0.196113,-0.12394 0.430262,-0.0865 0.187229,0.0299 0.33921,0.0138 0.372143,-0.0395 0.120373,-0.19476 0.477734,-0.25848 0.685648,-0.12225 0.265954,0.17426 0.252474,0.37695 -0.05041,0.75808 -0.137859,0.17347 -0.273776,0.38826 -0.302038,0.47731 -0.07403,0.23325 -0.198402,0.19891 -0.674976,-0.18641 z m -13.144499,-0.0702 c -0.243547,-0.20318 -0.239403,-0.32597 0.02159,-0.63978 l 0.211246,-0.254 0.211246,0.254 c 0.261047,0.31388 0.262983,0.38834 0.01613,0.62024 -0.233915,0.21975 -0.220874,0.2192 -0.460209,0.0195 z m 6.752166,-2.59884 c -0.555124,-0.64126 -0.68928,-0.95518 -0.50375,-1.17873 0.135692,-0.1635 0.831335,-0.16461 0.893953,-0.001 0.07895,0.20573 0.292829,0.22602 0.517736,0.0491 0.287084,-0.22582 0.54355,-0.21385 0.815365,0.0381 0.305396,0.28303 0.290881,0.57643 -0.04072,0.8231 -0.145613,0.10832 -0.419172,0.35886 -0.607909,0.55677 -0.188736,0.19791 -0.383922,0.35736 -0.433748,0.35434 -0.04982,-0.003 -0.338242,-0.29157 -0.640925,-0.64123 z"
         id="path1084" />
      <path
         style="fill:#36312b;stroke-width:0.0846667"
         d="m 82.070509,175.93141 c -0.189577,-0.068 -0.508,-0.37774 -0.508,-0.49409 0,-0.20522 0.273484,-0.31965 0.781277,-0.32688 l 0.519069,-0.007 0.323354,-0.46567 c 0.290465,-0.4183 0.323369,-0.51949 0.323494,-0.99483 1.69e-4,-0.50194 -0.0103,-0.52917 -0.202756,-0.52917 -0.127717,0 -0.304118,0.11529 -0.476076,0.31114 -0.331001,0.37698 -1.137504,1.04353 -1.262651,1.04353 -0.04971,0 -0.09038,-0.0754 -0.09038,-0.16762 0,-0.1078 0.113297,-0.2267 0.3175,-0.33321 0.489497,-0.25531 1.074872,-0.88471 1.343903,-1.44498 0.133978,-0.27902 0.283939,-0.5078 0.333248,-0.50841 0.347328,-0.004 0.714682,0.91065 0.714682,1.78006 0,0.53711 0.01536,0.58949 0.172907,0.58949 0.0951,0 0.218923,-0.0378 0.275167,-0.0841 0.231179,-0.19004 0.830809,-0.64927 1.106307,-0.84726 0.187957,-0.13508 0.399954,-0.42611 0.585902,-0.80434 0.5238,-1.06542 0.835707,-1.60242 1.155678,-1.98966 0.173145,-0.20955 0.406141,-0.56528 0.517768,-0.79052 0.241328,-0.48693 1.174757,-1.49548 1.384094,-1.49548 0.211735,0 0.446113,0.14167 0.510059,0.30831 0.03108,0.081 -0.03372,0.33134 -0.148544,0.57385 -0.112024,0.23659 -0.294278,0.6367 -0.405009,0.88912 -0.204578,0.46635 -0.551618,1.05109 -0.980107,1.6514 -0.130472,0.18279 -0.313422,0.47568 -0.406555,0.65086 -0.30195,0.56794 -1.072609,1.42979 -1.278518,1.42979 -0.152696,0 -0.198752,0.0621 -0.243774,0.32855 -0.06966,0.41232 0.02492,0.94074 0.178953,0.99985 0.06432,0.0247 0.249806,0.0199 0.412189,-0.0105 0.226699,-0.0425 0.467336,-0.23363 1.036529,-0.82318 0.407708,-0.42229 0.871639,-0.82389 1.030958,-0.89245 0.159319,-0.0686 0.460073,-0.25476 0.668342,-0.41378 0.448256,-0.34227 0.722033,-0.36807 0.907187,-0.0855 0.117019,0.1786 0.118804,0.2385 0.01451,0.48684 -0.06541,0.15575 -0.219826,0.43137 -0.343152,0.61249 -0.123325,0.18113 -0.224228,0.4383 -0.224228,0.5715 0,0.37588 0.327632,0.32217 0.846666,-0.13881 0.235942,-0.20955 0.456289,-0.3816 0.48966,-0.38234 0.03337,-7.6e-4 0.289273,-0.21101 0.568673,-0.46729 0.2794,-0.25627 0.65177,-0.56627 0.827488,-0.68888 l 0.319487,-0.22294 0.209679,0.19698 c 0.241823,0.22718 0.261713,0.41392 0.08126,0.76288 -0.07063,0.13659 -0.15201,0.42044 -0.180841,0.6308 -0.05047,0.36818 -0.04427,0.38246 0.165935,0.38246 0.141696,0 0.411062,-0.16349 0.767258,-0.46567 0.558227,-0.47358 0.730734,-0.55643 0.730734,-0.35097 0,0.14618 -0.712359,0.7833 -1.100666,0.98441 -0.162984,0.0844 -0.403071,0.25265 -0.533529,0.37385 -0.30383,0.28229 -0.408532,0.27731 -0.635882,-0.0302 -0.138122,-0.18682 -0.185256,-0.36992 -0.185256,-0.71966 0,-0.43082 -0.01554,-0.46888 -0.1905,-0.4664 -0.226392,0.003 -0.394602,0.11814 -1.3335,0.91123 -0.474448,0.40077 -0.804465,0.61007 -0.961916,0.61007 -0.06667,0 -0.240999,-0.13643 -0.387409,-0.30318 -0.253779,-0.28904 -0.263555,-0.32657 -0.209501,-0.80434 0.05443,-0.48107 0.04901,-0.50114 -0.135269,-0.50114 -0.158695,0 -0.688423,0.38871 -1.057571,0.77605 -0.446866,0.46888 -0.794893,0.77362 -0.958012,0.83887 -0.256994,0.1028 -0.832554,0.1003 -1.028316,-0.004 -0.214786,-0.11495 -0.342006,-0.52974 -0.342006,-1.11509 0,-0.74668 -0.136109,-0.70757 -1.549473,0.44523 -0.148973,0.1215 -0.44231,0.30369 -0.65186,0.40485 -0.20955,0.10116 -0.55245,0.2727 -0.762,0.38122 -0.467814,0.24225 -0.681449,0.30399 -0.846667,0.2447 z m 5.653746,-3.69931 c 0.09863,-0.21647 0.533123,-0.83312 0.925365,-1.31332 0.277112,-0.33925 0.697595,-1.16936 0.700325,-1.38257 0.0013,-0.0993 -0.06097,-0.14646 -0.188602,-0.14299 -0.248049,0.007 -0.739361,0.63976 -1.651,2.12722 -0.337226,0.55022 -0.36799,0.91561 -0.07709,0.91561 0.127121,0 0.231365,-0.0731 0.291003,-0.20395 z m 8.176878,3.50656 c -0.307903,-0.12424 -0.481021,-0.81344 -0.410744,-1.63522 0.03263,-0.38155 0.109229,-0.80803 0.17022,-0.94773 0.06099,-0.1397 0.195658,-0.5207 0.299259,-0.84666 0.189075,-0.5949 0.394072,-1.06406 0.49943,-1.143 0.111412,-0.0835 0.766544,-1.04528 0.766544,-1.12536 0,-0.045 0.123825,-0.22686 0.275167,-0.40418 0.151342,-0.17732 0.446617,-0.53838 0.656167,-0.80237 0.20955,-0.26399 0.50941,-0.57922 0.666356,-0.70052 l 0.285356,-0.22055 0.167447,0.20679 c 0.273568,0.33784 0.148341,0.82885 -0.575112,2.25499 -0.634792,1.25136 -1.128785,2.04233 -1.356023,2.17124 -0.06565,0.0372 -0.119358,0.11545 -0.119358,0.17382 0,0.0584 -0.117596,0.26602 -0.261324,0.46146 -0.215486,0.29301 -0.31043,0.35534 -0.541275,0.35534 -0.355632,0 -0.382734,0.0754 -0.382734,1.06526 0,0.782 0.0039,0.79741 0.200249,0.79741 0.495317,0 0.910354,-0.7579 0.477084,-0.8712 -0.230782,-0.0603 -0.21317,-0.15579 0.08071,-0.43734 0.1846,-0.17686 0.358994,-0.25003 0.666333,-0.27956 0.25642,-0.0246 0.438691,-0.004 0.474621,0.0544 0.09788,0.15838 0.467969,0.10561 0.752486,-0.10729 0.148235,-0.11091 0.393343,-0.26429 0.544685,-0.34084 0.261831,-0.13242 0.275166,-0.13151 0.275166,0.0187 0,0.17121 -0.476019,0.64596 -0.783246,0.78116 -0.104731,0.0461 -0.30472,0.15665 -0.44442,0.24569 -0.1397,0.089 -0.338352,0.16467 -0.441448,0.16807 -0.113545,0.004 -0.263757,0.11827 -0.381,0.29048 -0.238037,0.34962 -0.644414,0.69808 -0.94929,0.814 -0.2679,0.10185 -0.365117,0.10233 -0.611305,0.003 z m 1.578709,-3.86991 c 0.445407,-0.55484 0.630749,-0.84859 1.096618,-1.73799 0.390233,-0.745 0.441372,-1.08138 0.164401,-1.08138 -0.217559,0 -0.399836,0.21625 -1.025062,1.21612 -0.851575,1.36184 -0.924413,1.49615 -0.972696,1.79369 -0.04306,0.26532 -0.02888,0.29182 0.154162,0.28818 0.140519,-0.003 0.316983,-0.14776 0.582577,-0.47862 z M 83.315565,171.1959 c 0.05613,-0.0228 0.233217,-0.22401 0.393527,-0.44715 0.303149,-0.42196 1.024828,-0.97575 1.161497,-0.89128 0.191157,0.11814 0.05968,0.37223 -0.302413,0.58443 -0.20955,0.12281 -0.381,0.25914 -0.381,0.30296 0,0.0803 -0.784016,0.5116 -0.907352,0.49917 -0.03647,-0.004 -0.02039,-0.0253 0.03574,-0.0481 z"
         id="path1082" />
    </g>
  </g>
</svg>
