<?xml version="1.0" encoding="UTF-8" standalone="no"?>
<!-- Created with Inkscape (http://www.inkscape.org/) -->

<svg
   width="40.367058mm"
   height="13.18432mm"
   viewBox="0 0 40.367057 13.184321"
   version="1.1"
   id="svg5"
   xmlns="http://www.w3.org/2000/svg"
   xmlns:svg="http://www.w3.org/2000/svg">
  <defs
     id="defs2" />
  <g
     id="layer1"
     transform="translate(-74.272079,-150.54115)">
    <g
       id="g854"
       transform="translate(0.72293815,3.8273196)">
      <path
         style="fill:#635f5a;stroke-width:0.0846667"
         d="m 91.452457,158.04229 c -0.354827,-0.27911 -0.427434,-0.4769 -0.265684,-0.72376 0.125028,-0.19082 0.18558,-0.20863 0.633879,-0.18641 0.375245,0.0186 0.534767,-0.0108 0.656691,-0.12118 0.389455,-0.35245 0.76019,-1.48717 0.531971,-1.62822 -0.06342,-0.0392 -0.269245,0.0953 -0.538843,0.35214 -1.335869,1.27255 -2.662825,2.06507 -3.526563,2.10621 -0.288648,0.0137 -0.536587,-0.0228 -0.65223,-0.096 -0.271436,-0.17203 -0.645214,-0.84871 -0.593438,-1.07435 0.09456,-0.41207 0.286289,-0.80531 0.640491,-1.31365 0.471246,-0.67631 0.955295,-0.94588 1.740247,-0.96914 0.615664,-0.0182 0.812263,0.0893 0.812263,0.44416 0,0.24033 -0.441389,0.7192 -0.860343,0.9334 -0.353063,0.18051 -1.316473,0.84599 -1.469459,1.01504 -0.12176,0.13454 -0.129449,0.18797 -0.04218,0.29312 0.0587,0.0707 0.194145,0.12859 0.300999,0.12859 0.22581,0 0.863174,-0.26043 1.201627,-0.49099 0.128897,-0.0878 0.482009,-0.32542 0.784692,-0.52802 1.711285,-1.14547 1.66407,-1.1043 1.917354,-1.67187 0.109764,-0.24596 0.258602,-0.46986 0.33075,-0.49754 0.360552,-0.13836 0.8308,0.83399 0.843157,1.74342 0.0042,0.30853 0.04707,0.55789 0.09891,0.57517 0.05033,0.0168 0.381252,-0.19975 0.735387,-0.48117 0.354133,-0.28142 0.700071,-0.51167 0.768749,-0.51167 0.06868,0 0.260847,-0.14696 0.427041,-0.32659 0.465999,-0.50365 1.493027,-0.75756 2.112142,-0.52217 0.163455,0.0621 0.217179,0.14264 0.217179,0.32541 0,0.18691 -0.09613,0.3239 -0.417357,0.59476 -0.229546,0.19356 -0.45006,0.35192 -0.490031,0.35192 -0.03997,0 -0.204586,0.11276 -0.36581,0.25056 -0.161225,0.13781 -0.3198,0.25211 -0.352391,0.254 -0.08828,0.005 -0.81721,0.50733 -0.877154,0.60433 -0.07683,0.12431 0.127105,0.33045 0.326932,0.33045 0.295389,0 0.753717,-0.19345 1.351177,-0.57031 0.314801,-0.19856 0.595322,-0.36103 0.623379,-0.36103 0.02806,0 0.170544,-0.0972 0.316634,-0.21593 0.146092,-0.11876 0.4773,-0.38153 0.736019,-0.58393 0.357938,-0.28002 0.498249,-0.45611 0.586892,-0.73657 0.06407,-0.20271 0.223866,-0.51895 0.355104,-0.70275 0.13124,-0.18379 0.23861,-0.36054 0.23861,-0.39277 0,-0.0683 0.56542,-1.0398 0.78472,-1.34837 0.62295,-0.87655 0.9548,-1.27479 1.32398,-1.58882 0.4799,-0.40821 0.75419,-0.42018 1.00088,-0.0437 0.1275,0.19459 0.12363,0.24845 -0.0583,0.8151 -0.10717,0.33371 -0.28182,0.71055 -0.38811,0.83743 -0.10628,0.12687 -0.24016,0.37452 -0.2975,0.55033 -0.0573,0.17581 -0.29163,0.58635 -0.52065,0.91232 -0.39947,0.56856 -0.63467,0.91081 -1.29468,1.88383 -0.22092,0.32569 -0.35497,0.4445 -0.50151,0.4445 -0.23622,0 -0.30279,0.13884 -0.30279,0.63156 0,0.46058 0.15367,0.61175 0.45916,0.45169 0.11906,-0.0624 0.59499,-0.46498 1.05764,-0.89467 0.46265,-0.42969 0.90307,-0.78125 0.97872,-0.78125 0.24427,0 0.62465,-0.24732 0.73822,-0.47998 0.1782,-0.36504 0.67656,-0.58877 1.35195,-0.60691 0.70169,-0.0189 0.91764,0.0743 0.91764,0.39593 0,0.27939 -0.3549,0.64208 -0.97366,0.99504 -0.55638,0.31738 -1.36612,0.93266 -1.42321,1.08143 -0.0546,0.14218 0.0946,0.30783 0.27717,0.30783 0.18246,0 1.00512,-0.30639 1.15365,-0.42965 0.0668,-0.0554 0.22927,-0.16239 0.3611,-0.23772 0.61739,-0.35278 0.82987,-0.49821 1.15879,-0.79313 0.19476,-0.17463 0.39747,-0.3175 0.45046,-0.3175 0.0537,0 0.0964,0.13118 0.0964,0.29609 0,0.35742 -0.38783,0.82396 -1.07771,1.29644 -1.44017,0.98634 -2.66422,1.15186 -2.93687,0.39713 -0.12048,-0.33348 -0.38527,-0.71966 -0.49345,-0.71966 -0.0472,0 -0.24777,0.16192 -0.44562,0.35983 -0.73451,0.73465 -0.94945,0.86086 -1.44626,0.84923 -0.249168,-0.006 -0.495423,-0.0368 -0.547236,-0.0688 -0.162007,-0.10012 -0.418858,-0.80057 -0.418858,-1.14225 0,-0.17966 -0.03912,-0.35084 -0.08694,-0.38039 -0.04782,-0.0296 -0.304994,0.13012 -0.5715,0.35484 -0.656599,0.55363 -0.918579,0.72994 -1.41589,0.95287 -0.524405,0.23507 -1.281271,0.29884 -1.540206,0.12977 -0.256319,-0.16736 -0.716478,-0.85464 -0.686094,-1.02473 0.04744,-0.26557 -0.158316,-0.20205 -0.718046,0.22168 -0.309002,0.23392 -0.576463,0.42531 -0.594357,0.42531 -0.01789,0 -0.372007,0.19041 -0.786916,0.42314 -0.830558,0.46587 -1.086643,0.5105 -1.420831,0.24763 z m 1.411856,-0.41677 c 0.406065,-0.23283 0.757982,-0.42333 0.78204,-0.42333 0.02406,0 0.289208,-0.1905 0.589221,-0.42334 0.651276,-0.50544 0.889,-0.54719 0.889,-0.15615 0,0.25613 0.289503,0.74684 0.579151,0.98165 0.472075,0.38271 1.995835,-0.22932 3.000735,-1.20527 0.168513,-0.16366 0.38275,-0.29756 0.476081,-0.29756 0.17414,0 0.18355,0.0281 0.297583,0.88702 0.02458,0.18517 0.117221,0.43282 0.205864,0.55033 0.13575,0.17996 0.228562,0.21313 0.588532,0.21038 0.34794,-0.003 0.46946,-0.0454 0.65393,-0.22984 0.12461,-0.12462 0.29892,-0.24954 0.38735,-0.2776 0.0884,-0.0281 0.16077,-0.0793 0.16077,-0.11392 0,-0.0346 0.11883,-0.18442 0.26405,-0.33296 0.26893,-0.27507 0.66729,-0.36821 0.66729,-0.15603 0,0.0627 0.0739,0.19921 0.16413,0.30329 0.0903,0.10409 0.18856,0.30046 0.21841,0.43637 0.0373,0.17002 0.12057,0.26376 0.26673,0.30044 0.33555,0.0842 1.04845,-0.0233 1.5034,-0.22673 0.41607,-0.18605 0.50838,-0.24542 0.81673,-0.52525 0.0898,-0.0815 0.19352,-0.14817 0.23051,-0.14817 0.12674,0 0.77806,-0.66274 0.85803,-0.87306 0.12037,-0.31661 0.0154,-0.33497 -0.27975,-0.0489 -0.34794,0.33728 -0.78251,0.63633 -1.17469,0.80838 -0.17463,0.0766 -0.3175,0.16886 -0.3175,0.20502 0,0.12105 -0.93324,0.41657 -1.31551,0.41657 -0.37062,0 -0.37775,-0.005 -0.37391,-0.27516 0.003,-0.22107 0.0713,-0.32511 0.34647,-0.52917 0.1884,-0.1397 0.42884,-0.3302 0.5343,-0.42333 0.10546,-0.0931 0.3769,-0.26459 0.6032,-0.381 1.16869,-0.60122 1.20207,-1.27225 0.0564,-1.13312 -0.5098,0.0619 -1.12091,0.33372 -1.12091,0.49855 0,0.20042 -0.30053,0.44844 -0.66099,0.5455 -0.30404,0.0819 -0.61004,0.3297 -1.80721,1.46372 -0.25752,0.24393 -0.54754,0.35339 -0.80594,0.30419 -0.12568,-0.0239 -0.159746,-0.12439 -0.180781,-0.53314 -0.03706,-0.7202 0.02152,-0.8917 0.304611,-0.8917 0.18268,0 0.26937,-0.0682 0.40055,-0.31524 0.0921,-0.17339 0.26521,-0.43056 0.38473,-0.5715 0.11952,-0.14095 0.30768,-0.40866 0.41813,-0.59493 0.11046,-0.18627 0.35971,-0.54822 0.55389,-0.80433 0.19417,-0.25612 0.38109,-0.55466 0.41537,-0.66344 0.0575,-0.18255 0.0481,-0.19013 -0.12317,-0.0985 -0.10202,0.0546 -0.2485,0.21489 -0.32551,0.3562 -0.077,0.14131 -0.30194,0.45005 -0.49985,0.6861 -0.19791,0.23605 -0.35983,0.46003 -0.35983,0.49773 0,0.0377 -0.10021,0.0686 -0.22268,0.0686 -0.21423,0 -0.22103,-0.0146 -0.17921,-0.3856 0.0239,-0.21209 0.10044,-0.43116 0.17008,-0.48684 0.0696,-0.0557 0.28347,-0.34887 0.47518,-0.65156 0.6896,-1.0888 1.36529,-1.59294 1.36529,-1.01865 0,0.4386 0.22751,0.2049 0.42115,-0.43261 0.20299,-0.66829 0.17072,-0.89513 -0.13835,-0.9727 -0.16211,-0.0407 -0.26841,3e-5 -0.43886,0.16812 -0.12372,0.122 -0.36989,0.36515 -0.54706,0.54033 -0.17716,0.17518 -0.42133,0.48996 -0.5426,0.69951 -0.12126,0.20955 -0.26286,0.4191 -0.31466,0.46567 -0.11602,0.10429 -0.72562,1.1301 -0.72562,1.22103 0,0.0362 -0.10844,0.2156 -0.24098,0.39857 -0.13254,0.18296 -0.306893,0.5311 -0.387448,0.77363 -0.08751,0.26347 -0.237583,0.50841 -0.372849,0.60854 -0.404139,0.29918 -0.620911,0.46559 -0.891773,0.6846 -0.14627,0.11828 -0.361196,0.26176 -0.477613,0.31886 -0.116416,0.0571 -0.383116,0.21673 -0.592666,0.35475 -0.575193,0.37886 -0.756858,0.44541 -1.3335,0.48852 -0.529167,0.0396 -0.529167,0.0396 -0.529167,-0.25256 0,-0.2576 0.05327,-0.32882 0.450696,-0.60253 0.247884,-0.17073 0.488892,-0.31041 0.535575,-0.31041 0.04668,0 0.174361,-0.0952 0.283729,-0.21167 0.109368,-0.11641 0.245441,-0.21166 0.302386,-0.21166 0.05694,0 0.227398,-0.10478 0.378786,-0.23284 0.709115,-0.59983 0.725203,-0.67359 0.18815,-0.86258 -0.321975,-0.11329 -0.389057,-0.10729 -0.966948,0.0865 -0.491763,0.16493 -0.656315,0.26445 -0.790839,0.47831 -0.09343,0.14853 -0.227018,0.27222 -0.296868,0.27486 -0.146928,0.006 -0.64076,0.32954 -1.196366,0.78488 -0.213074,0.17463 -0.469083,0.3175 -0.568907,0.3175 -0.168197,0 -0.181079,-0.0419 -0.175755,-0.5715 0.0056,-0.55884 -0.218589,-1.41786 -0.439558,-1.68411 -0.160439,-0.19332 -0.310863,-0.12945 -0.411208,0.1746 -0.134137,0.40644 -0.561959,0.97202 -0.80522,1.06451 -0.112581,0.0428 -0.482782,0.28329 -0.822673,0.53441 -0.339889,0.25111 -0.75133,0.52478 -0.914313,0.60815 -0.162983,0.0834 -0.316148,0.18195 -0.340366,0.21909 -0.104126,0.15966 -0.89098,0.41685 -1.275321,0.41685 -0.416313,0 -0.416313,0 -0.416313,-0.29018 0,-0.21781 0.05807,-0.33373 0.232833,-0.46475 0.128059,-0.096 0.270934,-0.20465 0.3175,-0.24144 0.04657,-0.0368 0.266616,-0.18008 0.488999,-0.31842 0.995394,-0.61924 1.181021,-0.75219 1.29671,-0.92875 0.256102,-0.39087 -0.08587,-0.60497 -0.799791,-0.50075 -0.408217,0.0596 -1.197584,0.40926 -1.197584,0.53049 0,0.0381 -0.125683,0.23753 -0.279295,0.44308 -0.153613,0.20555 -0.358521,0.57052 -0.455351,0.81105 -0.176056,0.43732 -0.176056,0.43732 0.02967,0.80433 0.274214,0.48918 0.410309,0.57868 0.879952,0.57868 0.358781,0 1.316024,-0.33354 1.433686,-0.49955 0.02328,-0.0329 0.194734,-0.15189 0.381,-0.26453 0.562139,-0.33995 1.733288,-1.27156 1.925726,-1.53185 0.108365,-0.14657 0.258647,-0.24407 0.376197,-0.24407 0.181796,0 0.195744,0.0346 0.195744,0.48562 0,0.36077 -0.05936,0.60294 -0.2309,0.94198 -0.295283,0.58362 -0.508518,0.72678 -0.98518,0.66145 -0.256103,-0.0351 -0.419568,-0.0118 -0.548098,0.0783 -0.234605,0.16433 -0.230488,0.24839 0.02466,0.50354 0.305228,0.30523 0.594657,0.2615 1.426587,-0.21552 z m 10.557597,-1.89024 c 0,-0.32092 0.54507,-0.73443 0.9681,-0.73443 0.17366,0 0.21723,0.0413 0.21723,0.20597 0,0.12754 -0.0609,0.22528 -0.15989,0.2567 -0.0879,0.0279 -0.26136,0.14478 -0.38537,0.25971 -0.29828,0.27644 -0.64007,0.28287 -0.64007,0.012 z m 0.59848,-0.17599 c 0.13306,-0.11197 0.28818,-0.21899 0.34471,-0.23783 0.0565,-0.0189 0.0747,-0.0797 0.0403,-0.13533 -0.0733,-0.11852 -0.31774,-0.0153 -0.62369,0.2634 -0.37379,0.34045 -0.15507,0.44105 0.23865,0.10976 z m -15.161149,0.0796 c 0,-0.14609 0.09471,-0.27297 0.315987,-0.42334 0.417551,-0.28373 0.700013,-0.2867 0.700013,-0.007 0,0.25782 -0.4721,0.63931 -0.791158,0.63931 -0.18251,0 -0.224842,-0.0393 -0.224842,-0.20861 z m 0.656167,-0.15741 c 0.219038,-0.19719 0.244048,-0.31131 0.06822,-0.31131 -0.189997,0 -0.590822,0.38163 -0.520439,0.49551 0.06866,0.1111 0.170084,0.0698 0.452219,-0.1842 z m 6.709833,0.16012 c 0,-0.24883 0.393179,-0.5561 0.71157,-0.5561 0.339076,0 0.304133,0.37438 -0.0554,0.5936 -0.391679,0.23881 -0.656166,0.22369 -0.656166,-0.0375 z m 0.604454,-0.12676 c 0.143682,-0.1174 0.174202,-0.1895 0.108551,-0.25642 -0.06618,-0.0675 -0.153607,-0.0441 -0.3175,0.0848 -0.124395,0.0978 -0.226172,0.21324 -0.226172,0.25643 0,0.13152 0.223742,0.0879 0.435121,-0.0848 z m 4.560215,-1.71464 c 0.20955,-0.2822 0.53713,-0.68947 0.72796,-0.90506 0.58688,-0.66303 0.67836,-1.35149 0.10682,-0.80392 -0.25182,0.24126 -1.27037,1.72651 -1.3655,1.99117 -0.0486,0.13527 -0.001,0.24652 0.10033,0.236 0.0272,-0.003 0.22084,-0.23599 0.43039,-0.51819 z m -19.801525,4.04959 c -0.16521,-0.19906 -0.198751,-0.83405 -0.06664,-1.26156 0.138509,-0.4482 0.08675,-0.53561 -0.231323,-0.39069 -0.455755,0.20766 -0.666282,-0.33119 -0.219636,-0.56216 0.140186,-0.0725 0.519113,-0.35922 0.842061,-0.63718 0.322949,-0.27795 0.640497,-0.50537 0.705662,-0.50537 0.168616,0 0.398728,0.2786 0.398728,0.48274 0,0.20654 -0.286317,0.87494 -0.563186,1.31475 -0.217326,0.34522 -0.255957,0.57318 -0.09713,0.57318 0.155593,0 1.048112,-0.95349 1.238607,-1.32323 0.09288,-0.18027 0.308219,-0.46112 0.478528,-0.6241 0.309654,-0.29634 0.309654,-0.29634 0.557753,-0.0198 0.3034,0.33813 0.311207,0.57825 0.03643,1.12049 -0.235357,0.46446 -0.272391,0.86021 -0.09433,1.00799 0.163602,0.13577 0.769269,-0.33388 1.138706,-0.883 0.260538,-0.38726 0.278031,-0.4545 0.226182,-0.86949 -0.08601,-0.68843 0.248864,-0.91356 0.760391,-0.51119 0.216071,0.16996 0.229995,0.21714 0.187005,0.63368 -0.05722,0.55443 -0.596401,1.40557 -1.252497,1.97717 -0.520849,0.45378 -0.605914,0.49383 -1.065129,0.50156 -0.308663,0.005 -0.386776,-0.0342 -0.613833,-0.30967 -0.148959,-0.18072 -0.260164,-0.41382 -0.260164,-0.54534 0,-0.37968 -0.157904,-0.3612 -0.530514,0.0621 -0.671982,0.76341 -1.318511,1.07901 -1.575675,0.76914 z m 0.903123,-0.30584 c 0.190488,-0.13799 0.472429,-0.42226 0.626537,-0.6317 0.337635,-0.45888 0.661196,-0.53388 0.661196,-0.15326 0,0.33124 0.273034,0.80427 0.540134,0.93578 0.308057,0.15168 0.765986,-5e-4 1.136108,-0.37749 0.153583,-0.15645 0.312401,-0.28445 0.352928,-0.28445 0.04053,0 0.160507,-0.14287 0.266622,-0.3175 0.106115,-0.17462 0.219355,-0.33655 0.251645,-0.35983 0.105891,-0.0764 0.399998,-0.71389 0.456387,-0.98932 0.06653,-0.32496 -0.174052,-0.61935 -0.506157,-0.61935 -0.204908,0 -0.211667,0.0183 -0.211667,0.57247 0,0.50348 -0.03316,0.62296 -0.275167,0.99143 -0.319067,0.48581 -0.851,0.88459 -1.185333,0.88863 -0.226286,0.003 -0.232833,-0.0104 -0.232833,-0.46567 0,-0.32688 0.06151,-0.58988 0.203506,-0.87009 0.182424,-0.35999 0.192061,-0.42882 0.09303,-0.66435 -0.06076,-0.14452 -0.158105,-0.29219 -0.216315,-0.32816 -0.123868,-0.0766 -0.502593,0.3394 -0.771659,0.84752 -0.245682,0.46395 -1.150453,1.31422 -1.398467,1.31422 -0.266953,0 -0.264947,-0.36732 0.0042,-0.76351 0.297938,-0.43861 0.579467,-1.14067 0.547516,-1.36537 -0.04929,-0.34664 -0.298556,-0.27739 -0.896129,0.24894 -0.314225,0.27676 -0.657044,0.54761 -0.761819,0.60189 -0.104775,0.0543 -0.1905,0.15449 -0.1905,0.2227 0,0.14006 0.216338,0.16879 0.296334,0.0394 0.02878,-0.0466 0.145328,-0.0847 0.258997,-0.0847 0.172169,0 0.206669,0.0415 0.206669,0.24849 0,0.13666 -0.04138,0.35574 -0.09196,0.48683 -0.104559,0.271 -0.121116,0.68681 -0.0378,0.94931 0.08238,0.25955 0.458438,0.2282 0.874029,-0.0728 z"
         id="path860" />
      <path
         style="fill:#a5393a;stroke-width:0.0846667"
         d="m 76.334719,159.68844 c -0.234805,-0.29851 -0.228104,-0.71586 0.01502,-0.93551 0.104775,-0.0947 0.40005,-0.27886 0.656167,-0.40934 0.256116,-0.13047 0.522816,-0.26931 0.592666,-0.30852 0.06985,-0.0392 0.21249,-0.10826 0.316978,-0.15346 0.104487,-0.0452 0.29328,-0.14985 0.41954,-0.23258 0.326673,-0.21405 0.75701,-0.34867 0.87717,-0.27441 0.193252,0.11944 -0.0034,0.50003 -0.567265,1.09774 -0.307414,0.32587 -0.606804,0.59249 -0.665311,0.59249 -0.05851,0 -0.157102,0.0611 -0.219098,0.13583 -0.062,0.0747 -0.190487,0.17092 -0.285534,0.21382 -0.09505,0.0429 -0.302272,0.17229 -0.4605,0.28752 -0.363498,0.26471 -0.462485,0.26273 -0.679835,-0.0136 z m 34.283851,0.0772 c -0.0699,-0.0274 -0.24489,-0.13912 -0.38899,-0.24829 -0.14409,-0.10917 -0.28456,-0.1985 -0.31215,-0.1985 -0.0276,0 -0.29069,-0.16265 -0.58467,-0.36145 -0.29399,-0.1988 -0.62977,-0.41022 -0.74619,-0.46981 -0.7624,-0.39027 -0.83373,-0.50169 -0.47266,-0.73827 0.21058,-0.13798 0.76211,-0.10261 0.8596,0.0551 0.0255,0.0413 0.11656,0.0751 0.20232,0.0751 0.21852,0 0.92965,0.34718 1.22084,0.59602 0.63574,0.54328 0.65613,0.57406 0.62889,0.94939 -0.0263,0.36231 -0.13015,0.44926 -0.40699,0.34071 z m 1.20664,-3.16552 c -1.20397,-0.069 -1.5453,-0.14948 -1.5453,-0.36421 0,-0.30389 0.65689,-0.45571 2.18777,-0.50566 1.02732,-0.0335 1.14407,-0.0222 1.29117,0.12488 0.35496,0.35496 0.0713,0.85294 -0.47095,0.82661 -0.14098,-0.007 -0.79919,-0.0436 -1.46269,-0.0816 z m -37.943658,-0.60333 c -0.331014,-0.17406 -0.409863,-0.36823 -0.258607,-0.63683 0.130703,-0.23211 0.130703,-0.23211 1.354666,-0.20516 1.840638,0.0405 2.496605,0.20548 2.206604,0.55491 -0.204959,0.24696 -2.928715,0.48372 -3.302663,0.28708 z m 34.281688,-1.67599 c 0,-0.32895 0.80192,-1.43044 1.04488,-1.43521 0.0392,-7.7e-4 0.22699,-0.13475 0.4174,-0.29774 0.19041,-0.16298 0.39135,-0.29633 0.44654,-0.29633 0.0552,0 0.19121,-0.0701 0.30226,-0.15587 0.24538,-0.18943 0.52914,-0.26836 0.66434,-0.1848 0.0551,0.034 0.13359,0.21011 0.17444,0.39126 0.0794,0.35179 -0.0775,0.75704 -0.34053,0.87981 -0.0699,0.0326 -0.21272,0.1033 -0.3175,0.15711 -0.34502,0.17717 -0.48337,0.24489 -0.78316,0.3833 -0.16299,0.0753 -0.35349,0.17245 -0.42334,0.21601 -0.26629,0.16606 -0.90618,0.42985 -1.04273,0.42985 -0.0784,0 -0.1426,-0.0393 -0.1426,-0.0874 z m -29.421666,-0.22925 c -0.182779,-0.0418 -0.585909,-0.20519 -1.058333,-0.42891 -0.439156,-0.20797 -1.072008,-0.75886 -1.184927,-1.03147 -0.305307,-0.73708 0.165915,-0.83008 1.064836,-0.21016 0.322167,0.22217 0.642908,0.45237 0.712758,0.51155 0.06985,0.0592 0.37465,0.23543 0.677333,0.39166 0.394442,0.20358 0.558011,0.33749 0.577438,0.47272 0.01491,0.10377 -0.02319,0.20437 -0.08467,0.22355 -0.249451,0.0779 -0.544575,0.10762 -0.704439,0.0711 z m 2.942167,-2.16871 c -0.441471,-0.43493 -0.539507,-0.68778 -0.3429,-0.88439 0.130722,-0.13072 0.531546,-0.13063 0.740991,1.7e-4 0.129167,0.0807 0.209076,0.0771 0.385363,-0.0173 0.248134,-0.1328 0.487085,-0.0442 0.534836,0.19842 0.02683,0.13629 -0.702249,1.16357 -0.815239,1.14868 -0.0322,-0.004 -0.258576,-0.20477 -0.503051,-0.44563 z m 28.203669,-0.77375 c -0.0293,-0.0764 -0.0127,-0.17955 0.0369,-0.22917 0.129,-0.129 0.37341,-0.0111 0.33972,0.16387 -0.0375,0.19489 -0.30884,0.24193 -0.37662,0.0653 z m -15.096064,-1.68836 c -0.368484,-0.37546 -0.368484,-0.37546 -0.144628,-0.6415 0.123121,-0.14632 0.223856,-0.30121 0.223856,-0.34421 0,-0.043 0.04762,-0.0782 0.105833,-0.0782 0.119755,0 0.5715,0.53449 0.5715,0.67618 0,0.0919 -0.321107,0.76315 -0.365092,0.76315 -0.01264,0 -0.188802,-0.16896 -0.391469,-0.37546 z m -7.208514,-0.69112 c -0.222976,-0.23888 -0.758661,-0.54209 -0.95774,-0.54209 -0.173366,0 -0.475184,-0.40668 -0.475184,-0.64027 0,-0.11058 0.100187,-0.27349 0.232833,-0.37859 0.196712,-0.15587 0.307704,-0.17783 0.715441,-0.14156 0.442384,0.0393 0.49396,0.0256 0.618815,-0.16495 0.114515,-0.17477 0.192473,-0.20377 0.489488,-0.18209 0.300885,0.022 0.365661,0.0612 0.43677,0.26452 0.07214,0.20629 0.0292,0.3445 -0.315929,1.01691 -0.21968,0.42799 -0.399418,0.82539 -0.399418,0.8831 0,0.16469 -0.12197,0.12405 -0.345076,-0.11498 z m 17.163768,-1.42705 c -0.39448,-0.36559 -0.23255,-0.65791 0.3318,-0.59894 0.18325,0.0191 0.36588,0.037 0.40585,0.0397 0.10509,0.007 -0.0201,0.44456 -0.17706,0.61871 -0.17941,0.19908 -0.29483,0.18684 -0.56059,-0.0595 z"
         id="path858" />
      <path
         style="fill:#36312b;stroke-width:0.0846667"
         d="m 91.437726,157.84104 c -0.255151,-0.25515 -0.259268,-0.33921 -0.02466,-0.50354 0.12853,-0.09 0.291995,-0.11337 0.548098,-0.0783 0.476662,0.0653 0.689897,-0.0778 0.98518,-0.66145 0.17154,-0.33904 0.2309,-0.58121 0.2309,-0.94198 0,-0.45102 -0.01395,-0.48562 -0.195744,-0.48562 -0.11755,0 -0.267832,0.0975 -0.376197,0.24407 -0.192438,0.26029 -1.363587,1.1919 -1.925726,1.53185 -0.186266,0.11264 -0.357716,0.23168 -0.381,0.26453 -0.117662,0.16601 -1.074905,0.49955 -1.433686,0.49955 -0.469643,0 -0.605738,-0.0895 -0.879952,-0.57868 -0.20573,-0.36701 -0.20573,-0.36701 -0.02967,-0.80433 0.09683,-0.24053 0.301738,-0.6055 0.455351,-0.81105 0.153612,-0.20555 0.279295,-0.40494 0.279295,-0.44308 0,-0.12123 0.789367,-0.4709 1.197584,-0.53049 0.713925,-0.10422 1.055893,0.10988 0.799791,0.50075 -0.115689,0.17656 -0.301316,0.30951 -1.29671,0.92875 -0.222383,0.13834 -0.442432,0.28163 -0.488999,0.31842 -0.04657,0.0368 -0.189441,0.14543 -0.3175,0.24144 -0.174759,0.13102 -0.232833,0.24694 -0.232833,0.46475 0,0.29018 0,0.29018 0.416313,0.29018 0.384341,0 1.171195,-0.25719 1.275321,-0.41685 0.02422,-0.0371 0.177383,-0.13573 0.340366,-0.21909 0.162983,-0.0834 0.574424,-0.35704 0.914313,-0.60815 0.339891,-0.25112 0.710092,-0.4916 0.822673,-0.53441 0.243261,-0.0925 0.671083,-0.65807 0.80522,-1.06451 0.100345,-0.30405 0.250769,-0.36792 0.411208,-0.1746 0.220969,0.26625 0.445176,1.12527 0.439558,1.68411 -0.0053,0.52962 0.0076,0.5715 0.175755,0.5715 0.09982,0 0.355833,-0.14287 0.568907,-0.3175 0.555606,-0.45534 1.049438,-0.77933 1.196366,-0.78488 0.06985,-0.003 0.20344,-0.12633 0.296868,-0.27486 0.134524,-0.21386 0.299076,-0.31338 0.790839,-0.47831 0.577891,-0.19382 0.644973,-0.19982 0.966948,-0.0865 0.537053,0.18899 0.520965,0.26275 -0.18815,0.86258 -0.151388,0.12806 -0.321841,0.23284 -0.378786,0.23284 -0.05694,0 -0.193018,0.0952 -0.302386,0.21166 -0.109368,0.11642 -0.237045,0.21167 -0.283729,0.21167 -0.04668,0 -0.287691,0.13968 -0.535575,0.31041 -0.397423,0.27371 -0.450696,0.34493 -0.450696,0.60253 0,0.29212 0,0.29212 0.529167,0.25256 0.576642,-0.0431 0.758307,-0.10966 1.3335,-0.48852 0.20955,-0.13802 0.47625,-0.29766 0.592666,-0.35475 0.116417,-0.0571 0.331343,-0.20058 0.477613,-0.31886 0.270862,-0.21901 0.487634,-0.38542 0.891773,-0.6846 0.135266,-0.10013 0.285336,-0.34507 0.372849,-0.60854 0.08056,-0.24253 0.254911,-0.59067 0.387451,-0.77363 0.13254,-0.18297 0.24098,-0.36233 0.24098,-0.39857 0,-0.0909 0.6096,-1.11674 0.72562,-1.22103 0.0518,-0.0466 0.1934,-0.25612 0.31466,-0.46567 0.12127,-0.20955 0.36544,-0.52433 0.5426,-0.69951 0.17717,-0.17518 0.42334,-0.41833 0.54706,-0.54033 0.17045,-0.16809 0.27675,-0.20881 0.43886,-0.16812 0.30907,0.0776 0.34134,0.30441 0.13835,0.9727 -0.19364,0.63751 -0.42115,0.87121 -0.42115,0.43261 0,-0.57429 -0.67569,-0.0701 -1.36529,1.01865 -0.19171,0.30269 -0.40554,0.59589 -0.47518,0.65156 -0.0696,0.0557 -0.14618,0.27475 -0.17008,0.48684 -0.0418,0.37097 -0.035,0.3856 0.17921,0.3856 0.12247,0 0.22268,-0.0309 0.22268,-0.0686 0,-0.0377 0.16192,-0.26168 0.35983,-0.49773 0.19791,-0.23605 0.42284,-0.54479 0.49985,-0.6861 0.077,-0.14131 0.22349,-0.3016 0.32551,-0.3562 0.17123,-0.0916 0.1807,-0.0841 0.12317,0.0985 -0.0343,0.10878 -0.2212,0.40732 -0.41537,0.66344 -0.19418,0.25611 -0.44343,0.61806 -0.55389,0.80433 -0.11045,0.18627 -0.29861,0.45398 -0.41813,0.59493 -0.11952,0.14094 -0.29264,0.39811 -0.38473,0.5715 -0.13118,0.24702 -0.21787,0.31524 -0.40055,0.31524 -0.283091,0 -0.341676,0.1715 -0.304614,0.8917 0.02103,0.40875 0.0551,0.50921 0.180784,0.53314 0.2584,0.0492 0.54842,-0.0603 0.80594,-0.30419 1.19717,-1.13402 1.50317,-1.38185 1.80721,-1.46372 0.36046,-0.0971 0.66099,-0.34508 0.66099,-0.5455 0,-0.16483 0.61111,-0.43664 1.12091,-0.49855 0.52927,-0.0643 0.82642,0.0505 0.82642,0.31916 0,0.24076 -0.2921,0.51009 -0.88278,0.81396 -0.2263,0.11641 -0.49774,0.28786 -0.6032,0.381 -0.10546,0.0931 -0.3459,0.28363 -0.5343,0.42333 -0.27519,0.20406 -0.34332,0.3081 -0.34647,0.52917 -0.004,0.26992 0.003,0.27516 0.37391,0.27516 0.38227,0 1.31551,-0.29552 1.31551,-0.41657 0,-0.0362 0.14287,-0.12842 0.3175,-0.20502 0.39218,-0.17205 0.82675,-0.4711 1.17469,-0.80838 0.29512,-0.28606 0.40012,-0.2677 0.27975,0.0489 -0.08,0.21032 -0.73129,0.87306 -0.85803,0.87306 -0.037,0 -0.14072,0.0667 -0.23051,0.14817 -0.30835,0.27983 -0.40066,0.3392 -0.81673,0.52525 -0.45495,0.20343 -1.16785,0.31095 -1.5034,0.22673 -0.14616,-0.0367 -0.22939,-0.13042 -0.26673,-0.30044 -0.0298,-0.13591 -0.12813,-0.33228 -0.21841,-0.43637 -0.0903,-0.10408 -0.16413,-0.24057 -0.16413,-0.30329 0,-0.21218 -0.39836,-0.11904 -0.66729,0.15603 -0.14522,0.14854 -0.26405,0.29837 -0.26405,0.33296 0,0.0346 -0.0724,0.0858 -0.16077,0.11392 -0.0884,0.0281 -0.26274,0.15298 -0.38735,0.2776 -0.18447,0.18446 -0.30599,0.22717 -0.65393,0.22984 -0.359973,0.003 -0.452785,-0.0304 -0.588535,-0.21038 -0.08864,-0.11751 -0.181281,-0.36516 -0.205864,-0.55033 -0.114033,-0.85897 -0.123443,-0.88702 -0.297583,-0.88702 -0.09333,0 -0.307568,0.1339 -0.476081,0.29756 -0.378855,0.36794 -1.117633,0.86556 -1.662127,1.11957 -0.454418,0.21199 -1.129516,0.25521 -1.338608,0.0857 -0.289648,-0.23481 -0.579151,-0.72552 -0.579151,-0.98165 0,-0.39104 -0.237724,-0.34929 -0.889,0.15615 -0.300013,0.23284 -0.565163,0.42334 -0.589221,0.42334 -0.02406,0 -0.375975,0.1905 -0.78204,0.42333 -0.83193,0.47702 -1.121359,0.52075 -1.426587,0.21552 z m 12.624254,-2.11781 c 0.12401,-0.11493 0.29743,-0.23179 0.38537,-0.25971 0.099,-0.0314 0.15989,-0.12916 0.15989,-0.2567 0,-0.16466 -0.0436,-0.20597 -0.21723,-0.20597 -0.42303,0 -0.9681,0.41351 -0.9681,0.73443 0,0.27082 0.34179,0.26439 0.64007,-0.012 z m -14.469897,-0.0917 c 0.345162,-0.26327 0.398261,-0.6307 0.09114,-0.6307 -0.312157,0 -0.823987,0.39634 -0.823987,0.63806 0,0.16933 0.04233,0.20861 0.224842,0.20861 0.123662,0 0.352262,-0.0972 0.508,-0.21597 z m 7.289324,0.0476 c 0.359537,-0.21922 0.39448,-0.5936 0.0554,-0.5936 -0.318391,0 -0.71157,0.30727 -0.71157,0.5561 0,0.26119 0.264487,0.27631 0.656166,0.0375 z m -15.263927,1.9377 c -0.08331,-0.2625 -0.06676,-0.67831 0.0378,-0.94931 0.05058,-0.13109 0.09196,-0.35017 0.09196,-0.48683 0,-0.20701 -0.0345,-0.24849 -0.20667,-0.24849 -0.113668,0 -0.230217,0.0381 -0.258997,0.0847 -0.08,0.12944 -0.296333,0.10071 -0.296333,-0.0394 0,-0.0682 0.08572,-0.16843 0.1905,-0.2227 0.104775,-0.0543 0.447594,-0.32513 0.761819,-0.60189 0.597572,-0.52633 0.846839,-0.59558 0.896129,-0.24894 0.03195,0.2247 -0.249578,0.92676 -0.547517,1.36537 -0.269118,0.39619 -0.271124,0.76351 -0.0042,0.76351 0.248014,0 1.152786,-0.85027 1.398467,-1.31422 0.269066,-0.50812 0.647792,-0.92408 0.771659,-0.84752 0.05821,0.036 0.155551,0.18364 0.216316,0.32816 0.09903,0.23553 0.08939,0.30436 -0.09303,0.66435 -0.141992,0.28021 -0.203507,0.54321 -0.203507,0.87009 0,0.4553 0.0065,0.4684 0.232833,0.46567 0.334334,-0.004 0.866267,-0.40282 1.185334,-0.88863 0.242004,-0.36847 0.275166,-0.48795 0.275166,-0.99143 0,-0.55419 0.0068,-0.57247 0.211667,-0.57247 0.332106,0 0.57269,0.29439 0.506158,0.61935 -0.05639,0.27543 -0.350497,0.91297 -0.456388,0.98932 -0.03229,0.0233 -0.14553,0.18521 -0.251645,0.35983 -0.106114,0.17463 -0.226095,0.3175 -0.266621,0.3175 -0.04053,0 -0.199345,0.128 -0.352928,0.28445 -0.370123,0.37701 -0.828052,0.52917 -1.136108,0.37749 -0.267098,-0.13151 -0.540132,-0.60454 -0.540132,-0.93578 0,-0.38062 -0.323561,-0.30562 -0.661196,0.15326 -0.550587,0.74829 -1.365276,1.13081 -1.500565,0.70455 z"
         id="path856" />
    </g>
  </g>
</svg>
